<svg width="24" height="25" viewBox="0 0 24 25" fill="none" xmlns="http://www.w3.org/2000/svg">
<g clip-path="url(#clip0_774_1049)">
<path d="M18.3553 9.37917L19.1389 8.57126L21.9449 11.4033C21.9037 11.4467 21.8538 11.5023 21.8023 11.5544C20.6991 12.6699 19.5959 13.7836 18.4928 14.8955C18.4458 14.9396 18.4091 14.9936 18.385 15.0537C18.361 15.1137 18.3502 15.1783 18.3536 15.243C18.3536 18.2789 18.3536 21.313 18.3536 24.3455C18.3536 24.8563 18.2092 25.0022 17.7075 25.0022H0.570515C0.183889 25.0022 0.00518066 24.8285 0.00518066 24.4306C0.00518066 20.1067 0.00518066 15.7816 0.00518066 11.4554C0.00518066 9.45561 0.00518066 7.4593 0.00518066 5.45603C-2.1785e-05 5.33613 0.0206454 5.21652 0.0657482 5.10551C0.110851 4.9945 0.179307 4.89475 0.266366 4.81318C1.78194 3.2935 3.29236 1.76687 4.79762 0.23329C4.86736 0.157883 4.95212 0.0982933 5.04631 0.0584596C5.14051 0.0186258 5.24199 -0.000543302 5.34405 0.00221338C9.48524 0.00221338 13.6259 0.00221338 17.7659 0.00221338C18.1989 0.00221338 18.3604 0.167267 18.3604 0.606839V9.37743L18.3553 9.37917ZM5.69975 0.976914V5.20236C5.69975 5.57418 5.52791 5.76008 5.16534 5.76008C3.84566 5.76008 2.5277 5.76008 1.21317 5.76008H0.976039V24.0188H17.3879V16.0614L17.3294 16.0179C17.2925 16.084 17.2499 16.1468 17.2023 16.2056C16.2675 17.1554 15.3304 18.1028 14.3911 19.048C14.2988 19.1386 14.1871 19.2064 14.0646 19.2461C12.958 19.5936 11.8497 19.9358 10.7396 20.2729C10.6941 20.319 10.6322 20.3449 10.5678 20.3449C10.5033 20.3449 10.4415 20.319 10.396 20.2729C10.3504 20.2268 10.3248 20.1643 10.3248 20.0992C10.3248 20.034 10.3504 19.9715 10.396 19.9254C10.7236 18.8088 11.0592 17.6945 11.4029 16.5826C11.446 16.4456 11.5202 16.3207 11.6194 16.2177C13.4935 14.3135 15.3723 12.4133 17.2556 10.5172C17.3034 10.4736 17.341 10.4198 17.3657 10.3597C17.3903 10.2996 17.4014 10.2347 17.3982 10.1697C17.3982 7.17783 17.3982 4.18538 17.3982 1.19235C17.3982 1.11938 17.3982 1.04641 17.3896 0.968229L5.69975 0.976914ZM4.73061 4.78885V1.75355L1.72352 4.78885H4.73061ZM13.6952 18.916L11.7414 16.937C11.5438 17.5225 11.3428 18.1167 11.1503 18.7127C11.147 18.7441 11.1504 18.7758 11.1602 18.8057C11.1699 18.8357 11.1859 18.8632 11.207 18.8864C11.3903 19.0845 11.5793 19.2756 11.7741 19.4598C11.7978 19.4794 11.8255 19.4935 11.8551 19.5013C11.8848 19.5091 11.9157 19.5104 11.9459 19.505C12.5318 19.3138 13.1144 19.114 13.6952 18.916Z" fill="#D1CFD4"/>
<path d="M22.3266 11.0049L19.5635 8.20415C20.0687 7.68292 20.5807 7.16169 21.11 6.64046C21.1952 6.56131 21.3076 6.51871 21.4233 6.52162C21.539 6.52454 21.649 6.57275 21.7303 6.65609C22.4486 7.37192 23.1617 8.09296 23.8696 8.81921C23.9116 8.85905 23.9453 8.90692 23.9688 8.96005C23.9924 9.01317 24.0052 9.07049 24.0067 9.12868C24.0081 9.18687 23.9981 9.24476 23.9772 9.29901C23.9563 9.35325 23.925 9.40277 23.8851 9.44468C23.3747 9.97286 22.8403 10.4906 22.3266 11.0049Z" fill="#D1CFD4"/>
<path d="M9.18616 9.42898H3.72873C3.32492 9.42898 3.06201 9.18922 3.06201 8.82957C3.06201 8.46992 3.32664 8.21973 3.72357 8.21973H14.6591C15.0526 8.21973 15.3223 8.47513 15.3155 8.83478C15.3086 9.19443 15.0543 9.42898 14.6642 9.42898H9.18616Z" fill="#D1CFD4"/>
<path d="M8.14857 13.0556H3.66027C3.363 13.0556 3.19976 12.9583 3.1104 12.7168C3.05412 12.5997 3.0361 12.4677 3.05896 12.3396C3.08182 12.2115 3.14437 12.0942 3.23756 12.0044C3.36501 11.9049 3.52158 11.8511 3.68261 11.8515C5.84427 11.8428 8.00594 11.8515 10.1659 11.8515C10.9769 11.8515 11.7863 11.8706 12.5956 11.8515C13.1747 11.8341 13.3156 12.4179 13.1506 12.7689C13.1096 12.8649 13.0397 12.9454 12.9509 12.999C12.8621 13.0527 12.7588 13.0767 12.6558 13.0677C11.1539 13.0677 9.65039 13.0677 8.14857 13.0677V13.0556Z" fill="#D1CFD4"/>
<path d="M11.346 5.80169C10.2411 5.80169 9.13622 5.80169 8.03133 5.80169C7.92714 5.80836 7.82307 5.78702 7.72969 5.73984C7.63631 5.69265 7.55695 5.6213 7.49969 5.53304C7.44243 5.44478 7.40931 5.34276 7.40369 5.23736C7.39807 5.13196 7.42016 5.02694 7.46771 4.93297C7.52469 4.82102 7.61368 4.729 7.72309 4.66889C7.83249 4.60877 7.95726 4.58334 8.08116 4.5959C9.67234 4.5959 11.2641 4.5959 12.8564 4.5959C13.475 4.5959 14.0919 4.5959 14.7105 4.5959C14.8488 4.59209 14.9841 4.63747 15.0928 4.72415C15.2014 4.81082 15.2765 4.9333 15.305 5.07023C15.3371 5.20325 15.3222 5.34343 15.2629 5.46652C15.2036 5.58962 15.1036 5.68789 14.9803 5.74435C14.8705 5.78594 14.7538 5.80542 14.6366 5.80169C13.5403 5.80342 12.4423 5.80169 11.346 5.80169Z" fill="#D1CFD4"/>
<path d="M6.62771 16.6846H3.5347C3.26492 16.6846 3.1601 16.6151 3.09824 16.3458C3.06336 16.1914 3.05753 16.0316 3.08106 15.875C3.13261 15.564 3.26148 15.4736 3.57594 15.4736H9.6915C10.0352 15.4736 10.1554 15.5657 10.207 15.9063C10.2235 16.0772 10.209 16.2497 10.164 16.4153C10.1462 16.5014 10.0967 16.5774 10.0256 16.628C9.95445 16.6786 9.86701 16.7001 9.78085 16.6881C8.72923 16.6812 7.67761 16.6846 6.62771 16.6846Z" fill="#D1CFD4"/>
</g>
<defs>
<clipPath id="clip0_774_1049">
<rect width="24" height="25" fill="white"/>
</clipPath>
</defs>
</svg>
