<svg width="24" height="22" viewBox="0 0 24 22" fill="none" xmlns="http://www.w3.org/2000/svg">
<g clip-path="url(#clip0_774_1033)">
<path d="M7.23845 21.0526C7.23845 21.2455 7.24247 21.4017 7.23845 21.558C7.22974 21.839 7.08232 21.9952 6.80289 21.9966C5.75576 22.0015 4.70886 22.0015 3.66217 21.9966C3.37873 21.9966 3.23064 21.8437 3.21924 21.5653C3.21455 21.4512 3.21924 21.3363 3.21924 21.1988H2.69791C1.96081 21.1988 1.22371 21.1988 0.486612 21.1988C0.151566 21.1988 0.00213494 21.0546 0.00146484 20.7315C0.00146484 18.9067 0.00146484 17.0819 0.00146484 15.2572C0.00146484 14.9381 0.155587 14.7979 0.491303 14.7972C1.38722 14.7972 2.28246 14.7972 3.2179 14.7972C3.2179 14.667 3.21388 14.5462 3.2179 14.426C3.2293 14.159 3.37404 14.0014 3.64006 14.0001C4.69479 13.9948 5.74996 13.9948 6.80557 14.0001C7.08366 14.0001 7.22974 14.159 7.23711 14.442C7.24247 14.6423 7.23711 14.8426 7.23711 15.0763C7.45422 15.0262 7.65324 14.9835 7.85025 14.9347C8.33673 14.8132 8.82389 14.6937 9.30904 14.5656C9.99387 14.3833 10.6492 14.5302 11.3093 14.7098C13.0595 15.1846 14.8118 15.652 16.5661 16.1117C17.0084 16.2285 17.3944 16.4215 17.6678 16.8207C18.37 16.4201 19.0569 16.0236 19.745 15.6304C20.383 15.2652 21.0142 14.8867 21.6622 14.5395C21.9761 14.3736 22.3366 14.317 22.6866 14.3786C23.0365 14.4402 23.3557 14.6166 23.5935 14.8796C23.8314 15.1426 23.9742 15.4773 23.9993 15.8304C24.0244 16.1835 23.9303 16.5349 23.7321 16.8287C23.5851 17.0406 23.3946 17.219 23.1732 17.3521C20.9266 18.6566 18.6747 19.9522 16.4174 21.2389C15.9924 21.4806 15.5102 21.6048 15.0209 21.5987H9.01621C8.5793 21.5987 8.14841 21.4972 7.75777 21.3023C7.59494 21.2228 7.43144 21.1454 7.23845 21.0526ZM7.23845 15.9121V16.2025C7.23845 17.3855 7.25253 18.5685 7.22907 19.7508C7.22237 20.0672 7.3383 20.2027 7.60231 20.3476C8.22215 20.6888 8.86477 20.8216 9.57305 20.8109C11.3736 20.7829 13.1748 20.8109 14.9753 20.7902C15.3339 20.7899 15.6871 20.7038 16.0053 20.5392C18.2702 19.2661 20.5197 17.965 22.7732 16.6672C23.1853 16.4295 23.3126 15.9495 23.0895 15.5676C23.0348 15.4759 22.9625 15.3958 22.8767 15.3321C22.7909 15.2683 22.6933 15.222 22.5895 15.196C22.4857 15.1699 22.3777 15.1646 22.2718 15.1802C22.1659 15.1959 22.0642 15.2322 21.9724 15.2872C20.6725 16.0256 19.3756 16.7704 18.0819 17.5217C18.0471 17.5457 18.0177 17.5767 17.9955 17.6127C17.9734 17.6487 17.959 17.6888 17.9532 17.7306C17.8701 18.8789 16.9796 19.5378 15.8612 19.2467C14.316 18.8462 12.7754 18.4256 11.2342 18.011C10.9226 17.9276 10.7953 17.7473 10.8583 17.497C10.9186 17.258 11.133 17.1632 11.4439 17.246C12.4218 17.5036 13.3993 17.7629 14.3763 18.0237C14.9499 18.1766 15.5215 18.3368 16.0964 18.4837C16.7316 18.6459 17.2583 18.1893 17.1451 17.5744C17.0814 17.2273 16.8536 17.0303 16.5145 16.9402C14.7133 16.4622 12.9126 15.9815 11.1123 15.4982C10.6599 15.3774 10.207 15.2058 9.7332 15.3099C8.90095 15.4902 8.07741 15.7051 7.23912 15.9094L7.23845 15.9121ZM6.42027 21.1895V14.8159H4.04011V21.1868L6.42027 21.1895ZM3.20383 15.6204H0.824338V20.3883H3.20651L3.20383 15.6204Z" fill="#D1CFD4"/>
<path d="M16.495 2.00174C16.8549 2.00174 17.2154 2.00174 17.5752 2.00174C17.9652 2.00174 18.0966 2.13526 18.0979 2.53181C18.0979 2.907 18.0919 3.28153 18.1019 3.65605C18.1019 3.75085 18.1582 3.84364 18.1884 3.93777C18.2743 3.90361 18.3556 3.85874 18.4303 3.80425C18.7144 3.53321 18.9871 3.25148 19.2679 2.9771C19.5205 2.73009 19.7128 2.72742 19.9601 2.97109C20.4895 3.49316 21.0166 4.01744 21.5415 4.54395C21.7894 4.79297 21.7915 4.98457 21.5475 5.23291C21.2547 5.53066 20.9532 5.81973 20.663 6.12015C20.6123 6.17686 20.586 6.25123 20.59 6.3271C20.594 6.35848 20.7086 6.3972 20.7736 6.39854C21.1924 6.40521 21.6112 6.39854 22.03 6.40254C22.3758 6.40254 22.5198 6.54541 22.5205 6.88789C22.5232 7.62892 22.5232 8.37017 22.5205 9.11165C22.5205 9.45546 22.3764 9.59833 22.0327 9.60033C21.6139 9.60367 21.1951 9.60033 20.7769 9.60434C20.7099 9.60434 20.5967 9.64106 20.592 9.6711C20.5886 9.70831 20.5928 9.74582 20.6043 9.78138C20.6158 9.81694 20.6344 9.84982 20.659 9.87805C20.9491 10.1785 21.2507 10.4675 21.5435 10.7653C21.7888 11.0143 21.7888 11.2066 21.5435 11.4543C21.0186 11.9803 20.4917 12.5046 19.9628 13.0271C19.7168 13.2688 19.5172 13.2661 19.2679 13.0231C18.9864 12.7487 18.7137 12.4663 18.4296 12.196C18.3551 12.1412 18.2738 12.0963 18.1877 12.0624C18.1575 12.1479 18.1039 12.2333 18.1019 12.3195C18.0925 12.72 18.1019 13.1206 18.0972 13.5211C18.0972 13.8503 17.9498 13.9985 17.6241 13.9998C16.8701 14.0029 16.1164 14.0029 15.3633 13.9998C15.0242 13.9998 14.8835 13.8516 14.8815 13.5051C14.8815 13.0972 14.8848 12.6886 14.8774 12.2807C14.8638 12.2057 14.8382 12.1334 14.8017 12.0664C14.7347 12.0951 14.6449 12.1078 14.5933 12.1566C14.2978 12.4396 14.0124 12.7327 13.7222 13.0191C13.4589 13.2768 13.2712 13.2775 13.0119 13.0191C12.4892 12.5024 11.9679 11.9841 11.4479 11.4643C11.1872 11.2032 11.1866 11.0183 11.4439 10.7579C11.7381 10.4615 12.0376 10.1705 12.3284 9.87071C12.3726 9.82531 12.4149 9.73319 12.3954 9.68645C12.376 9.63972 12.2808 9.60367 12.2179 9.60234C11.791 9.59499 11.3635 9.60234 10.9366 9.59766C10.6083 9.59766 10.4609 9.45012 10.4595 9.12434C10.4568 8.37485 10.4568 7.62514 10.4595 6.8752C10.4595 6.54741 10.6063 6.40254 10.9346 6.39987C11.3621 6.39987 11.789 6.39987 12.2158 6.3952C12.2795 6.3952 12.376 6.35848 12.3948 6.31309C12.4135 6.26769 12.372 6.17356 12.3277 6.12816C12.0369 5.82841 11.7374 5.53734 11.4432 5.24092C11.1852 4.98056 11.1846 4.79497 11.4432 4.53461C11.9632 4.01522 12.4845 3.49716 13.0072 2.98044C13.2639 2.72742 13.4589 2.72809 13.7202 2.98044C13.9949 3.24748 14.2616 3.52587 14.5411 3.78957C14.6081 3.85633 14.7146 3.88504 14.8031 3.9311C14.8384 3.83709 14.8631 3.73946 14.8768 3.64003C14.8855 3.29021 14.8801 2.94038 14.8801 2.59056C14.8801 2.10188 14.988 1.99707 15.4892 1.99707L16.495 2.00174ZM13.3952 12.242C13.6002 12.0257 13.8234 11.8221 14.009 11.5891C14.3327 11.1825 14.6597 11.055 15.1676 11.3348C15.6554 11.6018 15.6836 11.5551 15.6836 12.1312V13.186H17.2677C17.2773 13.1672 17.2842 13.1472 17.2884 13.1266C17.2884 12.726 17.2998 12.3255 17.2884 11.9249C17.2817 11.6525 17.3903 11.4836 17.653 11.4015C17.7956 11.3538 17.935 11.2972 18.0704 11.2319C18.3693 11.0944 18.4792 11.1098 18.7157 11.3448C19.0106 11.6378 19.3034 11.9343 19.5761 12.2086C19.9648 11.8221 20.334 11.4543 20.7099 11.0811C20.7133 11.0891 20.7099 11.0704 20.6992 11.0597C20.4158 10.776 20.131 10.4936 19.8482 10.2099C19.6163 9.97753 19.6009 9.87205 19.7403 9.56629C19.8052 9.43123 19.8622 9.29259 19.9112 9.15104C19.9929 8.9047 20.1511 8.78987 20.4171 8.79588C20.8413 8.80523 21.2661 8.79588 21.6996 8.79588V7.19365C21.2507 7.19365 20.8165 7.19365 20.3822 7.19365C20.2812 7.20169 20.1804 7.17445 20.0973 7.11659C20.0141 7.05873 19.9538 6.97387 19.9266 6.87654C19.8696 6.72099 19.8046 6.56744 19.7356 6.41589C19.6016 6.11681 19.6157 6.01066 19.8556 5.77433C20.1517 5.48259 20.4519 5.19486 20.722 4.9325L19.5714 3.78356C19.296 4.06195 18.9985 4.35302 18.711 4.65477C18.5241 4.85038 18.3277 4.89978 18.0825 4.7676C17.9415 4.69447 17.7945 4.63371 17.6429 4.58601C17.3943 4.50323 17.2831 4.34367 17.2891 4.07997C17.2992 3.65805 17.2891 3.23613 17.2891 2.81154H15.6809C15.6809 3.25215 15.6755 3.67608 15.6809 4.09933C15.6856 4.35302 15.571 4.50523 15.3351 4.58601C15.1929 4.63447 15.0533 4.6904 14.917 4.75358C14.6007 4.89911 14.4962 4.8871 14.2502 4.64142C13.9561 4.34835 13.6639 4.0526 13.3557 3.74284C13.0086 4.09199 12.6856 4.41644 12.3619 4.74423C12.321 4.78496 12.2842 4.82968 12.2487 4.86907C12.2574 4.89311 12.2587 4.91313 12.2694 4.92382C12.51 5.16682 12.7506 5.41049 12.9931 5.65216C13.3912 6.05272 13.3912 6.04938 13.1687 6.55409C13.1352 6.63019 13.1057 6.7083 13.0762 6.78574C12.9422 7.14358 12.8692 7.19565 12.4879 7.19632H11.2724V8.79855C11.6 8.79855 11.919 8.82792 12.2313 8.79187C12.7325 8.73513 13.0648 8.88133 13.164 9.40673C13.1766 9.44626 13.1939 9.48414 13.2156 9.51956C13.3885 9.88673 13.3738 9.96951 13.0776 10.2633C12.7955 10.543 12.512 10.8207 12.2333 11.0951L13.3952 12.242Z" fill="#D1CFD4"/>
<path d="M8.58115 5.26714C8.72723 5.40066 8.88135 5.53418 9.01872 5.67838C9.20769 5.87866 9.21439 6.08228 9.02609 6.27922C8.66603 6.6513 8.29927 7.01647 7.9258 7.37475C7.72477 7.57102 7.5157 7.56234 7.3053 7.3634C7.1619 7.22988 7.02788 7.08101 6.83623 6.88407C6.83623 7.15444 6.83958 7.35138 6.83623 7.54432C6.82953 7.85275 6.68278 7.99962 6.36717 8.00229C5.87331 8.00563 5.37945 8.0063 4.88493 8.00229C4.57467 8.00229 4.42993 7.85008 4.42457 7.53497C4.42899 7.33023 4.40942 7.12568 4.36627 6.92546C4.23226 7.06832 4.10427 7.21653 3.96422 7.35138C3.73371 7.57169 3.53603 7.57169 3.30753 7.35138C2.95417 7.00824 2.60483 6.66086 2.25951 6.30926C2.03838 6.08428 2.04039 5.884 2.2642 5.65702C2.39822 5.5235 2.54698 5.40133 2.68971 5.27382L2.65821 5.20706C2.46322 5.20706 2.26755 5.20706 2.07322 5.20706C1.75962 5.20172 1.61086 5.05752 1.60818 4.74709C1.60326 4.25484 1.60326 3.76327 1.60818 3.27236C1.60818 2.95993 1.75761 2.81639 2.06987 2.80905C2.17039 2.80905 2.2709 2.80905 2.37141 2.80905H2.71249C2.54497 2.64082 2.41229 2.51063 2.28296 2.37712C2.03704 2.12476 2.03235 1.93316 2.27492 1.68815C2.61533 1.34367 2.95886 1.00209 3.30552 0.663393C3.53402 0.441083 3.73036 0.442419 3.96288 0.656718C4.03659 0.723477 4.10829 0.794243 4.17597 0.868346C4.24365 0.942449 4.2939 1.00921 4.35287 1.07997L4.41988 1.05594C4.41988 0.871684 4.41988 0.687427 4.41988 0.503837C4.4239 0.157354 4.56261 0.0124857 4.90302 0.0104829C5.38817 0.00692237 5.87376 0.00692237 6.3598 0.0104829C6.68546 0.0104829 6.82886 0.160025 6.83221 0.48915C6.83221 0.672072 6.83221 0.855661 6.83221 1.10601C7.0004 0.941114 7.1304 0.812935 7.26241 0.686091C7.52576 0.431736 7.71137 0.429066 7.97405 0.686091C8.30865 1.01321 8.64034 1.34301 8.96913 1.67547C9.22511 1.93517 9.2231 2.12076 8.96913 2.38379C8.84316 2.51331 8.71249 2.63748 8.53759 2.80905C8.80161 2.80905 8.99862 2.80571 9.19563 2.80905C9.49382 2.81573 9.64526 2.96126 9.64861 3.25567C9.65397 3.75593 9.65397 4.25573 9.64861 4.7551C9.64861 5.05084 9.49516 5.19905 9.19965 5.20639C9.00197 5.21107 8.80362 5.20639 8.60528 5.20639L8.58115 5.26714ZM3.66737 6.54893C3.86304 6.34465 4.06406 6.1437 4.25437 5.93407C4.44467 5.72445 4.6524 5.74982 4.89029 5.85129C5.12817 5.95277 5.23807 6.09096 5.23002 6.34398C5.22131 6.6237 5.23002 6.90409 5.23002 7.18181H6.03413C6.03413 6.88874 6.04083 6.61436 6.03413 6.33997C6.02676 6.08629 6.15006 5.94809 6.37789 5.85062C6.61778 5.74715 6.82283 5.72779 7.01314 5.93942C7.20344 6.15104 7.39844 6.35132 7.59008 6.55561L8.19317 5.96144C7.9841 5.76117 7.78441 5.56089 7.57467 5.36862C7.36493 5.17635 7.39107 4.97207 7.49225 4.73574C7.59344 4.49941 7.73416 4.39059 7.98745 4.3986C8.26889 4.40795 8.551 4.3986 8.82975 4.3986V3.59748C8.53491 3.59748 8.25884 3.59147 7.98343 3.59748C7.72813 3.60483 7.58875 3.48132 7.49091 3.25501C7.38839 3.01667 7.36694 2.81239 7.58003 2.62346C7.79312 2.43453 7.99482 2.24026 8.1925 2.05667L7.60416 1.43447C7.39777 1.65077 7.19808 1.85238 7.00778 2.06201C6.81747 2.27163 6.60974 2.24693 6.37119 2.14546C6.14336 2.04799 6.02341 1.90579 6.03145 1.65277C6.04083 1.37305 6.03145 1.09266 6.03145 0.814938H5.22734C5.22734 1.10735 5.22064 1.3824 5.22734 1.65611C5.23404 1.92983 5.09332 2.05667 4.86013 2.15481C4.62694 2.25294 4.42792 2.25361 4.24834 2.056C4.0587 1.84771 3.86438 1.64343 3.67072 1.4358L3.06295 2.03664C3.27201 2.23692 3.47371 2.4372 3.68412 2.62613C3.89453 2.81506 3.8684 3.02268 3.76721 3.25968C3.66603 3.49668 3.52531 3.60483 3.27135 3.59682C2.98991 3.58814 2.70847 3.59682 2.42971 3.59682V4.39793C2.72455 4.39793 2.99996 4.40394 3.27604 4.39793C3.53134 4.38992 3.67005 4.51343 3.76788 4.73974C3.87108 4.97874 3.88984 5.18303 3.67876 5.37262C3.46768 5.56222 3.26531 5.75649 3.05021 5.95744L3.66737 6.54893Z" fill="#D1CFD4"/>
<path d="M16.5015 10.3974C16.1853 10.3992 15.8717 10.339 15.5788 10.2201C15.2859 10.1012 15.0194 9.92602 14.7945 9.70452C14.5695 9.48302 14.3906 9.21955 14.2678 8.92916C14.1451 8.63876 14.081 8.32712 14.0791 8.01203C14.0773 7.69695 14.1378 7.38458 14.2571 7.09278C14.3764 6.80097 14.5522 6.53544 14.7746 6.31134C14.9969 6.08723 15.2613 5.90895 15.5528 5.78667C15.8443 5.6644 16.1571 5.60051 16.4734 5.59867C17.7921 5.59133 18.8857 6.65614 18.8998 7.95863C18.9038 8.27584 18.8448 8.59071 18.7263 8.88515C18.6078 9.1796 18.4321 9.44783 18.2092 9.67443C17.9864 9.90103 17.7208 10.0815 17.4278 10.2056C17.1347 10.3297 16.8199 10.3948 16.5015 10.3974ZM18.0957 8.00135C18.0969 7.68461 18.0038 7.37462 17.8282 7.11055C17.6526 6.84648 17.4024 6.64019 17.1092 6.51773C16.816 6.39527 16.493 6.36214 16.1809 6.42253C15.8688 6.48292 15.5816 6.63411 15.3557 6.85701C15.1299 7.07991 14.9753 7.36451 14.9117 7.67486C14.8481 7.98521 14.8783 8.30737 14.9984 8.60065C15.1185 8.89392 15.3232 9.14515 15.5865 9.32259C15.8499 9.50004 16.1601 9.59573 16.4781 9.59758C16.6893 9.59881 16.8987 9.55856 17.0944 9.47914C17.29 9.39971 17.468 9.28266 17.6182 9.13468C17.7685 8.98669 17.8879 8.81067 17.9699 8.61667C18.0518 8.42267 18.0945 8.21449 18.0957 8.00402V8.00135Z" fill="#D1CFD4"/>
<path d="M7.23833 3.98867C7.24149 4.3054 7.15035 4.61595 6.97642 4.88109C6.8025 5.14624 6.5536 5.35407 6.26117 5.47834C5.96873 5.60261 5.64589 5.63774 5.33342 5.5793C5.02096 5.52085 4.73289 5.37144 4.50562 5.14995C4.27835 4.92847 4.12207 4.64484 4.05652 4.3349C3.99098 4.02497 4.01911 3.70263 4.13736 3.40861C4.25562 3.1146 4.45869 2.8621 4.72092 2.68302C4.98315 2.50394 5.29278 2.4063 5.61068 2.40246C5.82216 2.39991 6.03207 2.43893 6.22838 2.5173C6.4247 2.59568 6.60358 2.71186 6.75476 2.8592C6.90595 3.00654 7.02649 3.18214 7.10946 3.37595C7.19244 3.56977 7.23623 3.77798 7.23833 3.98867ZM5.62207 4.80047C5.7815 4.80232 5.93788 4.75692 6.07134 4.67003C6.2048 4.58313 6.30933 4.45867 6.37163 4.31246C6.43393 4.16625 6.4512 4.00488 6.42124 3.84887C6.39128 3.69286 6.31545 3.54924 6.20337 3.43627C6.0913 3.32329 5.94804 3.24606 5.79181 3.21438C5.63558 3.18271 5.47342 3.19802 5.32594 3.25837C5.17846 3.31872 5.05232 3.42139 4.96354 3.55332C4.87476 3.68526 4.82736 3.84051 4.82734 3.99936C4.82751 4.2101 4.91101 4.41229 5.05977 4.56212C5.20853 4.71195 5.41056 4.79734 5.62207 4.7998V4.80047Z" fill="#D1CFD4"/>
</g>
<defs>
<clipPath id="clip0_774_1033">
<rect width="24" height="22" fill="white"/>
</clipPath>
</defs>
</svg>
