<svg width="24" height="24" viewBox="0 0 24 24" fill="none" xmlns="http://www.w3.org/2000/svg">
<g clip-path="url(#clip0_774_1024)">
<path d="M6.13466 7.50116L7.82501 7.8389C8.74121 8.02294 9.32876 8.73006 9.3378 9.66513C9.34232 10.1172 9.34103 10.5692 9.3378 11.018C9.3378 11.3409 9.20286 11.4701 8.88132 11.4701C6.0701 11.4701 3.2593 11.4701 0.448938 11.4701C0.108673 11.4701 0.00407531 11.3622 0.00278398 11.018C0.00278398 10.566 -0.00238134 10.1139 0.00278398 9.66513C0.0156973 8.76428 0.596795 8.06491 1.47554 7.8841C1.99208 7.77755 2.517 7.67745 3.03547 7.56638C3.10004 7.55282 3.19495 7.5018 3.20851 7.45014C3.21331 7.4124 3.20934 7.37407 3.19691 7.33812C3.18448 7.30216 3.16392 7.26956 3.13684 7.24285C2.19804 6.45889 1.79128 5.40693 1.59499 4.24132C1.46586 3.47221 1.48717 2.71601 1.76157 1.98113C2.2568 0.653426 3.46355 -0.0905004 4.94212 0.00765646C6.25475 0.0948353 7.38015 1.09126 7.69523 2.44479C7.8631 3.16611 7.81339 3.88098 7.64874 4.59714C7.43374 5.53221 7.07862 6.38979 6.35742 7.0601C6.2412 7.17763 6.03394 7.24802 6.13466 7.50116ZM8.56688 10.7132C8.56688 10.2747 8.60174 9.85434 8.55719 9.44169C8.51264 9.02905 8.24146 8.73135 7.83147 8.62673C7.27813 8.48918 6.71511 8.38974 6.15274 8.28641C6.11488 8.28606 6.0775 8.29486 6.04378 8.31206C6.01005 8.32927 5.98098 8.35436 5.95904 8.38522C5.69367 8.93541 5.27528 9.25507 4.65351 9.25507C4.03173 9.25507 3.63465 8.92637 3.35443 8.4033C3.33111 8.36878 3.29979 8.34042 3.26313 8.32063C3.22648 8.30084 3.18559 8.29021 3.14394 8.28964C2.6145 8.3878 2.08634 8.49435 1.56142 8.61576C1.38996 8.64906 1.22997 8.72597 1.09687 8.83908C0.963765 8.95219 0.862031 9.09768 0.801471 9.26153C0.626496 9.73294 0.74207 10.2237 0.713015 10.7113H1.76028C1.76028 10.3884 1.75447 10.0862 1.76028 9.78137C1.76803 9.49206 1.95398 9.3332 2.21225 9.38939C2.44146 9.43911 2.51377 9.60895 2.51507 9.82205C2.51507 10.1165 2.51507 10.411 2.51507 10.7106H6.78355C6.78355 10.4142 6.78355 10.1333 6.78355 9.8524C6.78355 9.54954 6.91269 9.3881 7.15029 9.38228C7.39887 9.37583 7.53769 9.5405 7.53769 9.85563C7.53769 10.1359 7.53769 10.4162 7.53769 10.7119L8.56688 10.7132ZM4.61541 7.08335C4.96795 7.09045 5.29013 6.95419 5.58391 6.73851C6.11077 6.34717 6.45168 5.81893 6.68154 5.21385C6.69976 5.16924 6.71024 5.12185 6.71253 5.07371C6.72092 4.49252 6.61697 3.93587 6.26573 3.45154C5.97841 3.05569 5.92288 3.02081 5.4593 3.18807C4.89613 3.39592 4.27667 3.39225 3.716 3.17774C3.61786 3.14222 3.5152 3.12155 3.41512 3.09056C3.21561 3.02921 3.06001 3.09056 2.91279 3.23392C2.44856 3.67756 2.43629 4.28265 2.51442 4.81347C2.63064 5.59808 3.06711 6.2658 3.70825 6.76627C3.96233 6.97824 4.28463 7.0909 4.61541 7.08335ZM2.3091 2.78769C2.32433 2.78706 2.33937 2.784 2.35365 2.77865C2.37496 2.76756 2.39454 2.75342 2.41176 2.73668C2.78883 2.35826 3.25112 2.28076 3.72698 2.45125C4.32163 2.66435 4.89821 2.69922 5.48448 2.45125C5.51512 2.44201 5.54641 2.4351 5.5781 2.43058C6.09463 2.30466 6.49236 2.4816 6.80486 2.89489C6.87459 2.98788 6.94303 3.08087 7.02503 3.1913C7.17418 2.06056 6.16759 0.87105 4.9828 0.737375C3.61463 0.58562 2.41434 1.50649 2.3091 2.78705V2.78769ZM3.97814 7.79369C3.96241 7.92491 3.98658 8.05782 4.04751 8.17509C4.10844 8.29236 4.20329 8.38854 4.3197 8.45108C4.43696 8.52488 4.57392 8.5612 4.71233 8.5552C4.85075 8.5492 4.98405 8.50117 5.0945 8.41751C5.31854 8.258 5.42314 8.03908 5.38634 7.79369H3.97814Z" fill="#D1CFD4"/>
<path d="M19.3164 11.5162H15.1841C14.7838 11.5162 14.6611 11.3954 14.6605 10.9996C14.6605 10.5566 14.6553 10.1136 14.6605 9.6706C14.665 9.25212 14.8122 8.84772 15.0778 8.52431C15.3434 8.20091 15.7114 7.97789 16.121 7.89215C16.6556 7.7785 17.1941 7.68228 17.73 7.56927C17.7984 7.55506 17.9063 7.50469 17.9114 7.46272C17.9144 7.42143 17.9084 7.37999 17.8939 7.34122C17.8794 7.30244 17.8568 7.26724 17.8275 7.23799C16.9055 6.47469 16.4922 5.4505 16.2992 4.30878C16.1597 3.48349 16.1869 2.67111 16.509 1.88844C17.0411 0.5969 18.2827 -0.126361 19.7077 0.0157084C21.0332 0.144862 22.0908 1.07606 22.3245 2.4438C22.5957 4.02852 22.3349 5.52153 21.2915 6.81113C21.1714 6.96031 21.0106 7.07655 20.8847 7.22184C20.8266 7.29146 20.7924 7.37796 20.7872 7.46853C20.7872 7.50146 20.9015 7.55635 20.9699 7.57056C21.4974 7.68098 22.0275 7.7785 22.555 7.88957C22.9533 7.9696 23.3123 8.18312 23.5728 8.49486C23.8333 8.80659 23.9797 9.19789 23.9878 9.60408C24 10.0871 23.9942 10.5727 23.9916 11.0538C23.9916 11.3858 23.8586 11.5136 23.5164 11.5143C22.1179 11.5164 20.7179 11.5171 19.3164 11.5162ZM15.3862 10.7594C15.7032 10.7594 15.9925 10.7594 16.2818 10.7594C16.3312 10.755 16.3804 10.7476 16.429 10.7374C16.429 10.4229 16.429 10.1104 16.429 9.79846C16.429 9.59763 16.5187 9.45814 16.7311 9.42521C16.9778 9.38711 17.165 9.54597 17.1715 9.81267C17.1786 10.1239 17.1715 10.4352 17.1715 10.7406H21.4832C21.4832 10.4145 21.4748 10.1091 21.4832 9.80427C21.4929 9.52853 21.6769 9.37807 21.9275 9.42844C22.1573 9.47429 22.2354 9.64025 22.2367 9.854C22.2367 10.1498 22.2367 10.4449 22.2367 10.7458H23.2175C23.2175 10.2938 23.2556 9.84689 23.2065 9.41294C23.1594 8.99448 22.8695 8.731 22.4614 8.61606C22.3452 8.58312 22.2258 8.56311 22.1076 8.53986L20.6787 8.2583C20.3708 8.83239 20.1751 9.03323 19.7987 9.17465C19.1162 9.43296 18.3879 9.12622 18.036 8.43524C17.9883 8.34161 17.9631 8.24603 17.8152 8.27832C17.2735 8.39779 16.724 8.48691 16.1881 8.62575C15.7362 8.74263 15.4372 9.05518 15.3895 9.52466C15.3572 9.92439 15.3862 10.3254 15.3862 10.7594ZM21.3845 5.04883C21.3599 4.43471 21.2656 3.96652 20.9971 3.54677C20.6962 3.08117 20.6316 3.0392 20.1144 3.22389C19.5666 3.42827 18.9635 3.42827 18.4157 3.22389C18.3169 3.18902 18.2149 3.16577 18.1155 3.13348C18.0202 3.09883 17.9167 3.09353 17.8185 3.11828C17.7202 3.14303 17.6315 3.19669 17.5641 3.27232C17.0947 3.73534 17.1121 4.34107 17.196 4.89837C17.2955 5.54091 17.6609 6.09369 18.1335 6.55412C18.9187 7.32 19.8123 7.31419 20.5748 6.52377C21.0022 6.07948 21.3309 5.56997 21.3845 5.04883ZM16.9862 2.78864C17.6635 2.30367 17.8301 2.25588 18.6352 2.52323C19.1421 2.69113 19.6037 2.62074 20.0938 2.46834C20.7433 2.26557 21.1352 2.41151 21.5452 2.9546L21.7247 3.19289C21.8842 2.03826 20.8363 0.834543 19.6153 0.73122C18.293 0.619502 17.0256 1.60107 16.9862 2.78864ZM18.6378 7.79335C18.6278 7.92426 18.6558 8.05527 18.7183 8.17071C18.7808 8.28615 18.8752 8.38113 18.9903 8.44428C19.1025 8.51721 19.234 8.55462 19.3677 8.55162C19.5015 8.54863 19.6312 8.50537 19.7399 8.42749C19.8465 8.36129 19.9328 8.2672 19.9897 8.15543C20.0466 8.04366 20.0719 7.91845 20.0628 7.79335H18.6378Z" fill="#D1CFD4"/>
<path d="M3.22244 20.0573C3.17402 19.943 3.15787 19.8287 3.09654 19.7751C2.24038 19.0537 1.82006 18.1019 1.60311 17.0331C1.43201 16.1885 1.41522 15.3541 1.71998 14.5353C2.21585 13.2057 3.40646 12.4514 4.86243 12.5334C6.1841 12.6103 7.31208 13.5808 7.64524 14.935C7.83249 15.6951 7.7789 16.4506 7.60069 17.2055C7.39021 18.098 7.05188 18.9188 6.38168 19.5749C6.25965 19.6943 5.98976 19.7763 6.09436 19.9882C6.1473 20.0947 6.39265 20.1173 6.55665 20.1541C6.9886 20.2478 7.42443 20.3253 7.85767 20.4124C8.73383 20.5894 9.32849 21.3023 9.33753 22.1902C9.34205 22.6423 9.34076 23.0943 9.33753 23.5431C9.33753 23.866 9.20323 23.9952 8.87911 23.9952C6.06832 23.9952 3.25774 23.9952 0.447374 23.9952C0.134872 23.9952 0.00573924 23.866 0.00315658 23.5567C0.00315658 23.0814 -0.00394573 22.6061 0.00315658 22.1315C0.00816238 21.7254 0.151734 21.3333 0.410077 21.0201C0.66842 20.7069 1.02602 20.4913 1.42362 20.4092C2.00084 20.2936 2.57807 20.1845 3.22244 20.0573ZM8.56661 23.279C8.57433 23.233 8.57972 23.1867 8.58275 23.1402C8.58275 22.794 8.59179 22.4472 8.57629 22.1018C8.57167 21.8699 8.48697 21.6467 8.33657 21.4701C8.18616 21.2936 7.97932 21.1745 7.75113 21.1331C7.2346 21.0207 6.71032 20.9245 6.19121 20.8102C6.04399 20.7786 5.98007 20.8251 5.92132 20.96C5.8467 21.1394 5.73368 21.3002 5.59023 21.4312C5.44678 21.5622 5.27637 21.6601 5.09099 21.7182C4.41498 21.9435 3.72154 21.6355 3.37611 20.9588C3.32704 20.8619 3.29734 20.7721 3.15271 20.8038C2.6181 20.9213 2.07961 21.0169 1.54759 21.1447C1.18343 21.2326 0.867702 21.4566 0.796679 21.8247C0.70564 22.2961 0.716616 22.7876 0.683041 23.279H1.75807C1.75807 22.9561 1.75226 22.6539 1.75807 22.3497C1.76582 22.0579 1.94725 21.9022 2.21004 21.9558C2.44119 22.0036 2.51286 22.1741 2.51415 22.3865C2.51415 22.6817 2.51415 22.9761 2.51415 23.2777H6.78264C6.78264 22.9813 6.78264 22.6997 6.78264 22.4188C6.78264 22.1198 6.915 21.9545 7.14937 21.9481C7.39473 21.9416 7.53677 22.1095 7.53677 22.4221C7.53677 22.7023 7.53677 22.9832 7.53677 23.279H8.56661ZM6.73808 17.4613C6.6987 16.9227 6.587 16.419 6.2661 15.976C5.97685 15.5795 5.92648 15.5446 5.46096 15.7125C4.88881 15.9216 4.26008 15.9149 3.69248 15.6938C3.60919 15.6634 3.52203 15.6473 3.43809 15.6195C3.22179 15.5498 3.05069 15.615 2.88928 15.7681C2.41859 16.2233 2.44635 16.8342 2.5206 17.3747C2.6181 18.0851 3.02745 18.6895 3.57691 19.1706C4.21935 19.7344 4.94314 19.7518 5.61979 19.2352C6.09177 18.8729 6.41267 18.3957 6.63542 17.8507C6.67828 17.7233 6.71257 17.5932 6.73808 17.4613ZM7.01572 15.7067C7.13581 15.0487 6.73679 14.1808 6.08596 13.7184C5.28017 13.1456 4.4124 13.0726 3.5343 13.5208C2.82923 13.8785 2.40697 14.4694 2.26234 15.2837C3.03714 14.7852 3.1398 14.7549 3.94752 15.0112C4.38076 15.1481 4.79399 15.1772 5.2169 15.0022C5.30783 14.9697 5.40079 14.9431 5.49518 14.9228C5.99944 14.7904 6.4159 14.9273 6.73938 15.336C6.83429 15.4529 6.91822 15.5756 7.01572 15.7067ZM5.38025 20.2574C5.1349 20.2813 4.90504 20.322 4.67519 20.322C4.44683 20.3099 4.21925 20.286 3.99336 20.2503C3.95656 20.6992 4.22968 21.0253 4.66227 21.0395C5.09487 21.0537 5.39575 20.7237 5.38025 20.2574Z" fill="#D1CFD4"/>
<path d="M20.716 20.0505C21.381 20.1796 21.957 20.2939 22.5316 20.4121C23.4007 20.5897 23.9818 21.2897 23.9934 22.1757C23.9992 22.6348 23.9973 23.094 23.9934 23.5538C23.9934 23.8657 23.8643 23.9987 23.5556 23.9987C20.7354 23.9987 17.916 23.9987 15.0974 23.9987C14.7933 23.9987 14.6629 23.8599 14.661 23.5467C14.6577 23.0946 14.6545 22.6426 14.661 22.1905C14.6669 21.7678 14.8182 21.36 15.0895 21.0357C15.3608 20.7115 15.7355 20.4906 16.1505 20.4102C16.6787 20.3023 17.2094 20.2067 17.7375 20.0983C17.8021 20.0841 17.9086 20.0285 17.9132 19.984C17.9151 19.9423 17.9082 19.9007 17.8928 19.862C17.8774 19.8233 17.854 19.7882 17.8241 19.7592C16.933 19.0489 16.5024 18.0841 16.3668 16.9889C16.288 16.3547 16.2151 15.6928 16.31 15.069C16.5631 13.4042 18.1663 12.298 19.8347 12.5505C21.3197 12.7759 22.2507 13.7607 22.4302 15.3305C22.5865 16.6951 22.2875 17.9575 21.4889 19.0838C21.3229 19.3175 21.0976 19.5087 20.9078 19.7295C20.8354 19.8312 20.7713 19.9386 20.716 20.0505ZM21.483 23.2793C21.483 22.9448 21.4759 22.6387 21.483 22.3339C21.4914 22.0724 21.6399 21.9348 21.875 21.9464C22.0977 21.9568 22.2314 22.1092 22.2365 22.3746C22.2423 22.671 22.2365 22.9674 22.2365 23.2716H23.2451C23.2451 22.8654 23.2644 22.4779 23.2399 22.0937C23.2083 21.5842 22.8848 21.2348 22.3799 21.125C22.0499 21.0527 21.7181 20.9901 21.3862 20.9242C21.1447 20.8764 20.9032 20.8312 20.665 20.7854C20.4145 21.3911 20.0096 21.7605 19.364 21.7811C18.7183 21.8018 18.2773 21.4582 17.9926 20.89C17.9703 20.8628 17.9417 20.8415 17.9093 20.8279C17.8769 20.8143 17.8416 20.8088 17.8066 20.8118C17.2701 20.9145 16.7303 21.0127 16.2009 21.147C15.7599 21.2587 15.45 21.5577 15.3957 22.0143C15.3467 22.4256 15.3854 22.8473 15.3854 23.2767H16.4288C16.4288 22.948 16.4256 22.6355 16.4288 22.3236C16.4288 22.1105 16.5289 21.9697 16.7555 21.9497C16.997 21.9284 17.1648 22.0788 17.1707 22.3417C17.1778 22.6516 17.1707 22.9622 17.1707 23.2813L21.483 23.2793ZM21.4088 17.4209C21.3688 16.8571 21.2151 16.3392 20.9394 15.9544C20.6637 15.5695 20.6043 15.532 20.1775 15.696C19.5396 15.9382 18.9198 15.9117 18.2941 15.678C18.2192 15.6502 18.1353 15.6095 18.0623 15.6198C17.9048 15.6425 17.7149 15.6496 17.602 15.7413C17.079 16.1629 17.1093 16.7893 17.1836 17.3421C17.2811 18.0641 17.6827 18.6795 18.2354 19.1677C18.8875 19.7437 19.608 19.7586 20.2963 19.2245C20.7256 18.8815 21.0591 18.4335 21.2648 17.924C21.3248 17.7604 21.3735 17.593 21.4107 17.4228L21.4088 17.4209ZM16.9866 15.2201C17.2449 15.1026 17.4954 14.9218 17.7647 14.8856C18.0339 14.8494 18.3458 14.9153 18.6124 15.0051C19.0779 15.1601 19.5241 15.1717 19.9767 14.9851C20.0443 14.9596 20.1133 14.938 20.1833 14.9205C20.6869 14.7754 21.103 14.9074 21.4314 15.3163C21.5295 15.4384 21.6193 15.5675 21.7226 15.707C21.8976 14.595 20.8393 13.3674 19.6358 13.2583C18.296 13.1369 17.0202 14.1004 16.9866 15.2201ZM20.0568 20.2487C19.8257 20.2837 19.5929 20.3065 19.3595 20.3172C19.1244 20.3172 18.8894 20.2752 18.637 20.2526C18.6286 20.549 18.7325 20.7847 18.9895 20.9378C19.0974 21.0093 19.2239 21.0474 19.3533 21.0474C19.4827 21.0474 19.6093 21.0093 19.7172 20.9378C19.8349 20.8689 19.9299 20.7669 19.9903 20.6446C20.0507 20.5222 20.0738 20.3848 20.0568 20.2494V20.2487Z" fill="#D1CFD4"/>
<path d="M11.9843 18.6345C11.0597 18.6294 10.1749 18.2576 9.52412 17.6006C8.87334 16.9437 8.50977 16.0554 8.51321 15.1306C8.52031 13.2185 10.1048 11.6544 12.025 11.6641C13.9349 11.6738 15.4935 13.2617 15.4819 15.1855C15.4722 17.0879 13.8955 18.6429 11.9843 18.6345ZM12.0069 12.419C11.2817 12.421 10.5865 12.7091 10.0724 13.2206C9.55828 13.7322 9.26667 14.426 9.26089 15.1513C9.26089 16.6365 10.4967 17.8809 11.9804 17.8932C13.4642 17.9055 14.7271 16.6617 14.74 15.1655C14.7529 13.6692 13.51 12.4255 12.0069 12.419Z" fill="#D1CFD4"/>
<path d="M11.7233 15.4739C12.1455 15.0496 12.6033 14.5879 13.0624 14.1268C13.1219 14.0613 13.1866 14.0008 13.2561 13.946C13.4182 13.8304 13.5893 13.8123 13.7339 13.9699C13.8785 14.1274 13.8727 14.2895 13.7416 14.4503C13.6893 14.5114 13.6337 14.5696 13.575 14.6247C13.0628 15.1374 12.5506 15.6502 12.0384 16.1629C11.7336 16.4671 11.5922 16.4677 11.2946 16.17C10.9747 15.8514 10.656 15.5324 10.3383 15.213C10.1253 14.9979 10.1065 14.7939 10.2789 14.626C10.4513 14.4581 10.647 14.4891 10.8671 14.697C11.137 14.9514 11.4185 15.1949 11.7233 15.4739Z" fill="#D1CFD4"/>
</g>
<defs>
<clipPath id="clip0_774_1024">
<rect width="24" height="24" fill="white"/>
</clipPath>
</defs>
</svg>
