<svg width="24" height="24" viewBox="0 0 24 24" fill="none" xmlns="http://www.w3.org/2000/svg">
<path d="M15.0781 0.405273C19.0327 -0.25771 22.873 2.26775 23.5664 5.91406C24.3179 9.86665 21.8104 13.511 17.7852 14.2744H17.7832C17.3147 14.3651 16.852 14.3712 16.3203 14.4219C15.3221 14.4647 14.3927 14.2198 13.4795 13.834L13.0879 13.6592C12.9043 13.5741 12.7121 13.5116 12.5049 13.5117C12.2922 13.5119 12.0925 13.5779 11.8936 13.7012C11.1891 14.1372 10.352 14.3331 9.5166 14.2559H9.51465C9.50151 14.2546 9.48127 14.2471 9.44531 14.2305C9.46411 14.2071 9.48309 14.1838 9.50293 14.1611C9.56707 14.103 9.64086 14.0485 9.73047 13.9834C9.82097 13.9176 9.92926 13.8391 10.0283 13.7471C10.2551 13.5378 10.4421 13.3535 10.5771 13.1797C10.7141 13.0034 10.8142 12.8164 10.8389 12.6016C10.8636 12.3858 10.8079 12.1828 10.7129 11.9834C10.6196 11.7875 10.4766 11.5725 10.3027 11.3271C7.31913 7.10062 9.83826 1.28595 15.0781 0.405273ZM16.6758 2.4668C16.4721 2.46971 16.2706 2.51078 16.083 2.58887C15.8953 2.66699 15.7245 2.78034 15.5811 2.92285C15.4376 3.06538 15.3245 3.23485 15.248 3.4209C15.1722 3.60541 15.1342 3.80292 15.1367 4.00195C15.1364 4.20308 15.1781 4.40218 15.2588 4.58691C15.3394 4.77135 15.4571 4.93756 15.6045 5.07617C15.7521 5.21488 15.9267 5.32363 16.1172 5.39551C16.1871 5.42189 16.2593 5.44088 16.332 5.45703C15.8295 5.45341 15.3178 5.45109 14.8096 5.47559H14.8076C14.635 5.48507 14.4891 5.56556 14.3916 5.625C14.2667 5.70116 14.2188 5.74128 14.1348 5.78516L13.7051 6.00879L14.0977 6.29395C14.1656 6.34317 14.201 6.38476 14.3086 6.47656C14.3888 6.54497 14.5224 6.65081 14.6963 6.67773H14.6973C14.923 6.7118 14.9619 6.77253 14.9697 6.78613C14.9874 6.8171 15.0082 6.89972 14.9668 7.11523L14.9658 7.11621C14.7566 8.22594 14.5751 9.33996 14.4199 10.458C14.3149 11.2135 14.748 11.9134 15.4795 12.1123C16.477 12.3836 17.4811 12.2999 18.3242 11.5547L18.334 11.5459L18.3428 11.5371C18.5033 11.3679 18.6464 11.1834 18.7705 10.9873L19.0625 10.5273H18.6846L18.6797 10.5195L18.5645 10.3311L18.3516 10.3848C18.157 10.4332 17.9238 10.4801 17.6963 10.542L17.4717 10.6094C17.3194 10.6611 17.2932 10.6253 17.3096 10.6367C17.3175 10.6423 17.2839 10.6231 17.2686 10.4961C17.2622 10.34 17.2772 10.1836 17.3135 10.0312L17.3164 10.0225L17.3174 10.0137C17.5191 8.87385 17.733 7.72551 17.9297 6.58105C17.9808 6.28301 18.003 5.94902 17.7871 5.71484C17.6794 5.59795 17.5398 5.53696 17.4004 5.50391C17.2869 5.477 17.1589 5.46737 17.0215 5.46387C17.1116 5.44553 17.2005 5.42103 17.2861 5.38672C17.4706 5.31272 17.6392 5.20304 17.7803 5.06445C17.9213 4.92588 18.032 4.76026 18.1064 4.57812C18.1808 4.39602 18.2171 4.20115 18.2119 4.00488L18.2109 3.9707L18.208 3.96191C18.1845 3.12326 17.5239 2.46703 16.6807 2.4668H16.6758Z" stroke="#D1CFD4" stroke-width="0.6"/>
<path d="M3.11328 7.59082C3.20117 7.59014 3.3116 7.61661 3.44629 7.70898L3.58887 7.82422C4.44921 8.63128 5.28214 9.47252 6.10645 10.3271H6.10742C6.24098 10.4653 6.28508 10.5967 6.28516 10.7109C6.28516 10.8296 6.23686 10.9866 6.08496 11.166C5.67536 11.6497 5.20579 12.1304 4.73047 12.6016V12.6025C4.59207 12.7401 4.43418 12.9299 4.37305 13.1846C4.30729 13.4588 4.3733 13.7167 4.50098 13.9463V13.9473C5.79898 16.296 7.7576 18.2174 10.1357 19.4785V19.4795C10.3519 19.5946 10.5944 19.5738 10.7314 19.5488C10.8824 19.5213 11.0774 19.4563 11.2295 19.3281L11.2305 19.3271C11.7188 18.9129 12.2064 18.4122 12.6357 18.0176C12.9179 17.7608 13.1135 17.6961 13.248 17.6953C13.3791 17.6946 13.5695 17.7548 13.8438 18.0137V18.0146C14.6215 18.7463 15.3868 19.5001 16.125 20.2656C16.346 20.4954 16.4115 20.6954 16.4092 20.8545C16.4068 21.0168 16.3325 21.2221 16.1094 21.4551L16.1074 21.4561C15.8887 21.686 15.6706 21.9056 15.4492 22.126L14.7715 22.8037C14.3249 23.2592 13.8606 23.5061 13.252 23.498C12.9068 23.4259 12.5297 23.3679 12.2188 23.3096C11.9567 23.2604 11.7132 23.206 11.4863 23.1338L11.2646 23.0547C6.21958 21.0513 2.69284 17.5684 0.807617 12.4971C0.67738 12.1144 0.587309 11.7194 0.539062 11.3184L0.538086 11.3057L0.515625 11.1299C0.429522 10.2603 0.678361 9.55716 1.37012 8.9873L1.37207 8.98535C1.60365 8.79325 1.81687 8.58553 2.01562 8.39062C2.21887 8.19131 2.40597 8.00706 2.60254 7.83594L2.60156 7.83496C2.8202 7.64558 2.99074 7.5919 3.11328 7.59082Z" stroke="#D1CFD4"/>
</svg>
