<svg width="24" height="28" viewBox="0 0 24 28" fill="none" xmlns="http://www.w3.org/2000/svg">
<g clip-path="url(#clip0_774_1041)">
<path d="M4.89058 27.999C4.35066 27.8215 3.93961 27.5147 3.81296 26.9362C3.78677 26.7931 3.77536 26.6477 3.7789 26.5023C3.7789 25.7719 3.7789 25.048 3.7789 24.2846H2.81682C2.33541 24.2846 1.85401 24.2897 1.3726 24.2846C1.01254 24.2854 0.666701 24.1461 0.410168 23.8969C0.153635 23.6478 0.00712164 23.3088 0.00244141 22.9537C0.00244141 22.899 0.00244141 22.8442 0.00244141 22.7894C0.00244141 15.6917 0.00244141 8.59386 0.00244141 1.49574C0.00244141 0.716336 0.406082 0.177256 1.10375 0.0304337C1.23102 0.00763007 1.3603 -0.00240434 1.48962 0.000484559C7.23935 0.000484559 12.9888 0.000484559 18.7381 0.000484559C19.6624 0.000484559 20.2245 0.555634 20.226 1.46141C20.226 2.19844 20.226 2.93474 20.226 3.71122H20.5371C21.2221 3.71122 21.9072 3.70757 22.5923 3.71122C23.407 3.71707 23.9995 4.28902 23.9995 5.09106C24.0029 10.476 24.0007 15.861 23.9928 21.2459C23.9924 21.6725 23.9035 22.0944 23.7314 22.4858C23.5593 22.8771 23.3077 23.2295 22.9922 23.5213C21.7332 24.7185 20.4541 25.8916 19.1728 27.064C18.6544 27.541 18.0071 27.7945 17.3213 27.9406C17.2706 27.9554 17.2211 27.9737 17.1731 27.9954L4.89058 27.999ZM17.142 26.9545V26.6082C17.142 25.5856 17.1368 24.5673 17.142 23.5469C17.1502 22.3664 17.9352 21.598 19.1284 21.5958C20.2304 21.5958 21.3317 21.5958 22.4338 21.5958C22.9604 21.5958 22.9619 21.5958 22.9619 21.0604C22.9619 15.7938 22.9619 10.5271 22.9619 5.26053C22.9619 4.80399 22.8745 4.7178 22.4116 4.7178H5.36013C4.88687 4.7178 4.80022 4.80618 4.80022 5.28244C4.80022 12.3343 4.80022 19.3867 4.80022 26.4395C4.80022 26.9084 4.87428 26.9851 5.34384 26.9851C9.11165 26.9851 12.8797 26.9851 16.648 26.9851C16.8021 26.983 16.9569 26.9654 17.142 26.9545ZM19.2002 3.71488V1.59143C19.2002 1.0801 19.1358 1.01509 18.6033 1.01509H1.63182C1.08302 1.01509 1.03562 1.06257 1.03562 1.6148V22.6645C1.03562 22.7098 1.03562 22.7558 1.03562 22.8011C1.0408 23.1794 1.14301 23.2803 1.53776 23.2817C2.20432 23.2817 2.87089 23.2817 3.53745 23.2817C3.61151 23.2817 3.68039 23.27 3.77519 23.262V22.8968C3.77519 17.0195 3.7863 11.1415 3.76334 5.26418C3.75964 4.33284 4.40769 3.69588 5.3394 3.701C9.8387 3.72729 14.3387 3.71268 18.8388 3.71268L19.2002 3.71488ZM18.1685 26.4943L18.247 26.5366L22.4256 22.6652C21.2488 22.6009 20.1201 22.5922 18.9921 22.606C18.5129 22.6133 18.1774 22.9895 18.17 23.4694C18.1633 23.934 18.17 24.3986 18.17 24.8632L18.1685 26.4943Z" fill="#D1CFD4"/>
<path d="M13.8586 9.45086H9.16744C9.08449 9.45086 9.0008 9.45451 8.91785 9.44721C8.6142 9.42018 8.39941 9.20908 8.39941 8.941C8.39941 8.67292 8.61271 8.4589 8.91415 8.42968C8.98821 8.42311 9.06227 8.42968 9.13634 8.42968H18.6289C19.1118 8.42968 19.3696 8.60572 19.3696 8.941C19.3696 9.27628 19.1155 9.45232 18.6341 9.45232L13.8586 9.45086Z" fill="#D1CFD4"/>
<path d="M13.881 16.1891C12.2516 16.1891 10.6222 16.1891 8.99282 16.1891C8.59806 16.1891 8.3381 15.9275 8.40846 15.6047C8.4603 15.368 8.60769 15.2183 8.86321 15.1949C8.95504 15.1861 9.04762 15.1876 9.1402 15.1876H18.635C19.129 15.1876 19.372 15.3556 19.3675 15.6938C19.3631 16.032 19.1253 16.192 18.6269 16.192L13.881 16.1891Z" fill="#D1CFD4"/>
<path d="M13.891 11.8105C15.5204 11.8105 17.1497 11.8105 18.7791 11.8105C19.1657 11.8105 19.4124 12.0487 19.3627 12.3723C19.3257 12.6133 19.1842 12.7689 18.9309 12.804C18.8392 12.8136 18.7469 12.817 18.6547 12.8142H9.13172C8.64365 12.8142 8.3948 12.6403 8.39998 12.3029C8.40517 11.9654 8.64809 11.8076 9.14505 11.8076L13.891 11.8105Z" fill="#D1CFD4"/>
<path d="M11.63 19.5702C10.7517 19.5702 9.87253 19.5753 8.99414 19.5702C8.55347 19.5702 8.29351 19.2232 8.4483 18.8682C8.48873 18.7699 8.55944 18.6865 8.65046 18.6299C8.74148 18.5733 8.84822 18.5463 8.95563 18.5527C10.7598 18.5527 12.5635 18.5527 14.3666 18.5527C14.6992 18.5527 14.9066 18.7638 14.9088 19.0545C14.911 19.3452 14.6962 19.5658 14.3496 19.5658C13.4394 19.5768 12.5329 19.5702 11.63 19.5702Z" fill="#D1CFD4"/>
</g>
<defs>
<clipPath id="clip0_774_1041">
<rect width="24" height="28" fill="white"/>
</clipPath>
</defs>
</svg>
