<svg width="24" height="24" viewBox="0 0 24 24" fill="none" xmlns="http://www.w3.org/2000/svg">
<g clip-path="url(#clip0_774_1058)">
<path d="M16.6969 19.9908H16.6668C16.6495 19.9601 16.631 19.9282 16.6148 19.8964C16.3177 19.3124 16.0229 18.7284 15.7247 18.1444C15.6662 18.0118 15.565 17.9017 15.4368 17.8312C15.3086 17.7606 15.1604 17.7335 15.0149 17.754C14.8369 17.7688 14.6566 17.7802 14.4786 17.7984C13.7032 17.8663 12.9342 17.9922 12.1782 18.1752C11.9119 18.2354 11.6646 18.3591 11.458 18.5353C11.2514 18.7116 11.0919 18.935 10.9934 19.186C10.8951 19.4203 10.8177 19.6625 10.7622 19.91C10.5587 20.8207 10.5414 21.7451 10.5472 22.6717C10.5472 23.2682 10.9217 23.6222 11.5297 23.6222H23.0442C23.6222 23.6222 24.0002 23.2579 24.0037 22.691C24.0037 22.3916 24.0037 22.0923 23.9967 21.7929C23.9851 21.1257 23.91 20.461 23.7725 19.8076C23.5598 18.8696 23.0419 18.2583 22.0293 18.0852C21.2101 17.9348 20.3837 17.825 19.5532 17.7562C19.4015 17.7319 19.2458 17.7588 19.1115 17.8326C18.9772 17.9064 18.8722 18.0227 18.8134 18.1626L17.943 19.8781C17.9233 19.9169 17.9002 19.9544 17.8644 20.0159C17.8528 19.9544 17.8436 19.9214 17.839 19.8873C17.8124 19.6801 17.7835 19.4729 17.7615 19.2657C17.7488 19.1576 17.6968 19.0961 17.5858 19.0938C17.3881 19.0938 17.1905 19.0938 16.9939 19.0938C16.861 19.0938 16.7974 19.1633 16.7859 19.2964C16.7593 19.5264 16.7269 19.7586 16.6969 19.9908ZM5.31184 0.774227C5.38929 0.774227 5.42743 0.76512 5.4702 0.76512C8.97276 0.760566 12.4745 0.756771 15.9755 0.753736C16.1182 0.752108 16.2605 0.766622 16.3998 0.796994C16.7229 0.874344 17.0094 1.05824 17.2117 1.31814C17.414 1.57803 17.5199 1.89827 17.5118 2.22563C17.5118 4.43101 17.5118 6.63601 17.5118 8.84063C17.5118 9.11156 17.6609 9.28231 17.8898 9.28345C18.1187 9.28459 18.2736 9.11611 18.2736 8.8486C18.2736 6.63487 18.2736 4.42077 18.2736 2.20628C18.2751 1.91498 18.2178 1.6263 18.1049 1.35705C17.992 1.08781 17.8258 0.843389 17.616 0.638046C17.4062 0.432703 17.157 0.270545 16.8829 0.161026C16.6088 0.0515058 16.3153 -0.00318473 16.0195 0.000143246C12.2279 0.00697339 8.43601 0.0122857 4.64369 0.0160802C4.51713 0.0124939 4.39139 0.0371533 4.27588 0.0882124C4.16038 0.139272 4.05809 0.215407 3.9767 0.310914C3.69696 0.623963 3.40913 0.930182 3.12476 1.23981C2.15684 2.29166 1.18892 3.34388 0.220998 4.39648C0.13773 4.48183 0.0752185 4.58467 0.038175 4.69727C0.00113137 4.80986 -0.0094788 4.92927 0.00714527 5.04648C0.012366 5.09602 0.0146815 5.14581 0.0140807 5.19561V8.19063C0.0140807 12.7099 0.0140807 17.2288 0.0140807 21.7473C0.0140807 23.0462 0.98971 23.999 2.30519 23.999H9.39583C9.46487 24.0014 9.53394 23.9956 9.6016 23.9819C9.65783 23.9687 9.71016 23.9427 9.75448 23.9062C9.79879 23.8696 9.83388 23.8234 9.85696 23.7712C9.88005 23.719 9.89051 23.6622 9.88752 23.6053C9.88453 23.5485 9.86817 23.4931 9.83973 23.4435C9.79906 23.3745 9.73869 23.3188 9.66613 23.2834C9.59357 23.248 9.51203 23.2344 9.43167 23.2443C7.0635 23.2443 4.69532 23.2443 2.32715 23.2443C1.40239 23.2443 0.775857 22.6307 0.775857 21.7155V5.97083C0.77875 5.92078 0.77875 5.87061 0.775857 5.82057C0.760829 5.70673 0.796664 5.65551 0.926131 5.64184C1.32378 5.60086 1.72143 5.54736 2.11792 5.49158C2.58031 5.42669 3.05425 5.38685 3.50507 5.28099C4.42984 5.06356 5.32686 4.31338 5.29797 3.03501C5.28987 2.6935 5.3049 2.35199 5.30606 2.01048C5.31299 1.60409 5.31184 1.19656 5.31184 0.774227ZM17.7754 17.9532C17.9684 17.8678 18.1383 17.7984 18.3037 17.7198C18.6447 17.557 18.7383 17.3783 18.6782 17.0072C18.6231 16.7289 18.6638 16.4405 18.7938 16.1876C18.8712 16.043 18.9533 15.9007 19.0377 15.7607C19.1977 15.5159 19.3083 15.243 19.3637 14.957C19.3659 14.9106 19.3825 14.866 19.4112 14.8292C19.4399 14.7924 19.4794 14.7651 19.5243 14.751C19.6057 14.7096 19.6719 14.6444 19.7139 14.5643C19.8928 14.2804 19.9761 13.9482 19.952 13.6149C19.9277 13.4792 19.889 13.3464 19.8364 13.2188C19.8102 13.1667 19.7937 13.1104 19.7879 13.0526C19.8378 12.647 19.8409 12.2373 19.7971 11.8311C19.6596 10.637 18.8631 10.1634 17.9476 10.037C17.3933 9.97778 16.833 10.0031 16.2865 10.1122C15.4993 10.2442 15.0462 10.6916 14.8728 11.4452C14.7604 11.9515 14.7412 12.4736 14.8161 12.9865C14.8309 13.0332 14.8312 13.0832 14.817 13.13C14.8028 13.1768 14.7747 13.2184 14.7364 13.2495C14.6755 13.3122 14.6352 13.3916 14.6208 13.4772C14.5418 13.7877 14.5715 14.1154 14.7052 14.4072C14.735 14.4815 14.7803 14.5488 14.8383 14.6047C14.8962 14.6606 14.9655 14.7038 15.0415 14.7316C15.0785 14.7464 15.1271 14.7829 15.134 14.817C15.2253 15.2803 15.4716 15.6765 15.697 16.0817C15.8673 16.3758 15.9282 16.7192 15.8692 17.0527C15.8079 17.4159 15.9143 17.6037 16.2564 17.7574C16.4137 17.828 16.5766 17.8894 16.7581 17.9646C16.6564 18.0579 16.5662 18.1387 16.4784 18.223C16.4539 18.2406 16.4335 18.2631 16.4185 18.289C16.4035 18.3149 16.3943 18.3437 16.3915 18.3734C16.3886 18.4031 16.3922 18.4331 16.402 18.4613C16.4118 18.4895 16.4276 18.5154 16.4483 18.5372C16.4957 18.6043 16.5524 18.6647 16.5986 18.7318C16.6237 18.7715 16.6605 18.8026 16.7042 18.8209C16.7478 18.8392 16.7961 18.8439 16.8425 18.8343C17.0602 18.7978 17.2821 18.7925 17.5014 18.8183C17.7881 18.8798 17.9395 18.7648 18.0794 18.5542C18.1684 18.4176 18.1684 18.3186 18.047 18.2059C17.9638 18.1274 17.8829 18.0477 17.7754 17.9532ZM9.1369 7.35052H3.0161C2.94713 7.34833 2.87812 7.35367 2.81034 7.36646C2.72803 7.38591 2.65476 7.43209 2.60235 7.49755C2.54994 7.56302 2.52144 7.64395 2.52144 7.72732C2.52144 7.81068 2.54994 7.89161 2.60235 7.95708C2.65476 8.02254 2.72803 8.06872 2.81034 8.08818C2.87818 8.10049 2.94717 8.10546 3.0161 8.10298H15.2693C15.5814 8.10298 15.7582 7.96979 15.7617 7.73187C15.7652 7.49395 15.5871 7.34824 15.2681 7.34824L9.1369 7.35052ZM8.40403 15.5638H3.00454C2.95831 15.5638 2.91207 15.5638 2.86583 15.5638C2.77273 15.5718 2.6859 15.6133 2.62201 15.6805C2.55813 15.7477 2.52168 15.8357 2.51968 15.9277C2.51767 16.0197 2.55024 16.1092 2.61114 16.179C2.67204 16.2489 2.75698 16.2941 2.84965 16.306C2.90457 16.3113 2.95978 16.3132 3.01495 16.3117H13.8104C13.8657 16.313 13.9209 16.3104 13.9757 16.3037C14.0648 16.2887 14.1455 16.2428 14.2033 16.1744C14.2611 16.106 14.2921 16.0195 14.2909 15.9305C14.2896 15.8415 14.2561 15.7559 14.1964 15.6891C14.1368 15.6223 14.0548 15.5786 13.9653 15.566C13.9103 15.5626 13.8551 15.5626 13.8 15.566L8.40403 15.5638ZM8.37282 12.2523H13.7214C13.7815 12.2523 13.837 12.2523 13.9006 12.2523C13.9924 12.2411 14.0768 12.1972 14.138 12.129C14.1992 12.0607 14.233 11.9728 14.233 11.8818C14.233 11.7907 14.1992 11.7028 14.138 11.6345C14.0768 11.5663 13.9924 11.5224 13.9006 11.5112C13.8409 11.5078 13.7811 11.5078 13.7214 11.5112H3.00339C2.94819 11.5095 2.89294 11.5118 2.83809 11.518C2.75576 11.5318 2.68034 11.5719 2.62354 11.6322C2.56674 11.6925 2.53173 11.7695 2.52396 11.8514C2.51619 11.9333 2.53608 12.0154 2.58054 12.085C2.62501 12.1546 2.69157 12.2078 2.76988 12.2364C2.84538 12.2552 2.92325 12.2633 3.00108 12.2603L8.37282 12.2523ZM11.7748 3.20348C10.5857 3.20348 9.39699 3.20348 8.20867 3.20348C8.11774 3.2034 8.02814 3.22488 7.94742 3.26609C7.87722 3.30695 7.82327 3.37016 7.79448 3.44529C7.76568 3.52042 7.76377 3.60297 7.78905 3.67932C7.84107 3.8569 7.98788 3.94911 8.21676 3.94911H15.238C15.2982 3.94911 15.3536 3.94911 15.4172 3.94911C15.4808 3.94427 15.5421 3.92358 15.5953 3.88897C15.6485 3.85437 15.6919 3.80699 15.7214 3.7513C15.7509 3.69562 15.7655 3.63346 15.7639 3.57068C15.7622 3.5079 15.7444 3.44656 15.712 3.39245C15.6728 3.32783 15.6156 3.27566 15.5471 3.24216C15.4787 3.20865 15.4019 3.19523 15.3259 3.20348C14.1453 3.205 12.9631 3.205 11.7794 3.20348H11.7748ZM6.3233 19.8941H3.01726C2.96644 19.8912 2.91549 19.8912 2.86467 19.8941C2.77149 19.9027 2.68474 19.9446 2.62084 20.012C2.55693 20.0793 2.52031 20.1674 2.51789 20.2595C2.51609 20.3488 2.54698 20.4358 2.60492 20.5046C2.66285 20.5733 2.74397 20.6193 2.83346 20.634C2.89277 20.6426 2.95272 20.646 3.01264 20.6443H9.6016C9.66144 20.6462 9.72135 20.6435 9.78077 20.6363C9.85668 20.626 9.92747 20.5928 9.98338 20.5412C10.0393 20.4896 10.0775 20.4222 10.0929 20.3483C10.1507 20.0944 9.96688 19.8929 9.67211 19.8929L6.3233 19.8941Z" fill="#D1CFD4"/>
<path d="M16.6967 19.9904C16.7256 19.7628 16.7591 19.526 16.7811 19.2938C16.7927 19.1606 16.8562 19.0923 16.9892 19.0911C17.1857 19.0911 17.3833 19.0911 17.581 19.0911C17.6966 19.0911 17.744 19.1549 17.7567 19.263C17.7787 19.4702 17.8076 19.6774 17.8342 19.8846C17.8342 19.9187 17.848 19.9517 17.8596 20.0132C17.8954 19.9517 17.9186 19.9142 17.9382 19.8755L18.8075 18.1634C18.8662 18.0234 18.9713 17.9071 19.1056 17.8333C19.2398 17.7596 19.3955 17.7327 19.5473 17.757C20.3777 17.8257 21.2041 17.9355 22.0234 18.086C23.036 18.259 23.5538 18.8703 23.7665 19.8083C23.9044 20.4617 23.9799 21.1263 23.992 21.7936C24.0024 22.093 24 22.3924 23.9989 22.6918C23.9989 23.2609 23.6186 23.6229 23.0394 23.6229H11.5249C10.9169 23.6229 10.547 23.2689 10.5424 22.6724C10.5366 21.7458 10.5539 20.8203 10.7574 19.9107C10.8129 19.6632 10.8903 19.421 10.9886 19.1867C11.0871 18.9357 11.2466 18.7123 11.4532 18.536C11.6598 18.3598 11.9071 18.2361 12.1734 18.1759C12.9294 17.993 13.6984 17.867 14.4738 17.7991C14.6518 17.7809 14.8321 17.7695 15.0102 17.7547C15.1556 17.7342 15.3038 17.7613 15.432 17.8319C15.5602 17.9024 15.6614 18.0125 15.7199 18.1451C16.0182 18.7291 16.3129 19.3131 16.61 19.8971C16.6262 19.929 16.6447 19.9608 16.662 19.9916L16.6967 19.9904Z" fill="#D1CFD4"/>
<path d="M5.31166 0.774227C5.31166 1.19656 5.31166 1.60409 5.31166 2.01162C5.31166 2.35313 5.29547 2.69464 5.30357 3.03614C5.33246 4.31452 4.43775 5.0647 3.51067 5.28212C3.05523 5.38799 2.58591 5.42783 2.12353 5.49272C1.72703 5.5485 1.32938 5.60656 0.931733 5.64298C0.802266 5.65664 0.766431 5.70787 0.781458 5.82171C0.784352 5.87175 0.784352 5.92192 0.781458 5.97197V21.7166C0.781458 22.6273 1.40336 23.2454 2.33275 23.2454C4.7017 23.2454 7.06987 23.2454 9.43727 23.2454C9.51763 23.2355 9.59917 23.2491 9.67173 23.2846C9.74429 23.32 9.80466 23.3757 9.84533 23.4446C9.87377 23.4942 9.89013 23.5496 9.89312 23.6065C9.89611 23.6633 9.88565 23.7201 9.86256 23.7723C9.83947 23.8245 9.80439 23.8707 9.76008 23.9073C9.71576 23.9439 9.66343 23.9698 9.6072 23.9831C9.53954 23.9968 9.47047 24.0025 9.40144 24.0001H2.30617C0.990687 24.0001 0.0150573 23.0473 0.0150573 21.7485C0.0150573 17.2299 0.0150573 12.711 0.0150573 8.19177V5.19561C0.0156581 5.14581 0.0133426 5.09602 0.00812183 5.04648C-0.00850223 4.92927 0.00210793 4.80986 0.0391515 4.69727C0.0761951 4.58467 0.138706 4.48183 0.221975 4.39648C1.19144 3.34616 2.15936 2.29393 3.12574 1.23981C3.41011 0.930182 3.69794 0.623963 3.97768 0.310914C4.05907 0.215407 4.16135 0.139272 4.27686 0.0882124C4.39237 0.0371533 4.51811 0.0124939 4.64467 0.0160802C8.43698 0.0160802 12.2289 0.0107679 16.0205 0.000143246C16.3162 -0.00318473 16.6097 0.0515058 16.8838 0.161026C17.1579 0.270545 17.4072 0.432704 17.617 0.638047C17.8268 0.843389 17.993 1.08781 18.1059 1.35705C18.2188 1.6263 18.2761 1.91498 18.2746 2.20628C18.2746 4.42001 18.2746 6.63411 18.2746 8.8486C18.2746 9.11611 18.1243 9.28459 17.8908 9.28345C17.6573 9.28231 17.5128 9.11156 17.5128 8.84063C17.5128 6.63601 17.5128 4.43101 17.5128 2.22563C17.5209 1.89827 17.415 1.57803 17.2127 1.31814C17.0104 1.05824 16.7239 0.874344 16.4008 0.796994C16.2615 0.766623 16.1192 0.752108 15.9765 0.753736C12.4747 0.753736 8.97296 0.757531 5.47118 0.76512C5.42957 0.76512 5.38911 0.769674 5.31166 0.774227ZM4.5545 0.799271C3.29104 2.17327 2.0507 3.52222 0.782615 4.90305L0.971035 4.88256C1.36753 4.83133 1.76518 4.78352 2.16167 4.73002C2.5362 4.67879 2.9142 4.64806 3.28064 4.56496C4.10137 4.37941 4.53023 3.83072 4.53832 3.00768C4.53832 2.63544 4.55104 2.26434 4.5545 1.89209C4.55682 1.54034 4.5545 1.18973 4.5545 0.799271Z" fill="#D1CFD4"/>
<path d="M17.775 17.9533C17.8768 18.0478 17.9635 18.1275 18.049 18.2083C18.1704 18.3222 18.1704 18.4201 18.0814 18.5567C17.9438 18.7673 17.7924 18.8822 17.5034 18.8208C17.2841 18.7949 17.0622 18.8003 16.8445 18.8367C16.7974 18.8465 16.7483 18.8416 16.7042 18.8226C16.66 18.8036 16.623 18.7715 16.5983 18.7308C16.552 18.6637 16.4954 18.6033 16.448 18.5362C16.4273 18.5144 16.4115 18.4885 16.4017 18.4603C16.3919 18.4321 16.3883 18.4021 16.3911 18.3724C16.394 18.3427 16.4032 18.3139 16.4182 18.288C16.4332 18.2621 16.4536 18.2396 16.4781 18.222C16.5659 18.1377 16.6561 18.0569 16.7578 17.9636C16.5763 17.8884 16.411 17.827 16.2561 17.7564C15.9093 17.6027 15.8076 17.4149 15.8689 17.0518C15.9278 16.7182 15.8669 16.3748 15.6966 16.0807C15.4712 15.6755 15.225 15.2839 15.1337 14.816C15.1267 14.7819 15.0782 14.7454 15.0412 14.7306C14.9651 14.7028 14.8959 14.6596 14.8379 14.6037C14.78 14.5478 14.7346 14.4805 14.7048 14.4062C14.5712 14.1144 14.5414 13.7867 14.6204 13.4762C14.6349 13.3906 14.6752 13.3113 14.736 13.2485C14.7744 13.2174 14.8024 13.1758 14.8166 13.129C14.8308 13.0822 14.8305 13.0322 14.8158 12.9855C14.7409 12.4726 14.7601 11.9505 14.8724 11.4442C15.0458 10.6906 15.499 10.2432 16.2862 10.1112C16.8326 10.0021 17.3929 9.97679 17.9473 10.0361C18.8628 10.1624 19.6592 10.636 19.7968 11.8301C19.8406 12.2363 19.8375 12.6461 19.7876 13.0516C19.7934 13.1094 19.8098 13.1657 19.8361 13.2178C19.8887 13.3455 19.9274 13.4782 19.9517 13.6139C19.9758 13.9472 19.8925 14.2794 19.7136 14.5633C19.6716 14.6434 19.6053 14.7086 19.524 14.75C19.4791 14.7641 19.4396 14.7914 19.4109 14.8282C19.3822 14.8651 19.3656 14.9097 19.3633 14.956C19.3085 15.2424 19.1982 15.5156 19.0385 15.7609C18.9541 15.9009 18.872 16.0432 18.7946 16.1877C18.6646 16.4407 18.6239 16.7291 18.679 17.0074C18.7391 17.3728 18.6455 17.5572 18.3045 17.72C18.138 17.7985 17.9681 17.868 17.775 17.9533Z" fill="#D1CFD4"/>
<path d="M9.13672 7.35059H15.2725C15.5916 7.35059 15.7696 7.48947 15.7661 7.73421C15.7627 7.97896 15.5858 8.10532 15.2737 8.10532H3.02054C2.95161 8.1078 2.88262 8.10284 2.81478 8.09052C2.73247 8.07107 2.6592 8.02489 2.60679 7.95942C2.55438 7.89396 2.52588 7.81302 2.52588 7.72966C2.52588 7.6463 2.55438 7.56536 2.60679 7.4999C2.6592 7.43443 2.73247 7.38825 2.81478 7.3688C2.88256 7.35602 2.95157 7.35067 3.02054 7.35286L9.13672 7.35059Z" fill="#D1CFD4"/>
<path d="M8.40396 15.5641H13.7954C13.8504 15.5607 13.9056 15.5607 13.9607 15.5641C14.0501 15.5767 14.1321 15.6203 14.1918 15.6871C14.2514 15.7539 14.2849 15.8395 14.2862 15.9285C14.2874 16.0175 14.2564 16.104 14.1986 16.1724C14.1408 16.2409 14.0601 16.2867 13.9711 16.3017C13.9162 16.3084 13.861 16.3111 13.8058 16.3097H3.01489C2.95972 16.3112 2.90451 16.3093 2.84959 16.304C2.75692 16.2921 2.67198 16.2469 2.61108 16.1771C2.55018 16.1073 2.51761 16.0178 2.51962 15.9258C2.52162 15.8337 2.55807 15.7457 2.62195 15.6785C2.68584 15.6114 2.77267 15.5698 2.86577 15.5618C2.91201 15.5618 2.95825 15.5618 3.00448 15.5618L8.40396 15.5641Z" fill="#D1CFD4"/>
<path d="M8.3771 12.2526H3.00074C2.92291 12.2556 2.84504 12.2476 2.76954 12.2287C2.69123 12.2001 2.62467 12.1469 2.5802 12.0773C2.53574 12.0077 2.51585 11.9256 2.52362 11.8437C2.53139 11.7619 2.5664 11.6848 2.6232 11.6245C2.68 11.5642 2.75542 11.5241 2.83775 11.5104C2.8926 11.5041 2.94785 11.5018 3.00305 11.5035H13.728C13.7877 11.5001 13.8475 11.5001 13.9072 11.5035C13.999 11.5148 14.0834 11.5586 14.1446 11.6269C14.2058 11.6951 14.2396 11.783 14.2396 11.8741C14.2396 11.9651 14.2058 12.053 14.1446 12.1213C14.0834 12.1895 13.999 12.2334 13.9072 12.2446C13.8482 12.2503 13.7916 12.2446 13.728 12.2446L8.3771 12.2526Z" fill="#D1CFD4"/>
<path d="M11.7793 3.20354C12.963 3.20354 14.1467 3.20354 15.3304 3.20354C15.4064 3.19529 15.4831 3.20871 15.5516 3.24221C15.62 3.27571 15.6773 3.32788 15.7165 3.39251C15.7488 3.44662 15.7667 3.50795 15.7683 3.57073C15.77 3.63351 15.7554 3.69567 15.7259 3.75136C15.6964 3.80705 15.653 3.85442 15.5998 3.88903C15.5466 3.92363 15.4853 3.94433 15.4217 3.94916C15.3628 3.95486 15.3061 3.94916 15.2425 3.94916H8.22125C7.99006 3.94916 7.84556 3.85696 7.79354 3.67937C7.76826 3.60303 7.77017 3.52048 7.79896 3.44535C7.82775 3.37022 7.88171 3.307 7.95191 3.26615C8.03262 3.22493 8.12223 3.20346 8.21315 3.20354C9.40148 3.20202 10.5902 3.20202 11.7793 3.20354Z" fill="#D1CFD4"/>
<path d="M6.32302 19.8936H9.67529C9.97006 19.8936 10.1539 20.0962 10.0961 20.3489C10.0807 20.4228 10.0425 20.4903 9.98656 20.5418C9.93066 20.5934 9.85986 20.6267 9.78395 20.6369C9.72453 20.6441 9.66463 20.6468 9.60478 20.6449H3.01582C2.95591 20.6466 2.89595 20.6432 2.83665 20.6346C2.74716 20.6199 2.66604 20.574 2.6081 20.5052C2.55016 20.4364 2.51927 20.3495 2.52107 20.2601C2.52349 20.168 2.56012 20.0799 2.62402 20.0126C2.68793 19.9452 2.77468 19.9033 2.86786 19.8947C2.91868 19.8919 2.96962 19.8919 3.02044 19.8947L6.32302 19.8936Z" fill="#D1CFD4"/>
</g>
<defs>
<clipPath id="clip0_774_1058">
<rect width="24" height="24" fill="white"/>
</clipPath>
</defs>
</svg>
