<svg width="24" height="20" viewBox="0 0 24 20" fill="none" xmlns="http://www.w3.org/2000/svg">
<path d="M7.91895 2.70703C8.52413 2.63601 9.10123 2.73934 9.66895 2.99316C10.2333 3.24569 10.582 3.65748 10.7666 4.24219C10.9314 4.76448 11.0058 5.30799 11.0205 5.87305V5.88379L11.0215 5.89453C11.0337 6.0679 11.0958 6.23322 11.1982 6.37207V6.37305C11.263 6.46174 11.2833 6.56739 11.2324 6.81641C11.202 6.96174 11.1455 7.03195 11.043 7.08203L11.0137 7.09668L10.9854 7.11523C10.8622 7.19693 10.767 7.31581 10.7139 7.45605H10.7129C10.686 7.52358 10.6654 7.58923 10.6504 7.6377C10.634 7.69044 10.6242 7.72466 10.6123 7.75684C10.5082 8.03289 10.4331 8.15105 10.3164 8.21973H10.3154C9.7571 8.54973 9.55144 9.1469 9.59766 9.67969C9.64349 10.2071 9.94035 10.7524 10.4854 11.0225H10.4863C10.8131 11.184 11.1698 11.2987 11.4805 11.4004C11.4756 12.3124 11.4765 13.2244 11.4766 14.1338C10.935 14.1839 10.4063 14.2346 9.87598 14.2783C8.85204 14.3629 7.82255 14.3643 6.79883 14.2832L6.36035 14.2432L5.70605 14.1699C5.05358 14.0903 4.40212 13.9948 3.73242 13.9072H3.73047C3.72961 13.9071 3.72709 13.9072 3.72266 13.9062C3.71615 13.9049 3.70743 13.9027 3.69434 13.8994C3.68778 13.8978 3.68103 13.8957 3.67285 13.8936C3.66511 13.8916 3.65584 13.8891 3.64648 13.8867C3.64157 13.8855 3.63635 13.8841 3.63086 13.8828C3.54532 13.5613 3.54733 13.2183 3.5791 12.8164C3.59085 12.6689 3.61371 12.5171 3.64062 12.3496V12.3486C3.6687 12.1723 3.75434 12.0403 3.93555 11.9238C4.2556 11.7186 4.62788 11.6114 5.08398 11.4893C5.53958 11.3672 6.05812 11.2053 6.50977 10.8486C6.72002 10.6826 7.04112 10.399 7.10742 9.93848C7.14168 9.69963 7.16763 9.40083 7.0957 9.10352C7.02788 8.82346 6.87916 8.56511 6.62305 8.3584L6.50684 8.27344C6.32142 8.14953 6.2089 7.96102 6.12207 7.66211L6.12109 7.66113L6.06055 7.49219C5.98623 7.32419 5.8663 7.16149 5.65527 7.0293C5.59908 6.99401 5.5251 6.89829 5.49805 6.73633C5.4712 6.57533 5.50665 6.43496 5.55957 6.3584L5.56152 6.35547C5.66047 6.2102 5.71576 6.03901 5.7207 5.8623H5.72168V5.85059C5.72424 5.24956 5.79488 4.68539 5.99512 4.16309C6.16771 3.71357 6.41337 3.38499 6.71875 3.15332C7.02518 2.92085 7.41898 2.76573 7.91895 2.70703Z" stroke="#D1CFD4"/>
<path d="M18.8828 10.4238C21.5366 10.4312 23.6568 12.5148 23.6504 15.0635C23.6435 17.5772 21.4967 19.6553 18.8545 19.6504C16.1932 19.6453 14.0611 17.5644 14.0645 15.0283C14.068 12.4863 16.2083 10.4162 18.8828 10.4238ZM22.0049 13.2119C21.7874 13.2261 21.58 13.3074 21.4121 13.4443L21.3467 13.502C20.7193 14.0953 20.0933 14.6905 19.4688 15.2871C19.0905 15.6462 18.7131 16.0054 18.3086 16.3906C17.8301 15.9301 17.3501 15.4714 16.8682 15.0146V15.0137C16.4468 14.6156 15.7987 14.6043 15.3857 15.0137C14.9672 15.4282 15.008 16.0527 15.4258 16.4531C16.1312 17.1295 16.8394 17.8039 17.5488 18.4766C17.7631 18.6796 18.0252 18.8026 18.3096 18.8027C18.594 18.8028 18.8558 18.6805 19.0684 18.4785C20.2983 17.3099 21.5273 16.1381 22.7568 14.9658C22.8451 14.8835 22.9215 14.7896 22.9824 14.6855L22.9883 14.6758C23.1018 14.4661 23.1352 14.2226 23.0811 13.9902C23.0268 13.7579 22.8892 13.5535 22.6963 13.4141H22.6953C22.4966 13.2673 22.2514 13.196 22.0049 13.2119Z" stroke="#D1CFD4" stroke-width="0.7"/>
<path d="M12.2741 16.7618H11.3443C8.13053 16.7618 4.91661 16.7618 1.70259 16.7618C0.919228 16.7618 0.162859 16.1145 0.035398 15.3374C0.0182447 15.2416 0.00881872 15.1446 0.00720649 15.0474C0.00720649 10.6171 0.0138048 6.1865 8.97561e-06 1.75593C-0.00299011 0.772072 0.745881 0.00321331 1.80906 0.00116848C3.60851 1.08823e-10 5.40796 1.08823e-10 7.20741 0.00116848H19.8036C20.5683 0.00116848 21.3331 -0.0014606 22.0979 0.00116848C22.9517 0.00555027 23.6949 0.528737 23.891 1.27101C23.9309 1.44162 23.9489 1.61636 23.9447 1.79128C23.9477 4.68326 23.9484 7.57524 23.9468 10.4672V10.6635C23.8868 10.6089 23.8535 10.5779 23.8196 10.5467C23.5998 10.3483 23.3854 10.1438 23.1574 9.95455C23.0723 9.88386 23.0375 9.81755 23.0375 9.70946C23.0407 7.1877 23.0418 4.66573 23.0408 2.14357C23.0408 1.67998 22.8308 1.33119 22.4371 1.08376C22.2042 0.938197 21.9325 0.86261 21.6558 0.866426C20.0363 0.866426 18.4168 0.866426 16.7973 0.866426H4.20113C3.55632 0.866426 2.91152 0.864089 2.26672 0.866426C1.44317 0.870808 0.909931 1.39692 0.909931 2.1982C0.909931 6.30734 0.909931 10.4165 0.909931 14.5256C0.909931 15.2089 1.31571 15.7233 1.96921 15.8647C2.06232 15.8817 2.15705 15.8888 2.25172 15.8857C5.46554 15.8857 8.67946 15.8851 11.8935 15.8837C12.0467 15.8837 12.1229 15.9053 12.1385 16.0785C12.1574 16.3026 12.2231 16.5194 12.2741 16.7618Z" fill="#D1CFD4"/>
<path d="M16.6264 4.08451C17.7559 4.08451 18.8855 4.08451 20.0154 4.08451C20.3942 4.08451 20.6407 4.41782 20.518 4.7523C20.4446 4.95182 20.2574 5.07947 20.0181 5.08093C19.5532 5.08415 19.0884 5.08239 18.6235 5.08239C16.8441 5.08239 15.0646 5.08162 13.2852 5.08006C13.1662 5.0805 13.0486 5.05484 12.9412 5.00498C12.7447 4.908 12.6535 4.67167 12.706 4.46748C12.7642 4.24167 12.9505 4.08773 13.1925 4.0851C13.7623 4.08013 14.3321 4.08276 14.902 4.08247H16.6264V4.08451Z" fill="#D1CFD4"/>
<path d="M16.6216 7.56314C15.502 7.56314 14.3823 7.56314 13.2626 7.56314C12.9501 7.56314 12.7333 7.39313 12.6964 7.12847C12.6535 6.81999 12.8905 6.56614 13.2306 6.56556C14.405 6.56341 15.5793 6.56293 16.7536 6.5641C17.8333 6.5641 18.9129 6.5641 19.9926 6.5641C20.2493 6.5641 20.4329 6.67919 20.5138 6.88338C20.647 7.2199 20.3993 7.55847 20.0097 7.56081C19.3601 7.56519 18.7105 7.56285 18.0603 7.56314H16.6216Z" fill="#D1CFD4"/>
<path d="M14.1241 10.0476C13.8242 10.0476 13.5243 10.0476 13.2244 10.0476C12.9161 10.0476 12.6932 9.83931 12.6914 9.55391C12.6893 9.26179 12.9131 9.05205 13.2313 9.05176C13.8255 9.05176 14.4196 9.05176 15.0136 9.05176C15.3312 9.05176 15.5555 9.25975 15.5534 9.55216C15.5513 9.84457 15.3255 10.0488 15.0067 10.0488C14.7122 10.0488 14.4176 10.0488 14.1229 10.0488L14.1241 10.0476Z" fill="#D1CFD4"/>
</svg>
