<svg width="24" height="24" viewBox="0 0 24 24" fill="none" xmlns="http://www.w3.org/2000/svg">
<g clip-path="url(#clip0_907_665)">
<path d="M11.4364 0.000253538C13.0639 -0.00197582 14.6256 0.642109 15.7788 1.79105C16.9319 2.93999 17.5821 4.49985 17.5865 6.12803C17.5963 9.51076 14.8455 12.2677 11.4518 12.2747C10.6408 12.2845 9.83587 12.1333 9.08365 11.8298C8.33142 11.5263 7.64681 11.0766 7.06943 10.5067C6.49204 9.93686 6.03334 9.25808 5.71987 8.50968C5.4064 7.76128 5.24437 6.95811 5.24317 6.14666C5.24197 5.3352 5.40161 4.53156 5.71287 3.78224C6.02413 3.03291 6.48081 2.35277 7.05651 1.78117C7.63221 1.20957 8.31548 0.757863 9.06681 0.452171C9.81813 0.14648 10.6226 -0.00712179 11.4336 0.000253538H11.4364ZM11.4525 10.5994C12.3349 10.5969 13.1968 10.3326 13.929 9.83988C14.6613 9.34718 15.231 8.64824 15.566 7.83151C15.9011 7.01477 15.9865 6.11696 15.8114 5.25166C15.6363 4.38636 15.2086 3.59248 14.5823 2.97047C13.9561 2.34845 13.1595 1.92626 12.2934 1.75732C11.4273 1.58837 10.5305 1.68027 9.71658 2.02138C8.90267 2.36249 8.20818 2.93748 7.721 3.67359C7.23382 4.4097 6.97584 5.27386 6.97971 6.1567C6.98692 7.33833 7.46149 8.46903 8.29966 9.30157C9.13783 10.1341 10.2714 10.6007 11.4525 10.5994Z" fill="#433C50"/>
<path d="M23.9999 18.1396C23.9996 19.2995 23.6555 20.4332 23.011 21.3973C22.3665 22.3615 21.4506 23.1127 20.3793 23.556C19.308 23.9992 18.1293 24.1146 16.9924 23.8875C15.8555 23.6604 14.8115 23.101 13.9924 22.2801C13.1734 21.4592 12.6162 20.4137 12.3912 19.2759C12.1662 18.138 12.2836 16.959 12.7286 15.888C13.1736 14.8169 13.9261 13.902 14.8909 13.2589C15.8558 12.6159 16.9896 12.2736 18.1489 12.2754C18.9184 12.2747 19.6804 12.4259 20.3913 12.7205C21.1022 13.0151 21.7479 13.4471 22.2915 13.992C22.8351 14.5368 23.2659 15.1836 23.559 15.8954C23.8522 16.6071 24.002 17.3698 23.9999 18.1396ZM22.3226 18.1459C22.3243 17.3176 22.0804 16.5075 21.6218 15.8179C21.1632 15.1284 20.5106 14.5903 19.7464 14.2719C18.9822 13.9534 18.1407 13.8689 17.3285 14.0289C16.5162 14.1889 15.7696 14.5863 15.1831 15.1708C14.5966 15.7553 14.1965 16.5007 14.0335 17.3127C13.8704 18.1248 13.9517 18.9669 14.2671 19.7327C14.5825 20.4985 15.1177 21.1535 15.8052 21.6149C16.4927 22.0764 17.3015 22.3235 18.1294 22.325C18.6792 22.3263 19.2238 22.2192 19.7323 22.0099C20.2407 21.8005 20.7029 21.493 21.0926 21.105C21.4822 20.7169 21.7917 20.2558 22.0032 19.7481C22.2147 19.2404 22.3242 18.6959 22.3254 18.1459H22.3226Z" fill="#433C50"/>
<path d="M6.61433 22.8978C5.08846 22.8978 3.56235 22.8978 2.03601 22.8978C0.793416 22.8978 0.00928054 22.1175 0.00928054 20.8764C0.00928054 20.2052 -0.0291579 19.527 0.0547069 18.8648C0.202868 17.6867 0.893355 16.7987 1.77254 16.0534C2.92428 15.0794 4.2773 14.4843 5.7037 14.0522C7.561 13.4986 9.49098 13.2275 11.4289 13.2482C11.9034 13.2482 12.2563 13.5838 12.2766 14.032C12.2976 14.4997 11.9782 14.8654 11.4988 14.9158C11.3944 14.924 11.2896 14.9271 11.185 14.9248C9.59694 14.9254 8.01627 15.1403 6.48574 15.5639C5.17675 15.931 3.93415 16.4463 2.86767 17.3175C2.31836 17.7671 1.83753 18.2873 1.72501 19.0145C1.65513 19.4752 1.68378 19.9535 1.68448 20.424C1.68448 21.333 1.58035 21.2211 2.47281 21.2218C5.3941 21.2246 8.31538 21.2246 11.2367 21.2218C11.3499 21.2182 11.4633 21.224 11.5756 21.2393C11.7851 21.2703 11.9745 21.3807 12.1047 21.5478C12.2348 21.7148 12.2956 21.9256 12.2745 22.1364C12.2604 22.3434 12.1676 22.5372 12.0151 22.6779C11.8627 22.8186 11.6621 22.8955 11.4547 22.8929C10.1968 22.8999 8.94367 22.8964 7.6878 22.8964L6.61433 22.8978Z" fill="#433C50"/>
<path d="M18.9773 19.5444C18.9773 19.9974 18.9821 20.4498 18.9773 20.9022C18.9703 21.4007 18.6236 21.7643 18.1589 21.7741C18.0476 21.7751 17.9372 21.7541 17.8341 21.7122C17.731 21.6703 17.6372 21.6084 17.5582 21.5301C17.4791 21.4518 17.4163 21.3586 17.3734 21.2558C17.3305 21.1531 17.3084 21.0429 17.3083 20.9316C17.2951 20.0002 17.2937 19.0689 17.3083 18.1348C17.3085 18.0253 17.3303 17.917 17.3723 17.8159C17.4143 17.7149 17.4758 17.6231 17.5533 17.5459C17.6308 17.4686 17.7228 17.4074 17.8239 17.3656C17.925 17.3239 18.0334 17.3026 18.1428 17.3027C18.6048 17.3027 18.9661 17.6677 18.9745 18.1607C18.9828 18.6242 18.9773 19.0829 18.9773 19.5444Z" fill="#433C50"/>
<path d="M18.1456 14.5137C18.3672 14.5137 18.5838 14.5796 18.7679 14.703C18.952 14.8264 19.0953 15.0017 19.1796 15.2067C19.264 15.4118 19.2855 15.6372 19.2415 15.8545C19.1975 16.0718 19.0899 16.2711 18.9325 16.4272C18.7751 16.5832 18.5748 16.6889 18.3572 16.7309C18.1396 16.7728 17.9145 16.7492 17.7104 16.6629C17.5062 16.5766 17.3323 16.4316 17.2107 16.2463C17.0891 16.0609 17.0253 15.8436 17.0274 15.6219C17.0321 15.3276 17.1518 15.0469 17.3608 14.8398C17.5697 14.6327 17.8514 14.5156 18.1456 14.5137Z" fill="#433C50"/>
</g>
<defs>
<clipPath id="clip0_907_665">
<rect width="24" height="24" fill="white"/>
</clipPath>
</defs>
</svg>
