<svg width="24" height="24" viewBox="0 0 24 24" fill="none" xmlns="http://www.w3.org/2000/svg">
<g clip-path="url(#clip0_774_1010)">
<path d="M24 13.604C21.727 13.604 19.4526 13.6052 17.1766 13.6075H7.19343V8.51999C6.9668 8.49046 6.75923 8.47344 6.55516 8.4349C5.9901 8.32728 5.44509 8.14609 4.9803 7.80572C4.66793 7.57697 4.34755 7.601 3.97752 7.62302V8.8028H0V0.028793H3.97652V0.763088C4.30944 0.830662 4.61479 0.823654 4.91311 0.702022C4.957 0.685536 4.99929 0.665097 5.03946 0.640956C5.86926 0.111382 6.77176 -0.0307715 7.74546 0.0052675C9.06462 0.0553217 10.3868 0.0217854 11.7064 0.0162795C12.7594 0.0117746 13.6568 0.378172 14.3994 1.12648C15.0482 1.78119 15.7012 2.4319 16.3583 3.0786C16.433 3.15251 16.5313 3.19787 16.6361 3.20674C19.0668 3.21308 21.4977 3.21441 23.9288 3.21074C23.9521 3.20964 23.9754 3.2073 23.9985 3.20373L24 13.604ZM6.64541 4.49964C7.11772 4.93761 7.64819 5.17337 8.27493 5.15334C8.90166 5.13332 9.40757 4.84251 9.8518 4.40804C10.6284 5.18488 11.3891 5.9477 12.1522 6.70803C12.5207 7.07493 13.0045 7.09895 13.34 6.7731C13.6834 6.43774 13.6619 5.95421 13.2828 5.5718C12.986 5.27147 12.6877 4.97348 12.3878 4.67783C11.7681 4.06166 11.1469 3.447 10.5222 2.82582L11.1113 2.24569C11.3815 2.52299 11.6468 2.8078 11.9286 3.07609C12.0109 3.15253 12.1172 3.19816 12.2294 3.20523C13.1986 3.21474 14.1678 3.21124 15.1374 3.21024C15.2057 3.20559 15.2737 3.19723 15.341 3.18521C14.8331 2.68117 14.3498 2.21516 13.882 1.73364C13.2703 1.10496 12.5342 0.806135 11.6573 0.812142C10.2193 0.822153 8.78083 0.833665 7.34535 0.805634C6.74369 0.794122 6.20469 0.899737 5.69077 1.20907C5.20592 1.50239 4.68047 1.65956 4.10387 1.59749C4.06775 1.59874 4.03204 1.60567 3.99808 1.61801V6.81114C4.19312 6.81114 4.37362 6.82415 4.54961 6.80814C4.79679 6.78561 4.99283 6.87421 5.20141 6.99884C5.53943 7.2066 5.89472 7.38495 6.26335 7.53192C6.54564 7.63954 6.86001 7.66356 7.18892 7.73214C7.18892 7.08143 7.19393 6.48729 7.1819 5.89565C7.1819 5.83158 7.08914 5.75249 7.02145 5.70895C6.73015 5.52224 6.43182 5.34655 6.11444 5.15334L6.64541 4.49964ZM10.7829 11.9968C10.8245 11.4256 10.7423 10.8991 10.3211 10.4776C9.89993 10.0562 9.37097 9.98057 8.80941 10.0056V6.80213C9.47024 6.85619 10.0443 6.71704 10.4505 6.18246L9.76054 5.49622C9.2396 5.83108 8.63994 5.96372 8.00568 5.9467V12.7866H23.1893V4.02712H12.9258L12.8872 4.07718C13.0838 4.26238 13.2883 4.43957 13.4738 4.63528C13.5271 4.69556 13.5933 4.74304 13.6676 4.77415C13.7418 4.80527 13.8221 4.81923 13.9025 4.81498C15.9662 4.80897 18.03 4.81147 20.0937 4.81147H20.3945C20.3644 5.39661 20.4446 5.92518 20.8673 6.34463C21.29 6.76409 21.8139 6.85419 22.387 6.80513V10.0086C21.8139 9.97857 21.284 10.0587 20.8638 10.4816C20.4436 10.9046 20.3624 11.4291 20.396 11.9978L10.7829 11.9968ZM11.0581 6.72004C10.6887 7.16525 10.1761 7.4688 9.60762 7.57897V9.23677L9.77759 9.28682C10.662 9.53259 11.2452 10.0962 11.4959 10.9741C11.556 11.1844 11.6463 11.2144 11.8303 11.2139C14.3392 11.2096 16.8483 11.2086 19.3576 11.2109H19.6209C19.8686 10.1317 20.5374 9.47853 21.6034 9.22976C21.6034 8.73372 21.5968 8.25821 21.6069 7.78269C21.6099 7.63253 21.5648 7.57297 21.4128 7.53242C20.6557 7.33571 20.1157 6.8692 19.7953 6.15793C19.7265 5.98406 19.6666 5.80681 19.6159 5.62686H14.2751C14.4395 6.06583 14.4044 6.48228 14.2249 6.91375C15.519 6.221 16.435 6.29058 17.1485 7.11397C17.4497 7.46272 17.6225 7.9037 17.6383 8.36387C17.6542 8.82405 17.5121 9.27583 17.2357 9.64441C16.9592 10.013 16.565 10.2763 16.1182 10.3907C15.6715 10.505 15.199 10.4637 14.7789 10.2734C14.5236 10.1615 14.2947 9.99714 14.1072 9.79101C13.9198 9.58488 13.7779 9.34162 13.6909 9.07709C13.4999 8.52049 13.5726 7.9784 13.8449 7.4228C12.9053 7.99742 12.2254 7.91433 11.4743 7.16152C11.3384 7.02437 11.2086 6.88021 11.0566 6.72004H11.0581ZM0.789187 7.99793H3.16477V0.830662H0.789187V7.99793ZM15.5892 7.21658C15.2734 7.2171 14.9705 7.34206 14.7465 7.5643C14.5225 7.78654 14.3954 8.08809 14.3929 8.40337C14.3938 8.72243 14.5206 9.02829 14.7459 9.25465C14.9711 9.48101 15.2766 9.60965 15.5962 9.61268C15.7546 9.61183 15.9112 9.57967 16.0571 9.51805C16.2029 9.45643 16.3351 9.36657 16.4459 9.25366C16.5568 9.14075 16.6442 9.00703 16.703 8.86023C16.7618 8.71343 16.7908 8.55645 16.7885 8.39836C16.7883 8.24195 16.7571 8.08714 16.6965 7.94289C16.636 7.79863 16.5474 7.6678 16.4358 7.55798C16.3243 7.44816 16.192 7.36152 16.0467 7.30309C15.9013 7.24466 15.7459 7.21559 15.5892 7.21758V7.21658Z" fill="#D1CFD4"/>
<path d="M12.131 24.0004C11.1783 23.7031 10.3987 23.0874 9.55483 22.5939C7.73529 21.5302 5.92979 20.4415 4.12328 19.3564C3.15209 18.7727 3.03226 17.4723 3.87259 16.7535C4.38501 16.3141 5.08043 16.2445 5.71168 16.5829C7.0183 17.2836 8.32342 17.9877 9.62703 18.6951C9.66764 18.7172 9.70976 18.7372 9.77394 18.7697C10.0352 18.069 10.6143 17.8187 11.2781 17.648C12.6379 17.3001 13.9916 16.9127 15.3514 16.5658C15.7259 16.4707 16.12 16.4367 16.5076 16.4157C16.9438 16.3906 17.383 16.4197 17.8202 16.4072C18.2753 16.393 18.7238 16.5178 19.1058 16.765C19.3821 16.9392 19.6663 17.1009 19.9877 17.2926V15.9912H23.9989V23.9999H20.0123C20.0038 23.8117 19.9958 23.6235 19.9867 23.4218L18.3703 24.0004H12.131ZM16.0859 19.6487C16.0573 19.6717 16.0468 19.6862 16.0358 19.6897C14.5732 20.0796 13.1172 20.4956 11.6456 20.8475C10.7431 21.0627 10.0607 20.6242 9.73734 19.7523C9.69869 19.6714 9.6346 19.6053 9.55483 19.5641C9.03589 19.2768 8.51244 18.998 7.99 18.7167C7.10404 18.2391 6.21959 17.7576 5.33263 17.2856C4.81369 17.0103 4.24211 17.2711 4.1293 17.8217C4.0581 18.1691 4.21955 18.4804 4.5981 18.7067C6.98304 20.1329 9.36848 21.5584 11.7544 22.9833C12.0029 23.1324 12.2883 23.2091 12.5782 23.2045C14.2117 23.2 15.8458 23.189 17.4793 23.2095C18.0464 23.217 18.5793 23.144 19.0923 22.9017C19.3189 22.7969 19.5517 22.7056 19.7892 22.6284C19.9551 22.5733 20.0113 22.4877 20.0098 22.3081C20.0003 21.2069 19.9657 20.1057 20.0208 19.007C20.0509 18.4143 19.8594 18.0975 19.3384 17.8147C18.0654 17.1229 18.4861 17.2085 17.0722 17.214C16.5913 17.214 16.0975 17.2255 15.6317 17.3297C14.679 17.5429 13.7449 17.8227 12.8028 18.0745C12.2378 18.2246 11.6712 18.3748 11.1071 18.528C10.6599 18.6511 10.4052 19.0675 10.502 19.497C10.5241 19.5986 10.5669 19.6946 10.6275 19.7791C10.6881 19.8636 10.7654 19.9349 10.8546 19.9886C10.9437 20.0423 11.0429 20.0773 11.1461 20.0914C11.2493 20.1055 11.3542 20.0984 11.4546 20.0706C12.5145 19.8088 13.569 19.524 14.6259 19.2477C15.045 19.1381 15.4637 19.027 15.8969 18.9129C15.9621 19.1797 16.0253 19.4179 16.0859 19.6487ZM20.821 16.8146V23.1905H23.1861V16.8146H20.821Z" fill="#D1CFD4"/>
</g>
<defs>
<clipPath id="clip0_774_1010">
<rect width="24" height="24" fill="white"/>
</clipPath>
</defs>
</svg>
