<svg width="24" height="25" viewBox="0 0 24 25" fill="none" xmlns="http://www.w3.org/2000/svg">
<g clip-path="url(#clip0_774_1015)">
<path d="M5.78719 23.7812H5.34497C4.09257 23.7812 2.8404 23.7812 1.58845 23.7812C0.620875 23.7812 0.0117108 23.18 0.00557826 22.2233C0.00557826 21.752 0.0205687 21.2807 0.00217109 20.8095C-0.0564287 19.2758 1.08082 18.3184 2.25077 18.0491C2.37399 18.0166 2.50024 17.9965 2.62758 17.9892C3.88611 17.9575 5.14873 17.8788 6.40181 18.0417C6.44046 18.0443 6.47923 18.0388 6.51553 18.0254C6.55184 18.0121 6.58485 17.9912 6.61236 17.9643C7.56017 16.8514 8.78532 16.368 10.2394 16.3781C11.423 16.3868 12.6072 16.3848 13.7908 16.3781C15.2354 16.3707 16.4517 16.8574 17.392 17.9629C17.4409 18.0137 17.5078 18.0436 17.5787 18.0464C18.4958 18.0202 19.413 17.971 20.3308 17.9609C20.8078 17.9555 21.2943 17.9548 21.7515 18.0592C22.8493 18.309 23.624 18.9506 23.9238 20.0601C23.9731 20.2641 23.9974 20.4732 23.996 20.6829C24.0056 21.1952 24.0015 21.7076 23.996 22.2199C23.9899 23.1773 23.3828 23.7778 22.4138 23.7792C21.111 23.7792 19.808 23.7792 18.5047 23.7792H18.2165C18.0563 24.4154 17.6843 24.8335 17.0322 24.9682C16.8973 24.9915 16.7603 25.0012 16.6234 24.9971C13.5403 24.9971 10.457 24.9971 7.37347 24.9971C6.53536 24.9998 6.02159 24.614 5.78719 23.7812ZM11.9749 24.1939C13.5339 24.1939 15.0927 24.1939 16.6513 24.1939C17.1549 24.1939 17.407 23.9488 17.4083 23.4533C17.412 22.403 17.412 21.3532 17.4083 20.3038C17.4153 19.7025 17.2256 19.115 16.8673 18.6288C16.1512 17.6633 15.1638 17.2109 13.97 17.1934C12.8287 17.1766 11.6874 17.1853 10.546 17.1934C10.1803 17.1862 9.8144 17.2038 9.45104 17.2459C7.97514 17.4566 6.5449 18.647 6.58919 20.456C6.61304 21.4383 6.58919 22.4212 6.59396 23.4035C6.59396 23.965 6.83109 24.1966 7.40209 24.1973L11.9749 24.1939ZM6.09382 18.8153C4.87208 18.8153 3.68646 18.7479 2.5131 18.8375C1.66204 18.9014 0.754429 19.6117 0.819161 20.8573C0.842328 21.3009 0.819161 21.7466 0.823249 22.1916C0.823249 22.7397 1.06378 22.9746 1.61707 22.9753C2.91126 22.9753 4.20591 22.9753 5.50101 22.9753C5.58414 22.9753 5.66658 22.9686 5.77356 22.9632C5.77356 22.2772 5.7797 21.6079 5.77356 20.9387C5.76539 20.2224 5.77016 19.5107 6.09382 18.8153ZM17.9201 18.7978C18.4597 20.1752 18.1163 21.5783 18.2539 22.9578C18.2941 22.9662 18.3349 22.9716 18.3759 22.974C19.7462 22.974 21.1172 22.9787 22.4874 22.974C22.9194 22.974 23.1688 22.7107 23.177 22.2677C23.1852 21.8247 23.1865 21.3608 23.177 20.9077C23.1822 20.6652 23.1594 20.4228 23.1089 20.1853C22.9188 19.4596 22.204 18.8624 21.3645 18.8106C20.4235 18.7513 19.477 18.7735 18.5326 18.7661C18.3371 18.7634 18.1429 18.785 17.9201 18.7978Z" fill="#D1CFD4"/>
<path d="M0.216797 11.0749C0.234513 10.8413 0.216796 10.5989 0.276759 10.3754C0.417807 9.84149 0.827324 9.56075 1.33973 9.42744C1.91483 9.27865 2.4981 9.16622 3.0766 9.01877C3.18663 8.97884 3.27641 8.89786 3.32667 8.79323C3.51337 8.38928 3.66737 7.97254 3.85543 7.56791C3.91812 7.43326 3.92357 7.33227 3.83772 7.20233C3.54335 6.76 3.25172 6.31565 2.98257 5.85582C2.85578 5.63888 2.75907 5.4061 2.69502 5.16371C2.58327 4.73215 2.71546 4.35042 3.03163 4.03466C3.41457 3.65495 3.82341 3.29408 4.18318 2.89013C4.78212 2.22697 5.52757 2.32594 6.07609 2.65516C6.55306 2.94332 7.03345 3.23484 7.50292 3.53915C7.56155 3.58454 7.63256 3.61161 7.70685 3.61689C7.78114 3.62217 7.85534 3.60541 7.91994 3.56877C8.32059 3.38699 8.73079 3.22406 9.14644 3.07056C9.2105 3.05342 9.2681 3.01817 9.31216 2.96913C9.35622 2.92009 9.38483 2.8594 9.39447 2.79453C9.50894 2.26131 9.62614 1.72876 9.7597 1.19958C9.90006 0.640781 10.1794 0.1897 10.7927 0.0341779C10.9088 0.00891948 11.0275 -0.00260645 11.1463 -0.000157777C11.6833 -0.00419731 12.2195 -0.000157777 12.7565 -0.000157777C13.5373 -0.000157777 14.0007 0.329064 14.2092 1.07705C14.3652 1.63451 14.4852 2.20139 14.6078 2.76692C14.6173 2.83926 14.6483 2.9072 14.6968 2.96219C14.7453 3.01718 14.8091 3.05676 14.8804 3.07595C15.2946 3.22474 15.7021 3.39574 16.1069 3.57685C16.1644 3.6094 16.2304 3.62463 16.2966 3.62068C16.3628 3.61674 16.4264 3.59378 16.4796 3.55463C16.9286 3.26648 17.3743 2.96957 17.8424 2.71441C18.1087 2.57262 18.3959 2.47289 18.6934 2.41885C19.0641 2.35152 19.3987 2.48617 19.6685 2.75548C20.11 3.18771 20.5543 3.61657 20.9863 4.05688C21.4183 4.49719 21.4701 5.09033 21.1117 5.70837C20.8391 6.17427 20.5529 6.63141 20.2443 7.07374C20.0889 7.29659 20.0842 7.46557 20.2129 7.70593C20.3942 8.04255 20.5209 8.41419 20.6558 8.77573C20.7104 8.9225 20.7751 9.00598 20.9468 9.03897C21.464 9.13929 21.9818 9.24499 22.4881 9.38839C22.7801 9.47031 23.0577 9.59586 23.3112 9.7607C23.6138 9.96268 23.763 10.2784 23.7671 10.6467C23.7671 10.9578 23.7739 11.2688 23.7671 11.5792C23.7616 11.8451 23.6049 12.004 23.3671 12.0053C23.1293 12.0067 22.9678 11.8485 22.9583 11.5839C22.9474 11.3577 22.9549 11.1308 22.9549 10.9039C22.9549 10.4441 22.8452 10.298 22.3839 10.1855C21.7883 10.0428 21.1935 9.8967 20.5918 9.78696C20.2286 9.71963 20.0467 9.55401 19.9295 9.19921C19.7598 8.67541 19.5206 8.17114 19.2808 7.67159C19.1711 7.44066 19.1622 7.25484 19.3053 7.0394C19.646 6.52638 19.971 6.00461 20.2995 5.48486C20.6279 4.9651 20.6163 4.82641 20.1823 4.39889C19.8634 4.08381 19.5309 3.78084 19.2283 3.45095C18.9421 3.13856 18.688 3.15472 18.3664 3.34256C17.8894 3.61994 17.4049 3.88991 16.9641 4.21779C16.5355 4.53556 16.1709 4.57259 15.6939 4.29185C15.2701 4.04207 14.7747 3.90405 14.3019 3.7418C14.0743 3.6637 13.9448 3.53982 13.893 3.31226C13.7622 2.71373 13.6205 2.11723 13.4842 1.52073C13.4555 1.38977 13.4151 1.26158 13.3636 1.13764C13.3268 1.03362 13.2562 0.944596 13.1627 0.884526C13.0692 0.824456 12.9582 0.796741 12.8471 0.805728C12.319 0.817174 11.7902 0.809095 11.2622 0.809095C10.8383 0.809095 10.6809 0.914796 10.5753 1.3275C10.4281 1.90448 10.2755 2.48281 10.174 3.06854C10.1018 3.48663 9.90756 3.69467 9.48782 3.81855C8.97064 3.97138 8.48004 4.21644 7.98876 4.44602C7.77207 4.54768 7.59491 4.55509 7.39322 4.4265C6.84811 4.08112 6.30299 3.7391 5.75106 3.40719C5.26114 3.1123 5.0615 3.14193 4.70649 3.52568C4.39714 3.86231 4.05917 4.16999 3.73414 4.49046C3.42547 4.79611 3.39345 4.95702 3.61899 5.33404C3.90517 5.81071 4.18318 6.29613 4.51706 6.73913C4.83323 7.15722 4.85776 7.51068 4.57975 7.96849C4.33173 8.3812 4.1934 8.86056 4.03464 9.31972C3.95083 9.56007 3.82409 9.69742 3.56584 9.7506C2.92465 9.88525 2.28755 10.0314 1.65045 10.1822C1.15507 10.3 1.05423 10.4346 1.05423 10.9301C1.05423 11.149 1.06172 11.3678 1.05082 11.5852C1.03787 11.8505 0.876384 12.0074 0.641985 12.0074C0.407586 12.0074 0.250184 11.8478 0.240645 11.5819C0.234512 11.4142 0.240645 11.2452 0.240645 11.0783L0.216797 11.0749Z" fill="#D1CFD4"/>
<path d="M11.9998 7.49609C12.8231 7.49809 13.6273 7.74111 14.3109 8.19446C14.9945 8.64781 15.5268 9.29116 15.8406 10.0432C16.1543 10.7953 16.2355 11.6224 16.0738 12.4201C15.9121 13.2177 15.5148 13.9501 14.932 14.5247C14.3493 15.0994 13.6073 15.4905 12.7997 15.6487C11.9921 15.8069 11.1552 15.7251 10.3946 15.4136C9.63406 15.1022 8.98399 14.575 8.5265 13.8986C8.06901 13.2223 7.82463 12.4272 7.82422 11.6137C7.82656 10.521 8.2675 9.47376 9.0503 8.70182C9.8331 7.92989 10.8938 7.49627 11.9998 7.49609ZM11.9862 14.9201C12.8764 14.9228 13.7315 14.5774 14.3648 13.9593C14.9982 13.3412 15.3583 12.5007 15.3666 11.6211C15.3754 9.80334 13.8634 8.30602 12.0093 8.30265C11.5695 8.30115 11.1337 8.38525 10.7268 8.55016C10.3199 8.71507 9.94987 8.95755 9.63781 9.26376C9.32574 9.56997 9.07778 9.93391 8.90807 10.3348C8.73836 10.7357 8.65023 11.1657 8.6487 11.6003C8.64718 12.0348 8.7323 12.4654 8.8992 12.8675C9.0661 13.2695 9.31151 13.6351 9.62142 13.9435C9.93134 14.2518 10.2997 14.4968 10.7054 14.6645C11.1112 14.8322 11.5464 14.9193 11.9862 14.9208V14.9201Z" fill="#D1CFD4"/>
<path d="M11.9998 5.23438C15.5308 5.23101 18.4205 8.02974 18.473 11.5044C18.4778 11.8114 18.3422 11.9898 18.0928 12.0046C17.8298 12.0201 17.6731 11.8558 17.6574 11.5334C17.5456 9.25169 16.4745 7.55374 14.3867 6.5681C10.7549 4.85197 6.60383 7.35648 6.35376 11.3738C6.34899 11.458 6.34899 11.5421 6.33945 11.6256C6.3122 11.87 6.15003 12.0141 5.91903 12.0053C5.86523 12.0054 5.81199 11.9945 5.76273 11.9731C5.71347 11.9517 5.66927 11.9204 5.63296 11.8812C5.59666 11.8419 5.56904 11.7956 5.55189 11.7453C5.53474 11.6949 5.52843 11.6415 5.53337 11.5886C5.53977 11.236 5.56982 10.8842 5.62331 10.5356C6.13981 7.48238 8.8463 5.23707 11.9998 5.23438Z" fill="#D1CFD4"/>
<path d="M6.89614 14.7874C6.88762 15.4547 6.6139 16.092 6.13406 16.5617C5.65422 17.0314 5.00671 17.2959 4.33125 17.2981C3.65579 17.3004 3.00652 17.0401 2.52354 16.5735C2.04056 16.107 1.76258 15.4715 1.74959 14.8042C1.73869 13.4106 2.90795 12.2526 4.32934 12.2539C5.00902 12.2559 5.66034 12.5233 6.1412 12.9979C6.62206 13.4726 6.89345 14.1158 6.89614 14.7874ZM6.07847 14.7928C6.07792 14.4492 5.97416 14.1136 5.78034 13.8283C5.58652 13.5431 5.31136 13.3212 4.98974 13.1906C4.66813 13.0601 4.31452 13.0268 3.97375 13.0951C3.63298 13.1633 3.32039 13.33 3.07558 13.5739C2.83078 13.8179 2.66478 14.1282 2.59864 14.4655C2.5325 14.8027 2.56919 15.1518 2.70405 15.4685C2.83892 15.7851 3.06589 16.0551 3.3562 16.2441C3.64652 16.4332 3.9871 16.5328 4.33479 16.5304C4.79873 16.5269 5.24242 16.3422 5.56907 16.0167C5.89573 15.6911 6.07885 15.2512 6.07847 14.7928Z" fill="#D1CFD4"/>
<path d="M22.2493 14.7396C22.3079 16.0861 21.1816 17.2771 19.7997 17.3363C18.4036 17.3962 17.1723 16.319 17.111 14.9833C17.0428 13.5109 18.1228 12.3192 19.5783 12.2593C21.0024 12.198 22.1867 13.2974 22.2493 14.7396ZM19.6853 13.0631C19.3378 13.0619 18.9978 13.1626 18.7083 13.3524C18.4188 13.5422 18.1928 13.8126 18.0589 14.1293C17.925 14.4461 17.8891 14.795 17.956 15.1319C18.0228 15.4688 18.1893 15.7785 18.4344 16.0218C18.6794 16.2652 18.992 16.4312 19.3326 16.499C19.6732 16.5667 20.0265 16.5331 20.3478 16.4024C20.6691 16.2717 20.9438 16.0497 21.1374 15.7646C21.3309 15.4795 21.4345 15.1441 21.4351 14.8008C21.436 14.3409 21.2523 13.8995 20.9243 13.5732C20.5963 13.247 20.1507 13.0626 19.6853 13.0605V13.0631Z" fill="#D1CFD4"/>
</g>
<defs>
<clipPath id="clip0_774_1015">
<rect width="24" height="25" fill="white"/>
</clipPath>
</defs>
</svg>
