<svg width="14" height="14" viewBox="0 0 14 14" fill="none" xmlns="http://www.w3.org/2000/svg">
<path d="M10.5782 6.41699C10.9171 9.55241 12.25 10.5003 12.25 10.5003H1.75C1.75 10.5003 3.5 9.25608 3.5 4.90033C3.5 3.91041 3.86867 2.96074 4.52492 2.26074C5.18117 1.56074 6.0725 1.16699 7 1.16699C7.19717 1.16699 7.39161 1.18449 7.58333 1.21949M8.00917 12.2503C7.90661 12.4271 7.75941 12.5739 7.5823 12.6759C7.40519 12.7779 7.20439 12.8316 7 12.8316C6.79561 12.8316 6.59481 12.7779 6.4177 12.6759C6.24059 12.5739 6.09339 12.4271 5.99083 12.2503M11.0833 4.66699C11.5475 4.66699 11.9926 4.48262 12.3208 4.15443C12.649 3.82624 12.8333 3.38112 12.8333 2.91699C12.8333 2.45286 12.649 2.00774 12.3208 1.67956C11.9926 1.35137 11.5475 1.16699 11.0833 1.16699C10.6192 1.16699 10.1741 1.35137 9.8459 1.67956C9.51771 2.00774 9.33333 2.45286 9.33333 2.91699C9.33333 3.38112 9.51771 3.82624 9.8459 4.15443C10.1741 4.48262 10.6192 4.66699 11.0833 4.66699Z" stroke="#6D6C80" stroke-linecap="round" stroke-linejoin="round"/>
</svg>
