<svg width="14" height="13" viewBox="0 0 14 13" fill="none" xmlns="http://www.w3.org/2000/svg">
<path d="M11.0526 5.47368L14 13H12.5565L11.752 10.9474H9.01225L8.20909 13H6.76622L9.71292 5.47368H11.0526ZM5.35885 0V1.36842H9.37799V2.73684H8.05971C7.54337 4.3258 6.71864 5.79209 5.63483 7.04805C6.11815 7.48792 6.64196 7.87906 7.19895 8.216L6.69656 9.50095C5.97676 9.08405 5.3036 8.58827 4.689 8.02237C3.49205 9.12814 2.07504 9.95628 0.535215 10.4499L0.176172 9.13011C1.49568 8.70036 2.71159 7.99113 3.7445 7.04874C2.97941 6.16514 2.34257 5.17386 1.85349 4.10526H3.35397C3.72717 4.80931 4.17486 5.46942 4.689 6.07374C5.52599 5.08756 6.18588 3.95815 6.63828 2.73753L0 2.73684V1.36842H4.01914V0H5.35885ZM10.3828 7.44763L9.54746 9.57895H11.2167L10.3828 7.44763Z" fill="#6D6C80"/>
</svg>
