<svg width="18" height="18" viewBox="0 0 18 18" fill="none" xmlns="http://www.w3.org/2000/svg">
<rect x="0.5" y="0.5" width="17" height="17" rx="3.5" fill="white" stroke="#6D6C80"/>
<g clip-path="url(#clip0_962_890)">
<path d="M7.83366 5.5C7.83345 6.31671 8.04759 7.11916 8.45466 7.82719C8.86173 8.53522 9.44749 9.12401 10.1534 9.53474C10.8593 9.94548 11.6606 10.1638 12.4773 10.1678C13.294 10.1718 14.0975 9.96143 14.8074 9.55767C14.5268 12.5175 12.0337 14.8333 9.00033 14.8333C5.77858 14.8333 3.16699 12.2217 3.16699 9C3.16699 5.96667 5.48283 3.4735 8.44266 3.19292C8.04216 3.89577 7.83223 4.69105 7.83366 5.5ZM4.33366 9C4.33366 10.2377 4.82532 11.4247 5.70049 12.2998C6.57566 13.175 7.76265 13.6667 9.00033 13.6667C9.82492 13.667 10.6349 13.4488 11.3477 13.0343C12.0606 12.6198 12.6509 12.0239 13.0586 11.3071C12.8739 11.3246 12.6878 11.3333 12.5003 11.3333C9.27858 11.3333 6.66699 8.72175 6.66699 5.5C6.66699 5.31294 6.67574 5.12686 6.69324 4.94175C5.97646 5.34941 5.3805 5.93972 4.96602 6.65258C4.55154 7.36544 4.33335 8.1754 4.33366 9ZM12.596 3.33642L13.0837 3.45833V4.04167L12.596 4.16358C12.3909 4.21488 12.2036 4.32094 12.0541 4.47043C11.9046 4.61993 11.7985 4.80723 11.7472 5.01233L11.6253 5.5H11.042L10.9201 5.01233C10.8688 4.80723 10.7627 4.61993 10.6132 4.47043C10.4637 4.32094 10.2764 4.21488 10.0713 4.16358L9.58366 4.04167V3.45833L10.0713 3.33642C10.2763 3.28503 10.4635 3.17893 10.6129 3.02944C10.7623 2.87995 10.8682 2.69269 10.9195 2.48767L11.042 2H11.6253L11.7472 2.48767C11.7985 2.69277 11.9046 2.88007 12.0541 3.02957C12.2036 3.17906 12.3909 3.28512 12.596 3.33642ZM15.5127 6.25308L16.0003 6.375V6.95833L15.5127 7.08025C15.3076 7.13154 15.1203 7.23761 14.9708 7.3871C14.8213 7.53659 14.7152 7.7239 14.6639 7.929L14.542 8.41667H13.9587L13.8367 7.929C13.7854 7.7239 13.6794 7.53659 13.5299 7.3871C13.3804 7.23761 13.1931 7.13154 12.988 7.08025L12.5003 6.95833V6.375L12.988 6.25308C13.1931 6.20179 13.3804 6.09573 13.5299 5.94623C13.6794 5.79674 13.7854 5.60943 13.8367 5.40433L13.9587 4.91667H14.542L14.6639 5.40433C14.7152 5.60943 14.8213 5.79674 14.9708 5.94623C15.1203 6.09573 15.3076 6.20179 15.5127 6.25308Z" fill="#6D6C80"/>
</g>
<defs>
<clipPath id="clip0_962_890">
<rect width="14" height="14" fill="white" transform="translate(2 2)"/>
</clipPath>
</defs>
</svg>
