<svg width="17" height="16" viewBox="0 0 17 16" fill="none" xmlns="http://www.w3.org/2000/svg">
<path d="M8.50037 0L11.6479 4.55721L17 6.11166L13.5926 10.4824L13.7534 16L8.50037 14.1441L3.24657 16L3.40745 10.4824L0 6.11166L5.35286 4.55721L8.50037 0ZM8.50037 2.61212L6.28237 5.82421L2.50997 6.91874L4.91194 9.99889L4.79798 13.8861L8.49963 12.5786L12.2013 13.8861L12.0888 9.99889L14.49 6.91874L10.7176 5.82421L8.50037 2.61212ZM7.01078 8.47614C7.01078 8.8671 7.16772 9.24204 7.44707 9.51849C7.72642 9.79494 8.10531 9.95025 8.50037 9.95025C8.89544 9.95025 9.27432 9.79494 9.55367 9.51849C9.83303 9.24204 9.98997 8.8671 9.98997 8.47614H11.4796C11.4796 9.25805 11.1657 10.0079 10.607 10.5608C10.0483 11.1137 9.2905 11.4244 8.50037 11.4244C7.71024 11.4244 6.95247 11.1137 6.39377 10.5608C5.83506 10.0079 5.52118 9.25805 5.52118 8.47614H7.01078Z" fill="#6D6C80"/>
</svg>
