<svg width="18" height="18" viewBox="0 0 18 18" fill="none" xmlns="http://www.w3.org/2000/svg">
<rect x="0.5" y="0.5" width="17" height="17" rx="3.5" fill="white" stroke="#6D6C80"/>
<path d="M8.9998 12.9271C7.95823 12.9271 6.95931 12.5133 6.2228 11.7768C5.4863 11.0403 5.07253 10.0414 5.07253 8.9998C5.07253 7.95823 5.4863 6.95931 6.2228 6.2228C6.95931 5.4863 7.95823 5.07253 8.9998 5.07253C10.0414 5.07253 11.0403 5.4863 11.7768 6.2228C12.5133 6.95931 12.9271 7.95823 12.9271 8.9998C12.9271 10.0414 12.5133 11.0403 11.7768 11.7768C11.0403 12.5133 10.0414 12.9271 8.9998 12.9271ZM8.9998 11.618C9.69419 11.618 10.3601 11.3421 10.8511 10.8511C11.3421 10.3601 11.618 9.69419 11.618 8.9998C11.618 8.30542 11.3421 7.63947 10.8511 7.14847C10.3601 6.65747 9.69419 6.38162 8.9998 6.38162C8.30542 6.38162 7.63947 6.65747 7.14847 7.14847C6.65747 7.63947 6.38162 8.30542 6.38162 8.9998C6.38162 9.69419 6.65747 10.3601 7.14847 10.8511C7.63947 11.3421 8.30542 11.618 8.9998 11.618ZM8.34526 1.7998H9.65435V3.76344H8.34526V1.7998ZM8.34526 14.2362H9.65435V16.1998H8.34526V14.2362ZM3.44599 4.37151L4.37151 3.44599L5.7598 4.83428L4.83428 5.7598L3.44599 4.37151ZM12.2398 13.1653L13.1653 12.2398L14.5536 13.6281L13.6281 14.5536L12.2398 13.1653ZM13.6281 3.44533L14.5536 4.37151L13.1653 5.7598L12.2398 4.83428L13.6281 3.44533ZM4.83428 12.2398L5.7598 13.1653L4.37151 14.5536L3.44599 13.6281L4.83428 12.2398ZM16.1998 8.34526V9.65435H14.2362V8.34526H16.1998ZM3.76344 8.34526V9.65435H1.7998V8.34526H3.76344Z" fill="#6D6C80"/>
</svg>
