<svg width="34" height="40" viewBox="0 0 34 40" fill="none" xmlns="http://www.w3.org/2000/svg">
<path d="M0.00364827 20.0699C0.00364827 14.898 0.00364827 9.72603 0.00364827 4.55408C0.00364827 1.59365 1.49929 0.0253311 4.43329 0.0165203C12.576 -0.00550676 20.7201 -0.00550676 28.8657 0.0165203C31.597 0.0165203 33.1477 1.63771 33.1477 4.36466C33.1477 14.453 33.1477 24.5407 33.1477 34.6276C33.1477 35.2157 33.1477 35.8038 33.0927 36.3898C32.89 38.4515 31.379 39.967 29.3194 39.9758C20.8111 40.0081 12.3006 40.0081 3.78789 39.9758C1.54113 39.9648 0.0190669 38.2136 0.0102561 35.8193C-0.00956823 30.5614 0.00585097 25.3168 0.00364827 20.0699ZM17.8037 24.5833C18.8346 24.2771 20.8765 23.9092 22.7113 23.0832C26.1519 21.5413 26.381 20.2528 24.1673 17.1205C23.3942 16.0192 22.3126 15.6557 21.0945 16.1888C18.1385 17.4818 15.2111 17.4707 12.2551 16.1888C11.0282 15.6557 9.88938 15.9685 9.21095 17.1359C8.63693 18.151 8.16402 19.2201 7.79902 20.3277C7.68889 20.6426 7.90475 21.2528 8.17789 21.4907C10.6427 23.6251 13.5877 24.4665 17.8037 24.5833ZM16.6561 15.5962C17.9899 15.5963 19.2699 15.0704 20.2184 14.1327C21.1668 13.1949 21.7072 11.921 21.7223 10.5873C21.7155 9.25372 21.1859 7.97602 20.2473 7.02871C19.3086 6.08141 18.0358 5.54009 16.7023 5.52108C15.3693 5.52842 14.0923 6.05791 13.1452 6.99598C12.198 7.93404 11.6563 9.20595 11.6361 10.5388C11.6384 11.873 12.1668 13.1524 13.1067 14.0993C14.0466 15.0461 15.322 15.5841 16.6561 15.5962ZM26.5506 31.6892C26.1652 31.6694 25.7775 31.6363 25.392 31.6363C19.7164 31.6363 14.04 31.6363 8.36291 31.6363C6.93556 31.6363 6.8871 31.7024 7.22191 33.1672H26.5506V31.6892ZM7.11398 29.5636H19.2993V28.123H7.11398V29.5636ZM22.1959 29.5636H26.5352V28.1076H22.1959V29.5636Z" fill="#2595ED"/>
<path d="M17.8031 24.5829C13.5871 24.4661 10.6421 23.6247 8.17727 21.4991C7.90413 21.2612 7.68827 20.651 7.7984 20.336C8.1634 19.2285 8.63631 18.1594 9.21033 17.1443C9.88876 15.9857 11.0276 15.6641 12.2545 16.1972C15.2105 17.4769 18.1379 17.4879 21.0939 16.1972C22.312 15.6641 23.3935 16.0342 24.1667 17.1289C26.3804 20.2611 26.1491 21.5343 22.7107 23.0916C20.8759 23.9088 18.8339 24.2767 17.8031 24.5829Z" fill="white"/>
<path d="M16.6547 15.5961C15.3214 15.584 14.0466 15.0467 13.1069 14.1007C12.1671 13.1548 11.6382 11.8765 11.6348 10.5431C11.6549 9.21025 12.1967 7.93835 13.1438 7.00029C14.0909 6.06223 15.368 5.53273 16.701 5.52539C18.0344 5.54441 19.3072 6.08572 20.2459 7.03303C21.1845 7.98033 21.7142 9.25803 21.7209 10.5916C21.7047 11.9245 21.1638 13.1974 20.2155 14.1342C19.2671 15.071 17.9878 15.5962 16.6547 15.5961Z" fill="white"/>
<path d="M26.5512 31.6898V33.1656H7.22249C6.88768 31.7008 6.93614 31.6348 8.36349 31.6348C14.0391 31.6348 19.7155 31.6348 25.3926 31.6348C25.7781 31.637 26.1657 31.67 26.5512 31.6898Z" fill="white"/>
<path d="M7.11426 29.5626V28.1221H19.2996V29.5626H7.11426Z" fill="white"/>
<path d="M22.1968 29.5722V28.1162H26.5361V29.5722H22.1968Z" fill="white"/>
</svg>
