<svg width="39" height="41" viewBox="0 0 39 41" fill="none" xmlns="http://www.w3.org/2000/svg">
<path d="M19.4286 0C15.3063 0 11.3529 1.61155 8.43807 4.48014C5.52321 7.34872 3.88566 11.2394 3.88566 15.2961V20.581L0.205878 27.8237C0.0574501 28.1152 -0.0127649 28.4392 0.00190601 28.7649C0.0165769 29.0907 0.115646 29.4073 0.289699 29.6847C0.463752 29.9622 0.707006 30.1912 0.996342 30.35C1.28568 30.5089 1.61149 30.5923 1.9428 30.5923H36.9143C37.2457 30.5923 37.5715 30.5089 37.8608 30.35C38.1501 30.1912 38.3934 29.9622 38.5674 29.6847C38.7415 29.4073 38.8406 29.0907 38.8552 28.7649C38.8699 28.4392 38.7997 28.1152 38.6513 27.8237L34.9715 20.581V15.2961C34.9715 11.2394 33.3339 7.34872 30.4191 4.48014C27.5042 1.61155 23.5508 0 19.4286 0ZM19.4286 40.1524C17.7053 40.1528 16.0308 39.5896 14.6684 38.5512C13.3059 37.5129 12.3327 36.0584 11.9019 34.4163H26.9552C26.5244 36.0584 25.5513 37.5129 24.1888 38.5512C22.8263 39.5896 21.1518 40.1528 19.4286 40.1524Z" fill="#2595ED"/>
</svg>
