<svg width="31" height="40" viewBox="0 0 31 40" fill="none" xmlns="http://www.w3.org/2000/svg">
<g clip-path="url(#clip0_640_974)">
<path d="M9.42206 32.4265H4.92822V0.00195312H28.1025C29.9528 0.00195312 30.788 0.850442 30.7895 2.7306C30.7895 12.3647 30.7895 21.9987 30.7895 31.6328V32.3968H25.0746C25.5472 26.2553 20.8411 23.1603 17.105 23.2637C12.6081 23.3779 8.82392 27.276 9.42206 32.4265ZM17.9589 20.8935C20.9279 20.8935 23.8974 20.8935 26.8675 20.8935C27.0984 20.8935 27.3804 20.9561 27.5493 20.8465C27.7833 20.69 28.0932 20.4019 28.0792 20.1875C28.0637 19.9276 27.7833 19.6333 27.5431 19.4579C27.3881 19.3421 27.0953 19.3969 26.8644 19.3969H9.13386C8.92931 19.3969 8.66899 19.3484 8.52953 19.4517C8.28779 19.6301 7.95774 19.9213 7.96084 20.1483C7.96394 20.3753 8.28156 20.6869 8.53104 20.8544C8.6953 20.9639 8.982 20.8935 9.21444 20.8935H17.9589ZM17.666 11.333C20.635 11.333 23.6024 11.333 26.5715 11.333C27.1107 11.333 27.5292 11.1436 27.5214 10.5628C27.5137 10.0305 27.1154 9.81917 26.6102 9.82856C26.5064 9.82856 26.4026 9.82856 26.3003 9.82856C20.6184 9.82856 14.9392 9.82856 9.26249 9.82856C8.98008 9.81353 8.69704 9.84097 8.42262 9.90997C7.85236 10.0916 7.71132 10.8054 8.19479 11.1342C8.42568 11.2907 8.77433 11.3252 9.0703 11.3268C11.9355 11.3377 14.8008 11.3314 17.666 11.333ZM17.1035 14.6205H9.28882C9.185 14.6205 9.08117 14.6205 8.9789 14.6205C8.42879 14.5861 7.93446 14.7333 7.92982 15.3657C7.92517 15.9982 8.41797 16.1407 8.96498 16.1391C14.3576 16.1391 19.7507 16.1391 25.1443 16.1391C25.7037 16.1391 26.243 16.0452 26.229 15.3344C26.2104 14.6722 25.696 14.6127 25.1629 14.6143C22.4697 14.6206 19.7874 14.6159 17.1035 14.6159V14.6205ZM14.8535 6.57704C16.9175 6.57704 18.9816 6.57704 21.0519 6.57704C21.5679 6.57704 22.0033 6.37509 21.9738 5.77237C21.9475 5.22758 21.5477 5.05693 21.0441 5.05693C16.9665 5.05693 12.8901 5.05693 8.81463 5.05693C8.30016 5.05693 7.92516 5.27924 7.92671 5.81151C7.92826 6.34378 8.32035 6.55982 8.81932 6.5739C8.97428 6.5739 9.12924 6.5739 9.2842 6.5739L14.8535 6.57704Z" fill="#15B34D"/>
<path d="M15.9845 39.9966C11.6735 39.9966 7.36404 39.9966 3.05461 39.9966C2.43053 40.0052 1.81954 39.8158 1.30752 39.4553C0.795507 39.0947 0.408243 38.581 0.200255 37.9865C-0.210389 36.7858 0.0948823 35.4223 1.13002 34.6865C1.71735 34.2764 2.40414 34.0356 3.11665 33.9898C5.15128 33.9006 7.19209 33.9679 9.23137 33.9507C9.67455 33.9507 9.89764 34.0978 10.1053 34.5127C11.5852 37.4684 13.9483 39.1153 17.2614 39.0965C20.5744 39.0777 22.9097 37.423 24.3895 34.4579C24.4676 34.3285 24.5732 34.2182 24.6986 34.1351C24.824 34.052 24.9662 33.9981 25.1148 33.9773C26.7651 33.935 28.417 33.9773 30.0735 33.9476C30.5972 33.9397 30.8079 34.0838 30.7893 34.6489C30.7506 35.7948 30.7894 36.9439 30.7739 38.093C30.7584 39.3454 30.0921 39.9998 28.8338 39.9998C24.5517 40.0029 20.2687 40.0019 15.9845 39.9966Z" fill="#15B34D"/>
<path d="M3.34873 0.0599186V32.234L0.0248868 33.3079V32.2215C0.0176553 22.4841 0.00936657 12.7472 6.89754e-05 3.01088C-0.00922862 0.664196 0.92051 -0.184299 3.34873 0.0599186Z" fill="#15B34D"/>
<path d="M23.5629 31.2225C23.5627 32.0648 23.3982 32.8988 23.0787 33.6768C22.7592 34.4549 22.291 35.1616 21.701 35.7567C21.1109 36.3518 20.4105 36.8236 19.6398 37.145C18.8691 37.4665 18.0433 37.6313 17.2096 37.6301C13.7276 37.6144 10.8345 34.6744 10.864 31.1818C10.8767 29.4805 11.5555 27.8534 12.7521 26.6563C13.9487 25.4591 15.5658 24.7892 17.2499 24.793C18.0835 24.7919 18.9091 24.9579 19.6789 25.2812C20.4486 25.6046 21.1472 26.079 21.7343 26.6769C22.3214 27.2748 22.7854 27.9844 23.0992 28.7647C23.4131 29.5449 23.5707 30.3803 23.5629 31.2225ZM17.9673 31.8659C17.9673 31.4385 17.9673 31.1285 17.9673 30.8186C17.9673 29.6977 17.9673 28.5752 17.9673 27.4543C17.9673 26.9534 17.7303 26.645 17.2406 26.6277C16.7277 26.609 16.5262 26.9675 16.4844 27.4355C16.4704 27.5921 16.4844 27.7486 16.4844 27.9052C16.4844 29.2014 16.4844 30.4961 16.4844 31.8909H14.6249L17.222 36.4309C18.1099 34.8654 18.9343 33.4283 19.8269 31.8659H17.9673Z" fill="#15B34D"/>
</g>
<defs>
<clipPath id="clip0_640_974">
<rect width="30.7937" height="40" fill="white"/>
</clipPath>
</defs>
</svg>
