<svg width="33" height="40" viewBox="0 0 33 40" fill="none" xmlns="http://www.w3.org/2000/svg">
<path d="M24.9713 39.9997H0V6.3623H24.9713V39.9997ZM3.87453 17.1362C3.87453 18.4334 3.87453 19.7307 3.87453 21.0279C3.87453 21.5587 4.05762 21.7462 4.58316 21.747C7.16519 21.747 9.74674 21.747 12.3278 21.747C12.8511 21.747 13.0342 21.5542 13.0342 21.0235C13.0342 18.4408 13.0342 15.8587 13.0342 13.277C13.0342 12.7455 12.8541 12.5684 12.3241 12.5676C9.74254 12.5676 7.161 12.5676 4.57946 12.5676C4.05095 12.5676 3.87527 12.747 3.87453 13.283C3.87304 14.5669 3.87304 15.8513 3.87453 17.1362ZM12.4538 28.7173C15.0477 28.7173 17.6421 28.7173 20.2369 28.7173C20.3845 28.7206 20.5319 28.7074 20.6765 28.678C20.9523 28.6135 21.0938 28.423 21.0916 28.1421C21.0894 27.8611 20.9359 27.678 20.6646 27.6135C20.5317 27.5874 20.3961 27.5765 20.2607 27.5809C15.0719 27.5809 9.88312 27.5809 4.69435 27.5809C4.55897 27.578 4.42369 27.5904 4.29111 27.618C4.1736 27.6376 4.06716 27.6991 3.99142 27.791C3.91567 27.883 3.87573 27.9992 3.87897 28.1183C3.86785 28.3993 3.99535 28.6017 4.26962 28.6736C4.42556 28.7079 4.58518 28.7226 4.74476 28.7173C7.31493 28.7198 9.88461 28.7203 12.4538 28.7188V28.7173ZM12.5146 23.833H4.73141C4.62023 23.833 4.50904 23.827 4.39785 23.833C4.08208 23.8604 3.89973 24.0316 3.87897 24.3519C3.85822 24.6721 4.04353 24.8567 4.33633 24.9353C4.43427 24.9517 4.53389 24.9556 4.63283 24.9471C9.85817 24.9471 15.0835 24.9471 20.3088 24.9471C20.4681 24.9528 20.6269 24.9276 20.7766 24.873C21.0353 24.7648 21.1761 24.5187 21.0731 24.2725C20.9945 24.0917 20.7766 23.959 20.592 23.8419C20.5127 23.7907 20.3748 23.8307 20.2636 23.8307L12.5146 23.833ZM12.4523 32.4615H14.2313C16.3068 32.4615 18.3823 32.4615 20.4578 32.4615C20.8477 32.4615 21.079 32.2636 21.0938 31.9426C21.1109 31.6002 20.8759 31.3704 20.483 31.3496C20.4089 31.3452 20.3348 31.3496 20.2607 31.3496C15.0847 31.3496 9.90907 31.3496 4.73364 31.3496C4.56315 31.3496 4.36301 31.334 4.23107 31.4148C4.08282 31.506 3.92271 31.6899 3.90269 31.8492C3.89968 31.9431 3.91685 32.0366 3.95304 32.1233C3.98922 32.21 4.04359 32.2879 4.11247 32.3518C4.23255 32.4534 4.45641 32.4623 4.63135 32.4623C7.23908 32.4662 9.84606 32.4665 12.4523 32.463V32.4615ZM12.4901 35.1153H4.67212C4.57331 35.1089 4.47414 35.1106 4.37561 35.1205C4.07022 35.1709 3.88416 35.3429 3.88046 35.6661C3.87675 35.9893 4.05688 36.168 4.36227 36.2251C4.46072 36.236 4.55996 36.238 4.65877 36.231H20.2992C20.41 36.2395 20.5213 36.236 20.6313 36.2206C20.9152 36.1576 21.0916 35.9819 21.0946 35.6802C21.0975 35.3785 20.9256 35.1976 20.6446 35.1265C20.5348 35.1093 20.4233 35.1056 20.3126 35.1153H12.4901ZM18.2363 12.5246C17.5084 12.5246 16.7797 12.5135 16.0518 12.5291C15.6642 12.5365 15.4492 12.7566 15.447 13.0873C15.4447 13.4179 15.659 13.6262 16.04 13.6581C16.1386 13.6662 16.2379 13.6618 16.3365 13.6618H19.6313C19.9397 13.6618 20.2503 13.6781 20.5564 13.6492C20.8626 13.6202 21.0864 13.4386 21.0879 13.0969C21.0894 12.7552 20.8855 12.5832 20.569 12.5343C20.4706 12.5233 20.3715 12.5199 20.2725 12.5239L18.2363 12.5246ZM18.2845 17.4119C18.9879 17.4119 19.6929 17.4119 20.3948 17.4119C20.8589 17.4119 21.1035 17.2044 21.0938 16.8397C21.0849 16.4979 20.8314 16.2904 20.3993 16.2896C18.9662 16.2867 17.5351 16.2867 16.1059 16.2896C15.6834 16.2896 15.4388 16.512 15.447 16.8701C15.4551 17.2281 15.6753 17.4053 16.1008 17.409C16.8287 17.4186 17.5566 17.4134 18.2845 17.4134V17.4119ZM18.2741 21.1769C19.0013 21.1769 19.7292 21.1769 20.4571 21.1769C20.8522 21.1769 21.0968 20.9545 21.0953 20.6173C21.0938 20.28 20.8455 20.065 20.4482 20.0643C18.9924 20.0613 17.5366 20.0613 16.0807 20.0643C15.6812 20.0643 15.447 20.2807 15.447 20.6262C15.447 20.9716 15.6857 21.1747 16.0904 21.1769C16.8183 21.1814 17.5462 21.1784 18.2741 21.1784V21.1769Z" fill="#FF7F27"/>
<path d="M32.9917 33.6314H26.1218V6.1171C26.1218 5.43289 26.0736 5.35728 25.4257 5.12896C20.6713 3.45712 15.9162 1.787 11.1603 0.118606C11.0914 0.0941439 11.0239 0.0652332 10.8594 0H32.9917V33.6314Z" fill="#FF7F27"/>
<path d="M22.0301 5.21018C17.4492 5.21018 12.8683 5.21018 8.28731 5.21018C8.10052 5.21018 7.9871 5.18423 7.99081 4.95295C7.99971 3.40959 7.99748 1.86549 8.00119 0.322131C8.00119 0.299892 8.01898 0.277653 8.04863 0.210938L22.0583 5.12641L22.0301 5.21018Z" fill="#FF7F27"/>
<path d="M10.191 13.708H11.8959V20.602H5.02148V13.708H6.70709V14.4975C6.70709 14.8933 6.70265 15.2884 6.70709 15.6835C6.71154 16.0786 6.90353 16.3055 7.28231 16.3136C8.06062 16.3314 8.83894 16.3314 9.61725 16.3136C9.99974 16.304 10.1836 16.0794 10.188 15.6835C10.1939 15.1402 10.188 14.5961 10.188 14.0527L10.191 13.708Z" fill="#FF7F27"/>
<path d="M9.0497 15.1681H7.84961V13.71H9.0497V15.1681Z" fill="#FF7F27"/>
</svg>
