<svg width="47" height="40" viewBox="0 0 47 40" fill="none" xmlns="http://www.w3.org/2000/svg">
<path d="M25.7458 39.9999C25.5157 39.8367 25.5002 39.6253 25.5759 39.3706C26.5722 36.0382 27.5658 32.7051 28.5567 29.3711C28.7028 28.8814 29.0741 28.6002 29.5886 28.6096C30.589 28.6271 31.5804 28.5536 32.5436 28.2733C33.0049 28.139 33.4502 27.9504 33.9116 27.7835C33.8526 27.5831 33.7965 27.4317 33.7642 27.2754C33.6594 26.7705 33.7794 26.3195 34.1085 25.9228C36.7233 22.7665 39.3381 19.6116 41.9529 16.458C42.8952 15.3207 43.8378 14.1834 44.7806 13.0464C44.9963 12.786 45.2607 12.6684 45.5944 12.7607C45.9026 12.8472 46.0716 13.0647 46.1154 13.3753C46.1502 13.6227 46.0409 13.8206 45.8866 14.0059C44.9673 15.1095 44.0501 16.2148 43.1351 17.3216L37.5317 24.0837C36.7847 24.9853 36.0397 25.8885 35.2869 26.7852C35.1682 26.9264 35.178 27.0145 35.3037 27.1443C36.2332 28.1024 37.1577 29.0649 38.0774 30.0319C38.2059 30.167 38.2841 30.187 38.4355 30.0552C40.6833 28.0945 42.9346 26.137 45.1895 24.1829C45.4351 23.9706 45.695 23.8617 46.0131 23.9788C46.1368 24.0204 46.246 24.0962 46.328 24.1974C46.4101 24.2986 46.4616 24.4209 46.4765 24.5502C46.5215 24.8469 46.3946 25.073 46.1732 25.2649C45.3221 25.9995 44.4756 26.7374 43.6271 27.4741C42.2436 28.6749 40.8518 29.8662 39.4805 31.0808C38.9681 31.5347 38.4269 31.7718 37.7372 31.5482C37.4298 32.0706 37.2284 32.6224 37.0864 33.1983C36.8817 34.0292 36.8174 34.8741 36.8268 35.7287C36.8342 36.3712 36.5702 36.723 35.9537 36.9123C32.7279 37.9115 29.5021 38.9111 26.2763 39.9114C26.2077 39.9363 26.1405 39.9648 26.0749 39.9967L25.7458 39.9999ZM29.607 37.2907L29.6439 37.3372C29.6741 37.3295 29.7048 37.3229 29.7347 37.3136C31.5428 36.754 33.35 36.1912 35.16 35.6381C35.3213 35.5888 35.3647 35.521 35.3672 35.3569C35.3749 34.1941 35.5235 33.0505 35.9402 31.9575C36.1183 31.4902 36.3496 31.0433 36.5665 30.5645C36.1572 30.1356 35.7233 29.6834 35.2898 29.2324C35.1719 29.1099 35.063 28.9173 34.9259 28.8932C34.7888 28.8691 34.6283 29.0214 34.4777 29.0973C34.4474 29.1124 34.4167 29.1279 34.386 29.1426C33.0352 29.8009 31.5939 30.0434 30.1068 30.067C29.921 30.0699 29.8506 30.1266 29.8002 30.298C29.1543 32.487 28.5043 34.6749 27.8502 36.8617C27.8388 36.9156 27.831 36.9701 27.8268 37.025C27.8678 36.9915 27.8862 36.9805 27.9001 36.967C29.1442 35.7263 30.3872 34.4847 31.6291 33.2424C31.6808 33.183 31.7118 33.1085 31.7175 33.0301C31.7687 32.4444 32.2366 32.0032 32.8158 32.0041C33.0876 32.0058 33.349 32.1083 33.5493 32.2915C33.7497 32.4747 33.8745 32.7256 33.8997 32.9954C33.9451 33.5954 33.5481 34.0807 32.9541 34.179C32.8175 34.2018 32.6904 34.2637 32.5882 34.357C31.8191 35.1096 31.0618 35.8736 30.2984 36.6311C30.0724 36.8564 29.8379 37.0715 29.607 37.2907Z" fill="#15B34D"/>
<path d="M0.0024534 8.57094C0.117476 8.17953 0.248052 7.79792 0.528036 7.48283C0.798938 7.17416 1.14924 6.94512 1.54114 6.82042C6.061 5.37098 10.581 3.92249 15.1011 2.47496C17.5588 1.68589 20.0163 0.897634 22.4736 0.110196C22.5964 0.0693818 22.7192 0.0367326 22.842 0H23.497C23.7454 0.0901989 24.0074 0.154267 24.2391 0.275893C24.8658 0.602405 25.2006 1.15666 25.3705 1.86316C25.1351 1.7901 24.9141 1.73337 24.7016 1.65297C23.9583 1.37217 23.228 1.37665 22.465 1.62357C18.1969 3.00676 13.9214 4.3675 9.64962 5.73885C7.12758 6.5486 4.60664 7.36039 2.08678 8.17422C1.54564 8.34809 1.35898 8.68685 1.53663 9.22356C2.31737 11.5769 3.09988 13.9298 3.88416 16.2823L8.0213 28.7163C8.24848 29.3991 8.47811 30.0815 8.70284 30.7656C8.73434 30.855 8.75174 30.9488 8.75441 31.0435C8.75742 32.4647 8.75742 33.886 8.75441 35.3074C8.75531 35.3263 8.75179 35.3452 8.74412 35.3626C8.73644 35.3799 8.72483 35.3952 8.7102 35.4074C8.60337 35.0894 8.4953 34.7719 8.38929 34.4535C7.35531 31.3471 6.32147 28.2407 5.28777 25.1345C3.76805 20.5633 2.24847 15.9934 0.72902 11.4247C0.485603 10.69 0.242598 9.95644 0 9.22396L0.0024534 8.57094Z" fill="#15B34D"/>
<path d="M46.664 11.6732C46.1818 11.3703 45.6657 11.2111 45.0901 11.2977C45.0569 11.305 45.0222 11.3021 44.9907 11.2895C44.2453 10.8924 43.4176 10.7271 42.6259 10.4634C41.1147 9.95978 39.594 9.48389 38.0754 9.00269C37.9526 8.96433 37.9063 8.91086 37.8961 8.77903C37.8605 8.31697 37.7326 7.86667 37.5199 7.45462C37.4958 7.40728 37.4753 7.35789 37.4409 7.2832C37.5134 7.29871 37.5637 7.30483 37.6104 7.31993L45.0791 9.71489C45.9149 9.98304 46.4385 10.5381 46.6296 11.3977C46.6383 11.4227 46.6499 11.4467 46.664 11.4691V11.6732Z" fill="#15B34D"/>
<path d="M32.2463 26.8908C31.9691 26.4998 31.5913 26.5504 31.2229 26.5504C25.8541 26.5504 20.4854 26.5523 15.1169 26.5561C14.915 26.556 14.716 26.6034 14.536 26.6945C14.2683 26.8378 14.1676 27.1639 14.245 27.4573C14.2823 27.5998 14.3623 27.7275 14.4742 27.8234C14.5862 27.9194 14.7248 27.979 14.8717 27.9944C14.9536 28.0026 15.0354 27.9993 15.1173 27.9993H27.6879C27.3195 28.4148 27.1775 28.8801 27.0403 29.349C27.0268 29.3956 26.9536 29.436 26.8991 29.4564C26.8512 29.4744 26.7915 29.4609 26.7354 29.4609H15.051C14.5839 29.4609 14.2982 29.6809 14.2323 30.0874C14.1693 30.4661 14.4501 30.849 14.8344 30.8959C14.9705 30.9085 15.1072 30.9128 15.2438 30.9086H26.5823C26.4403 31.3885 26.3097 31.8363 26.173 32.2819C26.1615 32.3187 26.1001 32.3534 26.0559 32.3636C25.988 32.3721 25.9194 32.3736 25.8512 32.3681C22.236 32.3681 18.6202 32.3681 15.0039 32.3681C14.6482 32.3681 14.3821 32.5452 14.2671 32.848C14.2171 32.9828 14.209 33.1294 14.2438 33.2688C14.2785 33.4082 14.3545 33.5339 14.4619 33.6296C14.6285 33.7815 14.8303 33.8247 15.0489 33.8247H25.446H25.7117C25.1386 35.7626 24.5729 37.6747 24.0072 39.5868L24.0633 39.6346H23.8471C20.0406 39.6346 16.2338 39.6346 12.4267 39.6346C11.1709 39.6346 10.2077 38.6787 10.2073 37.4245C10.2043 27.9902 10.2043 18.5561 10.2073 9.12204C10.2073 7.86171 11.1799 6.90625 12.4468 6.90625C19.6983 6.90625 26.9496 6.90625 34.2008 6.90625C35.5107 6.90625 36.4665 7.8568 36.4677 9.15796C36.4702 12.9741 36.4684 16.7899 36.4624 20.6055C36.4573 20.7372 36.4103 20.8638 36.3281 20.9671C35.2257 22.3082 34.1183 23.6452 33.006 24.9779C32.5962 25.4577 32.3469 26.0531 32.2929 26.681C32.2864 26.7312 32.2696 26.7818 32.2463 26.8908ZM23.3314 22.5303C25.6095 22.5303 27.8881 22.5303 30.1672 22.5303C30.6994 22.5303 30.9859 22.2413 30.9859 21.7087C30.9876 20.8312 30.9876 19.9538 30.9859 19.0766C30.9859 18.4309 30.7297 18.1713 30.0854 18.1709C25.5554 18.1709 21.0255 18.1709 16.4955 18.1709C15.9658 18.1709 15.6768 18.4623 15.6768 18.9941C15.6768 19.885 15.6768 20.7759 15.6768 21.667C15.6768 22.2621 15.9441 22.5303 16.5364 22.5307L23.3314 22.5303ZM27.7112 13.1181C27.7112 13.492 27.7112 13.8659 27.7112 14.2397C27.7112 14.6425 27.9744 14.9005 28.3789 14.9017C28.8001 14.9017 29.0649 14.6515 29.0719 14.2417C29.0743 14.1124 29.0719 13.9834 29.0719 13.854C29.0719 13.2765 29.0719 12.6986 29.0719 12.1211C29.0719 11.8917 29.2086 11.779 29.4071 11.8354C29.5635 11.8803 29.5815 12.0043 29.5815 12.1419C29.5815 12.8488 29.5839 13.5557 29.5815 14.2642C29.5815 14.5132 29.6863 14.696 29.9008 14.8148C30.3122 15.0425 30.9564 14.8348 30.9409 14.2124C30.9237 13.5263 30.9343 12.8394 30.9409 12.1529C30.9409 12.0651 30.9638 11.9447 31.0228 11.8986C31.0895 11.8464 31.2323 11.8194 31.2991 11.8578C31.3723 11.8986 31.4345 12.0268 31.4358 12.1178C31.4472 12.8177 31.4444 13.5177 31.4419 14.2181C31.4419 14.4593 31.5168 14.6605 31.726 14.7927C31.8317 14.8634 31.9544 14.9044 32.0814 14.9116C32.2084 14.9188 32.3351 14.8918 32.4481 14.8336C32.6961 14.714 32.8165 14.507 32.8165 14.2242C32.8136 13.5173 32.8197 12.8104 32.8128 12.1019C32.8115 11.9525 32.7891 11.8041 32.746 11.6611C32.4595 10.715 31.3392 10.2636 30.4349 10.7313C30.3031 10.7995 30.2115 10.7868 30.0796 10.7342C29.868 10.6493 29.6408 10.5742 29.4157 10.5567C28.5234 10.4881 27.6531 11.1889 27.7072 12.1174C27.7293 12.4508 27.7129 12.7851 27.7129 13.1173L27.7112 13.1181ZM24.1132 13.7912C24.1132 13.9401 24.1132 14.0748 24.1132 14.2091C24.1132 14.6242 24.378 14.8923 24.7837 14.8927C25.1758 14.8927 25.4493 14.6115 25.4505 14.1989C25.4527 13.5459 25.4527 12.8928 25.4505 12.2398C25.4536 12.011 25.4057 11.7843 25.31 11.5763C25.2143 11.3682 25.0734 11.184 24.8975 11.037C24.4214 10.6224 23.8582 10.4938 23.2397 10.5685C22.3232 10.6791 21.6597 11.4097 21.6535 12.3235C21.6489 12.9692 21.6489 13.615 21.6535 14.2609C21.656 14.6213 21.9401 14.8838 22.3216 14.8862C22.69 14.8891 22.9884 14.6181 22.9986 14.265C23.0035 14.1107 22.9986 13.956 22.9986 13.7879L24.1132 13.7912ZM13.8484 12.7365C13.8484 12.9067 13.8447 13.0765 13.8484 13.2467C13.8614 13.7634 14.0858 14.1769 14.4906 14.4895C15.0293 14.9054 15.6457 14.9838 16.2949 14.8568C16.7542 14.7658 17.132 14.5303 17.3928 14.1356C17.6711 13.7144 17.43 13.2353 16.9249 13.179C16.6384 13.1471 16.4243 13.2447 16.2499 13.4712C16.1717 13.5802 16.0591 13.6599 15.9301 13.6975C15.8011 13.7351 15.6632 13.7284 15.5385 13.6785C15.2867 13.5867 15.1881 13.4234 15.1885 13.1018C15.1885 12.8161 15.1828 12.5304 15.1885 12.2447C15.189 12.1207 15.236 12.0014 15.3204 11.9103C15.4047 11.8192 15.5202 11.7629 15.6441 11.7525C15.9093 11.7211 16.1144 11.8149 16.2863 12.026C16.3451 12.1011 16.4185 12.1636 16.5021 12.2097C16.5856 12.2559 16.6777 12.2847 16.7727 12.2945C16.8678 12.3043 16.9638 12.2948 17.0551 12.2667C17.1464 12.2386 17.231 12.1924 17.3039 12.1309C17.5905 11.8917 17.5864 11.5439 17.2868 11.1962C16.9012 10.7473 16.3903 10.5673 15.8164 10.5485C14.7296 10.5134 13.789 11.2791 13.8447 12.4112C13.8549 12.5186 13.85 12.6276 13.85 12.7365H13.8484ZM19.2859 13.6752V13.3871C19.2859 12.6463 19.2896 11.9051 19.2827 11.1644C19.2794 10.8101 18.9855 10.5522 18.6028 10.5493C18.22 10.5465 17.9249 10.8077 17.9233 11.1615C17.9184 12.1955 17.9184 13.2294 17.9233 14.2634C17.9253 14.6079 18.1766 14.8858 18.5225 14.8923C19.2925 14.9074 20.0633 14.9054 20.8332 14.8923C20.9781 14.8862 21.116 14.8285 21.2219 14.7298C21.3279 14.631 21.3949 14.4977 21.4108 14.354C21.4374 14.0511 21.2471 13.7883 20.9347 13.7071C20.842 13.6857 20.747 13.6756 20.6519 13.6769C20.2114 13.6732 19.7689 13.6748 19.2876 13.6748L19.2859 13.6752ZM27.2417 12.7565C27.2417 12.2541 27.2417 11.7517 27.2417 11.2493C27.2417 10.8301 26.9839 10.5685 26.5762 10.5636C26.1591 10.5587 25.8803 10.8256 25.8803 11.2444C25.877 12.2356 25.877 13.227 25.8803 14.2185C25.8803 14.6405 26.1546 14.9066 26.5725 14.9046C26.9818 14.9025 27.2389 14.6434 27.2421 14.2234C27.2467 13.734 27.2434 13.2451 27.2434 12.7561L27.2417 12.7565Z" fill="#15B34D"/>
<path d="M31.6421 5.4581H31.0588C29.7702 5.4581 28.48 5.4581 27.1927 5.45524C27.0774 5.45282 26.9631 5.433 26.8537 5.39647C25.8414 5.07608 24.8312 4.74876 23.8189 4.42796C23.2909 4.26062 22.934 4.45244 22.762 4.98384C22.6089 5.45769 22.6089 5.45769 22.1034 5.45769H21.0801C21.0952 5.38994 21.103 5.33851 21.1186 5.28954C21.2176 4.98588 21.3142 4.68181 21.4186 4.3802C21.6055 3.8404 21.9967 3.39486 22.5086 3.13871C23.0205 2.88256 23.6125 2.83611 24.1583 3.00926C26.5597 3.77112 28.9585 4.53883 31.3548 5.31239C31.451 5.343 31.5463 5.37525 31.6413 5.40668C31.6442 5.42382 31.6433 5.44096 31.6421 5.4581Z" fill="#15B34D"/>
<path d="M38.6577 26.9072C38.3302 26.8995 38.0817 26.7281 37.9724 26.4509C37.8578 26.1599 37.9266 25.8673 38.1702 25.6326C38.6409 25.1788 39.1123 24.726 39.5844 24.2743C40.6847 23.2186 41.7844 22.1622 42.8836 21.1051C43.0912 20.9047 43.3179 20.7708 43.6147 20.8308C44.1906 20.9472 44.4076 21.6194 44.0011 22.0524C43.7264 22.3446 43.4256 22.6124 43.1362 22.8907C41.8397 24.1356 40.5435 25.3807 39.2475 26.626C39.0756 26.7917 38.8914 26.9219 38.6577 26.9072Z" fill="#15B34D"/>
<path d="M8.76255 22.0179C8.45596 21.7848 8.33275 21.5024 8.23369 21.2016C7.85165 20.0477 7.46961 18.8943 7.08756 17.7414C7.01102 17.5096 6.92383 17.2786 6.87757 17.0402C6.75887 16.4337 7.07078 15.788 7.63402 15.5301C7.98236 15.3693 8.36059 15.2721 8.76296 15.1338V16.2219C8.75802 16.2762 8.75802 16.3308 8.76296 16.3852C8.8039 16.6076 8.70852 16.7255 8.49076 16.7627C8.43266 16.779 8.37609 16.8003 8.3217 16.8263C8.4445 17.2055 8.57426 17.5757 8.6901 17.95C8.73319 18.0848 8.75662 18.2252 8.75969 18.3667C8.76501 19.4882 8.76256 20.6114 8.76296 21.7318L8.76255 22.0179Z" fill="#15B34D"/>
<path d="M32.2134 39.5931L36.2801 38.334C35.933 39.0205 35.4451 39.4915 34.7426 39.5731C33.9105 39.6698 33.0644 39.64 32.2224 39.6649L32.2134 39.5931Z" fill="#15B34D"/>
<path d="M24.1098 12.5677H23.0161C23.0018 12.3093 22.9416 12.0481 23.1938 11.8612C23.4005 11.7081 23.6248 11.7036 23.8487 11.8167C24.1622 11.9754 24.1307 12.2628 24.1098 12.5677Z" fill="#15B34D"/>
</svg>
