<svg width="36" height="40" viewBox="0 0 36 40" fill="none" xmlns="http://www.w3.org/2000/svg">
<path d="M0 13.5117V35.4049C0 36.0083 0.117679 36.6058 0.346311 37.1632C0.574942 37.7207 0.910046 38.2272 1.3325 38.6539C1.75496 39.0806 2.2565 39.4191 2.80847 39.65C3.36043 39.8809 3.95198 39.9997 4.54943 39.9997H27.2092C28.4158 39.9997 29.5729 39.5156 30.4261 38.6539C31.2793 37.7922 31.7586 36.6235 31.7586 35.4049V13.5117H0ZM8.4519 36.1744C8.4519 36.531 8.31164 36.8729 8.06199 37.1251C7.81235 37.3772 7.47378 37.5189 7.12073 37.5189H3.38624C3.03311 37.5189 2.69441 37.3772 2.44463 37.1251C2.19485 36.873 2.0544 36.5311 2.05417 36.1744V32.4027C2.0544 32.046 2.19485 31.704 2.44463 31.4519C2.69441 31.1998 3.03311 31.0582 3.38624 31.0582H7.12073C7.47378 31.0582 7.81235 31.1998 8.06199 31.452C8.31164 31.7041 8.4519 32.0461 8.4519 32.4027V36.1744ZM8.4519 28.6416C8.4519 28.9982 8.31165 29.3403 8.06204 29.5926C7.81242 29.8449 7.47386 29.9867 7.12073 29.9869H3.38624C3.03296 29.9869 2.69414 29.8452 2.44433 29.5929C2.19452 29.3406 2.05417 28.9984 2.05417 28.6416V24.8698C2.0544 24.5132 2.19485 24.1712 2.44463 23.9191C2.69441 23.667 3.03311 23.5254 3.38624 23.5254H7.12073C7.47378 23.5254 7.81235 23.6671 8.06199 23.9192C8.31164 24.1713 8.4519 24.5133 8.4519 24.8698V28.6416ZM8.4519 21.1088C8.4519 21.4655 8.31165 21.8075 8.06204 22.0598C7.81242 22.3121 7.47386 22.4539 7.12073 22.4541H3.38624C3.21131 22.4541 3.0381 22.4193 2.87648 22.3517C2.71487 22.2841 2.56802 22.185 2.44433 22.0601C2.32064 21.9352 2.22254 21.7869 2.15559 21.6236C2.08865 21.4604 2.05417 21.2855 2.05417 21.1088V17.3335C2.0544 16.9768 2.19485 16.6349 2.44463 16.3828C2.69441 16.1306 3.03311 15.989 3.38624 15.989H7.12073C7.47378 15.989 7.81235 16.1307 8.06199 16.3828C8.31164 16.635 8.4519 16.9769 8.4519 17.3335V21.1088ZM15.6115 36.1744C15.6115 36.531 15.4713 36.8729 15.2216 37.1251C14.972 37.3772 14.6334 37.5189 14.2803 37.5189H10.545C10.3701 37.5189 10.197 37.4841 10.0355 37.4165C9.87404 37.3489 9.7273 37.2499 9.60369 37.1251C9.48008 37.0002 9.38202 36.852 9.31513 36.6889C9.24823 36.5258 9.21379 36.351 9.21379 36.1744V32.4027C9.21379 32.2261 9.24823 32.0513 9.31513 31.8882C9.38202 31.725 9.48008 31.5768 9.60369 31.452C9.7273 31.3271 9.87404 31.2281 10.0355 31.1606C10.197 31.093 10.3701 31.0582 10.545 31.0582H14.2803C14.6334 31.0582 14.972 31.1998 15.2216 31.452C15.4713 31.7041 15.6115 32.0461 15.6115 32.4027V36.1744ZM15.6115 28.6416C15.6115 28.9982 15.4713 29.3403 15.2217 29.5926C14.972 29.8449 14.6335 29.9867 14.2803 29.9869H10.545C10.1918 29.9867 9.85326 29.8449 9.60365 29.5926C9.35403 29.3403 9.21379 28.9982 9.21379 28.6416V24.8698C9.21379 24.6933 9.24823 24.5185 9.31513 24.3553C9.38202 24.1922 9.48008 24.044 9.60369 23.9192C9.7273 23.7943 9.87404 23.6953 10.0355 23.6277C10.197 23.5602 10.3701 23.5254 10.545 23.5254H14.2803C14.6334 23.5254 14.972 23.6671 15.2216 23.9192C15.4713 24.1713 15.6115 24.5133 15.6115 24.8698V28.6416ZM15.6115 21.1088C15.6115 21.4655 15.4713 21.8075 15.2217 22.0598C14.972 22.3121 14.6335 22.4539 14.2803 22.4541H10.545C10.1918 22.4539 9.85326 22.3121 9.60365 22.0598C9.35403 21.8075 9.21379 21.4655 9.21379 21.1088V17.3335C9.21379 17.1569 9.24823 16.9821 9.31513 16.819C9.38202 16.6559 9.48008 16.5077 9.60369 16.3828C9.7273 16.258 9.87404 16.1589 10.0355 16.0914C10.197 16.0238 10.3701 15.989 10.545 15.989H14.2803C14.6334 15.989 14.972 16.1307 15.2216 16.3828C15.4713 16.635 15.6115 16.9769 15.6115 17.3335V21.1088ZM22.757 36.1744C22.757 36.531 22.6167 36.8729 22.3671 37.1251C22.1174 37.3772 21.7789 37.5189 21.4258 37.5189H17.6913C17.3382 37.5189 16.9995 37.3772 16.7498 37.1251C16.5 36.873 16.3595 36.5311 16.3593 36.1744V32.4027C16.3595 32.046 16.5 31.704 16.7498 31.4519C16.9995 31.1998 17.3382 31.0582 17.6913 31.0582H21.4258C21.7789 31.0582 22.1174 31.1998 22.3671 31.452C22.6167 31.7041 22.757 32.0461 22.757 32.4027V36.1744ZM22.757 28.6416C22.757 28.9982 22.6168 29.3403 22.3672 29.5926C22.1175 29.8449 21.7789 29.9867 21.4258 29.9869H17.6913C17.338 29.9869 16.9992 29.8452 16.7494 29.5929C16.4996 29.3406 16.3593 28.9984 16.3593 28.6416V24.8698C16.3595 24.5132 16.5 24.1712 16.7498 23.9191C16.9995 23.667 17.3382 23.5254 17.6913 23.5254H21.4258C21.7789 23.5254 22.1174 23.6671 22.3671 23.9192C22.6167 24.1713 22.757 24.5133 22.757 24.8698V28.6416ZM22.757 21.1088C22.757 21.4655 22.6168 21.8075 22.3672 22.0598C22.1175 22.3121 21.7789 22.4539 21.4258 22.4541H17.6913C17.5164 22.4541 17.3432 22.4193 17.1816 22.3517C17.02 22.2841 16.8731 22.185 16.7494 22.0601C16.6257 21.9352 16.5276 21.7869 16.4607 21.6236C16.3937 21.4604 16.3593 21.2855 16.3593 21.1088V17.3335C16.3595 16.9768 16.5 16.6349 16.7498 16.3828C16.9995 16.1306 17.3382 15.989 17.6913 15.989H21.4258C21.7789 15.989 22.1174 16.1307 22.3671 16.3828C22.6167 16.635 22.757 16.9769 22.757 17.3335V21.1088ZM29.7071 36.1744C29.7071 36.531 29.5669 36.8729 29.3172 37.1251C29.0676 37.3772 28.729 37.5189 28.3759 37.5189H24.6406C24.2875 37.5189 23.949 37.3772 23.6993 37.1251C23.4497 36.8729 23.3094 36.531 23.3094 36.1744V32.4027C23.3094 32.0461 23.4497 31.7041 23.6993 31.452C23.949 31.1998 24.2875 31.0582 24.6406 31.0582H28.3759C28.729 31.0582 29.0676 31.1998 29.3172 31.452C29.5669 31.7041 29.7071 32.0461 29.7071 32.4027V36.1744ZM29.7071 28.6416C29.7071 28.9982 29.5669 29.3403 29.3173 29.5926C29.0677 29.8449 28.7291 29.9867 28.3759 29.9869H24.6406C24.2875 29.9867 23.9488 29.8449 23.6992 29.5926C23.4496 29.3403 23.3094 28.9982 23.3094 28.6416V24.8698C23.3094 24.5133 23.4497 24.1713 23.6993 23.9192C23.949 23.6671 24.2875 23.5254 24.6406 23.5254H28.3759C28.729 23.5254 29.0676 23.6671 29.3172 23.9192C29.5669 24.1713 29.7071 24.5133 29.7071 24.8698V28.6416ZM29.7071 21.1088C29.7071 21.4655 29.5669 21.8075 29.3173 22.0598C29.0677 22.3121 28.7291 22.4539 28.3759 22.4541H24.6406C24.2875 22.4539 23.9488 22.3121 23.6992 22.0598C23.4496 21.8075 23.3094 21.4655 23.3094 21.1088V17.3335C23.3094 16.9769 23.4497 16.635 23.6993 16.3828C23.949 16.1307 24.2875 15.989 24.6406 15.989H28.3759C28.729 15.989 29.0676 16.1307 29.3172 16.3828C29.5669 16.635 29.7071 16.9769 29.7071 17.3335V21.1088Z" fill="#5B6473"/>
<path d="M0.0573305 13.5694C0.0334651 13.5364 0.0175376 13.5239 0.0175376 13.5114C0.0307961 11.6099 -0.064662 9.70036 0.0873694 7.80957C0.251775 5.76434 2.14335 4.12797 4.17456 4.03781C4.64214 4.01728 5.11238 4.03781 5.65156 4.03781V3.34237C5.65156 2.58356 5.64184 1.82475 5.65156 1.06682C5.66305 0.392816 6.05021 -0.0124748 6.63801 0.00091602C7.19664 0.0134142 7.5599 0.430299 7.56343 1.07752C7.56785 2.04077 7.56343 3.00492 7.56343 4.02977H8.12209C13.3053 4.02977 18.4885 4.02264 23.6726 4.04049C24.1366 4.04049 24.2445 3.90301 24.2259 3.4629C24.1914 2.67641 24.2109 1.88722 24.2179 1.09895C24.2241 0.411551 24.5839 0.00359332 25.1673 2.24247e-05C25.7506 -0.00354847 26.1219 0.4196 26.1272 1.09093C26.1334 2.04257 26.1272 2.99332 26.1272 4.03066C26.5691 4.03066 26.9854 4.02263 27.4053 4.03066C28.3777 4.04383 29.3188 4.38007 30.0831 4.98742C30.8474 5.59477 31.3924 6.43943 31.6339 7.39088C31.708 7.63257 31.7517 7.8827 31.7638 8.1354C31.7753 9.93335 31.77 11.7313 31.77 13.5703L0.0573305 13.5694ZM17.8167 10.1556C17.7557 10.1235 17.7213 10.1172 17.7107 10.0976C17.5421 9.80003 17.3754 9.50246 17.2104 9.20488C16.8126 8.4907 16.7684 8.47108 15.9004 8.6407V11.7099H16.6491V9.67714C16.9841 10.2878 17.2537 10.7797 17.525 11.2707C17.8238 11.8116 17.9228 11.85 18.5247 11.667V8.61123H17.8176L17.8167 10.1556ZM14.5021 8.60051C14.5021 8.81387 14.5021 8.97456 14.5021 9.13614C14.4968 9.67178 14.5216 10.2074 14.4659 10.7386C14.4491 10.8939 14.2254 11.0957 14.0566 11.1501C13.802 11.2305 13.5996 11.068 13.5501 10.7886C13.5244 10.6113 13.5135 10.4321 13.5174 10.2529C13.5174 9.70838 13.5174 9.16383 13.5174 8.61212H12.7104C12.7104 9.37005 12.6724 10.0976 12.7219 10.8198C12.7635 11.4224 13.2089 11.7679 13.8409 11.8018C14.6143 11.8482 15.1907 11.5947 15.249 11.0305C15.3374 10.2315 15.2702 9.41647 15.2702 8.59249L14.5021 8.60051ZM19.9531 9.7316C19.9681 9.53163 19.9788 9.39147 19.992 9.21203H21.2498V8.62015H19.1435V11.7099H21.2542V11.085H19.9885V10.3627H21.1473V9.7316H19.9531ZM24.2188 5.97591C23.6151 6.42227 23.4127 7.11949 23.6549 7.78189C23.7766 8.12002 24.0046 8.40857 24.3041 8.60334C24.6036 8.79811 24.958 8.88837 25.3131 8.8603C25.6521 8.82631 25.9724 8.68701 26.2298 8.46159C26.4872 8.23616 26.669 7.9357 26.7504 7.60156C26.8935 6.9463 26.654 6.30711 26.1316 6.01876C26.1316 6.35799 26.1396 6.68027 26.1316 7.00075C26.1139 7.59709 25.7162 8.01845 25.1823 8.02024C24.6484 8.02202 24.2436 7.60246 24.2232 7.0079C24.2135 6.68563 24.2188 6.36067 24.2188 5.97591ZM7.56788 5.95985C7.56788 6.34193 7.56788 6.64991 7.56788 6.95701C7.55815 7.58995 7.17364 8.02024 6.62031 8.02381C6.06699 8.02738 5.67541 7.59441 5.65596 6.96771C5.64535 6.6499 5.65596 6.33121 5.65596 5.97412C4.87371 6.58028 4.78797 7.61674 5.41289 8.31931C5.56224 8.48928 5.74534 8.62567 5.95022 8.71962C6.15511 8.81357 6.37722 8.86298 6.60223 8.86466C6.82724 8.86635 7.05011 8.82025 7.25635 8.72938C7.46259 8.63851 7.64759 8.50488 7.79943 8.33716C8.42612 7.65333 8.35455 6.60529 7.56788 5.95985ZM11.3687 9.22541C11.3687 9.61821 11.3687 9.97174 11.3687 10.3244C11.3687 11.16 11.2573 11.2492 10.437 11.0841C10.4123 11.0841 10.3831 11.101 10.3566 11.1109C10.2523 11.742 10.2859 11.7911 10.8798 11.8018C11.0555 11.805 11.2311 11.7907 11.404 11.759C11.7991 11.6867 12.1323 11.4608 12.1571 11.0564C12.2066 10.2529 12.1712 9.43968 12.1712 8.61123H10.7022V9.18882L11.3687 9.22541Z" fill="#5B6473"/>
<path d="M24.0132 34.1165C24.0292 30.8741 26.6208 28.2549 29.8046 28.2647C33.0361 28.2736 35.6383 30.8973 35.6339 34.1343C35.6268 37.4374 33.0114 40.0129 29.6729 39.9969C26.5571 39.9844 23.9982 37.3303 24.0132 34.1165ZM29.8001 35.319L31.2489 36.7473L32.5544 35.5618L30.8476 34.0629C31.4477 33.5371 31.964 33.0809 32.4616 32.6462L31.2683 31.4214L29.778 33.0765L28.4071 31.4999L27.1414 32.706L28.7147 34.1343L27.1573 35.5725L28.3771 36.8223L29.8001 35.319Z" fill="#5B6473"/>
<path d="M28.4093 31.5082L29.7802 33.0839L31.2705 31.4297L32.4638 32.6545L30.8498 34.0713L32.5566 35.5692L31.2511 36.7557L29.8023 35.3238L28.3801 36.8333L27.1595 35.58L28.7169 34.1418L27.1436 32.7143L28.4093 31.5082Z" fill="#5B6473"/>
</svg>
