<svg width="36" height="40" viewBox="0 0 36 40" fill="none" xmlns="http://www.w3.org/2000/svg">
<path d="M0 13.5117V35.4051C0 36.0085 0.117685 36.606 0.346326 37.1635C0.574968 37.721 0.910087 38.2275 1.33256 38.6542C1.75504 39.0809 2.2566 39.4193 2.80859 39.6502C3.36058 39.8812 3.95216 40 4.54963 40H27.2104C28.4171 40 29.5743 39.5159 30.4275 38.6542C31.2807 37.7925 31.76 36.6237 31.76 35.4051V13.5117H0ZM8.45227 36.1746C8.45227 36.5312 8.312 36.8732 8.06235 37.1253C7.8127 37.3774 7.47411 37.5191 7.12105 37.5191H3.38639C3.03325 37.5191 2.69453 37.3775 2.44474 37.1254C2.19495 36.8733 2.05449 36.5313 2.05426 36.1746V32.4029C2.05449 32.0462 2.19495 31.7042 2.44474 31.4521C2.69453 31.2 3.03325 31.0584 3.38639 31.0584H7.12105C7.47411 31.0584 7.8127 31.2 8.06235 31.4522C8.312 31.7043 8.45227 32.0463 8.45227 32.4029V36.1746ZM8.45227 28.6418C8.45227 28.9984 8.31202 29.3405 8.0624 29.5927C7.81277 29.845 7.47419 29.9869 7.12105 29.9871H3.38639C3.03309 29.9871 2.69426 29.8454 2.44444 29.5931C2.19462 29.3408 2.05426 28.9986 2.05426 28.6418V24.87C2.05449 24.5133 2.19495 24.1713 2.44474 23.9192C2.69453 23.6671 3.03325 23.5255 3.38639 23.5255H7.12105C7.47411 23.5255 7.8127 23.6672 8.06235 23.9193C8.312 24.1714 8.45227 24.5134 8.45227 24.87V28.6418ZM8.45227 21.1089C8.45227 21.4655 8.31202 21.8076 8.0624 22.0599C7.81277 22.3122 7.47419 22.454 7.12105 22.4542H3.38639C3.21146 22.4542 3.03823 22.4194 2.87661 22.3518C2.71499 22.2842 2.56814 22.1851 2.44444 22.0602C2.32074 21.9353 2.22263 21.787 2.15569 21.6237C2.08875 21.4605 2.05426 21.2856 2.05426 21.1089V17.3335C2.05449 16.9769 2.19495 16.6349 2.44474 16.3828C2.69453 16.1307 3.03325 15.9891 3.38639 15.9891H7.12105C7.47411 15.9891 7.8127 16.1307 8.06235 16.3828C8.312 16.635 8.45227 16.9769 8.45227 17.3335V21.1089ZM15.6122 36.1746C15.6122 36.5312 15.4719 36.8732 15.2223 37.1253C14.9726 37.3774 14.634 37.5191 14.281 37.5191H10.5454C10.3706 37.5191 10.1975 37.4843 10.036 37.4168C9.87448 37.3492 9.72773 37.2502 9.60412 37.1253C9.4805 37.0005 9.38244 36.8523 9.31554 36.6891C9.24864 36.526 9.2142 36.3512 9.2142 36.1746V32.4029C9.2142 32.2263 9.24864 32.0515 9.31554 31.8884C9.38244 31.7252 9.4805 31.577 9.60412 31.4522C9.72773 31.3273 9.87448 31.2283 10.036 31.1607C10.1975 31.0932 10.3706 31.0584 10.5454 31.0584H14.281C14.634 31.0584 14.9726 31.2 15.2223 31.4522C15.4719 31.7043 15.6122 32.0463 15.6122 32.4029V36.1746ZM15.6122 28.6418C15.6122 28.9984 15.472 29.3405 15.2223 29.5927C14.9727 29.845 14.6341 29.9869 14.281 29.9871H10.5454C10.1923 29.9869 9.8537 29.845 9.60407 29.5927C9.35445 29.3405 9.2142 28.9984 9.2142 28.6418V24.87C9.2142 24.6934 9.24864 24.5186 9.31554 24.3555C9.38244 24.1923 9.4805 24.0441 9.60412 23.9193C9.72773 23.7945 9.87448 23.6954 10.036 23.6278C10.1975 23.5603 10.3706 23.5255 10.5454 23.5255H14.281C14.634 23.5255 14.9726 23.6672 15.2223 23.9193C15.4719 24.1714 15.6122 24.5134 15.6122 24.87V28.6418ZM15.6122 21.1089C15.6122 21.4655 15.472 21.8076 15.2223 22.0599C14.9727 22.3122 14.6341 22.454 14.281 22.4542H10.5454C10.1923 22.454 9.8537 22.3122 9.60407 22.0599C9.35445 21.8076 9.2142 21.4655 9.2142 21.1089V17.3335C9.2142 17.157 9.24864 16.9821 9.31554 16.819C9.38244 16.6559 9.4805 16.5077 9.60412 16.3828C9.72773 16.258 9.87448 16.159 10.036 16.0914C10.1975 16.0238 10.3706 15.9891 10.5454 15.9891H14.281C14.634 15.9891 14.9726 16.1307 15.2223 16.3828C15.4719 16.635 15.6122 16.9769 15.6122 17.3335V21.1089ZM22.758 36.1746C22.758 36.5312 22.6177 36.8732 22.3681 37.1253C22.1184 37.3774 21.7798 37.5191 21.4268 37.5191H17.6921C17.339 37.5191 17.0003 37.3775 16.7505 37.1254C16.5007 36.8733 16.3603 36.5313 16.36 36.1746V32.4029C16.3603 32.0462 16.5007 31.7042 16.7505 31.4521C17.0003 31.2 17.339 31.0584 17.6921 31.0584H21.4268C21.7798 31.0584 22.1184 31.2 22.3681 31.4522C22.6177 31.7043 22.758 32.0463 22.758 32.4029V36.1746ZM22.758 28.6418C22.758 28.9984 22.6178 29.3405 22.3682 29.5927C22.1185 29.845 21.7799 29.9869 21.4268 29.9871H17.6921C17.3388 29.9871 17 29.8454 16.7502 29.5931C16.5003 29.3408 16.36 28.9986 16.36 28.6418V24.87C16.3603 24.5133 16.5007 24.1713 16.7505 23.9192C17.0003 23.6671 17.339 23.5255 17.6921 23.5255H21.4268C21.7798 23.5255 22.1184 23.6672 22.3681 23.9193C22.6177 24.1714 22.758 24.5134 22.758 24.87V28.6418ZM22.758 21.1089C22.758 21.4655 22.6178 21.8076 22.3682 22.0599C22.1185 22.3122 21.7799 22.454 21.4268 22.4542H17.6921C17.5172 22.4542 17.3439 22.4194 17.1823 22.3518C17.0207 22.2842 16.8739 22.1851 16.7502 22.0602C16.6265 21.9353 16.5283 21.787 16.4614 21.6237C16.3945 21.4605 16.36 21.2856 16.36 21.1089V17.3335C16.3603 16.9769 16.5007 16.6349 16.7505 16.3828C17.0003 16.1307 17.339 15.9891 17.6921 15.9891H21.4268C21.7798 15.9891 22.1184 16.1307 22.3681 16.3828C22.6177 16.635 22.758 16.9769 22.758 17.3335V21.1089ZM29.7084 36.1746C29.7084 36.5312 29.5682 36.8732 29.3185 37.1253C29.0689 37.3774 28.7303 37.5191 28.3772 37.5191H24.6417C24.2886 37.5191 23.95 37.3774 23.7004 37.1253C23.4507 36.8732 23.3105 36.5312 23.3105 36.1746V32.4029C23.3105 32.0463 23.4507 31.7043 23.7004 31.4522C23.95 31.2 24.2886 31.0584 24.6417 31.0584H28.3772C28.7303 31.0584 29.0689 31.2 29.3185 31.4522C29.5682 31.7043 29.7084 32.0463 29.7084 32.4029V36.1746ZM29.7084 28.6418C29.7084 28.9984 29.5682 29.3405 29.3186 29.5927C29.069 29.845 28.7303 29.9869 28.3772 29.9871H24.6417C24.2885 29.9869 23.9499 29.845 23.7003 29.5927C23.4507 29.3405 23.3105 28.9984 23.3105 28.6418V24.87C23.3105 24.5134 23.4507 24.1714 23.7004 23.9193C23.95 23.6672 24.2886 23.5255 24.6417 23.5255H28.3772C28.7303 23.5255 29.0689 23.6672 29.3185 23.9193C29.5682 24.1714 29.7084 24.5134 29.7084 24.87V28.6418ZM29.7084 21.1089C29.7084 21.4655 29.5682 21.8076 29.3186 22.0599C29.069 22.3122 28.7303 22.454 28.3772 22.4542H24.6417C24.2885 22.454 23.9499 22.3122 23.7003 22.0599C23.4507 21.8076 23.3105 21.4655 23.3105 21.1089V17.3335C23.3105 16.9769 23.4507 16.635 23.7004 16.3828C23.95 16.1307 24.2886 15.9891 24.6417 15.9891H28.3772C28.7303 15.9891 29.0689 16.1307 29.3185 16.3828C29.5682 16.635 29.7084 16.9769 29.7084 17.3335V21.1089Z" fill="#22B14C"/>
<path d="M0.0573331 13.5696C0.0334666 13.5365 0.0175384 13.524 0.0175384 13.5115C0.0307975 11.61 -0.0646649 9.70046 0.0873733 7.80965C0.251787 5.7644 2.14345 4.12802 4.17475 4.03785C4.64235 4.01732 5.11261 4.03785 5.65181 4.03785V3.34241C5.65181 2.58359 5.64209 1.82476 5.65181 1.06683C5.6633 0.392821 6.05048 -0.012475 6.63831 0.00091603C7.19696 0.0134143 7.56023 0.430304 7.56377 1.07754C7.56819 2.04079 7.56377 3.00495 7.56377 4.02981H8.12245C13.3059 4.02981 18.4893 4.02268 23.6736 4.04053C24.1377 4.04053 24.2456 3.90305 24.227 3.46294C24.1925 2.67644 24.2119 1.88724 24.219 1.09896C24.2252 0.411556 24.585 0.00359336 25.1684 2.24249e-05C25.7518 -0.00354851 26.123 0.419604 26.1283 1.09094C26.1345 2.04259 26.1283 2.99335 26.1283 4.0307C26.5703 4.0307 26.9866 4.02267 27.4065 4.0307C28.379 4.04387 29.3201 4.38012 30.0845 4.98747C30.8488 5.59482 31.3938 6.4395 31.6353 7.39096C31.7094 7.63265 31.7531 7.88278 31.7652 8.13549C31.7767 9.93345 31.7715 11.7314 31.7715 13.5705L0.0573331 13.5696ZM17.8175 10.1558C17.7565 10.1236 17.7221 10.1174 17.7115 10.0977C17.5429 9.80014 17.3761 9.50256 17.2111 9.20498C16.8134 8.49079 16.7692 8.47117 15.9011 8.64079V11.71H16.6498V9.67724C16.9848 10.2879 17.2545 10.7798 17.5258 11.2708C17.8246 11.8118 17.9236 11.8502 18.5256 11.6671V8.61132H17.8184L17.8175 10.1558ZM14.5027 8.6006C14.5027 8.81396 14.5027 8.97465 14.5027 9.13624C14.4974 9.67188 14.5222 10.2075 14.4665 10.7387C14.4497 10.894 14.226 11.0958 14.0572 11.1502C13.8026 11.2306 13.6002 11.0681 13.5507 10.7887C13.525 10.6114 13.5141 10.4322 13.518 10.253C13.518 9.70848 13.518 9.16392 13.518 8.61222H12.711C12.711 9.37014 12.673 10.0977 12.7225 10.8199C12.764 11.4225 13.2095 11.768 13.8415 11.8019C14.615 11.8484 15.1913 11.5948 15.2497 11.0306C15.3381 10.2316 15.2709 9.41657 15.2709 8.59258L14.5027 8.6006ZM19.954 9.73171C19.969 9.53173 19.9797 9.39157 19.9929 9.21213H21.2508V8.62024H19.1443V11.71H21.2552V11.0851H19.9894V10.3629H21.1482V9.73171H19.954ZM24.2199 5.97597C23.6162 6.42234 23.4138 7.11956 23.656 7.78197C23.7776 8.1201 24.0057 8.40866 24.3052 8.60343C24.6047 8.7982 24.9591 8.88847 25.3142 8.8604C25.6533 8.82641 25.9735 8.6871 26.2309 8.46167C26.4883 8.23625 26.6702 7.93578 26.7515 7.60163C26.8947 6.94637 26.6552 6.30717 26.1328 6.01882C26.1328 6.35806 26.1407 6.68034 26.1328 7.00083C26.1151 7.59717 25.7173 8.01854 25.1834 8.02032C24.6495 8.02211 24.2447 7.60254 24.2243 7.00798C24.2146 6.6857 24.2199 6.36074 24.2199 5.97597ZM7.56821 5.95991C7.56821 6.342 7.56821 6.64998 7.56821 6.95708C7.55849 7.59003 7.17396 8.02032 6.62061 8.0239C6.06726 8.02747 5.67566 7.59448 5.65621 6.96779C5.64561 6.64997 5.65621 6.33128 5.65621 5.97418C4.87392 6.58035 4.78818 7.61682 5.41313 8.3194C5.56249 8.48937 5.74559 8.62576 5.95049 8.71971C6.15538 8.81366 6.37751 8.86307 6.60252 8.86476C6.82754 8.86644 7.05043 8.82035 7.25668 8.72947C7.46293 8.6386 7.64794 8.50497 7.79978 8.33725C8.42649 7.65341 8.35492 6.60535 7.56821 5.95991ZM11.3692 9.22551C11.3692 9.61831 11.3692 9.97184 11.3692 10.3245C11.3692 11.1601 11.2578 11.2493 10.4375 11.0842C10.4127 11.0842 10.3836 11.1012 10.357 11.111C10.2527 11.7421 10.2863 11.7912 10.8803 11.8019C11.056 11.8051 11.2316 11.7908 11.4045 11.7591C11.7996 11.6868 12.1329 11.4609 12.1576 11.0565C12.2071 10.253 12.1718 9.43978 12.1718 8.61132H10.7027V9.18892L11.3692 9.22551Z" fill="#22B14C"/>
<path d="M24.0176 34.1165C24.0336 30.8741 26.6253 28.2549 29.8092 28.2647C33.0409 28.2736 35.6432 30.8973 35.6388 34.1344C35.6317 37.4375 33.0162 40.0131 29.6775 39.997C26.5616 39.9845 24.0026 37.3304 24.0176 34.1165ZM29.8048 35.3191L31.2536 36.7474L32.5592 35.5619L30.8523 34.063C31.4525 33.5372 31.9687 33.081 32.4664 32.6462L31.2731 31.4214L29.7827 33.0765L28.4117 31.4999L27.1459 32.706L28.7193 34.1344L27.1618 35.5726L28.3817 36.8224L29.8048 35.3191Z" fill="#22B14C"/>
<path d="M28.4142 31.5073L29.7852 33.0829L31.2756 31.4287L32.4689 32.6535L30.8548 34.0703L32.5617 35.5683L31.2561 36.7548L29.8073 35.3228L28.3851 36.8324L27.1643 35.579L28.7219 34.1408L27.1484 32.7134L28.4142 31.5073Z" fill="white"/>
</svg>
