<svg width="54" height="41" viewBox="0 0 54 41" fill="none" xmlns="http://www.w3.org/2000/svg">
<path d="M8.41486 0C6.1831 0 4.04275 0.886563 2.46466 2.46466C0.886563 4.04275 0 6.1831 0 8.41486V10.0978H53.8461V8.41486C53.8461 6.1831 52.9596 4.04275 51.3815 2.46466C49.8034 0.886563 47.663 0 45.4313 0H8.41486ZM0 31.9765V13.4638H53.8461V31.9765C53.8461 34.2082 52.9596 36.3486 51.3815 37.9267C49.8034 39.5048 47.663 40.3913 45.4313 40.3913H8.41711C6.18535 40.3913 4.04499 39.5048 2.4669 37.9267C0.888808 36.3486 0.00224434 34.2082 0.00224434 31.9765M36.4554 25.8056C36.0091 25.8056 35.581 25.9829 35.2654 26.2985C34.9498 26.6141 34.7725 27.0422 34.7725 27.4886C34.7725 27.9349 34.9498 28.363 35.2654 28.6786C35.581 28.9942 36.0091 29.1715 36.4554 29.1715H44.3093C44.7557 29.1715 45.1837 28.9942 45.4993 28.6786C45.815 28.363 45.9923 27.9349 45.9923 27.4886C45.9923 27.0422 45.815 26.6141 45.4993 26.2985C45.1837 25.9829 44.7557 25.8056 44.3093 25.8056H36.4554Z" fill="#22B14C"/>
</svg>
