<svg width="29" height="40" viewBox="0 0 29 40" fill="none" xmlns="http://www.w3.org/2000/svg">
<path fill-rule="evenodd" clip-rule="evenodd" d="M5.9616 0.548572C6.09402 0.377648 6.26328 0.239416 6.45653 0.144366C6.64978 0.0493157 6.86195 -5.50279e-05 7.07692 4.60262e-08H21.2308C21.4458 5.99891e-05 21.6579 0.0495528 21.8511 0.144722C22.0443 0.239892 22.2135 0.378236 22.3459 0.549256C22.4782 0.720275 22.5702 0.919475 22.6149 1.13174C22.6595 1.344 22.6557 1.56374 22.6037 1.77429L22.3348 2.85714H26.8923C27.2677 2.85714 27.6277 3.00765 27.8931 3.27556C28.1586 3.54347 28.3077 3.90683 28.3077 4.28571V38.5714C28.3077 38.9503 28.1586 39.3137 27.8931 39.5816C27.6277 39.8495 27.2677 40 26.8923 40H1.41538C1.04 40 0.679993 39.8495 0.414557 39.5816C0.149121 39.3137 0 38.9503 0 38.5714V4.28571C0 3.90683 0.149121 3.54347 0.414557 3.27556C0.679993 3.00765 1.04 2.85714 1.41538 2.85714H5.97292L5.704 1.77429C5.65144 1.56387 5.64707 1.34413 5.69121 1.13175C5.73536 0.919368 5.82969 0.71993 5.9616 0.548572ZM19.4191 2.85714H8.88862L9.59631 5.71429H18.7114L19.4191 2.85714ZM22.6462 31.4286H5.66154V28.5714H22.6462V31.4286ZM8.49231 25.7143L12.7385 24.2857L21.2308 15.7143L18.4 12.8571L9.90769 21.4286L8.49231 25.7143Z" fill="#ED1C24"/>
</svg>
