<svg width="37" height="40" viewBox="0 0 37 40" fill="none" xmlns="http://www.w3.org/2000/svg">
<path d="M18.4211 7.41335C19.9434 7.41335 21.3761 7.70294 22.7193 8.2821C24.0625 8.86127 25.233 9.65924 26.2308 10.676C27.2286 11.6928 28.0154 12.8704 28.591 14.2089C29.1667 15.5474 29.4609 16.9889 29.4737 18.5334C29.4737 19.3442 29.4225 20.1036 29.3202 20.8114C29.2178 21.5193 29.0579 22.195 28.8405 22.8385C28.623 23.482 28.3416 24.1191 27.9962 24.7498C27.6508 25.3804 27.2414 26.024 26.7681 26.6803C26.3971 27.1952 26.0709 27.6585 25.7895 28.0703C25.508 28.4822 25.2778 28.8941 25.0987 29.3059C24.9196 29.7178 24.7853 30.1682 24.6957 30.6573C24.6062 31.1464 24.5614 31.7191 24.5614 32.3755V35.8312C24.5614 36.346 24.4655 36.8287 24.2736 37.2791C24.0817 37.7296 23.8194 38.1221 23.4868 38.4568C23.1542 38.7914 22.7641 39.0552 22.3163 39.2483C21.8686 39.4413 21.3889 39.5379 20.8772 39.5379H15.9649C15.4532 39.5379 14.9735 39.4413 14.5258 39.2483C14.078 39.0552 13.6879 38.7914 13.3553 38.4568C13.0227 38.1221 12.7604 37.7296 12.5685 37.2791C12.3766 36.8287 12.2807 36.346 12.2807 35.8312V32.3562C12.2807 31.6998 12.2359 31.1335 12.1464 30.6573C12.0568 30.1811 11.9225 29.7371 11.7434 29.3252C11.5643 28.9134 11.3341 28.4951 11.0526 28.0703C10.7712 27.6456 10.445 27.1823 10.074 26.6803C9.6007 26.024 9.19774 25.3869 8.86513 24.7691C8.53253 24.1513 8.2511 23.5142 8.02083 22.8578C7.79057 22.2014 7.62427 21.5193 7.52193 20.8114C7.41959 20.1036 7.36842 19.3442 7.36842 18.5334C7.36842 17.0018 7.65625 15.5603 8.23191 14.2089C8.80757 12.8575 9.6007 11.6799 10.6113 10.676C11.6219 9.67211 12.7924 8.88058 14.1228 8.30141C15.4532 7.72224 16.886 7.42622 18.4211 7.41335ZM22.1053 35.8312V34.5956H14.7368V35.8312C14.7368 36.1658 14.8584 36.4554 15.1014 36.7C15.3445 36.9445 15.6323 37.0668 15.9649 37.0668H20.8772C21.2098 37.0668 21.4976 36.9445 21.7407 36.7C21.9837 36.4554 22.1053 36.1658 22.1053 35.8312ZM27.0175 18.5334C27.0175 17.3364 26.7937 16.2167 26.3459 15.1742C25.8982 14.1317 25.2842 13.2115 24.5038 12.4135C23.7235 11.6155 22.8152 10.9978 21.7791 10.5602C20.7429 10.1226 19.6235 9.89734 18.4211 9.88447C17.2314 9.88447 16.1184 10.1097 15.0822 10.5602C14.0461 11.0106 13.1314 11.6284 12.3383 12.4135C11.5451 13.1986 10.9311 14.1124 10.4962 15.1549C10.0612 16.1974 9.83736 17.3236 9.82456 18.5334C9.82456 19.6788 9.93969 20.6634 10.17 21.4871C10.4002 22.3108 10.7008 23.0445 11.0718 23.688C11.4428 24.3315 11.833 24.9364 12.2423 25.5027C12.6517 26.069 13.0419 26.661 13.4128 27.2788C13.7838 27.8966 14.0908 28.5916 14.3339 29.3638C14.5769 30.136 14.7113 31.0563 14.7368 32.1245H22.1053C22.1181 31.0563 22.246 30.1425 22.489 29.3831C22.7321 28.6238 23.0391 27.9288 23.4101 27.2981C23.7811 26.6675 24.1712 26.0754 24.5806 25.522C24.99 24.9686 25.3801 24.3637 25.7511 23.7073C26.1221 23.0509 26.4227 22.3108 26.653 21.4871C26.8832 20.6634 27.0048 19.6788 27.0175 18.5334ZM18.4211 4.94223C18.0885 4.94223 17.8006 4.81997 17.5576 4.57543C17.3145 4.33089 17.193 4.04131 17.193 3.70668V1.23556C17.193 0.900928 17.3145 0.611344 17.5576 0.366806C17.8006 0.122269 18.0885 0 18.4211 0C18.7537 0 19.0415 0.122269 19.2845 0.366806C19.5276 0.611344 19.6491 0.900928 19.6491 1.23556V3.70668C19.6491 4.04131 19.5276 4.33089 19.2845 4.57543C19.0415 4.81997 18.7537 4.94223 18.4211 4.94223ZM3.68421 17.9156H1.22807C0.895468 17.9156 0.607639 17.7933 0.364583 17.5488C0.121528 17.3043 0 17.0147 0 16.68C0 16.3454 0.121528 16.0558 0.364583 15.8113C0.607639 15.5668 0.895468 15.4445 1.22807 15.4445H3.68421C4.01681 15.4445 4.30464 15.5668 4.5477 15.8113C4.79075 16.0558 4.91228 16.3454 4.91228 16.68C4.91228 17.0147 4.79075 17.3043 4.5477 17.5488C4.30464 17.7933 4.01681 17.9156 3.68421 17.9156ZM4.70121 22.9544C5.03381 22.9544 5.32164 23.0766 5.56469 23.3212C5.80775 23.5657 5.92928 23.8617 5.92928 24.2092C5.92928 24.4666 5.85892 24.6919 5.7182 24.8849C5.57749 25.078 5.3856 25.2324 5.14254 25.3483C5.00183 25.4126 4.80994 25.4963 4.56689 25.5992C4.32383 25.7022 4.06159 25.8116 3.78015 25.9274C3.49872 26.0433 3.24287 26.1398 3.01261 26.217C2.78235 26.2942 2.57767 26.3393 2.39858 26.3521C2.06597 26.3521 1.77814 26.2299 1.53509 25.9853C1.29203 25.7408 1.1705 25.4448 1.1705 25.0973C1.1705 24.8399 1.24086 24.6146 1.38158 24.4216C1.5223 24.2285 1.71418 24.0741 1.95724 23.9583C2.09795 23.9068 2.28984 23.8231 2.5329 23.7073C2.77595 23.5914 3.03819 23.482 3.31963 23.3791C3.60106 23.2761 3.85691 23.1796 4.08717 23.0895C4.31743 22.9994 4.52211 22.9544 4.70121 22.9544ZM7.61787 10.5022C7.61787 10.8369 7.49635 11.1265 7.25329 11.371C7.01023 11.6155 6.72241 11.7378 6.3898 11.7378C6.15954 11.7378 5.94847 11.6799 5.75658 11.5641L3.66502 10.2706C3.48593 10.1547 3.34521 10.0067 3.24287 9.82655C3.14053 9.64637 3.08297 9.44044 3.07018 9.20877C3.07018 8.87414 3.1917 8.58456 3.43476 8.34002C3.67781 8.09548 3.96564 7.97321 4.29825 7.97321C4.50292 7.97321 4.714 8.03757 4.93147 8.16627L7.04222 9.44044C7.22131 9.5434 7.36203 9.69141 7.46437 9.88447C7.5667 10.0775 7.61787 10.2835 7.61787 10.5022ZM9.21053 3.39779C9.21053 3.06316 9.33206 2.77357 9.57511 2.52903C9.81817 2.2845 10.106 2.16223 10.4386 2.16223C10.6561 2.16223 10.8607 2.22014 11.0526 2.33598C11.2445 2.45181 11.398 2.60626 11.5132 2.79931L12.7029 4.96154C12.8052 5.14173 12.8564 5.33478 12.8564 5.54071C12.8564 5.88821 12.7348 6.18423 12.4918 6.42877C12.2487 6.6733 11.9609 6.79557 11.6283 6.79557C11.4108 6.79557 11.2061 6.73766 11.0143 6.62182C10.8224 6.50599 10.6689 6.35154 10.5537 6.15849L9.36404 3.99626C9.2617 3.81607 9.21053 3.61658 9.21053 3.39779ZM35.614 15.4445C35.9466 15.4445 36.2345 15.5668 36.4775 15.8113C36.7206 16.0558 36.8421 16.3454 36.8421 16.68C36.8421 17.0147 36.7206 17.3043 36.4775 17.5488C36.2345 17.7933 35.9466 17.9156 35.614 17.9156H33.1579C32.8253 17.9156 32.5375 17.7933 32.2944 17.5488C32.0514 17.3043 31.9298 17.0147 31.9298 16.68C31.9298 16.3454 32.0514 16.0558 32.2944 15.8113C32.5375 15.5668 32.8253 15.4445 33.1579 15.4445H35.614ZM35.6524 25.1166C35.6524 25.4512 35.5309 25.7408 35.2878 25.9853C35.0448 26.2299 34.757 26.3521 34.4243 26.3521C34.2836 26.3521 34.0917 26.3135 33.8487 26.2363C33.6056 26.1591 33.3434 26.0561 33.062 25.9274C32.7805 25.7987 32.5247 25.6893 32.2944 25.5992C32.0642 25.5091 31.8659 25.419 31.6996 25.329C31.4693 25.226 31.2838 25.0715 31.1431 24.8656C31.0024 24.6597 30.9256 24.428 30.9128 24.1706C30.9128 23.8231 31.0344 23.5335 31.2774 23.3019C31.5205 23.0702 31.8147 22.9479 32.1601 22.9351C32.3136 22.9351 32.5119 22.9801 32.7549 23.0702C32.998 23.1603 33.2538 23.2633 33.5225 23.3791C33.7911 23.4949 34.047 23.6108 34.29 23.7266C34.5331 23.8424 34.7314 23.9261 34.8849 23.9776C35.1151 24.0805 35.3006 24.2285 35.4413 24.4216C35.5821 24.6146 35.6524 24.8463 35.6524 25.1166ZM30.4523 11.7378C30.1197 11.7378 29.8319 11.6155 29.5888 11.371C29.3458 11.1265 29.2242 10.8369 29.2242 10.5022C29.2242 10.2835 29.2754 10.0775 29.3777 9.88447C29.4801 9.69141 29.6208 9.5434 29.7999 9.44044L31.9106 8.16627C32.1281 8.03757 32.3392 7.97321 32.5439 7.97321C32.8765 7.97321 33.1643 8.09548 33.4074 8.34002C33.6504 8.58456 33.7719 8.87414 33.7719 9.20877C33.7719 9.42757 33.7208 9.62706 33.6184 9.80725C33.5161 9.98743 33.369 10.1419 33.1771 10.2706L31.0855 11.5641C30.8936 11.6799 30.6826 11.7378 30.4523 11.7378ZM23.9858 5.54071C23.9858 5.33478 24.0369 5.14173 24.1393 4.96154L25.329 2.79931C25.4313 2.60626 25.5784 2.45181 25.7703 2.33598C25.9622 2.22014 26.1733 2.16223 26.4035 2.16223C26.7361 2.16223 27.0239 2.2845 27.267 2.52903C27.5101 2.77357 27.6316 3.06316 27.6316 3.39779C27.6316 3.61658 27.5804 3.81607 27.4781 3.99626L26.2884 6.15849C26.186 6.35154 26.0389 6.50599 25.847 6.62182C25.6552 6.73766 25.4441 6.79557 25.2138 6.79557C24.8812 6.79557 24.5934 6.6733 24.3503 6.42877C24.1073 6.18423 23.9858 5.88821 23.9858 5.54071Z" fill="#ED1C24"/>
</svg>
