<svg width="49" height="40" viewBox="0 0 49 40" fill="none" xmlns="http://www.w3.org/2000/svg">
<path d="M47.3383 34.7715C46.4132 33.8632 35.2023 29.5387 33.168 28.723C31.1445 27.9215 30.3372 25.7005 30.3372 25.7005C30.3372 25.7005 29.4263 26.2028 29.4263 24.7921C29.4263 23.3797 30.3372 25.7005 31.2481 20.254C31.2481 20.254 33.7753 19.5469 33.2734 13.6996H32.6662C32.6662 13.6996 34.1843 7.44802 32.6662 5.3321C31.1427 3.21618 30.5461 1.80557 27.2009 0.793917C23.8611 -0.215953 25.0756 -0.0146914 22.6501 0.088611C20.2212 0.190132 18.1994 1.501 18.1994 2.20453C18.1994 2.20453 16.6813 2.30605 16.0776 2.91162C15.4703 3.51718 14.4595 6.33841 14.4595 7.04372C14.4595 7.74902 14.9649 12.4938 15.4703 13.4983L14.8685 13.6943C14.363 19.5433 16.8902 20.2522 16.8902 20.2522C17.8011 25.6987 18.712 23.378 18.712 24.7904C18.712 26.201 17.8011 25.6987 17.8011 25.6987C17.8011 25.6987 16.992 27.9179 14.9703 28.7212C12.9485 29.528 1.72512 33.8632 0.812466 34.7697C-0.0984052 35.6959 0.00339782 39.9277 0.00339782 39.9277H21.4999L23.0681 33.7652L21.675 32.376L24.0736 29.9804L26.4722 32.3742L25.0791 33.7634L26.6473 39.926H48.1438C48.1438 39.926 48.2563 35.6906 47.3347 34.7662L47.3383 34.7715Z" fill="#2595ED"/>
</svg>
