<svg width="40" height="40" viewBox="0 0 40 40" fill="none" xmlns="http://www.w3.org/2000/svg">
<path d="M6.11621 11.333C7.24338 11.333 8.32406 11.7811 9.12109 12.5781C9.91812 13.3752 10.3662 14.4558 10.3662 15.583C10.3662 16.7102 9.91812 17.7909 9.12109 18.5879C8.32406 19.3849 7.24338 19.833 6.11621 19.833C4.98904 19.833 3.90836 19.3849 3.11133 18.5879C2.3143 17.7909 1.86621 16.7102 1.86621 15.583C1.86621 14.4558 2.3143 13.3752 3.11133 12.5781C3.90836 11.7811 4.98904 11.333 6.11621 11.333Z" fill="#00A2E8" stroke="white"/>
<path d="M6.11621 20.917H6.11914C7.17067 20.9112 8.21024 21.1445 9.1582 21.5996C10.1062 22.0548 10.9387 22.7197 11.5918 23.5439L11.5977 23.5518L11.6035 23.5586C11.6434 23.6052 11.6687 23.6628 11.6768 23.7236C11.6845 23.7824 11.6749 23.8416 11.6504 23.8955C11.6215 23.9508 11.5794 23.9983 11.5264 24.0312C11.4719 24.0651 11.4088 24.0833 11.3447 24.084H0.888672C0.824533 24.0833 0.761495 24.0651 0.707031 24.0312C0.653991 23.9982 0.611946 23.9508 0.583008 23.8955C0.55853 23.8416 0.548904 23.7824 0.556641 23.7236C0.564671 23.6628 0.589985 23.6052 0.629883 23.5586L0.635742 23.5527L0.640625 23.5459C1.2972 22.7246 2.13028 22.0616 3.07812 21.6064C3.90756 21.2082 4.80653 20.9783 5.72266 20.9277L6.11621 20.917ZM33.8838 11.334C35.0108 11.3341 36.0917 11.7813 36.8887 12.5781C37.6857 13.3752 38.1338 14.4568 38.1338 15.584C38.1337 16.711 37.6856 17.7919 36.8887 18.5889C36.0917 19.3858 35.0108 19.8339 33.8838 19.834C32.7566 19.834 31.675 19.3859 30.8779 18.5889C30.0811 17.7919 29.6339 16.711 29.6338 15.584C29.6338 14.4568 30.0809 13.3752 30.8779 12.5781C31.675 11.7811 32.7566 11.334 33.8838 11.334ZM20.25 12.1836C21.4555 12.1884 22.6447 12.4625 23.7305 12.9863C24.8168 13.5105 25.7722 14.2716 26.5264 15.2129L26.5303 15.2178C26.5691 15.265 26.5937 15.323 26.6006 15.3838C26.6074 15.4445 26.5966 15.5059 26.5693 15.5605L26.5674 15.5635C26.5399 15.6196 26.4974 15.6672 26.4443 15.7002C26.3914 15.7331 26.3299 15.7501 26.2676 15.75H14.1064L14.0957 15.751C14.0311 15.7536 13.9667 15.7372 13.9111 15.7041C13.8672 15.6779 13.8323 15.6403 13.8047 15.5977C13.7955 15.5457 13.7961 15.4925 13.8105 15.4414C13.8288 15.377 13.8649 15.3188 13.915 15.2744L13.9473 15.2461L13.9736 15.2129C14.7278 14.2715 15.6832 13.5105 16.7695 12.9863C17.8553 12.4625 19.0445 12.1884 20.25 12.1836ZM18.625 2.96973C19.4027 2.65953 20.2548 2.58552 21.0742 2.75781C21.8936 2.93015 22.6436 3.34129 23.2305 3.93848C23.8173 4.53569 24.215 5.29298 24.373 6.11523C24.531 6.93745 24.4428 7.7884 24.1191 8.56055C23.7954 9.33266 23.2508 9.99233 22.5537 10.4561C21.8565 10.9198 21.0375 11.1659 20.2002 11.166C19.6367 11.1639 19.0789 11.0508 18.5596 10.832C18.0398 10.613 17.5682 10.2929 17.1729 9.89062C16.7776 9.48837 16.4657 9.0117 16.2559 8.48828C16.0462 7.96539 15.9426 7.40606 15.9502 6.84277C15.9649 6.00557 16.2264 5.19096 16.7021 4.50195C17.178 3.81292 17.8472 3.28 18.625 2.96973Z" fill="#00A2E8" stroke="white"/>
<path d="M33.8833 20.917H33.8853C34.9393 20.9135 35.9805 21.1484 36.9312 21.6035C37.8818 22.0587 38.7173 22.7227 39.3755 23.5459C39.4133 23.5959 39.4368 23.6554 39.4438 23.7178C39.4509 23.7806 39.4407 23.8438 39.4146 23.9014C39.387 23.9554 39.3459 24.0011 39.2944 24.0332C39.2414 24.0662 39.1801 24.0841 39.1177 24.084H28.6655C28.6031 24.0841 28.5418 24.0662 28.4888 24.0332C28.4359 24.0003 28.3932 23.9534 28.3657 23.8975L28.3638 23.8936C28.3366 23.8389 28.3256 23.7775 28.3325 23.7168C28.3394 23.6561 28.3641 23.599 28.4028 23.5518L28.4067 23.5459C29.0641 22.7255 29.8976 22.0634 30.8452 21.6084C31.7931 21.1533 32.8318 20.9169 33.8833 20.917Z" fill="#00A2E8" stroke="white"/>
<path d="M15 19.25H25C25.3094 19.25 25.6064 19.373 25.8252 19.5918C26.0439 19.8106 26.167 20.1076 26.167 20.417V26.25C26.167 26.6036 26.3076 26.9423 26.5576 27.1924C26.8077 27.4424 27.1464 27.583 27.5 27.583H38.333C38.6424 27.583 38.9394 27.7061 39.1582 27.9248C39.377 28.1436 39.5 28.4406 39.5 28.75V36.25C39.5 36.5594 39.377 36.8564 39.1582 37.0752C38.9394 37.2939 38.6424 37.417 38.333 37.417H1.66699C1.35765 37.417 1.06057 37.2939 0.841797 37.0752C0.623006 36.8564 0.5 36.5594 0.5 36.25V28.75C0.5 28.4406 0.623004 28.1436 0.841797 27.9248C1.06057 27.7061 1.35765 27.583 1.66699 27.583H12.5C12.8536 27.583 13.1923 27.4424 13.4424 27.1924C13.6924 26.9423 13.833 26.6036 13.833 26.25V20.417C13.833 20.1077 13.9561 19.8106 14.1748 19.5918C14.3936 19.373 14.6906 19.25 15 19.25Z" fill="#00A2E8" stroke="white"/>
</svg>
