<svg width="41" height="40" viewBox="0 0 41 40" fill="none" xmlns="http://www.w3.org/2000/svg">
<path d="M0.00358262 3.10187C0.216541 2.61867 0.361474 2.09429 0.653173 1.65941C1.11448 0.95708 1.80229 0.433824 2.60221 0.176614C3.40213 -0.0805966 4.26598 -0.0562477 5.05014 0.245604C6.72518 0.893457 7.6253 2.52204 7.34792 4.40653C7.11706 5.96532 5.64246 7.29681 4.03364 7.39524C3.18401 7.46593 2.33608 7.24069 1.63355 6.75763C0.931013 6.27458 0.417134 5.56342 0.178956 4.74476C0.127429 4.61114 0.0676618 4.48085 0 4.35463L0.00358262 3.10187Z" fill="#FF7F27"/>
<path d="M40.2664 4.35386C39.8047 5.69252 39.0888 6.786 37.6357 7.23163C36.7052 7.52348 35.697 7.43527 34.8313 6.98629C33.9655 6.53731 33.3126 5.76402 33.0151 4.83526C32.7184 3.90516 32.8018 2.89546 33.2471 2.02666C33.6924 1.15786 34.4634 0.500573 35.3916 0.198303C36.3197 -0.103694 37.3293 -0.0290936 38.2029 0.406061C39.0765 0.841216 39.7443 1.60211 40.0624 2.52485C40.1268 2.71813 40.1984 2.90962 40.2664 3.1029V4.35386Z" fill="#FF7F27"/>
<path d="M6.819 15.5546C6.819 17.6771 6.80289 19.6117 6.819 21.5463C6.83152 22.5646 6.46109 23.3718 5.75421 24.0984C5.52184 24.3806 5.39526 24.735 5.3963 25.1005C5.37304 29.453 5.38555 33.8036 5.37839 38.165C5.37839 39.2925 4.75562 39.9779 3.76778 39.9994C2.67615 40.0208 2.03548 39.3515 2.02475 38.0916C2.00506 35.706 2.02475 33.3222 2.02475 30.933C2.02475 28.9644 2.04267 26.9958 2.00688 25.0272C2.00202 24.6586 1.86698 24.3036 1.62568 24.025C1.28541 23.69 1.01808 23.2884 0.840384 22.8452C0.662693 22.4021 0.578481 21.9269 0.593096 21.4497C0.593096 18.3196 0.57699 15.1859 0.593096 12.0612C0.602044 10.5185 1.36977 9.39462 2.65289 8.92394C3.936 8.45326 5.18334 8.83624 6.2016 10.0818C6.65079 10.6348 7.02303 11.2505 7.46505 11.8088C8.83048 13.5341 10.5771 14.207 12.7532 13.7095C13.827 13.4625 14.677 13.9296 14.8595 14.8101C15.0671 15.8159 14.5875 16.5174 13.4278 16.7787C11.13 17.312 8.95574 16.9988 6.819 15.5546Z" fill="#FF7F27"/>
<path d="M33.4482 15.8559C32.1722 16.2335 30.9875 16.7275 29.7581 16.9029C28.7577 17.0442 27.6876 16.8921 26.6782 16.7096C25.6152 16.5163 25.1696 15.6984 25.4148 14.732C25.617 13.932 26.4134 13.5562 27.4048 13.6582C28.2781 13.7441 29.1944 13.8282 30.0408 13.6761C31.6192 13.3969 32.5462 12.1925 33.441 10.9666C33.8222 10.4404 34.1962 9.88027 34.683 9.46149C35.0854 9.11824 35.5719 8.88815 36.0925 8.79483C36.6132 8.70151 37.1493 8.74834 37.6459 8.93045C38.1425 9.11257 38.5818 9.42342 38.9187 9.83122C39.2556 10.239 39.478 10.7291 39.5631 11.2511C39.6629 12.0482 39.7018 12.8517 39.6795 13.6546C39.6938 16.1888 39.6795 18.7211 39.6795 21.2553C39.6795 22.3398 39.4056 23.2883 38.5806 24.0722C38.3498 24.2887 38.2603 24.7504 38.2585 25.1012C38.237 29.3641 38.2478 33.6253 38.2424 37.8883C38.2424 39.141 37.7754 39.8282 36.8591 39.9696C35.7281 40.1486 34.8906 39.4327 34.8906 38.2515C34.8745 35.6888 34.8906 33.126 34.8906 30.556C34.8906 28.7396 34.9174 26.9195 34.8673 25.103C34.8566 24.72 34.5631 24.346 34.402 23.9666C34.0871 23.2203 33.5538 22.4883 33.5072 21.7242C33.3641 19.7484 33.4482 17.7458 33.4482 15.8559Z" fill="#FF7F27"/>
<path d="M11.1642 18.423C12.1967 18.2566 13.1846 18.1903 14.1169 17.9255C14.6073 17.7917 15.0525 17.528 15.4055 17.1623C15.7585 16.7966 16.0062 16.3423 16.1226 15.8475C16.2389 15.3527 16.2196 14.8357 16.0666 14.3509C15.9136 13.8662 15.6327 13.4318 15.2533 13.0934C14.831 12.714 14.1617 12.5368 13.5783 12.4348C13.0987 12.3507 12.5761 12.5135 12.0733 12.569C11.4362 12.6424 11.0979 12.4957 11.1123 11.7154C11.1498 9.87385 10.919 9.0309 13.6176 9.18481C14.1778 9.21703 14.7397 9.18481 15.3893 9.18481V11.0783H17.3757L17.4849 9.1866C18.5425 9.1866 19.5518 9.1544 20.5576 9.19735C21.2394 9.22778 21.6689 9.63759 21.6725 10.3463C21.6856 13.329 21.6856 16.3118 21.6725 19.2945C21.6725 20.073 21.1088 20.4238 20.4323 20.4328C17.7784 20.4668 15.1245 20.4739 12.4705 20.4328C11.429 20.4202 11.0944 19.8404 11.1642 18.423Z" fill="#FF7F27"/>
</svg>
