<svg width="56" height="40" viewBox="0 0 56 40" fill="none" xmlns="http://www.w3.org/2000/svg">
<path d="M32.9124 15.3951C32.2167 15.9596 31.5165 16.5296 30.8077 17.0833C30.7126 17.161 30.5541 17.1735 30.4212 17.1742C28.9928 17.1805 27.5613 17.1781 26.1359 17.1781H25.7611V17.8127H29.8044L29.8422 17.9005C29.3615 18.252 28.9147 18.6618 28.3922 18.941C27.5559 19.3904 26.6755 19.7582 25.8074 20.1478C25.6846 20.1967 25.55 20.2076 25.421 20.1789C24.7516 20.0281 24.0822 19.8733 23.4206 19.6921C22.8533 19.5266 22.2595 19.4738 21.6721 19.5366C20.3496 19.6921 19.0217 19.8041 17.6953 19.9309C17.3861 19.9612 17.1025 20.0405 16.9827 20.3671C16.8698 20.6781 17.0159 20.9161 17.2145 21.1447C18.2967 22.3982 19.3664 23.6618 20.4609 24.9068C20.6233 25.0833 20.8308 25.2113 21.0607 25.2769C23.1178 25.8415 25.179 26.3923 27.2444 26.9293C27.3255 26.943 27.4004 26.9814 27.4591 27.0394C27.5177 27.0975 27.5572 27.1722 27.5721 27.2536C27.9385 28.5071 28.311 29.7591 28.9788 30.8967C29.5663 31.9277 30.4068 32.7901 31.4198 33.4014C33.3723 34.5699 35.3258 35.7363 37.2803 36.9006C37.387 36.9644 37.4914 37.0312 37.6668 37.1401H13.4951V0H42.0726V12.2567C41.7379 12.2411 41.4025 12.1789 41.0778 12.2186C40.4773 12.2839 40.012 12.6136 39.6819 13.1175C39.5057 13.3865 39.3178 13.4682 39.0048 13.3383C37.9435 12.8966 37.026 13.133 36.24 13.9666C36.1331 14.0607 35.9955 14.1119 35.8535 14.1105C35.1626 14.1035 34.4826 14.2837 33.8848 14.6322C33.7912 14.6867 33.6591 14.6773 33.5431 14.6906C33.4798 14.6941 33.4163 14.6941 33.353 14.6906H26.0525C25.9605 14.6906 25.8677 14.7007 25.7556 14.7077V15.3158H32.8884L32.9124 15.3951ZM25.751 10.3406H37.5918V9.75742H25.751V10.3406ZM25.7556 12.8235H37.5818V12.2302H25.7556V12.8235ZM28.6156 4.04201V7.36005H29.2401V5.42226C29.2958 5.56845 29.3236 5.64465 29.3545 5.72008C29.5624 6.21853 29.7665 6.71853 29.9806 7.21464C30.1128 7.52024 30.3879 7.33517 30.5989 7.36161C30.6283 7.36161 30.718 7.16877 30.7188 7.06379C30.7288 6.13921 30.7257 5.21463 30.7242 4.29006C30.7204 4.20982 30.7122 4.12986 30.6994 4.05056H30.0811V5.9347C29.8762 5.45414 29.6799 4.99069 29.4813 4.52723C29.2455 3.99068 29.2447 3.99068 28.614 4.04045L28.6156 4.04201ZM31.1385 6.39349C31.0937 7.02258 31.4407 7.4005 32.0583 7.44482C32.6759 7.48914 33.1311 7.11589 33.1651 6.56534C33.1945 6.09877 32.9696 5.77996 32.6009 5.53579C32.3814 5.39037 32.148 5.25662 31.9609 5.07544C31.8929 5.00934 31.9408 4.82038 31.9362 4.68664C32.0722 4.6913 32.3064 4.65398 32.328 4.70685C32.502 5.11899 32.8181 4.89892 33.1845 4.96891C33.0724 4.68664 33.0299 4.46269 32.9093 4.29628C32.611 3.88337 31.8457 3.84371 31.45 4.19208C31.072 4.52645 31.0759 5.17109 31.4693 5.55756C31.6035 5.67715 31.7455 5.78756 31.8944 5.88805C32.0382 5.99458 32.2113 6.07545 32.3226 6.20842C32.4056 6.32251 32.4434 6.46363 32.4285 6.60422C32.4216 6.67109 32.2484 6.77685 32.1665 6.76363C32.0428 6.74419 31.9346 6.63688 31.8179 6.56378C31.7329 6.50935 31.6563 6.41993 31.5651 6.40049C31.4231 6.38287 31.2796 6.38 31.1369 6.39193L31.1385 6.39349ZM35.5853 6.39349C35.552 6.87872 35.7553 7.22087 36.1356 7.36472C36.6264 7.55057 37.2046 7.40982 37.4604 7.04357C37.6923 6.70764 37.6923 6.16254 37.3994 5.85694C37.1907 5.63843 36.9163 5.48446 36.6743 5.29861C36.5669 5.21541 36.4239 5.1431 36.3737 5.03034C36.3312 4.93392 36.3574 4.72474 36.4262 4.68042C36.5105 4.62599 36.7601 4.65087 36.7849 4.70841C36.9588 5.11588 37.2726 4.90748 37.5354 4.94169C37.564 4.50934 37.4087 4.22707 37.0716 4.06533C36.6852 3.87948 36.1642 3.94402 35.8821 4.21463C35.7522 4.33451 35.6636 4.49287 35.6291 4.66679C35.5946 4.8407 35.6161 5.02114 35.6904 5.18197C35.8056 5.39364 35.958 5.58255 36.1402 5.73952C36.335 5.91604 36.587 6.02879 36.7756 6.20609C36.8622 6.28929 36.8915 6.4728 36.8769 6.60266C36.8699 6.6672 36.6952 6.76985 36.6133 6.75818C36.4904 6.73719 36.3814 6.63144 36.2678 6.55757C36.1905 6.50702 36.1271 6.41293 36.0475 6.40204C35.8934 6.38602 35.7383 6.3829 35.5837 6.39271L35.5853 6.39349ZM23.9678 4.03889V7.36472C24.0582 7.3651 24.1485 7.37003 24.2384 7.37949C24.5359 7.4277 24.6612 7.32118 24.6248 7.00469C24.6099 6.77896 24.6081 6.55256 24.6194 6.32662C24.8219 6.30951 24.9703 6.30717 25.1149 6.28229C25.7054 6.18198 25.996 5.80717 25.9968 5.15709C25.9968 4.52567 25.6876 4.11665 25.0994 4.04744C24.7346 4.0039 24.3628 4.03811 23.9663 4.03811L23.9678 4.03889ZM26.3841 4.03423V7.35539H28.124V6.73797H27.0697V5.97747H27.974V5.35072H27.072V4.66487H28.0583V4.03423H26.3841ZM33.5424 7.35617H35.2846V6.72708H34.2241V5.99069H35.1192V5.35461H34.2349V4.65476H35.2258V4.05056H33.5408L33.5424 7.35617ZM21.4155 4.07622C21.6057 4.49535 21.7835 4.92536 21.9945 5.33749C22.048 5.43247 22.0758 5.53996 22.075 5.64916C22.0742 5.75836 22.0448 5.86542 21.9898 5.95958C21.7688 6.40981 21.5732 6.87249 21.3545 7.35927C21.4555 7.36057 21.5564 7.36732 21.6567 7.37949C21.9852 7.44092 22.1638 7.30562 22.2457 6.98291C22.2928 6.79707 22.3925 6.62444 22.4938 6.38572C22.6244 6.71465 22.6979 6.98525 22.8323 7.22009C23.0233 7.55291 23.3255 7.3134 23.6269 7.37561C23.4097 6.89427 23.2405 6.47125 23.031 6.06845C22.8764 5.77062 22.8617 5.51557 23.031 5.21308C23.2366 4.84294 23.3866 4.44169 23.5721 4.02023C23.4671 4.02766 23.3617 4.02766 23.2567 4.02023C22.9421 3.96424 22.7643 4.08555 22.6932 4.40359C22.6584 4.55912 22.5719 4.70453 22.4783 4.92459C22.2627 4.40359 22.2101 3.7574 21.414 4.07544L21.4155 4.07622ZM19.4298 7.36005H21.1396V6.71231H20.0984V5.98291H21.0074V5.35305H20.1023V4.65942H21.1071V4.03733H19.4306L19.4298 7.36005ZM19.2559 17.7932H22.895V17.1968H19.2559V17.7932ZM19.2521 10.3375H22.8772C22.9746 9.73021 22.9746 9.73021 22.4011 9.72943C21.4627 9.72943 20.5243 9.72943 19.586 9.72943C19.4754 9.72943 19.3657 9.74187 19.2521 9.74887V10.3375ZM19.2567 12.8212H22.8942V12.2256H19.2567V12.8212ZM22.8996 14.7131H19.2536V15.301H22.8996V14.7131Z" fill="#FF7F27"/>
<path d="M31.1789 17.6089C32.0415 16.909 32.9134 16.2263 33.7637 15.5155C34.7383 14.7022 35.7903 14.5723 36.9644 15.0163C39.1388 15.839 41.3247 16.6314 43.5052 17.4362C43.5824 17.4658 43.6729 17.5296 43.7424 17.514C43.886 17.4689 44.0254 17.4114 44.1591 17.3421C44.0934 17.2053 44.0617 16.9914 43.9566 16.9448C43.4928 16.7387 43.0105 16.5816 42.5343 16.4067L37.034 14.3748C36.9776 14.3546 36.925 14.3258 36.8477 14.2908C37.3215 13.8048 37.8572 13.6446 38.4817 13.8367C40.9037 14.5816 43.3256 15.3287 45.7475 16.0778C45.8248 16.1026 45.9082 16.1322 45.9902 16.1509C46.1857 16.1952 46.3612 16.1664 46.4223 15.9448C46.4833 15.7232 46.3589 15.6003 46.1641 15.5389C45.6501 15.3779 45.1345 15.2232 44.6182 15.0645L40.2572 13.7216C40.208 13.7035 40.1597 13.6827 40.1127 13.6594C40.4072 13.0225 41.0402 12.6936 41.691 12.8763C43.6018 13.4137 45.5133 13.951 47.4109 14.5264C47.8986 14.675 48.3546 14.9479 48.8068 15.1967C49.2752 15.4541 49.5689 15.8904 49.7135 16.3865C50.0374 17.4953 50.3805 18.6058 50.5916 19.7387C50.9958 21.9114 51.3143 24.0996 51.6675 26.2815C51.6675 26.2994 51.6567 26.3196 51.6412 26.3741C50.9873 26.2395 50.3272 26.1058 49.6741 25.9682C45.9639 25.1905 42.2525 24.4129 38.5397 23.6353C38.3241 23.591 38.1919 23.5063 38.144 23.2971C37.9461 22.4254 37.4189 21.9339 36.5393 21.7419C35.9666 21.6151 35.4294 21.3359 34.8667 21.1548C34.6905 21.0991 34.5017 21.0991 34.3256 21.1548C32.5563 21.7932 30.8017 22.4767 29.0247 23.0894C27.9495 23.4611 26.8906 23.3881 25.9808 22.6081C25.7716 22.4294 25.6049 22.2056 25.4931 21.9534C25.2944 21.4814 25.5379 20.979 26.0342 20.7473C27.8176 19.9178 29.6016 19.0907 31.3861 18.2659C32.345 17.8217 33.3035 17.3756 34.2614 16.9277C34.3441 16.8838 34.4351 16.8582 34.5285 16.8525C34.6218 16.8469 34.7152 16.8614 34.8025 16.895C37.2084 17.7245 39.6167 18.5493 42.0273 19.3694C42.0868 19.3904 42.1486 19.4067 42.2074 19.4308C42.4122 19.5156 42.5985 19.4977 42.6804 19.2753C42.7693 19.0303 42.6193 18.9083 42.3998 18.8336C40.9791 18.3499 39.5598 17.8637 38.1416 17.3748C37.0433 16.9984 35.9411 16.6314 34.8458 16.2434C34.7336 16.2 34.6134 16.1813 34.4934 16.1886C34.3734 16.1958 34.2564 16.2288 34.1501 16.2854C33.2149 16.7317 32.2734 17.1633 31.3335 17.5995C31.2887 17.6205 31.2431 17.6376 31.1975 17.6563L31.1789 17.6089Z" fill="#FF7F27"/>
<path d="M28.6924 24.1055C30.1811 24.1234 31.3066 24.9336 31.7696 26.3605C32.0138 27.1133 32.2465 27.8761 32.8973 28.3823C33.3009 28.7069 33.736 28.9898 34.1958 29.2268C35.2656 29.7571 36.3423 30.2913 37.5512 30.4259C38.5646 30.5378 39.479 30.3015 40.2565 29.6024C40.3116 29.5619 40.3742 29.533 40.4406 29.5175C40.507 29.502 40.5759 29.5002 40.643 29.5122C43.3705 30.0824 46.097 30.6615 48.8224 31.2494C49.896 31.478 50.9696 31.7097 52.0456 31.9305C52.2574 31.9741 52.361 32.0557 52.3965 32.2906C52.5318 33.1825 52.7057 34.069 52.8433 34.9609C53.0048 36.0161 52.4568 37.0293 51.4813 37.4088C49.2954 38.2556 47.0979 39.0744 44.902 39.8971C44.4212 40.0775 43.9273 40.0083 43.4805 39.7999C42.9472 39.5511 42.4401 39.2439 41.9346 38.9446C38.6419 36.9858 35.3645 34.999 32.0571 33.0682C30.4223 32.1133 29.3788 30.7214 28.7798 28.9647C28.3338 27.6591 27.9365 26.3372 27.5291 25.0199C27.4039 24.6148 27.6134 24.282 28.0354 24.1902C28.2511 24.1444 28.4729 24.1311 28.6924 24.1055Z" fill="#FF7F27"/>
<path d="M3.58726 0.644531L6.09163 1.45791C8.2412 2.15775 10.3892 2.85761 12.5419 3.54579C12.7792 3.62355 12.8596 3.72074 12.8441 3.96414C12.8225 4.29073 12.8387 4.61967 12.8387 4.98125L6.69144 2.98591C6.00197 4.05201 5.0149 4.5108 3.72794 4.33973C3.45431 5.1951 3.18687 6.04346 2.91247 6.89028C2.75015 7.39572 2.59557 7.90117 2.41702 8.40351C2.32967 8.64845 2.35286 8.77676 2.60252 8.92839C3.51074 9.48205 3.94051 10.3281 3.90804 11.388C3.89877 11.6718 3.9521 11.8017 4.21722 11.8475C4.29583 11.864 4.37329 11.8855 4.44911 11.9121C4.65085 11.5233 4.78921 11.1065 5.04969 10.7947C5.35423 10.43 5.80718 10.4906 6.2439 10.6718C6.43404 9.82575 6.74862 9.06214 7.2549 8.39728C8.60138 6.629 10.3598 5.79696 12.5883 6.05824C12.7429 6.07612 12.8379 6.10723 12.8372 6.30241C12.8315 9.48542 12.8294 12.6684 12.831 15.8514C12.825 15.891 12.8149 15.9299 12.8008 15.9673L0 11.8094C1.20039 8.08391 2.38532 4.38949 3.58726 0.644531Z" fill="#FF7F27"/>
<path d="M8.05668 24.103L8.58151 23.8301C8.44857 23.4024 8.25302 23.0105 8.21978 22.6053C8.18113 22.1318 8.55213 21.8588 8.97493 21.6722C8.53483 20.9744 8.23837 20.1949 8.10306 19.3798C7.88432 18.0283 8.11928 16.7577 8.76624 15.5579C8.84354 15.4132 8.92085 15.3689 9.09012 15.4249C10.272 15.8191 11.4592 16.1978 12.6403 16.5913C12.6899 16.615 12.7333 16.6503 12.7666 16.6943C12.7999 16.7382 12.8224 16.7896 12.832 16.844C12.8428 18.8565 12.8428 20.8684 12.832 22.8798C12.8302 22.9284 12.8177 22.9759 12.7956 23.0191C12.7734 23.0622 12.742 23.0999 12.7037 23.1294C10.272 24.3899 7.83408 25.6411 5.36064 26.9156L0.0566406 16.4661L1.778 15.5796C2.70554 15.1014 3.63849 14.6177 4.57685 14.1519C4.71446 14.0899 4.86883 14.0762 5.01511 14.1131C5.47888 14.2422 5.94266 14.4031 6.48991 14.5796L3.89433 15.9202C4.15404 17.1644 3.78304 18.1838 2.75038 18.977L4.84584 23.1061C5.41903 22.9033 6.0413 22.8881 6.62363 23.0626C7.21107 23.2422 7.67175 23.6046 8.05668 24.103Z" fill="#FF7F27"/>
<path d="M56.0046 28.6107C55.8214 29.5298 55.6413 30.4326 55.4542 31.3688C54.7926 31.2273 54.1557 31.0928 53.5218 30.9551L38.321 27.648C36.4435 27.239 34.5645 26.8315 32.6893 26.4108C32.6239 26.3941 32.5629 26.3633 32.5106 26.3204C32.4582 26.2776 32.4158 26.2238 32.3863 26.1628C31.9658 24.8159 31.0522 24.0057 29.7243 23.6301C29.6849 23.615 29.6467 23.5971 29.6099 23.5764C29.9963 23.4131 30.3217 23.2724 30.7461 23.3618C35.0344 24.2644 39.3256 25.1547 43.6196 26.0329L55.7835 28.5453C55.85 28.5601 55.9172 28.585 56.0046 28.6107Z" fill="#FF7F27"/>
<path d="M23.3257 20.9609L24.7943 21.2844C24.9396 22.8093 25.4451 23.3529 27.2291 23.8894C26.8473 24.356 26.7538 24.8669 27.0204 25.482L21.9097 24.1973C23.0026 23.3739 23.4355 22.314 23.3257 20.9609Z" fill="#FF7F27"/>
<path d="M18.8892 21.1006L21.7885 20.8183C21.8727 20.8098 21.957 20.8082 22.0413 20.7973C22.6728 20.7196 22.7276 20.7484 22.7222 21.379C22.713 22.3946 22.3195 23.2087 21.4252 23.739C21.2977 23.8168 21.1987 23.8611 21.0735 23.7126C20.3701 22.8782 19.6567 22.0524 18.9479 21.2243C18.9242 21.1851 18.9046 21.1437 18.8892 21.1006Z" fill="#FF7F27"/>
<path d="M4.70661 19.7957C4.70864 19.4626 4.8412 19.1438 5.07551 18.9086C5.30982 18.6733 5.62695 18.5405 5.95801 18.5391C6.2893 18.5403 6.6066 18.6736 6.84043 18.9097C7.07426 19.1458 7.20554 19.4655 7.20554 19.7988C7.20657 19.9662 7.1745 20.1321 7.11119 20.2869C7.04788 20.4416 6.95461 20.5822 6.83679 20.7004C6.71896 20.8186 6.57894 20.912 6.42489 20.9752C6.27084 21.0384 6.10583 21.0702 5.93946 21.0686C5.6085 21.0633 5.29307 20.9264 5.06208 20.6879C4.83108 20.4494 4.7033 20.1287 4.70661 19.7957Z" fill="#FF7F27"/>
<path d="M5.41679 8.36131C5.26369 8.36131 5.11209 8.33082 4.97076 8.27157C4.82943 8.21232 4.70118 8.1255 4.59338 8.01611C4.48559 7.90673 4.40039 7.77695 4.34272 7.63426C4.28505 7.49158 4.25604 7.33881 4.25737 7.18479C4.25867 7.03081 4.29026 6.87862 4.35033 6.737C4.41039 6.59537 4.49773 6.46712 4.60731 6.35962C4.71689 6.25212 4.84655 6.16752 4.9888 6.11069C5.13105 6.05385 5.28308 6.02591 5.43612 6.02848C5.74117 6.03136 6.03266 6.15571 6.24677 6.37433C6.46089 6.59294 6.58017 6.88799 6.57852 7.1949C6.57852 7.34827 6.54847 7.50013 6.49005 7.6418C6.43164 7.78347 6.34604 7.91216 6.23813 8.02051C6.13022 8.12885 6.00212 8.21471 5.86118 8.27319C5.72025 8.33167 5.56925 8.36161 5.41679 8.36131Z" fill="#FF7F27"/>
<path d="M39.6475 29.2977C39.0075 29.7363 38.3744 29.8933 37.7151 29.8047C36.1692 29.5955 34.8003 28.9089 33.4979 28.0776C33.4747 28.0636 33.4662 28.0263 33.436 27.9727L39.6475 29.2977Z" fill="#FF7F27"/>
<path d="M37.4835 23.4093L32.8296 22.4342C32.8296 22.4124 32.8296 22.3906 32.8296 22.3689C33.3892 22.1651 33.9457 21.9544 34.5092 21.7639C34.6043 21.732 34.7341 21.7701 34.8369 21.8067C35.463 22.0275 36.0737 22.3012 36.7137 22.47C37.2107 22.6021 37.3405 22.9528 37.4835 23.4093Z" fill="#FF7F27"/>
<path d="M24.6279 5.74221V4.62012C24.8436 4.69321 25.1188 4.70332 25.186 4.82774C25.2338 4.92825 25.2604 5.03766 25.264 5.14903C25.2675 5.26039 25.2481 5.3713 25.2069 5.47472C25.145 5.60613 24.8722 5.63801 24.6279 5.74221Z" fill="#FF7F27"/>
</svg>
