<svg width="41" height="40" viewBox="0 0 41 40" fill="none" xmlns="http://www.w3.org/2000/svg">
<path d="M28.7307 22.589H26.2224V28.8045H36.5292C36.1598 28.3097 35.839 27.8711 35.5158 27.439C34.9312 26.6582 34.3507 25.8724 33.7562 25.1022C33.6021 24.9019 33.5674 24.751 33.7266 24.5251C34.0696 24.046 34.3804 23.5439 34.7391 22.9997C35.275 23.6527 35.7995 24.2793 36.3107 24.9167C37.3504 26.2129 38.372 27.5223 39.4225 28.8102C39.7861 29.2563 39.9997 29.7312 39.9848 30.3093C39.9741 30.6795 39.9848 31.0513 39.9749 31.4216C39.9692 31.7258 39.8743 32.0383 40.2973 32.1958C40.4177 32.2403 40.4994 32.519 40.5126 32.6971C40.5818 33.6041 40.5332 34.5111 40.2652 35.3868C39.9073 36.5659 38.9698 37.0202 37.8781 37.2692C37.6308 37.3253 37.3735 37.3418 37.1113 37.3781C37.3686 34.1978 34.9057 32.5619 33.0175 32.566C30.5001 32.5718 28.9516 34.2976 28.8082 37.3352H10.9329C11.0623 35.738 10.5775 34.371 9.25904 33.3774C8.47595 32.7771 7.49478 32.4952 6.51248 32.5883C5.94159 32.627 5.38513 32.7848 4.87887 33.0515C4.37262 33.3182 3.92779 33.6879 3.57299 34.1368C2.81441 35.0693 2.57033 36.1577 2.69814 37.4077C2.21166 37.3814 1.75734 37.4077 1.32198 37.3253C0.570821 37.1868 0.136289 36.7292 0.0472388 35.9607C-0.00597013 35.4024 -0.0142462 34.8407 0.0224984 34.2811C0.0439365 33.8333 0.290488 33.4673 0.654112 33.2199C0.883335 33.0641 0.895699 32.8901 0.856121 32.6609C0.804175 32.3648 0.713477 32.0631 0.73409 31.7703C0.774493 31.1932 1.13233 30.7974 1.60644 30.4972C2.5959 29.8747 3.71069 29.6191 4.83207 29.4616C6.81097 29.1829 8.8072 28.9916 10.7985 28.788C11.2033 28.7467 11.4985 28.6231 11.7879 28.3147C13.4057 26.5757 15.0605 24.8706 16.6841 23.1374C17.6809 22.0721 18.9598 21.6202 20.345 21.4594C21.4326 21.3333 22.535 21.3209 23.6317 21.2854C24.9081 21.245 26.1877 21.2459 27.4617 21.203C27.7956 21.1915 27.9918 21.297 28.1403 21.5905C28.3011 21.9195 28.5089 22.2238 28.7307 22.589ZM25.0532 28.8308V22.6822C24.1074 22.6822 23.1971 22.6154 22.3009 22.6971C20.8323 22.8323 19.4422 23.252 18.3373 24.3C16.9735 25.5928 15.6328 26.9096 14.2846 28.219C14.1032 28.3955 13.9392 28.5892 13.7149 28.8308H25.0532ZM23.9631 31.3869C23.9631 31.0629 23.9425 30.8155 23.9681 30.5739C24.0052 30.2144 23.8337 30.1204 23.5138 30.1369C23.1938 30.1534 22.8541 30.141 22.5243 30.141C21.5654 30.141 21.5588 30.141 21.6536 31.0884C21.6643 31.1948 21.8069 31.3704 21.8943 31.3737C22.5647 31.396 23.2334 31.3853 23.9607 31.3853L23.9631 31.3869Z" fill="#15B34D"/>
<path d="M8.22152 5.5092C8.20998 5.31048 8.20172 5.14721 8.19018 4.94355H4.02046V5.49764C4.02046 13.0703 4.02294 20.6429 4.02789 28.2155C4.02789 28.5758 3.96109 28.7531 3.56696 28.8141C3.13984 28.8801 2.72924 29.0491 2.26172 29.1884V28.6294C2.26172 20.7687 2.26172 12.9081 2.26172 5.04745C2.26172 3.81063 2.92134 3.14275 4.1664 3.13451C5.38893 3.12626 6.612 3.12626 7.83562 3.13451C8.08299 3.13451 8.224 3.09492 8.30233 2.81623C8.42436 2.38087 8.72695 2.22422 9.44348 2.12774C9.46327 1.82431 9.46492 1.51181 9.50698 1.20426C9.60592 0.476186 10.066 0.0284468 10.7974 0.0169031C12.2266 -0.00563438 13.6558 -0.00563438 15.085 0.0169031C15.8601 0.0284468 16.3573 0.547086 16.4002 1.31639C16.415 1.57529 16.4002 1.83585 16.4002 2.11784C17.0441 2.18133 17.5496 2.39489 17.6452 3.13121C18.6866 3.13121 19.7157 3.13121 20.7447 3.13121C21.1842 3.13121 21.6253 3.12048 22.064 3.14769C22.9132 3.20046 23.6182 3.88979 23.6199 4.7201C23.6306 9.91473 23.6256 15.1094 23.6256 20.346H21.843V19.8513C21.843 15.0409 21.8372 10.2314 21.852 5.42179C21.852 5.00952 21.7589 4.88172 21.3318 4.89244C20.1255 4.92377 18.9175 4.90315 17.6782 4.90315C17.6559 5.12578 17.637 5.30883 17.6172 5.5092H8.22152ZM10.6267 2.12857H15.2631C15.2697 1.97355 15.2804 1.83914 15.2813 1.70474C15.2854 1.15889 15.2813 1.15808 14.7354 1.15808H11.4826C10.5649 1.15725 10.5649 1.15726 10.6267 2.12857Z" fill="#15B34D"/>
<path d="M31.8548 25.6591C31.3452 24.898 30.8513 24.1749 30.3747 23.446C28.6531 20.8009 27.0073 18.1104 25.7037 15.2278C25.1611 14.0289 24.6202 12.8184 24.5295 11.4819C24.2821 7.78543 27.0551 4.4188 30.7334 3.86636C32.6131 3.58241 34.5301 4.03171 36.088 5.12131C37.6458 6.21092 38.7253 7.85751 39.1033 9.72062C39.4282 11.279 39.0819 12.7368 38.4948 14.1732C37.2514 17.2083 35.5685 20.0027 33.8139 22.7575C33.2466 23.6488 32.6471 24.5187 32.0609 25.396C32.0098 25.4686 31.9479 25.5378 31.8548 25.6591ZM37.1129 11.1347C37.1122 9.73927 36.5581 8.40104 35.572 7.41361C34.586 6.42618 33.2486 5.87015 31.8531 5.86753C30.4575 5.86928 29.1198 6.42507 28.1338 7.41274C27.1478 8.40041 26.5943 9.73915 26.595 11.1347C26.595 14.0487 28.9416 16.4118 31.8317 16.4168C32.526 16.4195 33.2141 16.2847 33.8561 16.0202C34.4981 15.7557 35.0815 15.3667 35.5724 14.8757C36.0634 14.3847 36.4523 13.8013 36.7167 13.1592C36.9811 12.5172 37.1157 11.8291 37.1129 11.1347Z" fill="#15B34D"/>
<path d="M10.036 36.7406C10.0395 37.5993 9.70249 38.4243 9.0988 39.035C8.49511 39.6456 7.67397 39.9921 6.81532 39.9984C5.0376 39.9984 3.54764 38.5488 3.55177 36.8206C3.55589 34.9439 4.96257 33.5059 6.79801 33.501C7.22336 33.501 7.64454 33.5848 8.0375 33.7476C8.43046 33.9104 8.78749 34.1491 9.08819 34.4499C9.38888 34.7508 9.62735 35.1079 9.78998 35.501C9.9526 35.894 10.0362 36.3153 10.036 36.7406Z" fill="#15B34D"/>
<path d="M29.717 36.7552C29.7351 34.9322 31.1698 33.4859 32.945 33.4991C34.7203 33.5123 36.1987 35.0023 36.1979 36.7602C36.1979 38.5964 34.7137 40.0163 32.8238 39.9998C31.1393 39.985 29.6996 38.4818 29.717 36.7552Z" fill="#15B34D"/>
<path d="M9.10733 25.3212C9.10733 25.8571 9.11228 26.3931 9.10733 26.929C9.10156 27.3693 8.9523 27.5276 8.51199 27.5309C7.44008 27.5383 6.36818 27.5309 5.29627 27.5309C4.9343 27.5309 4.76362 27.3339 4.76114 26.995C4.75345 25.9088 4.75345 24.8231 4.76114 23.738C4.76114 23.3538 4.96068 23.1708 5.35729 23.1749C6.40198 23.1848 7.44668 23.1749 8.49055 23.1798C8.96467 23.1798 9.10484 23.3266 9.10896 23.7941C9.11061 24.3045 9.10733 24.8132 9.10733 25.3212Z" fill="#15B34D"/>
<path d="M9.10815 17.7134C9.10815 18.2353 9.1131 18.7581 9.10815 19.28C9.10238 19.7112 8.9655 19.8572 8.54663 19.8572C7.46071 19.8638 6.37478 19.8572 5.28886 19.8621C4.9475 19.8621 4.76691 19.689 4.76362 19.3674C4.75262 18.2548 4.75262 17.142 4.76362 16.0288C4.76362 15.7056 4.94997 15.5217 5.28556 15.5217C6.3855 15.5217 7.48462 15.5168 8.58373 15.5217C8.93417 15.5217 9.11226 15.7097 9.11143 16.0635C9.10814 16.6143 9.10705 17.1642 9.10815 17.7134Z" fill="#15B34D"/>
<path d="M6.88604 12.2079C6.36493 12.2079 5.84299 12.1972 5.31941 12.2079C4.95826 12.2178 4.76203 12.0496 4.75873 11.7066C4.74719 10.5951 4.74966 9.48035 4.75873 8.37217C4.75873 8.06791 4.93684 7.89145 5.25346 7.89063C6.36495 7.89063 7.4756 7.88403 8.58709 7.89063C8.92185 7.89063 9.08181 8.08275 9.08181 8.41422C9.08181 9.49822 9.08181 10.5825 9.08181 11.667C9.08181 12.0364 8.91691 12.2195 8.52772 12.2096C7.98435 12.1972 7.43519 12.2079 6.88604 12.2079Z" fill="#15B34D"/>
<path d="M15.6883 8.24312C17.1725 8.24312 18.6553 8.24312 20.1367 8.24312C20.2743 8.23311 20.4126 8.23864 20.549 8.25961C20.8788 8.33547 21.0767 8.53337 21.0882 8.8904C21.0998 9.24742 20.9068 9.45355 20.5828 9.54508C20.4744 9.56739 20.3634 9.5746 20.253 9.56652C17.2296 9.56652 14.2085 9.56652 11.1896 9.56652C11.0936 9.57079 10.9974 9.56802 10.9018 9.55826C10.7364 9.53966 10.5841 9.4592 10.4756 9.33304C10.367 9.20688 10.3101 9.04434 10.3164 8.87802C10.3198 8.71167 10.3878 8.5532 10.506 8.43609C10.6242 8.31898 10.7833 8.25244 10.9496 8.25055C11.3619 8.23488 11.7742 8.24312 12.1864 8.24229C13.3534 8.24229 14.5207 8.24257 15.6883 8.24312Z" fill="#15B34D"/>
<path d="M15.6706 15.8927C17.2084 15.8927 18.7462 15.8811 20.288 15.9051C20.5386 15.9142 20.7773 16.0137 20.9601 16.1854C21.2511 16.4929 21.0755 17.0157 20.6715 17.1509C20.5016 17.2028 20.3246 17.2273 20.1471 17.2235C17.1952 17.2273 14.2431 17.2273 11.2906 17.2235C11.154 17.2272 11.0174 17.2158 10.8833 17.1897C10.5048 17.1072 10.2896 16.8343 10.3185 16.4979C10.3474 16.1491 10.5914 15.9207 10.9781 15.8943C11.1142 15.8844 11.2527 15.8885 11.3904 15.8885H15.678L15.6706 15.8927Z" fill="#15B34D"/>
<path d="M14.1044 11.1357C13.0465 11.1357 11.9886 11.1315 10.9316 11.1357C10.6083 11.1357 10.3231 11.0697 10.3247 10.6929C10.3247 10.3309 10.5943 10.2287 10.9242 10.2295C13.0801 10.2328 15.2362 10.2328 17.3927 10.2295C17.7316 10.2295 17.988 10.3515 17.9822 10.7044C17.9756 11.0343 17.7167 11.139 17.4001 11.1373C16.301 11.1307 15.2027 11.1357 14.1044 11.1357Z" fill="#15B34D"/>
<path d="M14.1432 17.8667C15.1326 17.8667 16.1221 17.8667 17.1115 17.8667C17.2888 17.8667 17.4867 17.8436 17.6392 17.9129C17.7794 17.9755 17.9575 18.1446 17.9608 18.2715C17.9649 18.4224 17.8272 18.6071 17.6994 18.7193C17.617 18.7951 17.4405 18.7877 17.3061 18.7877C15.2041 18.7927 13.102 18.7927 11 18.7877C10.8912 18.7877 10.7436 18.8108 10.6809 18.7522C10.5366 18.6162 10.3511 18.4398 10.3429 18.274C10.3379 18.1479 10.5729 17.9244 10.7263 17.8997C11.1014 17.8395 11.4914 17.865 11.8765 17.8634C12.6318 17.8634 13.3879 17.8634 14.1432 17.8634V17.8667Z" fill="#15B34D"/>
<path d="M14.9488 23.5124C14.5159 23.9675 14.1647 24.3493 13.7944 24.7129C13.7018 24.7899 13.5851 24.832 13.4646 24.8317C12.6401 24.8405 11.8155 24.8405 10.991 24.8317C10.5952 24.8275 10.3528 24.6123 10.3116 24.2602C10.2703 23.9082 10.4905 23.6204 10.8838 23.533C10.9378 23.5197 10.9931 23.5122 11.0487 23.5107L14.9488 23.5124Z" fill="#15B34D"/>
<path d="M13.0011 25.5005C12.4074 26.4075 11.6216 26.7019 10.6519 26.3927C10.5706 26.3549 10.4993 26.2987 10.4434 26.2286C10.3876 26.1585 10.3489 26.0763 10.3303 25.9886C10.3139 25.8616 10.4648 25.6794 10.5884 25.5763C10.68 25.5021 10.8465 25.5021 10.9801 25.5005C11.6331 25.4972 12.2853 25.5005 13.0011 25.5005Z" fill="#15B34D"/>
</svg>
