<svg width="40" height="40" viewBox="0 0 40 40" fill="none" xmlns="http://www.w3.org/2000/svg">
<path d="M29.6282 17.2948C29.9654 17.1121 30.2416 17.2633 30.5231 17.4065C33.301 18.8176 36.0801 20.2254 38.8603 21.63C39.2374 21.82 39.3944 22.0843 39.3934 22.5052C39.3849 26.386 39.3849 30.2667 39.3934 34.1473C39.3934 34.575 39.2374 34.8487 38.8613 35.0555C35.9442 36.6595 33.031 38.2703 30.1215 39.8878C30.0009 39.9598 29.8634 39.9984 29.723 39.9997C29.5826 40.001 29.4444 39.965 29.3226 39.8952C26.3743 38.28 23.4261 36.6654 20.4779 35.0515C20.0964 34.8438 19.9448 34.5642 19.9458 34.1428C19.9517 30.4589 19.9528 26.7751 19.9492 23.0914V22.7813L19.5254 22.7006V23.0181C19.5254 26.6858 19.519 30.3526 19.5333 34.0203C19.5333 34.5406 19.3635 34.862 18.8934 35.116C15.9798 36.6912 13.0809 38.2934 10.1767 39.8859C9.91333 40.0301 9.63964 40.0414 9.37776 39.8982C6.42232 38.2797 3.46721 36.6605 0.51243 35.0407C0.151614 34.8438 -0.000491054 34.58 1.19067e-06 34.1734C0.00689262 30.2682 0.00689262 26.3631 1.19067e-06 22.4579C1.19067e-06 22.0789 0.140292 21.821 0.487325 21.6566C3.51759 20.2222 6.54719 18.7861 9.57614 17.3484C9.7563 17.2628 9.95911 17.2244 10.1875 17.1515V16.9285C10.1875 13.056 10.1929 9.18355 10.1811 5.31155C10.1811 4.84589 10.3539 4.57318 10.7718 4.37628C13.7676 2.96518 16.7585 1.54374 19.7444 0.111958C20.0619 -0.0396534 20.3386 -0.038167 20.6531 0.121813C23.4786 1.56573 26.3077 3.00128 29.1404 4.42847C29.4737 4.59681 29.6273 4.84293 29.6273 5.20867C29.6253 9.13055 29.6253 13.0521 29.6273 16.9733L29.6282 17.2948ZM21.3526 23.5074C21.3452 23.6236 21.3369 23.6876 21.3369 23.7535C21.3369 27.0749 21.3357 30.3962 21.3334 33.7175C21.3334 33.881 21.392 33.9637 21.5303 34.0414C23.9325 35.3541 26.333 36.6694 28.7319 37.9873C28.7998 38.0247 28.8721 38.0537 28.9672 38.0985C28.974 37.9937 28.9834 37.9223 28.9834 37.8524C28.9834 34.538 28.9849 31.2246 28.9878 27.9125C28.9878 27.7358 28.9199 27.6511 28.7752 27.5724C27.7228 27.0028 26.6748 26.4254 25.6248 25.8495C25.5623 25.8155 25.4968 25.7875 25.4023 25.7417V27.8835C25.3073 27.847 25.2389 27.8254 25.1749 27.7953C24.7368 27.5906 24.3031 27.3759 23.8606 27.1815C23.7051 27.1131 23.6681 27.0205 23.6701 26.8625C23.6785 26.2394 23.677 25.6157 23.6701 24.992C23.6701 24.9054 23.6406 24.7734 23.581 24.7395C22.8579 24.327 22.1245 23.9297 21.3526 23.5074ZM1.38518 23.5015V23.8022C1.38518 27.0908 1.38338 30.3793 1.37977 33.6678C1.37977 33.8711 1.45065 33.9711 1.62097 34.0616C4.00245 35.3608 6.38163 36.6636 8.75852 37.97C8.83384 38.0109 8.91309 38.0449 9.01154 38.0921C9.01794 37.9888 9.02532 37.9243 9.02532 37.8593C9.02532 34.5383 9.02663 31.2171 9.02926 27.8958C9.02926 27.7323 8.97265 27.6496 8.83236 27.5719C7.77994 27.0028 6.73244 26.4249 5.68199 25.849C5.61997 25.815 5.5545 25.788 5.43587 25.7323V27.8928C4.87372 27.6275 4.36031 27.3917 3.85576 27.1382C3.78488 27.1027 3.72138 26.9792 3.71892 26.8921C3.70513 26.4417 3.66428 25.9839 3.72384 25.5409C3.80506 24.9438 3.57616 24.6194 3.03962 24.3865C2.48879 24.1517 1.97538 23.8229 1.38666 23.5015H1.38518ZM15.6426 10.9128C15.0967 10.6554 14.5985 10.4137 14.0935 10.1863C13.9502 10.1218 13.9045 10.0386 13.9059 9.88647C13.9133 9.26329 13.9059 8.63962 13.9128 8.01594C13.9128 7.84563 13.8592 7.75013 13.7085 7.67137C13.0721 7.33271 12.442 6.98223 11.809 6.63766C11.742 6.60123 11.6706 6.57269 11.5865 6.53331C11.5811 6.60321 11.5766 6.63569 11.5766 6.66818C11.5766 10.0309 11.575 13.3937 11.5717 16.7567C11.5717 16.9202 11.649 16.9832 11.772 17.0521C14.1811 18.3697 16.5893 19.6889 18.9967 21.0097C19.0578 21.0432 19.1232 21.0683 19.203 21.1052C19.2109 21.0186 19.2197 20.962 19.2197 20.9059C19.2197 17.5675 19.2212 14.2292 19.2241 10.8912C19.2241 10.7302 19.1518 10.6623 19.0272 10.5958C17.9827 10.0284 16.94 9.45806 15.899 8.88476C15.8296 8.84735 15.7568 8.81683 15.6431 8.76269L15.6426 10.9128ZM6.27514 24.5889C6.37359 24.6489 6.42971 24.6839 6.48681 24.7154C7.49345 25.2667 8.50206 25.8146 9.50525 26.3728C9.6608 26.4589 9.77599 26.4559 9.93154 26.3728C12.2943 25.0713 14.6587 23.7735 17.0248 22.4796C17.0858 22.4461 17.1429 22.4048 17.2217 22.3536C17.1306 22.3043 17.0686 22.264 17.0036 22.231C16.0393 21.7388 15.0711 21.2564 14.1122 20.7543C13.9207 20.6558 13.777 20.6652 13.5924 20.7626C11.5528 21.8338 9.51117 22.9003 7.46736 23.9622C7.08686 24.1621 6.70487 24.3639 6.27711 24.5889H6.27514ZM16.47 7.35732C16.5355 7.4036 16.5606 7.42525 16.5892 7.44051C17.6455 8.02038 18.7004 8.6027 19.7627 9.17124C19.8468 9.21603 20.0039 9.19733 20.0939 9.14811C22.4692 7.85416 24.8416 6.5548 27.2113 5.25002C27.2714 5.21704 27.3275 5.17568 27.4121 5.12105C27.3058 5.06444 27.2349 5.02605 27.1626 4.98913C26.1988 4.49688 25.2325 4.01251 24.2721 3.51239C24.2043 3.47037 24.126 3.44812 24.0462 3.44812C23.9664 3.44812 23.8881 3.47037 23.8202 3.51239C21.89 4.52642 19.9576 5.53585 18.0231 6.54069C17.518 6.80847 17.012 7.07428 16.472 7.35732H16.47ZM37.1906 22.36C37.0956 22.3058 37.0429 22.2709 36.9829 22.2413C35.9984 21.7407 35.0085 21.244 34.026 20.737C33.9615 20.6972 33.8871 20.6761 33.8113 20.6761C33.7355 20.6761 33.6612 20.6972 33.5967 20.737C31.2172 21.9841 28.8356 23.2283 26.4518 24.4697C26.3893 24.5022 26.3292 24.5406 26.2362 24.5943C26.3474 24.6588 26.4291 24.708 26.5123 24.7538C27.482 25.2854 28.4557 25.8106 29.4195 26.3526C29.6115 26.4609 29.7513 26.4456 29.9349 26.3437C31.8212 25.3015 33.7101 24.2643 35.6016 23.2322C36.12 22.9512 36.6349 22.6671 37.1926 22.36H37.1906ZM22.6325 2.67508C21.9689 2.33888 21.3649 2.02828 20.754 1.73194C20.6925 1.70192 20.5818 1.74031 20.5079 1.77526C18.0487 2.93991 15.5902 4.10703 13.1326 5.2766C13.0706 5.30564 13.0135 5.34404 12.9229 5.39621C13.6401 5.79001 14.3189 6.16707 15.0076 6.52838C15.0844 6.56825 15.2286 6.5328 15.3177 6.48653C17.2617 5.48038 19.2036 4.47031 21.1434 3.45628C21.6199 3.20622 22.0974 2.95517 22.6325 2.67508ZM2.24366 22.3674C2.33866 22.4284 2.39527 22.4702 2.4568 22.5037C3.04749 22.8276 3.63819 23.1436 4.22199 23.4759C4.37606 23.563 4.49518 23.5596 4.65123 23.4759C7.0163 22.2367 9.38318 21.0012 11.7519 19.7693C11.8055 19.7412 11.8533 19.7033 11.931 19.6521C11.3536 19.3568 10.8028 19.09 10.2633 18.8001C10.0772 18.7016 9.93056 18.7016 9.74154 18.7941C7.61471 19.8114 5.48492 20.8247 3.35219 21.8338C2.99187 22.006 2.6345 22.1793 2.24366 22.3674ZM31.9098 19.6659C31.2408 19.3282 30.63 19.0157 30.0137 18.7159C29.9585 18.6893 29.8576 18.7297 29.7892 18.7621C27.3378 19.9232 24.8871 21.086 22.437 22.2507C22.3666 22.2842 22.2997 22.3245 22.2027 22.3772C22.3012 22.4373 22.3696 22.4806 22.4395 22.519C22.9997 22.8276 23.5648 23.1269 24.118 23.4473C24.311 23.5596 24.4626 23.5571 24.6595 23.4532C26.2839 22.5963 27.9128 21.7506 29.5401 20.9014L31.9098 19.6659Z" fill="#2595ED"/>
</svg>
