<svg width="37" height="40" viewBox="0 0 37 40" fill="none" xmlns="http://www.w3.org/2000/svg">
<path d="M22.5876 39.2081H21.2381C15.5088 39.2081 9.78067 39.2081 4.05374 39.2081C1.29881 39.2081 0 37.9129 0 35.1814C0 24.7802 0 14.3796 0 3.9796C0 1.28975 1.29694 0 3.98856 0H28.3163C30.7131 0 32.1041 1.34402 32.115 3.72092C32.127 10.2028 32.127 16.6842 32.115 23.1649C32.115 23.3729 32.086 23.5809 32.0643 23.8704C30.2826 23.4362 28.5279 23.3421 26.7932 23.8921C26.2216 24.0729 25.6029 24.2321 25.1326 24.5758C24.1902 25.2596 23.1755 25.3319 22.0703 25.3265C16.7051 25.294 11.3381 25.3066 5.97118 25.3265C5.6094 25.3265 4.97267 25.426 4.93469 25.587C4.80448 26.1665 4.80448 26.7676 4.93469 27.3471C4.97629 27.528 5.59667 27.6546 5.95121 27.6546C10.5042 27.6763 15.0553 27.6691 19.6083 27.6691H21.5185C21.1929 28.3926 20.9596 29.0746 20.5815 29.6589C20.4459 29.8687 19.961 29.9266 19.6354 29.9284C15.1132 29.9429 10.591 29.9284 6.06877 29.9284C4.82426 29.9284 4.83152 29.9772 4.77906 31.1783C4.73926 32.0936 5.14084 32.2872 5.95846 32.28C10.269 32.251 14.5814 32.2673 18.892 32.2673H20.0424C20.037 34.8794 20.8004 37.1369 22.5876 39.2081ZM16.1515 22.9912C19.5287 22.9912 22.9041 22.9659 26.2813 23.0075C27.1496 23.0184 27.4788 22.7452 27.4372 21.8679C27.3829 20.7663 27.3178 20.6396 26.2723 20.6396C19.489 20.6396 12.7062 20.6396 5.9241 20.6396C4.83877 20.6396 4.85147 20.6939 4.79178 21.8661C4.74837 22.7452 5.06484 23.0147 5.93311 23.0039C9.332 22.9731 12.7382 22.9912 16.1515 22.9912ZM7.9356 18.5739L8.19068 18.7258C8.38423 18.4762 8.6447 18.2555 8.76408 17.9751C9.79334 15.5421 10.8009 13.0911 11.8085 10.6563C11.8917 10.4537 11.9332 10.2312 12.0327 9.87844H8.6573C8.6573 8.14008 8.66818 6.51931 8.64467 4.89853C8.64467 4.67422 8.46374 4.45172 8.37872 4.22742C8.20688 4.39745 7.96634 4.53674 7.87589 4.74295C7.02572 6.66582 6.19908 8.59954 5.3688 10.5315C5.08662 11.1827 4.80799 11.8357 4.44802 12.6732H7.9356V18.5739ZM20.312 13.7477C22.356 13.7477 24.4019 13.7206 26.4459 13.7586C27.4028 13.7766 27.4046 13.1924 27.4245 12.5158C27.4444 11.8086 27.2852 11.378 26.4368 11.3835C22.4066 11.4076 18.377 11.4076 14.348 11.3835C13.4327 11.3835 13.3315 11.8411 13.3315 12.5737C13.3315 13.3063 13.4545 13.7821 14.3571 13.764C16.3451 13.7188 18.3312 13.7477 20.312 13.7477ZM20.312 16.0414C18.353 16.0414 16.3939 16.0685 14.4367 16.0287C13.6101 16.0106 13.3152 16.3055 13.3333 17.134C13.3514 17.8991 13.4382 18.4002 14.3933 18.4002C18.3993 18.3713 22.4073 18.3713 26.417 18.4002C27.41 18.4002 27.41 17.8141 27.4317 17.096C27.457 16.3127 27.1514 16.0233 26.37 16.0378C24.3495 16.0631 22.3289 16.0396 20.312 16.0396V16.0414ZM22.0413 9.0771C23.5463 9.0771 25.0513 9.05901 26.5635 9.08614C27.3449 9.0988 27.4444 8.64115 27.43 8.03335C27.4155 7.42556 27.5294 6.7418 26.6105 6.73818C23.6294 6.72733 20.6491 6.72733 17.6692 6.73818C16.6635 6.73818 16.9059 7.52505 16.8697 8.1238C16.8335 8.72255 16.9945 9.10061 17.7126 9.08614C19.1488 9.05358 20.5941 9.07529 22.0394 9.07529L22.0413 9.0771Z" fill="#ED1C24"/>
<path d="M29.356 40.0002C25.3258 40.0002 22.1874 36.8184 22.1855 32.7447C22.1898 31.8023 22.3801 30.8699 22.7456 30.0012C23.1111 29.1325 23.6445 28.3446 24.3152 27.6825C24.986 27.0205 25.7809 26.4975 26.6543 26.1434C27.5277 25.7894 28.4624 25.6113 29.4048 25.6194C31.3094 25.626 33.1346 26.3833 34.4845 27.7271C35.8343 29.0708 36.5998 30.8926 36.615 32.7972C36.6639 36.7496 33.3808 40.0075 29.356 40.0002ZM28.3014 37.3466C28.3379 37.4174 28.3647 37.4929 28.381 37.5709C28.3954 38.1135 28.4588 38.5965 29.1914 38.6092C29.8208 38.6092 30.246 38.4934 30.2369 37.7246C30.2369 37.5709 30.5553 37.3447 30.7687 37.2652C32.2611 36.7026 32.9177 35.8669 32.9032 34.4939C32.8887 33.2132 32.2773 32.5041 30.7127 32.0085C30.0271 31.7896 29.3144 31.6467 28.6487 31.388C28.3882 31.2867 28.0101 30.8906 28.0572 30.7404C28.1165 30.584 28.2087 30.4421 28.3276 30.3245C28.4465 30.2068 28.5893 30.1161 28.7464 30.0585C29.5821 29.8287 30.2731 30.0422 30.6764 30.9195C30.9261 31.4622 31.3639 31.7932 31.9897 31.4785C32.6156 31.1637 32.7386 30.498 32.4021 30.0205C31.9951 29.4416 31.3313 29.0491 30.8013 28.5516C30.5734 28.3382 30.2586 28.0759 30.2333 27.8154C30.1863 27.233 29.9258 27.0141 29.3886 26.9942C28.8513 26.9743 28.4932 27.1588 28.3828 27.7702C28.3526 27.9264 28.2902 28.0746 28.1996 28.2054C28.1089 28.3362 27.9921 28.4467 27.8564 28.5299C26.5269 29.1124 25.9625 29.8143 25.9987 30.9937C26.0313 32.079 26.6608 32.8351 27.9722 33.2783C28.6813 33.5189 29.4374 33.6401 30.123 33.9277C30.4197 34.0543 30.7796 34.4704 30.7724 34.7562C30.7651 35.042 30.4106 35.4436 30.103 35.5937C29.1733 36.0532 28.2851 35.6878 27.8238 34.7001C27.5217 34.0598 27.1328 33.5569 26.3767 33.9187C25.6206 34.2805 25.7382 34.9353 26.0149 35.5594C26.4617 36.5687 27.3065 37.106 28.3086 37.3466H28.3014Z" fill="#ED1C24"/>
</svg>
