<svg width="15" height="16" viewBox="0 0 15 16" fill="none" xmlns="http://www.w3.org/2000/svg">
<g clip-path="url(#clip0_845_1640)">
<path d="M6.70188 8.67186V5.55701C6.67011 5.58416 6.6447 5.6002 6.62436 5.62118L5.86191 6.36164C5.78956 6.43853 5.70199 6.50048 5.60443 6.54377C5.50688 6.58705 5.40134 6.6108 5.29412 6.61359C5.1869 6.61637 5.08021 6.59814 4.98041 6.55998C4.88061 6.52182 4.78975 6.46451 4.71327 6.39148C4.63679 6.31845 4.57626 6.2312 4.53528 6.13494C4.4943 6.03868 4.47373 5.93538 4.47479 5.83122C4.47584 5.72707 4.49851 5.62419 4.54143 5.52873C4.58435 5.43327 4.64664 5.34719 4.72459 5.27564C5.45739 4.55904 6.19273 3.8445 6.93062 3.13202C7.00511 3.05518 7.095 2.99396 7.19476 2.95211C7.29453 2.91026 7.40205 2.88867 7.51072 2.88867C7.61939 2.88867 7.72691 2.91026 7.82667 2.95211C7.92643 2.99396 8.01632 3.05518 8.09082 3.13202L10.274 5.25219C10.4304 5.3908 10.5236 5.58407 10.5333 5.78947C10.5429 5.99487 10.4682 6.19558 10.3254 6.34745C10.1827 6.49931 9.9837 6.5899 9.7722 6.59927C9.5607 6.60865 9.35402 6.53604 9.19764 6.39743C8.92316 6.14197 8.65757 5.87664 8.38817 5.61625C8.36784 5.5965 8.34624 5.57799 8.3132 5.54837V8.67063H11.9349C12.6344 8.66181 13.3154 8.88921 13.8615 9.31396C14.4076 9.73871 14.7848 10.3344 14.9288 10.9994C14.9684 11.1725 14.9896 11.349 14.9923 11.5263C14.9986 12.0878 15.005 12.6493 14.9923 13.2096C14.9583 13.869 14.6963 14.4979 14.2487 14.9948C13.8012 15.4917 13.1941 15.8276 12.5258 15.9481C12.3198 15.9801 12.1116 15.9962 11.9031 15.9962C8.97103 15.9962 6.03939 15.9962 3.10818 15.9962C2.593 16.0109 2.08265 15.896 1.62666 15.6627C1.17067 15.4294 0.784516 15.0856 0.505677 14.6646C0.185696 14.21 0.0135001 13.6726 0.0113534 13.122C0.00245808 12.5642 -0.00516746 12.0113 0.0202477 11.4498C0.0504476 10.8213 0.289704 10.2192 0.702119 9.73389C1.11454 9.24859 1.67787 8.90626 2.30761 8.75825C2.54653 8.70234 2.79128 8.67336 3.03702 8.67186C4.2112 8.66322 5.38665 8.67186 6.56083 8.67186H6.70188ZM7.49992 14.4511C8.98755 14.4511 10.4752 14.4511 11.9628 14.4511C12.1516 14.4521 12.3387 14.4168 12.5133 14.3472C12.688 14.2777 12.8467 14.1753 12.9804 14.0459C13.1141 13.9165 13.2202 13.7627 13.2924 13.5933C13.3646 13.4239 13.4016 13.2424 13.4013 13.0591C13.4013 12.5963 13.4013 12.1323 13.4013 11.6695C13.4088 11.477 13.3753 11.2851 13.3028 11.1058C13.2303 10.9265 13.1205 10.7636 12.9802 10.6275C12.8399 10.4913 12.6721 10.3848 12.4874 10.3146C12.3027 10.2444 12.1051 10.212 11.9069 10.2194H4.91774C4.29888 10.2194 3.68002 10.2194 3.06117 10.2194C2.86962 10.2166 2.67944 10.2511 2.5019 10.321C2.32436 10.3909 2.16308 10.4947 2.02762 10.6262C1.89216 10.7578 1.78528 10.9144 1.71332 11.0868C1.64136 11.2593 1.60578 11.444 1.60869 11.63C1.60869 12.108 1.60869 12.586 1.60869 13.064C1.6074 13.1326 1.6125 13.2011 1.62394 13.2689C1.67605 13.6053 1.85348 13.9116 2.1226 14.1295C2.39172 14.3474 2.73382 14.4618 3.08404 14.4511H7.49992Z" fill="#6D6C80"/>
<path d="M7.51002 0.00329091H11.2028C12.0512 -0.00374619 12.8771 0.26814 13.5462 0.774738C14.2152 1.28133 14.6882 1.99284 14.888 2.79357C14.9535 3.0681 14.9893 3.34853 14.9948 3.63029C15.0113 4.11775 14.9948 4.60769 14.9948 5.09639C14.9978 5.19885 14.9798 5.30088 14.9417 5.39648C14.9036 5.49208 14.8463 5.57934 14.773 5.65313C14.6997 5.72692 14.612 5.78577 14.515 5.82621C14.4181 5.86666 14.3137 5.8879 14.2082 5.88868C14.1018 5.88917 13.9964 5.86911 13.8981 5.82966C13.7998 5.7902 13.7105 5.73215 13.6355 5.65887C13.5606 5.58559 13.5013 5.49856 13.4613 5.40284C13.4213 5.30712 13.4013 5.20462 13.4025 5.10132C13.4025 4.6336 13.4025 4.16712 13.4025 3.6994C13.4073 3.41542 13.3533 3.13341 13.2435 2.87016C13.1337 2.6069 12.9705 2.3678 12.7636 2.16709C12.5567 1.96637 12.3103 1.80816 12.0391 1.70186C11.7679 1.59557 11.4775 1.54337 11.1851 1.54837H3.80577C3.51616 1.54524 3.22882 1.59826 2.96059 1.70434C2.69235 1.81042 2.4486 1.96741 2.24363 2.16612C2.03866 2.36484 1.87658 2.60128 1.76689 2.86159C1.6572 3.12191 1.6021 3.40086 1.60482 3.68212C1.60482 4.15601 1.60482 4.6299 1.60482 5.10503C1.60609 5.23411 1.57403 5.36144 1.51158 5.47539C1.44913 5.58933 1.35827 5.68627 1.2473 5.75734C1.13634 5.8284 1.00881 5.87133 0.87636 5.8822C0.743912 5.89307 0.610771 5.87154 0.489099 5.81957C0.345608 5.76409 0.222849 5.66759 0.137074 5.54286C0.0512984 5.41813 0.00655092 5.27104 0.00875347 5.12107C0.00875347 4.57067 -0.00776681 4.01903 0.0201898 3.46985C0.0398677 2.95245 0.176279 2.44554 0.419789 1.98494C0.663299 1.52434 1.00797 1.12128 1.42946 0.804215C2.0765 0.284906 2.89012 0.0015914 3.72952 0.00329091C4.98884 -0.00411364 6.24943 0.00329091 7.51002 0.00329091Z" fill="#6D6C80"/>
</g>
<defs>
<clipPath id="clip0_845_1640">
<rect width="15" height="16" fill="white"/>
</clipPath>
</defs>
</svg>
