<svg width="71" height="40" viewBox="0 0 71 40" fill="none" xmlns="http://www.w3.org/2000/svg">
<path d="M70.4375 22.0912H11.014V16.4795L0 14.3695V14.1725L18.7804 12.5106L18.8153 12.2436L0.298688 9.58076V9.34561L18.9805 7.45483V7.1975L0.800793 4.82696L0.753158 4.55364L10.6963 3.32702C11.8434 0.149342 12.0627 0 15.4978 0H44.0973C49.0736 0 49.0736 3.72748e-05 49.7346 4.96358C51.3234 4.96358 52.9473 4.96358 54.5711 4.96358C55.2853 4.94037 55.9966 5.0666 56.6592 5.33418C57.3219 5.60176 57.9214 6.00476 58.4193 6.51743C61.9148 9.99699 65.4421 13.4225 68.9058 16.918C69.5414 17.5726 69.9608 18.4592 70.4788 19.2409L70.4375 22.0912ZM64.6127 17.5567L64.9114 17.1658C64.2759 16.5303 63.6403 15.8693 63.0048 15.2401C60.8376 13.1588 58.7403 10.9948 56.446 9.05957C55.7628 8.48441 54.5393 8.51939 53.5447 8.37322C53.3953 8.35098 53.0013 8.86255 52.9981 9.13265C52.9568 11.9099 52.9727 14.6904 52.9727 17.5567H64.6127Z" fill="#ED1C24"/>
<path d="M70.44 30.9888C69.0768 33.4611 66.7729 32.9304 64.612 32.8573C63.128 28.5738 60.5605 26.3208 57.0904 26.2255C53.007 26.1143 50.7031 27.9256 48.7107 32.8573H33.3845C31.4048 27.897 29.0278 26.0571 24.8555 26.2287C21.4648 26.3717 18.732 28.8217 17.5658 32.9018C16.2025 32.9018 14.7821 33.0099 13.3839 32.8701C12.0493 32.7366 11.0896 31.8881 11.026 30.4995C10.9243 28.2973 11.0006 26.0825 11.0006 23.6865H70.4241L70.44 30.9888Z" fill="#ED1C24"/>
<path d="M25.5102 39.9958C24.7294 40.0205 23.9516 39.8863 23.224 39.6016C22.4965 39.3168 21.8343 38.8874 21.2776 38.3393C20.7208 37.7912 20.2811 37.1357 19.9851 36.4127C19.689 35.6897 19.5428 34.9142 19.5552 34.133C19.5409 33.3518 19.6822 32.5755 19.9709 31.8495C20.2596 31.1234 20.6898 30.462 21.2367 29.9039C21.7836 29.3458 22.4361 28.9021 23.1561 28.5987C23.8762 28.2953 24.6494 28.1383 25.4308 28.1367C26.9776 28.1668 28.4537 28.7896 29.5547 29.8764C30.6557 30.9632 31.2976 32.4311 31.3478 33.9773C31.3694 34.7583 31.2344 35.5358 30.951 36.2639C30.6676 36.9919 30.2414 37.6559 29.6974 38.2168C29.1534 38.7776 28.5027 39.224 27.7836 39.5295C27.0645 39.835 26.2916 39.9936 25.5102 39.9958ZM25.4308 37.0501C26.2287 37.0552 26.9959 36.7436 27.5643 36.1836C28.1326 35.6236 28.4556 34.861 28.4624 34.0631C28.4401 32.4934 26.9084 31.0252 25.3514 31.0793C24.5802 31.1146 23.8513 31.4419 23.3125 31.9949C22.7738 32.5478 22.4655 33.2849 22.4501 34.0568C22.4388 34.4519 22.508 34.8451 22.6536 35.2126C22.7992 35.58 23.0182 35.914 23.2971 36.194C23.576 36.4741 23.909 36.6945 24.2759 36.8417C24.6427 36.9889 25.0357 37.0598 25.4308 37.0501Z" fill="#ED1C24"/>
<path d="M62.538 34.1839C62.5436 34.9517 62.3959 35.713 62.1036 36.4231C61.8114 37.1332 61.3804 37.778 60.8359 38.3195C60.2914 38.861 59.6444 39.2884 58.9327 39.5768C58.2209 39.8652 57.4589 40.0088 56.691 39.999C55.9097 40.01 55.134 39.865 54.4094 39.5724C53.6849 39.2798 53.026 38.8456 52.4714 38.2951C51.9168 37.7447 51.4777 37.0891 51.1797 36.3668C50.8817 35.6445 50.7308 34.8699 50.736 34.0885C50.7583 32.5131 51.3955 31.0089 52.5117 29.8969C53.6279 28.7848 55.1345 28.1531 56.71 28.1367C59.9958 28.1653 62.5571 30.8123 62.538 34.1839ZM56.621 37.0438C57.0163 37.0594 57.4106 36.9942 57.7799 36.8523C58.1491 36.7104 58.4856 36.4947 58.7687 36.2185C59.0518 35.9422 59.2757 35.6111 59.4265 35.2455C59.5774 34.8798 59.6522 34.4872 59.6462 34.0917C59.6421 33.2923 59.3234 32.5267 58.759 31.9606C58.1946 31.3944 57.43 31.0732 56.6306 31.0665C55.8597 31.1191 55.1335 31.4472 54.5845 31.991C54.0355 32.5347 53.7004 33.2578 53.6404 34.0282C53.6374 34.4224 53.7122 34.8132 53.8605 35.1785C54.0087 35.5438 54.2276 35.8763 54.5044 36.157C54.7812 36.4376 55.1106 36.661 55.4739 36.8142C55.8371 36.9675 56.2268 37.0476 56.621 37.0501V37.0438Z" fill="#ED1C24"/>
</svg>
