<svg width="42" height="40" viewBox="0 0 42 40" fill="none" xmlns="http://www.w3.org/2000/svg">
<path d="M8.23529 32.9412L1.75 39.4265C1.40686 39.7696 1.02941 39.8554 0.617647 39.6838C0.205882 39.5122 0 39.1863 0 38.7059V4.11765C0 2.98529 0.40353 2.01627 1.21059 1.21059C2.01765 0.404902 2.98667 0.00137255 4.11765 0H37.0588C38.1912 0 39.1609 0.40353 39.9679 1.21059C40.775 2.01765 41.1778 2.98667 41.1765 4.11765V28.8235C41.1765 29.9559 40.7736 30.9256 39.9679 31.7326C39.1623 32.5397 38.1925 32.9425 37.0588 32.9412H8.23529ZM20.5882 21.5662L24.5 23.9338C24.8774 24.174 25.2549 24.1658 25.6324 23.9091C26.0098 23.6524 26.1471 23.3004 26.0441 22.8529L25.0147 18.375L28.5147 15.3382C28.8578 15.0294 28.9608 14.6609 28.8235 14.2326C28.6863 13.8044 28.3774 13.5724 27.8971 13.5368L23.3162 13.1765L21.5147 8.95588C21.3431 8.54412 21.0343 8.33823 20.5882 8.33823C20.1422 8.33823 19.8333 8.54412 19.6618 8.95588L17.8603 13.1765L13.2794 13.5368C12.799 13.5711 12.4902 13.803 12.3529 14.2326C12.2157 14.6623 12.3186 15.0308 12.6618 15.3382L16.1618 18.375L15.1324 22.8529C15.0294 23.299 15.1667 23.6511 15.5441 23.9091C15.9216 24.1672 16.299 24.1754 16.6765 23.9338L20.5882 21.5662Z" fill="#15B34D"/>
</svg>
