<svg width="39" height="40" viewBox="0 0 39 40" fill="none" xmlns="http://www.w3.org/2000/svg">
<g clip-path="url(#clip0_640_916)">
<rect width="38.3673" height="40" fill="#ED1C24"/>
<path d="M8.02754 2.19679C8.43011 5.46535 9.30645 6.25632 12.4092 6.25632H21.8628C25.0916 6.25632 25.8967 5.53426 26.2034 2.26018C27.9123 2.26018 29.6485 2.10308 31.3464 2.30151C33.4551 2.54679 34.6327 4.17006 34.6492 6.66144C34.6957 11.2088 34.6656 15.7561 34.6683 20.3007V26.7221C30.9767 25.5783 27.8931 26.339 25.6831 29.3926C23.5716 32.3112 23.7853 35.3868 25.8091 38.5038C25.3189 38.5396 24.9437 38.5892 24.5657 38.592C17.8581 38.592 11.1504 38.592 4.44276 38.592C1.35639 38.592 0.0610444 37.4235 0.0336587 34.3147C-0.0229383 24.9941 -0.0229383 15.6734 0.0336587 6.35277C0.0528287 3.26885 1.26053 2.21883 4.36059 2.19679C5.55187 2.19127 6.73494 2.19679 8.02754 2.19679ZM17.4619 15.1663C20.2908 15.1663 23.1198 15.1443 25.9515 15.1663C26.9373 15.1663 27.6412 14.7419 27.6576 13.8076C27.674 12.8734 26.9593 12.4104 25.9706 12.4104C20.3602 12.4104 14.748 12.4104 9.13391 12.4104C8.18637 12.4104 7.50447 12.7769 7.49077 13.8187C7.47708 14.8604 8.12613 15.1966 9.10654 15.1718C11.8944 15.147 14.6768 15.1663 17.4619 15.1663ZM17.3825 22.8996C20.1211 22.8996 22.8596 22.8637 25.5982 22.9188C26.6416 22.9381 27.3728 22.6074 27.3646 21.5409C27.3563 20.4743 26.5047 20.1629 25.5379 20.1629C20.0206 20.1629 14.5033 20.1629 8.98604 20.1629C8.05219 20.1629 7.1731 20.3282 7.23335 21.5409C7.28538 22.6681 8.05493 22.9188 9.04629 22.9051C11.8177 22.883 14.6001 22.9051 17.3825 22.9051V22.8996ZM12.5708 30.4867C13.8881 30.4867 15.2272 30.619 16.5171 30.4261C17.0648 30.3434 17.4975 29.5772 17.9822 29.1198C17.5194 28.6595 17.073 27.8217 16.5883 27.7969C14.0012 27.6618 11.4088 27.6618 8.82172 27.7969C8.35343 27.8217 7.66331 28.6237 7.54555 29.1749C7.36207 30.0017 8.02754 30.4839 8.89019 30.4922C10.1171 30.5005 11.3439 30.4922 12.5708 30.4922V30.4867Z" fill="#ED1C24"/>
<path d="M32.5052 39.9991C29.1614 39.9991 26.609 37.4829 26.5844 34.1372C26.5677 33.3572 26.705 32.5816 26.9885 31.8555C27.272 31.1293 27.696 30.4671 28.2359 29.9071C28.7757 29.3472 29.4207 28.9007 30.1333 28.5936C30.846 28.2865 31.6122 28.1249 32.3874 28.1182C33.9523 28.1193 35.4545 28.7373 36.5721 29.8398C37.6896 30.9422 38.3335 32.4414 38.3657 34.0159C38.3747 34.797 38.2299 35.5721 37.9397 36.2966C37.6494 37.021 37.2194 37.6804 36.6745 38.2367C36.1297 38.793 35.4807 39.2351 34.765 39.5376C34.0494 39.8401 33.2813 39.997 32.5052 39.9991ZM31.6644 35.9837C30.7388 34.9667 30.1828 34.2915 29.5475 33.7045C29.3558 33.5281 28.9368 33.6025 28.6219 33.5584C28.6438 33.8781 28.5397 34.2943 28.704 34.4982C29.4955 35.4986 30.3472 36.4412 31.3303 37.5573C33.1761 35.7081 34.7645 34.1399 36.309 32.536C36.4569 32.3844 36.3419 31.9848 36.3501 31.6899C36.0379 31.7147 35.5943 31.6155 35.4327 31.7863C34.2113 33.0789 33.0419 34.4321 31.6644 35.9837Z" fill="#ED1C24"/>
<path d="M17.3213 0.00854724C18.7289 0.00854724 20.142 -0.00523256 21.5497 0.00854724C22.7492 0.027839 23.5598 0.796753 23.6091 1.91292C23.6638 3.10625 22.8888 3.94957 21.5825 3.96335C18.718 3.99826 15.8516 3.99826 12.9834 3.96335C11.7018 3.94682 11.039 3.222 11.0308 2.00938C11.0226 0.796754 11.762 0.0305976 13.0902 0.0113059C14.5006 -0.00798582 15.911 0.00854724 17.3213 0.00854724Z" fill="#ED1C24"/>
<path d="M17.4629 15.1658C14.6777 15.1658 11.8953 15.141 9.11022 15.1658C8.12982 15.1795 7.46708 14.8902 7.49447 13.8126C7.52186 12.735 8.19828 12.4043 9.13761 12.4043C14.7499 12.4043 20.3621 12.4043 25.9743 12.4043C26.952 12.4043 27.664 12.8673 27.6476 13.8098C27.6312 14.7524 26.9273 15.1878 25.9415 15.1685C23.1207 15.1492 20.2918 15.1658 17.4629 15.1658Z" fill="white"/>
<path d="M17.3839 22.9053C14.6015 22.9053 11.8191 22.886 9.03949 22.9053C8.04813 22.9053 7.27859 22.6683 7.22655 21.5411C7.1663 20.3257 8.04813 20.1631 8.97924 20.1631C14.4984 20.1631 20.0157 20.1631 25.5311 20.1631C26.4979 20.1631 27.3523 20.4387 27.3578 21.5411C27.3632 22.6434 26.6348 22.9466 25.5914 22.919C22.8556 22.8832 20.1197 22.9053 17.3839 22.9053Z" fill="white"/>
<path d="M12.571 30.4919C11.3442 30.4919 10.1063 30.4919 8.8904 30.4919C8.02775 30.4919 7.36227 30.0096 7.54576 29.1746C7.66352 28.6234 8.35364 27.8214 8.82193 27.7966C11.4091 27.6616 14.0014 27.6616 16.5885 27.7966C17.0732 27.8214 17.5196 28.6592 17.9824 29.1195C17.4977 29.5769 17.0568 30.3431 16.5173 30.4258C15.2274 30.6187 13.8883 30.4864 12.571 30.4864V30.4919Z" fill="white"/>
<path d="M31.6636 35.9839C33.0329 34.4323 34.2104 33.0847 35.4318 31.7866C35.5934 31.6157 36.0371 31.7149 36.3493 31.6901C36.3493 31.9795 36.4561 32.3846 36.3082 32.5362C34.7636 34.1402 33.1753 35.7083 31.3295 37.5576C30.3573 36.4414 29.4946 35.4989 28.7032 34.4985C28.5389 34.2945 28.6429 33.8784 28.621 33.5587C28.936 33.6028 29.355 33.5284 29.5467 33.7047C30.182 34.2918 30.7379 34.967 31.6636 35.9839Z" fill="white"/>
</g>
<defs>
<clipPath id="clip0_640_916">
<rect width="38.3673" height="40" fill="white"/>
</clipPath>
</defs>
</svg>
