<svg width="77" height="40" viewBox="0 0 77 40" fill="none" xmlns="http://www.w3.org/2000/svg">
<path d="M0 0H71.3298C75.0797 0 76.407 1.34375 76.407 5.1296C76.407 15.1555 76.407 25.1813 76.407 35.2072C76.407 38.5419 74.9717 40 71.6599 40H1.55292H0V0ZM38.0711 37.123H68.6391C72.5982 37.123 74.0923 35.642 74.0923 31.7352C74.0923 23.8322 74.0923 15.9292 74.0923 8.02616C74.0923 4.53454 72.4903 2.88355 69.0445 2.88028C48.4478 2.88028 27.8512 2.88028 7.25457 2.88028C3.80545 2.88028 2.20678 4.51493 2.20678 8.02289C2.20678 15.9259 2.20678 23.8289 2.20678 31.7319C2.20678 35.557 3.73354 37.1132 7.50632 37.1164C17.6826 37.1252 27.8665 37.1273 38.058 37.123H38.0711Z" fill="#2595ED"/>
<path d="M57.6522 4.59724V35.5249H55.8541H7.82473C4.5358 35.5249 3.81982 34.7893 3.81982 31.4709C3.81982 23.6246 3.81982 15.7782 3.81982 7.93191C3.81982 5.41782 4.72543 4.47304 7.26241 4.46977C23.7092 4.45669 40.1549 4.45669 56.5995 4.46977C56.9199 4.48612 57.2338 4.55147 57.6522 4.59724ZM40.1157 8.67078L39.6711 9.07617C39.6711 11.7308 39.6515 14.3888 39.6907 17.0435C39.6907 17.3933 39.9882 17.7431 40.1451 18.0897C40.3478 17.7366 40.7172 17.3868 40.7303 17.0304C40.7859 15.0688 40.7565 13.1073 40.7565 10.6684C42.2702 13.1171 43.4831 15.1604 44.7973 17.1383C45.1243 17.6255 45.7781 17.8935 46.6347 18.5147C46.6347 15.2454 46.6347 12.5973 46.6118 9.93931C46.6118 9.5895 46.3241 9.24624 46.1672 8.89969C45.9514 9.24624 45.5591 9.58623 45.546 9.93931C45.4871 11.9205 45.5166 13.9049 45.5166 16.1117C44.1173 13.8886 42.8652 11.8224 41.5215 9.81504C41.1913 9.33445 40.593 9.04675 40.1157 8.67078ZM54.5006 14.3202C54.9976 17.1285 54.1475 17.9164 51.689 17.0533C50.0936 16.491 49.2926 14.8857 49.5542 12.7738C49.7601 11.1391 50.8619 9.98507 52.5358 9.84776C53.4741 9.77257 54.4255 9.84776 55.9228 9.84776C55.2689 9.34429 55.0204 9.02388 54.7099 8.93561C52.5783 8.33079 50.1328 9.15136 49.018 10.7893C47.8737 12.4861 47.9718 15.2258 49.2305 16.7526C50.3911 18.1649 53.1537 18.7795 55.1153 17.9883C55.2898 17.8984 55.4419 17.7703 55.5602 17.6135C55.6785 17.4567 55.76 17.2753 55.7986 17.0827C55.8803 15.86 55.8313 14.6274 55.8313 13.1595L52.8104 13.4865L52.8692 14.0456L54.5006 14.3202ZM33.5771 25.7432L36.6796 22.0587C34.1394 22.1306 33.7373 24.7035 31.8476 25.8281C31.8476 24.661 31.8868 23.5952 31.8149 22.536C31.8149 22.2875 31.3932 22.0684 31.161 21.833C30.9812 22.0488 30.6445 22.2646 30.6412 22.4869C30.6053 25.3442 30.6184 28.2017 30.6184 31.3631C33.0213 30.3365 30.6903 27.5838 32.6747 26.7861C34.3355 28.012 34.4402 30.6765 37.2812 31.3042L33.5771 25.7432ZM21.4381 8.85388C21.4381 11.8453 21.4382 14.6111 21.4676 17.3737C21.4676 17.6156 21.8566 17.8543 22.0626 18.0962C22.2326 17.8641 22.5333 17.6418 22.5464 17.4032C22.5987 16.3406 22.5693 15.2781 22.5693 14.2417C24.8578 14.0815 25.1847 14.3627 25.7307 16.3929C25.9269 17.1449 25.7569 18.3937 27.4569 17.9818L25.8779 13.4963C27.0058 12.7836 27.5681 11.5576 26.8587 10.2466C25.6686 8.08233 23.537 9.01081 21.4283 8.85388H21.4381ZM39.4422 22.9512L43.1202 22.6013L43.0744 22.0096H38.2391V30.9936C41.7699 31.3663 42.8358 31.2323 43.4144 30.1665H39.4422V26.9593L42.9633 26.4852L42.875 25.8772L39.4422 25.6908V22.9512ZM19.3654 18.2695L19.8917 17.8314C18.9731 15.1081 18.0773 12.3749 17.103 9.65812C17.0013 9.46606 16.8582 9.29903 16.6841 9.169C16.51 9.03896 16.3091 8.94922 16.0961 8.90624C15.9064 8.92979 15.7256 9.00003 15.5698 9.11073C15.414 9.22143 15.2882 9.36911 15.2036 9.54047C14.2032 12.3226 13.2649 15.131 12.3102 17.9295L12.8529 18.2564C13.2093 17.7693 13.7618 17.3247 13.8828 16.7852C14.1541 15.556 14.7491 15.1506 16.0176 15.1506C17.2861 15.1506 18.0217 15.4775 18.3061 16.7852C18.414 17.3541 18.9894 17.7758 19.3556 18.2695H19.3654ZM34.8946 9.11544C32.2988 9.16121 31.9522 11.8551 29.9906 12.9765C29.9906 11.9238 30.043 10.9692 29.9645 10.0341C29.9351 9.64509 29.6375 9.27894 29.4447 8.90297C29.2452 9.2724 28.8889 9.63525 28.8791 10.008C28.8246 12.2899 28.8246 14.5719 28.8791 16.8539C28.8791 17.2789 29.255 17.6974 29.4545 18.1191C29.6817 17.7059 29.8584 17.2668 29.9808 16.8114C30.1476 15.7718 29.5885 14.5228 30.8897 13.8298C32.4982 15.0688 32.6551 17.6745 35.0515 18.0505C34.2778 16.5555 33.388 15.1235 32.3903 13.7677C31.877 13.068 31.8934 12.5874 32.5015 11.9532C33.345 11.0508 34.0936 10.0603 34.8848 9.1089L34.8946 9.11544ZM8.21052 14.5294C11.4537 14.3692 12.7222 13.31 12.392 11.0738C12.0977 9.07948 10.1885 8.38636 6.87011 9.08926V18.3414C8.74996 17.3672 7.46511 15.6737 8.2007 14.5229L8.21052 14.5294ZM28.9903 30.173C24.544 30.173 23.2101 29.3067 23.3964 26.3676C23.4586 25.4129 23.8018 24.0496 24.4753 23.6573C25.7144 22.9348 27.2902 22.791 28.781 22.3921C28.7025 21.7971 28.5194 21.6794 27.1169 21.6533C24.5995 21.6042 22.6445 23.0264 22.1639 25.2495C21.6049 27.8355 22.6707 30.1273 24.8023 30.925C26.4173 31.5363 28.3658 31.2355 28.9804 30.1665L28.9903 30.173ZM46.9518 22.9805V31.0623C47.3082 31.0786 47.7005 31.1048 47.7005 31.095C47.9326 28.4043 48.1386 25.7104 48.3544 22.9217C48.8889 22.9331 49.4236 22.9014 49.953 22.8269C50.296 22.6927 50.6167 22.5076 50.9044 22.2777C50.6101 22.1207 50.3192 21.8363 50.0217 21.8297C48.2781 21.7861 46.5344 21.7861 44.7908 21.8297C44.5162 21.8297 44.2514 22.1175 43.98 22.2744L44.0552 22.6994L46.9518 22.9805ZM14.1345 22.9315C14.1672 23.556 14.2097 24.0366 14.213 24.5139C14.213 26.4199 14.1901 28.3226 14.2489 30.2254C14.2489 30.5229 14.6445 30.8106 14.857 31.1048C15.0618 30.8485 15.2251 30.5617 15.3409 30.2547C15.3938 29.8209 15.4036 29.3828 15.3703 28.947V22.9381C15.8833 22.9468 16.3962 22.9129 16.9036 22.8367C17.3448 22.6884 17.7725 22.5024 18.1819 22.2809C17.7798 22.124 17.3842 21.8428 16.9788 21.8265C15.5141 21.7709 14.0364 21.7709 12.575 21.8265C12.1696 21.8265 11.7741 22.124 11.372 22.2809C11.7835 22.501 12.2134 22.6847 12.6568 22.8302C13.1426 22.9024 13.6337 22.9319 14.1247 22.9184L14.1345 22.9315ZM19.9147 31.2683L20.4868 30.9053C20.4868 28.1885 20.4868 25.4718 20.4573 22.7517C20.4573 22.4477 20.0716 22.1501 19.8656 21.8494C19.6564 22.16 19.2771 22.4673 19.2706 22.7812C19.2215 25.2331 19.2183 27.6851 19.2706 30.1338C19.2869 30.5033 19.6858 30.8759 19.9048 31.2552L19.9147 31.2683ZM37.425 18.0374V8.94216C36.1991 9.17428 36.1925 9.17427 36.3331 16.6185C36.3364 17.2527 35.9604 18.3087 37.4152 18.0243L37.425 18.0374Z" fill="#2595ED"/>
<path d="M59.7686 35.4894V4.69906C59.9606 4.60508 60.1656 4.54005 60.3767 4.50615C63.4269 4.50615 66.4772 4.45057 69.5307 4.50615C71.4073 4.54538 72.4306 5.52621 72.4371 7.32105C72.4698 15.7646 72.4698 24.2092 72.4371 32.6549C72.4371 34.3386 71.4923 35.4142 69.874 35.4567C66.5622 35.5515 63.2471 35.4894 59.7686 35.4894ZM63.3648 21.8466C64.8589 21.6308 66.2287 21.5916 67.5005 21.2156C69.6255 20.5879 70.7338 18.6688 70.5213 16.3967C70.3382 14.4743 69.0501 13.0489 66.9055 12.8004C65.1629 12.6141 63.3844 12.7644 61.5634 12.7644V27.3357H63.3648V21.8466Z" fill="#2595ED"/>
<path d="M22.6406 13.5943V9.60254C23.6999 9.87389 24.7101 9.92946 25.4719 10.41C25.7988 10.6193 25.923 12.0055 25.6419 12.2278C24.8899 12.8163 23.8666 13.0713 22.6406 13.5943Z" fill="#2595ED"/>
<path d="M17.4443 14.2244H14.7603C15.1885 12.8741 15.571 11.6678 16.068 10.1182L17.4443 14.2244Z" fill="#2595ED"/>
<path d="M8.08398 9.49512C9.16286 9.8809 10.1698 10.0411 10.8793 10.5838C11.2062 10.8454 11.2912 12.1465 10.9806 12.4309C10.2875 13.0685 9.28055 13.366 8.08398 13.961V9.49512Z" fill="#2595ED"/>
<path d="M63.4282 19.9279V14.2818C65.161 14.0039 66.9918 13.6802 68.0347 15.3017C68.5578 16.1158 68.5807 17.708 68.136 18.6005C67.1814 20.4673 65.2688 20.1436 63.4282 19.9279Z" fill="#2595ED"/>
</svg>
