<svg width="42" height="40" viewBox="0 0 42 40" fill="none" xmlns="http://www.w3.org/2000/svg">
<g clip-path="url(#clip0_640_928)">
<path d="M39.1436 18.0188H37.0108C33.3569 18.0188 29.703 18.0006 26.0491 18.0188C23.0008 18.0369 21.1356 19.9503 21.1336 22.9986C21.1336 24.1395 21.1215 25.2783 21.1336 26.4192C21.1436 27.6234 21.6283 28.775 22.4823 29.6241C23.3363 30.4732 24.4907 30.9512 25.695 30.9544C29.8197 30.9685 33.9445 30.9544 38.0672 30.9544H39.2302C39.2302 33.3548 39.2845 35.6586 39.206 37.9604C39.1678 39.0389 38.1718 39.8497 37.029 39.9845C36.7612 40.0043 36.4925 40.009 36.2241 39.9986H3.02493C0.799579 39.9986 -0.00927734 39.1938 -0.00927734 36.9805V12.0409C-0.00927734 9.99461 0.78349 9.21191 2.84385 9.21191H36.3348C38.3931 9.21191 39.2282 10.059 39.2302 12.1455C39.2302 13.9899 39.2268 15.8336 39.2201 17.6767C39.2042 17.7927 39.1787 17.9071 39.1436 18.0188Z" fill="#FF7F27"/>
<path d="M32.3507 19.651C34.6625 19.651 36.9784 19.651 39.2823 19.651C40.6686 19.651 41.6122 20.5383 41.6485 21.9387C41.6947 23.7114 41.7008 25.488 41.6485 27.2607C41.6062 28.6691 40.6585 29.5363 39.248 29.5383C34.7289 29.5383 30.2078 29.488 25.6907 29.5685C23.9603 29.6007 23.0368 28.4659 22.9865 27.0253C22.9281 25.3854 22.9221 23.7416 22.9865 22.1037C23.0509 20.4659 23.9422 19.651 25.6243 19.649C27.8758 19.647 30.1092 19.651 32.3507 19.651ZM30.3648 24.6088C30.354 24.1536 30.1681 23.7201 29.8458 23.3986C29.5235 23.077 29.0896 22.8921 28.6344 22.8824C28.4078 22.8707 28.1812 22.9059 27.9689 22.9857C27.7565 23.0656 27.5629 23.1884 27.4001 23.3464C27.2373 23.5045 27.1089 23.6944 27.0228 23.9043C26.9368 24.1143 26.895 24.3397 26.9 24.5665C26.8954 24.793 26.9358 25.0181 27.0188 25.2289C27.1018 25.4396 27.2257 25.6319 27.3835 25.7944C27.5412 25.957 27.7296 26.0867 27.9377 26.1761C28.1458 26.2654 28.3696 26.3126 28.5961 26.315C29.0515 26.3051 29.4864 26.124 29.8142 25.8078C30.142 25.4916 30.3385 25.0635 30.3648 24.6088Z" fill="#FF7F27"/>
<path d="M34.4751 7.68233H15.9138L15.8735 7.54551C17.1854 7.17529 18.4979 6.80573 19.8112 6.43685C23.282 5.47106 26.7508 4.49319 30.2317 3.55758C30.7991 3.40466 31.4651 3.2618 31.9963 3.41875C32.5778 3.59178 33.282 4.00426 33.5295 4.50929C33.9862 5.4449 34.1512 6.52337 34.4751 7.68233Z" fill="#FF7F27"/>
<path d="M7.85303 7.44347L18.0663 2.36903C19.4104 1.70102 20.7464 1.01691 22.0905 0.356955C23.6176 -0.387512 24.7947 0.0209374 25.5754 1.54408C25.8148 2.0149 26.0462 2.48774 26.3239 3.04508C23.0422 3.97466 19.845 4.8821 16.6478 5.7815C14.8812 6.27848 13.1247 6.80766 11.342 7.23623C10.2212 7.50384 9.0643 7.61048 7.92144 7.79156L7.85303 7.44347Z" fill="#FF7F27"/>
<path d="M30.3641 24.6074C30.3379 25.0621 30.1413 25.4903 29.8135 25.8065C29.4858 26.1227 29.0508 26.3038 28.5955 26.3137C28.369 26.3113 28.1452 26.2641 27.9371 26.1748C27.7289 26.0854 27.5405 25.9557 27.3828 25.7931C27.2251 25.6305 27.1012 25.4383 27.0182 25.2276C26.9352 25.0168 26.8948 24.7917 26.8993 24.5652C26.8943 24.3384 26.9362 24.1129 27.0222 23.903C27.1083 23.6931 27.2367 23.5032 27.3995 23.3451C27.5622 23.1871 27.7559 23.0643 27.9682 22.9844C28.1806 22.9046 28.4072 22.8694 28.6337 22.8811C29.0889 22.8908 29.5228 23.0757 29.8451 23.3973C30.1675 23.7188 30.3533 24.1523 30.3641 24.6074Z" fill="white"/>
</g>
<defs>
<clipPath id="clip0_640_928">
<rect width="41.6841" height="40" fill="white"/>
</clipPath>
</defs>
</svg>
