<svg width="39" height="40" viewBox="0 0 39 40" fill="none" xmlns="http://www.w3.org/2000/svg">
<path d="M9.14332 37.4149L5.62617 39.9492C5.61215 39.5005 5.59113 39.1763 5.59113 38.8538C5.59113 30.4413 5.59113 22.0323 5.59113 13.6268V5.6226H0.0324172C0.0499416 4.40979 -0.0937648 3.24606 0.113022 2.10687C0.335581 0.880041 1.43261 0.0493049 2.6821 0.00373711C2.88713 0.00373711 3.09216 0.00373711 3.29545 0.00373711C12.3742 0.00373711 21.4536 0.00373711 30.5335 0.00373711C31.0559 -0.017336 31.578 0.0508284 32.0774 0.205291C33.383 0.676743 34.147 1.68099 34.1681 3.05152C34.2241 6.67066 34.1856 10.2915 34.1821 13.9177C34.1688 14.0214 34.1453 14.1235 34.112 14.2226C31.217 12.8872 28.2624 12.6891 25.2692 13.7529C23.0805 14.5281 21.1996 15.9876 19.905 17.9154C18.588 19.8434 17.9075 22.1354 17.959 24.4698C18.0105 26.8043 18.7915 29.064 20.1924 30.932C22.5967 34.1358 27.7787 37.0241 34.1453 34.2497V39.9422C32.9413 39.0834 31.79 38.2597 30.6089 37.4131L27.0392 39.9982L23.4572 37.4237L19.884 40L16.3055 37.4237L12.7148 39.9982C11.5389 39.1447 10.384 38.3087 9.14332 37.4149ZM10.8169 4.00319C10.5102 4.13989 10.2912 4.21525 10.0879 4.33093C9.80192 4.47918 9.55973 4.69971 9.38541 4.97059C9.21109 5.24147 9.11072 5.55326 9.09424 5.87497C9.01714 7.04571 9.7812 7.91851 11.0079 8.03243C11.3584 8.06573 11.7089 8.03243 12.0594 8.06573C12.133 8.06665 12.2058 8.08207 12.2734 8.1111C12.3411 8.14013 12.4024 8.18221 12.4539 8.23494C12.5053 8.28767 12.5458 8.35002 12.5731 8.41842C12.6005 8.48681 12.614 8.55992 12.6131 8.63358C12.6199 8.78203 12.5713 8.92772 12.4768 9.04236C12.3822 9.15701 12.2484 9.23243 12.1014 9.25401C11.9005 9.28746 11.6963 9.29629 11.4933 9.28029C10.9396 9.28029 10.3858 9.28029 9.83201 9.28029C9.4272 9.28029 9.15732 9.45555 9.10825 9.87618C9.05919 10.2968 9.29927 10.5492 9.78645 10.6158C10.1001 10.6578 10.4191 10.6543 10.7573 10.6719C10.9168 11.0732 10.922 11.5937 11.5214 11.592C12.189 11.592 12.1014 10.9768 12.2977 10.6035C12.4167 10.5793 12.5339 10.5465 12.6482 10.5054C13.633 10.0795 14.0869 9.27854 13.9134 8.27605C13.7487 7.33139 12.9671 6.6987 11.9209 6.66365C11.6878 6.65488 11.453 6.64963 11.2199 6.66365C10.7766 6.68468 10.5014 6.48838 10.4033 6.05899C10.71 5.46486 10.71 5.45085 11.2042 5.44033C11.8456 5.42456 12.487 5.4526 13.1319 5.42806C13.6751 5.40878 13.9485 5.14239 13.9362 4.7165C13.9257 4.32567 13.6663 4.08732 13.1722 4.04876C12.8848 4.02597 12.5938 4.04876 12.2679 4.04876C12.1522 3.57205 12.0926 3.04452 11.453 3.09709C10.915 3.14091 10.866 3.58256 10.8256 4.00319H10.8169ZM1.26436 4.35371H5.4597C5.63494 3.61937 5.62617 2.5275 5.47722 1.98244C5.34579 1.50222 5.04438 1.22005 4.54493 1.21479C3.87462 1.19256 3.20358 1.20719 2.53488 1.25861C2.19901 1.3074 1.89015 1.47023 1.66009 1.71977C1.43004 1.96932 1.29279 2.2904 1.27138 2.62915C1.23107 3.1672 1.26436 3.71927 1.26436 4.34495V4.35371Z" fill="#2595ED"/>
<path d="M29.144 30.8549C28.2666 30.8609 27.3967 30.6926 26.5849 30.3596C25.7731 30.0267 25.0355 29.5357 24.4149 28.9153C23.7944 28.2948 23.3033 27.5573 22.9702 26.7455C22.637 25.9337 22.4684 25.0637 22.4743 24.1862C22.4759 23.3144 22.6496 22.4514 22.9854 21.6469C23.3212 20.8424 23.8126 20.112 24.4313 19.4978C25.05 18.8836 25.7838 18.3977 26.5908 18.0678C27.3977 17.7378 28.2618 17.5705 29.1335 17.5754C32.7751 17.5491 35.7682 20.5863 35.7752 24.2125C35.7706 25.9709 35.0708 27.6562 33.8285 28.9006C32.5863 30.1449 30.9023 30.8475 29.144 30.8549ZM28.4273 24.0197C27.9244 24.4982 27.3758 24.9836 26.8781 25.5059C26.5574 25.8372 26.5609 26.2665 26.8186 26.5189C27.0762 26.7713 27.4845 26.7573 27.8315 26.4401C28.2188 26.0895 28.5517 25.6742 28.9565 25.3447C29.2733 25.1126 29.521 24.7986 29.6729 24.4364C29.8248 24.0742 29.8752 23.6775 29.8187 23.2889C29.7504 22.6562 29.8275 22.0077 29.7924 21.3698C29.7661 20.8755 29.498 20.6354 29.0915 20.6459C28.6849 20.6565 28.4728 20.9018 28.4308 21.4066C28.4133 21.6081 28.4308 21.8132 28.4308 22.0165L28.4273 24.0197ZM29.8012 29.3266C29.8187 28.7675 29.5436 28.3925 29.116 28.3942C28.6884 28.396 28.4466 28.7132 28.429 29.2355C28.4115 29.8191 28.6586 30.1556 29.109 30.1591C29.5261 30.1696 29.7854 29.8559 29.8012 29.3336V29.3266ZM29.8012 19.1807C29.8135 18.6322 29.5243 18.2414 29.1002 18.2431C28.7147 18.2431 28.4343 18.5936 28.4168 19.0966C28.3975 19.6908 28.6376 20.0097 29.1037 20.008C29.5418 20.0185 29.7924 19.7118 29.8047 19.1878L29.8012 19.1807ZM34.1683 24.8907C34.7308 24.8907 35.0935 24.6138 35.0725 24.1897C35.0532 23.7901 34.722 23.5325 34.1963 23.5237C33.6338 23.5237 33.285 23.7954 33.3043 24.2423C33.3271 24.6647 33.6303 24.8925 34.1718 24.8978L34.1683 24.8907ZM24.0497 24.8907C24.5754 24.8907 24.9014 24.6471 24.9259 24.244C24.9505 23.8024 24.593 23.5132 24.0339 23.5185C23.5082 23.5185 23.1805 23.7743 23.1577 24.1774C23.1367 24.6279 23.4802 24.9013 24.0532 24.8995L24.0497 24.8907Z" fill="#2595ED"/>
<path d="M35.3339 16.515C35.4566 16.3398 35.5092 16.1645 35.6266 16.1137C35.8439 16.012 36.1313 15.8771 36.3153 15.9489C36.4275 16.0048 36.5249 16.0862 36.5998 16.1867C36.6747 16.2872 36.7249 16.4038 36.7464 16.5273C36.7708 17.1094 36.7225 17.6922 36.6027 18.2624C36.5571 18.4622 36.1926 18.7163 35.9683 18.7233C35.3532 18.7163 34.739 18.6759 34.1283 18.6024C33.613 18.0468 33.9232 17.67 34.0915 17.2949C32.594 16.1783 30.7663 15.5944 28.8989 15.636C27.0315 15.6776 25.2316 16.3423 23.7854 17.5245C21.013 19.8134 19.9476 22.7823 20.8063 26.2753C21.6825 29.7928 24.0237 31.9187 27.5969 32.646C29.4668 33.0263 31.2438 32.7144 32.9471 31.8942C33.1048 31.8188 33.2503 31.7189 33.4115 31.6505C33.8268 31.4753 34.1703 31.5717 34.328 31.8749C34.4049 32.0331 34.4195 32.2145 34.3689 32.383C34.3182 32.5515 34.2061 32.6948 34.0547 32.7845C33.9075 32.8794 33.7541 32.9643 33.5955 33.0386C27.6916 36.0689 20.3927 32.4532 19.357 25.8985C18.4054 19.8783 22.5114 15.183 27.7126 14.4329C30.1952 14.0494 32.7293 14.654 34.7714 16.1172L35.3339 16.515Z" fill="#2595ED"/>
<path d="M38.3114 24.5732C38.8178 24.7047 38.9966 25.0289 38.9247 25.4986C38.872 25.9031 38.7924 26.3035 38.6864 26.6974C38.6688 26.7844 38.6331 26.8667 38.5818 26.9391C38.5305 27.0115 38.4646 27.0723 38.3883 27.1177C38.3121 27.1631 38.2271 27.192 38.1391 27.2027C38.051 27.2133 37.9616 27.2053 37.8768 27.1794C37.5385 27.0917 37.351 26.7745 37.4176 26.3574C37.472 26.0069 37.542 25.6704 37.6121 25.3286C37.6822 24.9869 37.8417 24.6574 38.3114 24.5732Z" fill="#2595ED"/>
<path d="M35.2881 30.2636C35.607 29.8464 35.9487 29.3873 36.3115 28.9316C36.3592 28.8659 36.4196 28.8106 36.4893 28.7689C36.5589 28.7272 36.6362 28.7001 36.7166 28.6891C36.797 28.6781 36.8788 28.6836 36.9571 28.7051C37.0353 28.7265 37.1084 28.7637 37.172 28.8142C37.2424 28.8548 37.3034 28.9098 37.3511 28.9757C37.3988 29.0415 37.432 29.1168 37.4485 29.1964C37.4651 29.276 37.4646 29.3582 37.4471 29.4376C37.4297 29.517 37.3956 29.5918 37.3472 29.6572C37.134 30.0047 36.8919 30.3336 36.6234 30.6404C36.0539 31.2783 35.6754 31.1872 35.2881 30.2636Z" fill="#2595ED"/>
<path d="M38.8087 22.1231C38.7754 22.5087 38.6334 22.7716 38.2549 22.8487C38.1773 22.8704 38.0961 22.876 38.0162 22.8652C37.9364 22.8544 37.8596 22.8274 37.7905 22.7859C37.7215 22.7444 37.6616 22.6892 37.6146 22.6238C37.5676 22.5584 37.5344 22.484 37.5171 22.4053C37.3717 21.9636 37.2245 21.529 37.1106 21.0716C37.0682 20.9296 37.0832 20.7766 37.1523 20.6455C37.2214 20.5145 37.3392 20.4157 37.4803 20.3705C37.8063 20.2426 38.1498 20.2934 38.3005 20.6457C38.5108 21.1224 38.6422 21.6271 38.8087 22.1231Z" fill="#2595ED"/>
</svg>
