<svg width="19" height="40" viewBox="0 0 19 40" fill="none" xmlns="http://www.w3.org/2000/svg">
<path d="M4.17288 5.33959V7.56684C3.99636 7.576 3.82318 7.54852 3.68163 7.60347C3.54009 7.65843 3.45349 7.79581 3.34191 7.89656C3.44433 8.00813 3.53758 8.20379 3.65082 8.21628C4.01717 8.25708 4.39104 8.23127 4.80735 8.23127V0.0291396L5.44931 0.575343L6.08543 0.00665729L6.71991 0.569509L7.37768 0.00832416L8.00799 0.578666L8.64661 0.0191486C8.8581 0.185672 9.06293 0.490416 9.27942 0.492914C9.4959 0.495412 9.71655 0.206492 9.96384 0.0233158L10.2519 0.280592C10.3543 0.371348 10.4551 0.463769 10.585 0.582833L11.2161 0L11.8689 0.577833L12.5109 0L13.1487 0.571175L13.7765 0.0274728V8.22545C14.1928 8.22545 14.5658 8.25042 14.9313 8.21046C15.0479 8.19797 15.1453 8.01396 15.2511 7.90821C15.132 7.80081 15.0279 7.65843 14.8897 7.59765C14.7748 7.54603 14.6191 7.58766 14.4442 7.58766V5.34708C15.0113 5.28463 15.4334 5.53691 15.6407 6.14556C15.7664 6.51607 15.9605 6.63264 16.3326 6.59767C16.6789 6.57505 17.0261 6.57283 17.3726 6.59102C18.092 6.606 18.6132 7.11557 18.5949 7.83994C18.5116 11.0297 18.4192 14.2186 18.331 17.4084C18.256 20.1405 18.1819 22.8723 18.1087 25.6039C18.0304 28.4348 17.9493 31.2637 17.8655 34.0908C17.843 34.8351 17.316 35.2964 16.51 35.2972C14.2069 35.2972 11.9033 35.2972 9.59914 35.2972H2.18871C1.18955 35.2972 0.746599 34.8484 0.719954 33.8618C0.56564 28.2594 0.407722 22.6569 0.246191 17.0545C0.160708 14.0016 0.0788364 10.9506 0.000568989 7.90156C-0.0194142 7.10224 0.488485 6.59933 1.28448 6.59267C1.61742 6.57737 1.95093 6.5796 2.28364 6.59934C2.64417 6.63431 2.82568 6.51608 2.94975 6.16055C3.15874 5.54607 3.52676 5.32044 4.17288 5.33959ZM9.2994 9.59343C7.06628 9.59343 4.83316 9.59343 2.60004 9.59343C2.04718 9.59343 1.98221 9.6667 1.9997 10.2262C2.00719 10.4619 2.02219 10.6975 2.02802 10.9331C2.11239 14.6755 2.19565 18.4186 2.27781 22.1626C2.28946 22.6814 2.33194 22.7197 2.87065 22.7205C4.56256 22.7205 6.25558 22.7205 7.94971 22.7205H15.7307C16.2535 22.7205 16.3052 22.6672 16.3218 22.1602C16.3293 21.9387 16.3485 21.7172 16.3535 21.4941C16.4378 17.7234 16.5211 13.9525 16.6033 10.1813C16.6149 9.66255 16.5433 9.59177 16.0004 9.59093C13.7656 9.59149 11.532 9.59232 9.2994 9.59343ZM9.29273 28.9202C9.764 28.9202 10.2344 28.9127 10.7082 28.9202C10.9838 28.926 11.1295 28.8103 11.132 28.5347C11.132 28.1059 11.1612 27.6729 11.1162 27.2491C11.1029 27.1184 10.8914 26.9094 10.7648 26.9061C9.79647 26.8769 8.82646 26.8903 7.85728 26.8886C7.5975 26.8886 7.47428 27.0227 7.47261 27.2724C7.46873 27.6882 7.46873 28.1045 7.47261 28.5214C7.47261 28.7895 7.60166 28.9269 7.88393 28.9219C8.35103 28.9152 8.8223 28.921 9.29523 28.9202H9.29273ZM9.33853 30.4689C8.86726 30.4689 8.39599 30.4764 7.92306 30.4689C7.61165 30.4614 7.45845 30.5854 7.46428 30.9068C7.47177 31.2948 7.46428 31.6828 7.46428 32.0725C7.46428 32.3597 7.58585 32.5071 7.88893 32.5046C8.83258 32.4985 9.77623 32.4985 10.7199 32.5046C11.0288 32.5046 11.1362 32.3497 11.1362 32.0658C11.1362 31.6778 11.1304 31.2898 11.1362 30.9002C11.1404 30.6071 11.0163 30.4655 10.7132 30.4714C10.2536 30.4755 9.79482 30.4689 9.33853 30.4689ZM14.3984 28.921C14.8422 28.921 15.286 28.9094 15.7307 28.921C16.0346 28.9318 16.1628 28.7945 16.1695 28.5047C16.1794 28.1026 16.1953 27.7004 16.2036 27.2991C16.2086 27.0318 16.0878 26.8828 15.8039 26.8828C14.888 26.8828 13.9721 26.8878 13.0562 26.8828C12.7773 26.8828 12.6399 27.0043 12.6399 27.2774C12.6399 27.6796 12.6399 28.0817 12.6399 28.4839C12.6399 28.7995 12.7965 28.9269 13.1104 28.916C13.5417 28.9094 13.968 28.921 14.3984 28.921ZM4.22949 26.8919C3.77238 26.8919 3.3136 26.9036 2.85815 26.8919C2.51094 26.8803 2.38106 27.0468 2.39439 27.3699C2.40937 27.757 2.42686 28.145 2.43602 28.5355C2.44268 28.8128 2.57507 28.9277 2.85233 28.9252C3.73909 28.9194 4.62667 28.9169 5.51676 28.9293C5.84981 28.9343 5.96304 28.7703 5.96387 28.4739C5.96387 28.1001 5.96387 27.7246 5.96387 27.3515C5.96387 27.0185 5.81482 26.8786 5.47844 26.8919C5.06212 26.9044 4.64581 26.8919 4.22949 26.8919ZM4.22949 30.4672C3.78736 30.4672 3.34441 30.4739 2.90228 30.4672C2.60919 30.4614 2.46016 30.5829 2.47098 30.8835C2.48514 31.284 2.49929 31.6845 2.50928 32.085C2.51677 32.3722 2.64333 32.5013 2.94558 32.5013C3.80319 32.4896 4.65998 32.4913 5.51676 32.5013C5.81817 32.5013 5.95387 32.3656 5.9572 32.085C5.9622 31.6845 5.9572 31.2832 5.9572 30.8827C5.9572 30.5913 5.81234 30.4605 5.51676 30.4664C5.09045 30.4755 4.66163 30.4672 4.23283 30.4672H4.22949ZM14.3218 32.4963C14.779 32.4963 15.2377 32.4963 15.6949 32.4963C15.9338 32.4963 16.0629 32.3955 16.0729 32.1574C16.0912 31.7145 16.1103 31.2707 16.1178 30.8252C16.122 30.5621 15.9655 30.4622 15.7165 30.463C14.8281 30.463 13.9405 30.463 13.0521 30.463C12.7748 30.463 12.6358 30.5929 12.6358 30.8635C12.6316 31.2657 12.6358 31.6678 12.6358 32.07C12.6358 32.3572 12.7707 32.5021 13.0721 32.4946C13.4925 32.4888 13.9088 32.4963 14.3252 32.4963H14.3218ZM9.31272 24.3208C8.84228 24.3208 8.37268 24.3275 7.90224 24.3208C7.54921 24.315 7.46011 24.5081 7.45844 24.8204C7.45678 25.1326 7.52671 25.3566 7.91139 25.3524C8.83728 25.3408 9.76401 25.3374 10.6899 25.3474C11.0862 25.3524 11.1345 25.1259 11.1337 24.8112C11.1329 24.4965 11.0338 24.3116 10.6816 24.3191C10.2286 24.3308 9.77233 24.3225 9.31605 24.3208H9.31272ZM4.14539 25.3482C4.61583 25.3482 5.0871 25.3482 5.56087 25.3482C5.91141 25.3482 5.96304 25.1259 5.96304 24.8487C5.96304 24.5714 5.9289 24.3158 5.54672 24.3183C4.61917 24.3233 3.69079 24.325 2.76324 24.3183C2.38272 24.3183 2.34692 24.5489 2.34692 24.8412C2.34692 25.1334 2.39354 25.3632 2.77072 25.3524C3.23366 25.3383 3.69161 25.3524 4.14873 25.3524L4.14539 25.3482ZM14.4526 24.3208H13.0421C12.709 24.3208 12.6258 24.5273 12.6333 24.8204C12.6408 25.1135 12.6682 25.3532 13.0446 25.3516C13.9721 25.3516 14.8988 25.3408 15.8264 25.3516C16.2427 25.3566 16.2361 25.0835 16.2427 24.7929C16.2494 24.5023 16.1595 24.3141 15.8264 24.3225C15.3734 24.3291 14.913 24.3216 14.4576 24.3208H14.4526ZM12.0471 3.01658H6.54755V3.58026H12.0479L12.0471 3.01658ZM8.92638 4.76508H6.55005V5.32459H8.92638V4.76508ZM10.3818 4.77008H9.73487V5.33792H10.3818V4.77008Z" fill="#FF7F27"/>
<path d="M3.51803 35.9277H15.0974V36.5838C15.0974 37.3748 15.1024 38.1658 15.0933 38.956C15.085 39.6787 14.7677 39.9959 14.0458 39.9967C10.8685 40.0006 7.69146 40.0006 4.51469 39.9967C3.93185 39.9967 3.54967 39.732 3.52968 39.2041C3.48972 38.1292 3.51803 37.0493 3.51803 35.9277Z" fill="#FF7F27"/>
<path d="M9.30271 13.7462C11.4109 13.7545 13.0554 15.4206 13.0496 17.5371C13.0384 18.5244 12.6379 19.4674 11.9352 20.1611C11.2324 20.8548 10.2843 21.243 9.29687 21.2414C7.19864 21.2364 5.54587 19.5579 5.55669 17.4438C5.5633 16.4568 5.96161 15.5128 6.66408 14.8194C7.36655 14.126 8.31567 13.74 9.30271 13.7462ZM9.28356 14.9202C8.6041 14.9304 7.95563 15.2062 7.47707 15.6887C6.99852 16.1711 6.72792 16.8218 6.72321 17.5013C6.73237 18.8942 7.93218 20.0824 9.31352 20.0591C10.729 20.0383 11.8947 18.8609 11.8739 17.4713C11.8564 16.0708 10.6782 14.9085 9.28356 14.9202Z" fill="#FF7F27"/>
<path d="M5.8252 12.2262V11.1172H10.0233V12.2262H5.8252Z" fill="#FF7F27"/>
<path d="M11.2769 12.2279V11.1172H12.7639V12.2304L11.2769 12.2279Z" fill="#FF7F27"/>
<path d="M8.76777 19.2526L7.49219 18.0037L8.31649 17.201C8.44305 17.3109 8.60375 17.4508 8.84021 17.6581L10.2857 16.0762C10.5862 16.4092 10.8327 16.6815 11.065 16.9404L8.76777 19.2526Z" fill="#FF7F27"/>
</svg>
