<svg width="38" height="40" viewBox="0 0 38 40" fill="none" xmlns="http://www.w3.org/2000/svg">
<path d="M0.0844727 13.5761V3.67831L3.56307 7.04883C9.84699 0.553348 17.2255 -1.68241 25.8955 1.30492C31.9106 3.37975 35.6856 7.684 37.9849 13.6819C35.8423 13.6819 33.8203 13.7031 31.8005 13.6523C31.557 13.6523 31.2415 13.2839 31.0997 13.0171C28.6564 8.3911 24.8348 5.60702 19.6942 4.86601C14.5536 4.125 10.0227 5.62608 6.27312 9.58096L10.4737 13.5782L0.0844727 13.5761Z" fill="#2595ED"/>
<path d="M31.6673 30.3389L27.6806 26.4137H37.8814V36.3475L34.4218 32.9431C28.1633 39.4428 20.7996 41.6594 12.1677 38.7272C6.10819 36.6714 2.29719 32.346 0 26.3184C2.1511 26.3184 4.1794 26.2909 6.20558 26.3544C6.46388 26.3544 6.7857 26.7948 6.94873 27.0997C10.7597 34.2134 19.091 37.2198 26.4992 34.1456C28.5105 33.3093 30.4563 31.8972 31.6673 30.3389Z" fill="#2595ED"/>
<path d="M19.4566 28.342C19.4566 25.757 19.4418 23.3646 19.4778 20.9743C19.4914 20.81 19.54 20.6506 19.6203 20.5067C19.7007 20.3628 19.8109 20.2378 19.9436 20.1401C21.9888 18.9164 24.0637 17.7392 26.3376 16.4287C26.3376 17.9256 26.3376 19.2382 26.3376 20.5508C26.3249 21.8211 26.7018 23.3031 26.1513 24.277C25.6008 25.2509 24.1209 25.6723 23.0326 26.3117C21.8936 26.9786 20.7376 27.6159 19.4566 28.342Z" fill="#2595ED"/>
<path d="M11.6386 16.4307C13.9252 17.7497 15.998 18.9289 18.0495 20.1484C18.173 20.2321 18.277 20.3415 18.3544 20.469C18.4319 20.5964 18.481 20.7391 18.4984 20.8873C18.5323 23.3093 18.5175 25.7335 18.5175 28.3651C16.2181 27.0377 14.0713 25.8055 11.9265 24.5436C11.8381 24.4633 11.7677 24.3652 11.7199 24.2557C11.6721 24.1463 11.648 24.0279 11.6492 23.9085C11.6301 21.4928 11.6386 19.0644 11.6386 16.4307Z" fill="#2595ED"/>
<path d="M16.0708 17.9245C18.3426 16.6076 20.4894 15.3521 22.6532 14.1136C22.7602 14.0681 22.8756 14.0462 22.9917 14.0491C23.1079 14.052 23.222 14.0798 23.3265 14.1305C24.1586 14.5773 24.9631 15.0727 25.8989 15.6126C23.6272 16.9252 21.4803 18.1744 19.3165 19.3981C19.2097 19.4446 19.0941 19.4676 18.9777 19.4658C18.8612 19.464 18.7464 19.4373 18.6411 19.3875C17.8154 18.9662 17.0151 18.4771 16.0708 17.9245Z" fill="#2595ED"/>
<path d="M12.2046 15.5456C14.3218 14.3409 16.439 13.1066 18.6092 11.9464C18.8802 11.8003 19.382 11.9718 19.7334 12.1115C20.2638 12.3638 20.7792 12.6466 21.2769 12.9584L16.7672 15.5646C16.607 15.6366 16.4545 15.7245 16.312 15.8272C14.9168 17.0467 13.5702 17.0001 12.2046 15.5456Z" fill="#2595ED"/>
</svg>
