<svg width="40" height="40" viewBox="0 0 40 40" fill="none" xmlns="http://www.w3.org/2000/svg">
<path d="M3.33171 36.6663V33.333H9.08171C8.30393 32.6108 7.48448 31.7913 6.62337 30.8747C5.76226 29.958 4.97059 28.9719 4.24837 27.9163C3.52615 26.8608 2.91504 25.7775 2.41504 24.6663C1.91504 23.5552 1.66504 22.4163 1.66504 21.2497C1.66504 18.5275 2.55393 16.2497 4.33171 14.4163C6.10948 12.583 8.33171 11.6663 10.9984 11.6663C13.665 11.6663 15.8873 12.583 17.665 14.4163C19.4428 16.2497 20.3317 18.5275 20.3317 21.2497C20.3317 22.4163 20.0817 23.5552 19.5817 24.6663C19.0817 25.7775 18.4706 26.8608 17.7484 27.9163C17.0262 28.9719 16.2345 29.958 15.3734 30.8747C14.5123 31.7913 13.6928 32.6108 12.915 33.333H36.665V36.6663H3.33171ZM10.9984 23.333C11.6928 23.333 12.2834 23.0902 12.77 22.6047C13.2567 22.1191 13.4995 21.5286 13.4984 20.833C13.4973 20.1375 13.2545 19.5475 12.77 19.063C12.2856 18.5786 11.695 18.3352 10.9984 18.333C10.3017 18.3308 9.71171 18.5741 9.22837 19.063C8.74504 19.5519 8.50171 20.1419 8.49837 20.833C8.49504 21.5241 8.73837 22.1147 9.22837 22.6047C9.71837 23.0947 10.3084 23.3375 10.9984 23.333ZM24.9984 29.9997L22.5817 26.1247C22.915 25.3191 23.1789 24.5063 23.3734 23.6863C23.5678 22.8663 23.665 22.0541 23.665 21.2497C23.665 20.6108 23.6234 19.9719 23.54 19.333C23.4567 18.6941 23.3317 18.083 23.165 17.4997L25.165 16.2913L28.54 18.333L27.665 14.4997L30.665 11.8747L26.7067 11.5413L25.165 7.91634L23.6234 11.5413L19.8317 11.8747C18.9428 11.0136 17.9567 10.298 16.8734 9.72801C15.79 9.15801 14.6095 8.76245 13.3317 8.54134V6.66634C13.3317 5.74967 13.6584 4.96523 14.3117 4.31301C14.965 3.66079 15.7495 3.33412 16.665 3.33301H33.3317C34.2484 3.33301 35.0334 3.65967 35.6867 4.31301C36.34 4.96634 36.6662 5.75079 36.665 6.66634V21.6663C36.665 22.583 36.3389 23.368 35.6867 24.0213C35.0345 24.6747 34.2495 25.0008 33.3317 24.9997H28.1234L24.9984 29.9997Z" fill="#FF7F27"/>
</svg>
