<svg width="40" height="40" viewBox="0 0 40 40" fill="none" xmlns="http://www.w3.org/2000/svg">
<path d="M8.22961 35.215L9.03865 33.9731C9.46542 34.1471 9.96904 34.226 10.2886 34.5112C10.9763 35.118 11.5608 34.9157 12.2627 34.5618C17.5093 31.9931 22.7802 29.4547 28.1219 26.8597C27.2461 25.9131 26.9589 24.8795 27.6021 23.664L11.3383 15.2722C8.46827 17.048 5.51123 17.1917 2.46317 16.146C1.24961 15.7253 0.12505 15.0335 0.116959 13.5631C0.116959 12.1958 1.16062 11.5405 2.27103 11.0288C2.45104 10.9459 2.64116 10.8791 2.92433 10.7679L3.77382 12.03C3.28435 12.2545 2.83129 12.388 2.47127 12.6509C2.14563 12.8896 1.71481 13.2719 1.71684 13.5894C1.71886 13.907 2.15169 14.3196 2.49756 14.4895C4.02058 15.2399 5.6609 15.3916 7.31944 15.1549C8.08514 15.0489 8.83333 14.8414 9.5443 14.538C9.92657 14.3722 10.3533 13.9434 10.4302 13.5692C10.4787 13.3123 9.98118 12.8876 9.64947 12.6448C9.31776 12.4021 8.86672 12.2767 8.36714 12.0543L9.19439 10.7598C10.5293 11.3301 11.8379 11.8196 12.0119 13.5489C12.0341 13.7755 12.3132 14.0506 12.5438 14.1699C17.7931 16.8964 23.0519 19.608 28.3201 22.3048C28.5749 22.4342 28.9673 22.598 29.1574 22.4949C30.2476 21.9043 30.4681 22.7619 30.8645 23.4375C30.3892 23.666 29.922 23.8521 29.4912 24.1049C28.5486 24.6611 28.5163 25.3609 29.477 25.812C30.642 26.3848 31.9237 26.6805 33.2219 26.6759C34.5201 26.6714 35.7997 26.3667 36.9606 25.7857C37.8486 25.3629 37.8506 24.7238 37.0314 24.1939C36.5388 23.9119 36.0295 23.6599 35.5064 23.4395C36.3154 22.0237 36.4226 21.9994 37.6867 22.7821C39.1187 23.6701 39.6102 25.0757 38.7162 26.1558C38.1902 26.7608 37.5263 27.2305 36.7806 27.5251C34.8288 28.3038 32.8001 28.3645 30.7371 27.9134C30.2267 27.7986 29.6933 27.8446 29.21 28.0449C23.6951 30.6838 18.195 33.3556 12.7097 36.0605C12.3375 36.2445 12.1211 36.7442 11.8379 37.1021C11.3545 37.7089 11.0006 38.5665 10.3736 38.8881C7.47518 40.3747 4.48173 40.3484 1.54694 38.9447C0.303038 38.3501 -0.164182 37.3691 0.0502131 36.2546C0.201908 35.4598 1.66829 34.0298 2.50565 34.1127C2.93039 34.1512 3.31469 34.7195 3.80416 35.124C3.24282 35.3623 2.69399 35.6289 2.15978 35.923C1.25771 36.4933 1.2658 37.2437 2.29732 37.6158C3.4843 38.0716 4.73519 38.3391 6.00475 38.4087C7.11313 38.4391 8.25388 38.077 9.33597 37.7473C9.56104 37.6624 9.7637 37.5271 9.92847 37.3519C10.0932 37.1766 10.2157 36.9659 10.2866 36.736C10.3392 36.467 9.7951 36.0241 9.44114 35.7611C9.08719 35.4982 8.66446 35.4092 8.22961 35.215Z" fill="#FF7F27"/>
<path d="M5.90306 37.4679C4.40229 34.7738 2.91972 32.2981 1.62526 29.7254C0.700933 27.8868 1.09939 26.0665 2.53543 24.6143C3.97148 23.162 5.72102 22.7777 7.64452 23.5079C9.56801 24.2381 10.6258 25.7429 10.6784 27.7554C10.7047 28.706 10.3285 29.7537 9.86938 30.6153C8.66998 32.8584 7.32495 35.0347 5.90306 37.4679ZM5.92126 30.0005C6.26653 30.0118 6.61049 29.9527 6.93221 29.8269C7.25393 29.7011 7.54669 29.5111 7.79266 29.2685C8.03863 29.0259 8.23267 28.7358 8.36298 28.4159C8.49329 28.096 8.55714 27.7529 8.55064 27.4075C8.54269 26.7094 8.26062 26.0425 7.7653 25.5506C7.26999 25.0587 6.60113 24.7812 5.90306 24.7781C4.57219 24.7902 3.34043 26.0281 3.31211 27.3832C3.30916 27.7271 3.37457 28.068 3.50454 28.3864C3.63452 28.7047 3.82647 28.9941 4.06923 29.2376C4.312 29.4811 4.60074 29.674 4.91868 29.8049C5.23662 29.9359 5.57741 30.0024 5.92126 30.0005Z" fill="#FF7F27"/>
<path d="M6.05985 14.2121C4.70875 11.9064 3.43047 9.78066 2.21691 7.61648C1.43012 6.21481 0.950765 4.75247 1.59193 3.10809C2.04206 1.91704 2.94629 0.953171 4.10622 0.428C5.26614 -0.0971709 6.58703 -0.140773 7.77906 0.306773C10.2325 1.2311 11.5371 3.94748 10.4428 6.40494C9.5185 8.4781 8.25437 10.3995 7.13587 12.3837C6.80417 12.9622 6.46033 13.5305 6.05985 14.2121ZM6.04974 1.67203C5.71337 1.66393 5.37879 1.72326 5.06573 1.84654C4.75266 1.96981 4.46745 2.1545 4.22691 2.38976C3.98637 2.62502 3.79538 2.90608 3.66519 3.21633C3.53501 3.52659 3.46826 3.85977 3.4689 4.19623C3.4526 4.89227 3.71302 5.56639 4.19305 6.07069C4.67308 6.57498 5.33351 6.86828 6.02951 6.88629C7.41499 6.90652 8.69328 5.65453 8.70339 4.25692C8.69996 3.91253 8.6285 3.57221 8.49311 3.25554C8.35771 2.93887 8.16106 2.65209 7.91445 2.41169C7.66784 2.17128 7.37614 1.98202 7.05613 1.85473C6.73611 1.72745 6.3941 1.66465 6.04974 1.67V1.67203Z" fill="#FF7F27"/>
<path d="M33.1407 25.665C31.646 22.9952 30.0886 20.5498 28.869 17.9488C27.5462 15.1171 29.2532 12.1196 32.3074 11.4765C35.7276 10.7463 38.7959 14.124 37.7138 17.4492C37.5088 18.0898 37.2377 18.7074 36.9047 19.2918C35.7013 21.371 34.4594 23.4361 33.1407 25.665ZM33.2499 18.2643C33.9272 18.2294 34.5668 17.9423 35.043 17.4594C35.5191 16.9765 35.7973 16.3329 35.8227 15.6552C35.8328 14.2636 34.5525 12.9914 33.167 13.0258C32.4703 13.037 31.8066 13.3242 31.3215 13.8244C30.8365 14.3246 30.5698 14.9969 30.5801 15.6936C30.5861 16.0378 30.66 16.3775 30.7976 16.6931C30.9351 17.0088 31.1336 17.2941 31.3816 17.5329C31.6296 17.7717 31.9223 17.9593 32.2429 18.0848C32.5635 18.2103 32.9057 18.2713 33.2499 18.2643Z" fill="#FF7F27"/>
</svg>
