<svg width="41" height="40" viewBox="0 0 41 40" fill="none" xmlns="http://www.w3.org/2000/svg">
<path d="M33.7539 10.502H40.2678V39.7639H33.7539V10.502Z" fill="#2595ED"/>
<path d="M29.4432 14.7021V39.7551H22.8291V14.7021H29.4432ZM26.9519 24.0219C27.3918 24.3576 27.5712 24.8065 27.5221 25.3597C27.7696 24.9438 27.6834 24.558 27.3968 24.2283C27.2966 24.1171 27.0962 24.097 26.9418 24.0359C26.8988 23.9547 26.8757 23.8355 26.8076 23.7994C26.4358 23.5829 25.8114 23.7814 25.4777 24.2053C25.1771 24.5871 25.1971 25.3236 25.5178 25.7004C25.7844 26.0131 26.4638 26.1243 26.8005 25.8397C26.992 25.6784 27.1844 25.3777 27.1723 25.1503C27.156 25.0099 27.1099 24.8747 27.0369 24.7537C26.964 24.6327 26.8659 24.5287 26.7494 24.4488C26.5901 24.3576 26.2243 24.4808 26.0369 24.6241C25.9911 24.6599 25.9532 24.7049 25.9257 24.7561C25.8982 24.8073 25.8816 24.8637 25.8771 24.9217C25.8726 24.9797 25.8802 25.038 25.8994 25.0928C25.9186 25.1477 25.9491 25.198 25.9888 25.2404C26.1231 25.014 26.2033 24.7885 26.3606 24.6492C26.4358 24.582 26.7394 24.6251 26.7945 24.7113C26.9078 24.8887 27.023 25.1733 26.9519 25.3306C26.8948 25.441 26.8156 25.5383 26.7193 25.6166C26.6229 25.6949 26.5113 25.7524 26.3917 25.7856C25.9317 25.8858 25.617 25.5772 25.5589 25.0841C25.4928 24.5279 25.8235 24.066 26.3526 24.0058C26.5525 23.9968 26.7528 24.0021 26.9519 24.0219ZM27.5301 27.0583C27.4219 27.7658 27.2715 28.4753 27.6153 29.1517C27.2936 28.4612 27.499 27.7518 27.5301 27.0533V27.0583Z" fill="#2595ED"/>
<path d="M18.1522 19.3145V39.7577H11.5942V19.3145H18.1522Z" fill="#2595ED"/>
<path d="M6.98916 25.413C7.26274 25.42 7.41005 25.5202 7.39703 25.8349C7.36095 26.6997 7.34491 27.5665 7.33389 28.4324C7.33389 28.6779 7.38901 28.9244 7.38901 29.1699C7.39436 32.525 7.39436 35.8795 7.38901 39.2332C7.38901 39.3966 7.37298 39.5589 7.36296 39.7463H0.772949V22.4848C0.905779 22.4645 1.03958 22.4511 1.1738 22.4447C3.04378 22.4447 4.91275 22.4567 6.78573 22.4357C7.23969 22.4307 7.42108 22.577 7.40504 23.0319C7.384 23.6152 7.37899 24.2004 7.40504 24.7837C7.42308 25.1214 7.31786 25.3258 7.00419 25.424C7.00419 26.2357 7.00419 27.0458 7.00419 27.8541H6.99718L6.98916 25.413Z" fill="#2595ED"/>
<path d="M25.0071 5.22168L25.3247 5.7007C24.6102 6.11557 24.048 6.65272 23.9318 7.49049C23.8792 7.89929 23.8832 8.3134 23.9438 8.7211C23.9899 9.04579 23.9639 9.20511 23.6221 9.35542C17.9668 11.8387 12.3174 14.3326 6.6741 16.8373C5.28916 17.4492 3.90622 18.0659 2.52529 18.6872C1.69853 19.056 1.01608 18.9828 0.492964 18.4637C-0.324774 17.652 -0.100297 16.3472 0.982004 15.8431C2.43008 15.1687 3.8972 14.5404 5.35931 13.89C10.8704 11.4535 16.3821 9.01872 21.8945 6.58558C22.9126 6.13663 23.9338 5.69167 25.0071 5.22168Z" fill="#2595ED"/>
<path d="M28.3238 9.06088C28.3238 8.00965 28.3408 7.04261 28.3047 6.07857C28.2997 5.92825 28.0722 5.74686 27.9039 5.64665C27.014 5.1035 26.3786 4.41404 26.4007 3.29066C26.4187 2.23142 26.9919 1.40868 28.0361 1.01184C28.2736 0.921653 28.424 0.837477 28.437 0.537843C28.448 0.19111 28.6945 0.0127461 29.0383 0.000720647C29.382 -0.0113048 29.6907 0.125986 29.7177 0.501781C29.7438 0.855529 29.9472 0.947707 30.2188 1.06095C31.0706 1.41069 31.6899 1.96989 31.7631 2.95898C31.7971 3.40292 31.6067 3.70254 31.1618 3.79774C30.7168 3.89294 30.4984 3.64141 30.3541 3.24758C30.2478 2.95797 30.0745 2.6924 29.9312 2.41481L29.6816 2.47094C29.6816 3.19547 29.6716 3.91999 29.6927 4.64353C29.6927 4.73472 29.844 4.84396 29.9472 4.9081C30.2839 5.12155 30.6487 5.29992 30.9744 5.5254C31.9565 6.19581 32.3583 7.14482 32.1409 8.30026C31.9234 9.4557 31.1688 10.1792 30.0504 10.4879C29.7197 10.5791 29.5684 10.6883 29.5644 11.0411C29.5644 11.4149 29.3038 11.5421 28.9501 11.5331C28.5963 11.5241 28.2837 11.4249 28.3027 11.018C28.3218 10.6112 28.1263 10.517 27.8016 10.4167C26.9999 10.1602 26.3125 9.72528 25.9166 8.95565C25.7889 8.67015 25.7096 8.36533 25.6821 8.05374C25.624 7.63385 25.8766 7.37531 26.2564 7.30315C26.6572 7.22699 26.9899 7.40338 27.1142 7.81324C27.2986 8.39347 27.6243 8.81035 28.3238 9.06088ZM29.6857 9.03181C30.3691 8.83941 30.7068 8.43857 30.7209 7.81826C30.7349 7.19795 30.4403 6.83717 29.6857 6.57461V9.03181ZM28.3829 2.4018C27.9169 2.7365 27.7505 3.08724 27.8758 3.55223C27.9319 3.76267 28.1183 3.93704 28.2456 4.12744L28.3829 4.04827V2.4018Z" fill="#2595ED"/>
<path d="M26.9499 24.02C26.7503 23.997 26.5493 23.9897 26.3486 23.998C25.8195 24.0581 25.4888 24.5201 25.5549 25.0763C25.613 25.5703 25.9277 25.8779 26.3877 25.7777C26.5074 25.7446 26.6189 25.687 26.7153 25.6087C26.8117 25.5304 26.8909 25.4331 26.9479 25.3228C27.019 25.1654 26.9038 24.8808 26.7906 24.7035C26.7354 24.6173 26.4318 24.5742 26.3566 24.6413C26.1993 24.7806 26.1191 25.0061 25.9848 25.2326C25.9451 25.1901 25.9147 25.1398 25.8954 25.085C25.8762 25.0301 25.8686 24.9718 25.8731 24.9138C25.8777 24.8559 25.8942 24.7995 25.9217 24.7482C25.9492 24.697 25.9871 24.6521 26.0329 24.6163C26.2203 24.473 26.5861 24.3497 26.7454 24.4409C26.862 24.5208 26.96 24.6248 27.0329 24.7458C27.1059 24.8668 27.1521 25.002 27.1684 25.1424C27.1804 25.3699 26.988 25.6705 26.7966 25.8319C26.4598 26.1165 25.7804 26.0052 25.5138 25.6925C25.1932 25.3158 25.1731 24.5792 25.4738 24.1974C25.8075 23.7735 26.4318 23.5751 26.8036 23.7915C26.8717 23.8306 26.8948 23.9469 26.9379 24.028L26.9499 24.02Z" fill="#2595ED"/>
<path d="M26.9453 24.0287C27.1006 24.0898 27.3041 24.1098 27.4003 24.2211C27.6869 24.5518 27.7731 24.9366 27.5255 25.3525C27.5746 24.7993 27.3953 24.3503 26.9543 24.0156L26.9453 24.0287Z" fill="#2595ED"/>
<path d="M27.5316 27.0508C27.5005 27.7523 27.2951 28.4587 27.6167 29.1442C27.273 28.4678 27.4233 27.7583 27.5316 27.0508Z" fill="#2595ED"/>
<path d="M6.98779 25.4131V27.8533H6.99481C6.99481 27.0435 6.99481 26.2335 6.99481 25.4231L6.98779 25.4131Z" fill="#2595ED"/>
<path d="M7.36496 22.4854H0.772949V39.7469H7.36496V22.4854Z" fill="#2595ED"/>
<path d="M29.4343 14.6953H22.8423V39.9998H29.4343V14.6953Z" fill="#2595ED"/>
</svg>
