<svg width="40" height="40" viewBox="0 0 40 40" fill="none" xmlns="http://www.w3.org/2000/svg">
<path d="M5.9712 3.89743C5.9712 5.4639 5.9712 6.91442 5.9712 8.36275C5.98651 10.3843 7.49175 11.9398 9.44327 11.9704C11.3948 12.0011 12.9634 10.4127 12.9809 8.33649C12.9941 6.91661 12.9809 5.49234 12.9809 3.98713H26.7291C26.7291 5.45078 26.7291 6.89909 26.7291 8.34523C26.7466 10.4171 28.3153 12.012 30.2777 11.9704C32.2402 11.9289 33.7214 10.3799 33.7411 8.35399C33.7542 6.96911 33.7542 5.58422 33.7651 4.19715C33.7651 4.13371 33.8176 4.07026 33.881 3.92368C34.7452 3.92368 35.6598 3.82522 36.5437 3.94336C38.4011 4.19058 39.6568 5.80081 39.659 7.82453C39.659 17.1927 39.659 26.5602 39.659 35.9269C39.659 38.4626 38.1472 39.9744 35.5722 39.9787C28.2795 39.989 20.9868 39.989 13.6941 39.9787C10.5962 39.9787 7.49606 39.9197 4.40031 39.9984C2.06155 40.0597 -0.0343402 38.7492 0.000664706 35.6731C0.103492 26.5981 0.116618 17.5143 0.000664706 8.4437C-0.0409036 5.3567 1.87124 3.5955 4.59506 3.88429C4.9998 3.93898 5.40456 3.89743 5.9712 3.89743ZM3.18826 13.5566V14.7446C3.18826 21.6362 3.18826 28.527 3.18826 35.4172C3.18826 36.8633 3.21024 36.8852 4.65638 36.8852H35.0669C36.513 36.8852 36.5349 36.8633 36.5349 35.4172C36.5349 28.527 36.5349 21.6369 36.5349 14.7468V13.5566H3.18826Z" fill="#2595ED"/>
<path d="M11.6602 5.42948C11.6602 6.44681 11.6842 7.46633 11.6602 8.49241C11.6208 9.80509 10.785 10.6605 9.57736 10.7043C9.29374 10.7211 9.00962 10.6805 8.74209 10.5848C8.47455 10.4891 8.22909 10.3404 8.02047 10.1475C7.81185 9.95464 7.64443 9.72157 7.52811 9.46234C7.41179 9.20311 7.34902 8.92308 7.34362 8.639C7.26632 6.45995 7.26632 4.27796 7.34362 2.09307C7.36359 1.52046 7.61006 0.979195 8.02891 0.588236C8.44777 0.197276 9.00473 -0.0113979 9.57736 0.00808762C10.144 0.0568033 10.6718 0.316166 11.0566 0.734962C11.4414 1.15376 11.6551 1.70158 11.6558 2.2703C11.6864 3.3117 11.6602 4.36839 11.6602 5.42948Z" fill="#2595ED"/>
<path d="M32.2788 5.42852C32.2788 6.45023 32.2963 7.46975 32.2788 8.49145C32.2547 9.78663 31.4037 10.6793 30.2091 10.6989C29.925 10.7075 29.6421 10.6585 29.3775 10.5548C29.1129 10.4511 28.872 10.2949 28.6694 10.0955C28.4668 9.8962 28.3067 9.65789 28.1987 9.39499C28.0907 9.13209 28.037 8.85002 28.041 8.56583C27.9928 6.37802 27.9928 4.19021 28.041 2.00241C28.0519 1.46542 28.2738 0.954328 28.6587 0.579692C29.0435 0.205057 29.5604 -0.00300207 30.0975 0.000559162C31.1914 -0.0256945 32.1541 0.875697 32.2569 2.03961C32.2569 2.11181 32.27 2.18401 32.27 2.25839V5.42852H32.2788Z" fill="#2595ED"/>
<path d="M29.6506 23.1666C28.8871 23.1666 28.0994 23.2804 27.3731 23.1206C26.9749 23.0331 26.4498 22.519 26.3863 22.1296C26.2376 21.2544 26.3229 20.3225 26.347 19.4145C26.3667 18.6335 26.8086 18.1981 27.5787 18.1828C28.957 18.1565 30.3361 18.1565 31.7159 18.1828C32.4707 18.1959 32.9475 18.5525 32.9366 19.3883C32.9235 20.2634 32.9366 21.1385 32.9366 22.0136C32.9366 22.8166 32.5407 23.2082 31.7224 23.1863C31.0333 23.1666 30.3441 23.1863 29.6549 23.1863L29.6506 23.1666Z" fill="#2595ED"/>
<path d="M9.99827 23.171C6.39496 23.171 6.81061 23.5298 6.79967 19.9549C6.79967 18.4016 7.01846 18.1784 8.54992 18.1719C9.67883 18.1719 10.8077 18.1719 11.9366 18.1719C12.9299 18.1719 13.4178 18.6422 13.3981 19.6421C13.385 20.3356 13.3981 21.027 13.3981 21.7183C13.4113 22.6919 13.013 23.2323 11.9651 23.1798C11.3109 23.1491 10.6546 23.171 9.99827 23.171Z" fill="#2595ED"/>
<path d="M19.7894 23.171C19.1331 23.171 18.4768 23.1535 17.8204 23.171C16.9628 23.1995 16.5078 22.7904 16.4968 21.9502C16.4859 21.1101 16.4837 20.2766 16.4968 19.4386C16.4968 18.6467 16.9344 18.2025 17.7089 18.1828C19.0916 18.1478 20.4765 18.1522 21.8657 18.1828C22.6905 18.1982 23.1302 18.6204 23.0887 19.4955C23.0493 20.2941 23.0559 21.097 23.0887 21.9021C23.1237 22.8429 22.6752 23.2148 21.7651 23.1842C21.1 23.1492 20.4436 23.171 19.7894 23.171Z" fill="#2595ED"/>
<path d="M10.0305 31.9564C9.30192 31.9564 8.57557 31.9564 7.84265 31.9564C7.10974 31.9564 6.77729 31.5932 6.79041 30.8625C6.80354 29.9545 6.79041 29.0444 6.79041 28.1365C6.79041 27.432 7.15571 27.0579 7.86893 27.0557C9.32164 27.0557 10.7765 27.0557 12.2314 27.0557C12.9556 27.0557 13.2772 27.4495 13.3712 28.108C13.3789 28.2165 13.3789 28.3255 13.3712 28.434C13.4106 32.4311 13.6775 31.9454 10.0305 31.9564Z" fill="#2595ED"/>
<path d="M29.5507 31.961C25.9452 31.961 26.35 32.3001 26.3412 28.7558C26.3412 27.2681 26.5601 27.0559 28.0434 27.0493C29.2445 27.0493 30.4499 27.0668 31.6467 27.0493C32.5787 27.0318 32.9703 27.4672 32.9418 28.3773C32.9178 29.2131 32.9419 30.051 32.9309 30.8889C32.9309 31.5978 32.5503 31.9588 31.837 31.9654C31.08 31.9654 30.3143 31.961 29.5507 31.961Z" fill="#2595ED"/>
<path d="M19.7889 31.9625C19.0976 31.9625 18.4084 31.9494 17.7193 31.9625C16.901 31.9778 16.5138 31.5555 16.4985 30.7723C16.4832 29.9366 16.4853 29.1008 16.4985 28.2651C16.5094 27.4928 16.8616 27.0443 17.6908 27.0509C19.1085 27.0509 20.535 27.0509 21.9417 27.0509C22.6943 27.0509 23.0816 27.4119 23.075 28.182C23.075 29.0571 23.0597 29.9322 23.075 30.8073C23.0903 31.6824 22.6375 31.9778 21.8586 31.9712C21.1694 31.9581 20.4781 31.9625 19.7889 31.9625Z" fill="#2595ED"/>
</svg>
