<svg width="40" height="40" viewBox="0 0 40 40" fill="none" xmlns="http://www.w3.org/2000/svg">
<path d="M18.8576 40.0002C18.817 39.2269 18.5769 38.4002 18.7726 37.6891C19.28 35.8674 19.8928 34.0744 20.6081 32.3186C20.8149 31.7995 21.3726 31.316 21.9007 31.028C23.485 30.1604 25.1322 29.3978 27.0249 28.4609C27.5142 28.9818 28.2104 29.6894 28.8585 30.436C29.0055 30.6443 29.0673 30.8976 29.0321 31.1471C28.8253 32.6706 28.6498 34.2012 28.3267 35.7034C28.0571 36.9567 28.142 38.0287 29.3312 38.8767C30.0311 38.1496 30.6884 37.4758 30.3634 36.2367C29.9738 34.7559 29.876 33.2057 29.6045 31.6929C29.4789 30.9906 29.6156 30.4627 30.1991 29.972C30.7826 29.4814 31.2775 28.8538 31.6265 28.4823C33.4952 29.4031 35.1349 30.1764 36.7322 31.0226C37.1883 31.2644 37.7275 31.6466 37.8844 32.0786C38.6526 34.1888 39.3432 36.3274 39.9655 38.4785C40.0948 38.9282 39.8215 39.4846 39.7347 39.9913L18.8576 40.0002Z" fill="#ED1C24"/>
<path d="M11.8397 0C12.1961 0.0764424 12.5543 0.147552 12.907 0.231106C14.9714 0.716426 16.1643 1.95906 16.4782 4.02834C16.8623 6.56516 16.5096 9.00598 15.0102 11.1553C12.9217 14.1614 8.75224 14.2076 6.65825 11.2121C4.98158 8.81754 4.62704 6.11184 5.31026 3.31902C5.76267 1.48085 7.13835 0.531541 9.00336 0.177773C9.27296 0.127997 9.53702 0.0604428 9.80292 0H11.8397Z" fill="#ED1C24"/>
<path d="M8.5026 13.6309C8.98271 14.1286 9.72132 14.7704 10.2827 15.5348C10.5338 15.8744 10.5264 16.4681 10.4673 16.9268C10.2827 18.3614 10.1276 19.8103 9.77672 21.2093C9.47389 22.4182 9.92075 23.2502 10.8163 24.0537C11.4866 23.3106 12.1772 22.6937 11.8799 21.4795C11.4811 19.8494 11.3094 18.1623 11.1173 16.4912C11.1046 16.0777 11.2461 15.6735 11.5162 15.3517C12.0701 14.6833 12.7257 14.0948 13.1578 13.6558C14.9895 14.5588 16.6773 15.3641 18.3281 16.2281C18.738 16.4415 19.2274 16.781 19.3622 17.1668C20.1359 19.364 20.8708 21.5791 21.4986 23.8208C21.7922 24.8643 21.4746 25.1097 20.3242 25.1114C13.9573 25.1114 7.59164 25.1114 1.2272 25.1114C0.150658 25.1114 -0.185417 24.8359 0.0934118 23.8493C0.721239 21.6378 1.43585 19.4476 2.21141 17.2717C2.36836 16.8361 2.89832 16.445 3.35442 16.205C4.98123 15.3499 6.64313 14.5571 8.5026 13.6309Z" fill="#ED1C24"/>
<path d="M35.0906 20.426C35.0186 22.49 34.6788 24.4864 33.3641 26.2072C31.2812 28.9289 27.2982 28.9698 25.2744 26.2072C23.4777 23.7504 23.0973 20.9771 23.8304 18.0812C24.22 16.5417 25.3076 15.491 26.8864 15.1942C28.2373 14.9235 29.625 14.8664 30.995 15.0253C33.5598 15.3808 34.8727 16.9612 35.0888 19.5407C35.1128 19.8323 35.0906 20.1309 35.0906 20.426Z" fill="#ED1C24"/>
<path d="M29.181 8.80431C27.7037 6.0435 25.3623 4.20888 22.1641 3.40357C21.3905 3.22048 20.6 3.11151 19.8042 3.07824C19.084 3.03735 18.5338 2.79381 18.5744 2.07383C18.615 1.35384 19.2077 1.18496 19.9187 1.20807C24.849 1.41606 28.4645 3.66134 30.8429 7.77145C31.1974 8.38654 31.4688 8.66032 32.2333 8.43455C32.9608 8.21233 33.3412 8.65143 33.116 9.3643C32.7374 10.5145 32.3349 11.6594 31.8991 12.7918C31.5889 13.5971 31.0921 13.6557 30.4735 12.9873C29.7977 12.2584 29.1163 11.5349 28.4904 10.7669C28.2097 10.4238 27.8311 9.91717 27.9216 9.59718C28.0121 9.27719 28.6455 9.11719 29.181 8.80431Z" fill="#ED1C24"/>
<path d="M3.85877 31.6526C3.73256 31.6835 3.6042 31.7055 3.47469 31.7184C3.03521 31.706 2.59573 31.6846 2.15625 31.6686C2.17656 31.2509 2.11193 30.81 2.23196 30.4242C2.54587 29.4092 2.91888 28.4083 3.31034 27.4181C3.59471 26.6946 4.07297 26.6074 4.61401 27.1817C5.40064 28.0136 6.15772 28.8705 6.90558 29.7327C7.65343 30.5949 7.55926 30.89 6.38301 31.1869C6.26667 31.2171 6.15403 31.2669 5.95276 31.338C7.25642 33.8908 9.27655 35.6312 12.015 36.5574C13.0398 36.913 14.1625 37.0214 15.252 37.1369C15.9758 37.2134 16.5446 37.3734 16.6203 38.1431C16.6757 38.7565 16.0534 39.1404 15.1301 39.0782C10.2811 38.7547 6.65999 36.5556 4.29271 32.4615C4.14499 32.2073 4.01573 31.946 3.85877 31.6526Z" fill="#ED1C24"/>
</svg>
