<svg width="40" height="40" viewBox="0 0 40 40" fill="none" xmlns="http://www.w3.org/2000/svg">
<path d="M31.5644 3.56382C32.2502 2.75654 32.877 1.92303 33.6088 1.19451C35.2168 -0.360968 37.4449 -0.387196 38.8888 1.05671C40.3327 2.50061 40.3688 4.6665 38.8494 6.33684C38.1209 7.14083 37.3497 7.9054 36.6146 8.67001C43.1942 19.2991 39.4401 30.6568 31.7185 36.1994C27.8494 38.9938 23.1094 40.3138 18.3529 39.9215C13.5964 39.5292 9.13647 37.4503 5.77751 34.0598C2.38212 30.6192 0.344367 26.0675 0.039836 21.2433C-0.264695 16.419 1.18457 11.6472 4.12037 7.80699C9.86645 0.249458 21.1322 -2.96329 31.5644 3.56382ZM19.9541 18.2129C17.3748 15.5877 14.9103 13.0411 12.4064 10.5339C11.609 9.73651 10.818 9.70046 10.2766 10.3338C9.65307 11.0656 9.88931 11.758 10.4898 12.3651C13.2595 15.1479 16.0292 17.9439 18.8284 20.6938C19.7178 21.5667 20.2624 21.5273 21.2108 20.6446C22.0082 19.8996 22.763 19.1088 23.5342 18.3475L36.3948 5.50001C36.6278 5.26702 36.851 5.02741 37.0774 4.79113C37.6845 4.16107 37.8978 3.43586 37.2349 2.77298C36.572 2.1101 35.8436 2.27743 35.2135 2.90421C33.82 4.28905 32.4295 5.67832 31.0425 7.07191C27.3868 10.7342 23.7312 14.4096 19.9541 18.2129ZM18.7333 4.58443C18.7333 4.91259 18.7333 5.24075 18.7333 5.56891C18.7206 5.7337 18.743 5.8993 18.799 6.05482C18.8549 6.21035 18.9431 6.35226 19.0577 6.47127C19.1724 6.59029 19.3109 6.6837 19.4643 6.74535C19.6176 6.80701 19.7824 6.83558 19.9475 6.82908C20.1117 6.84816 20.278 6.83318 20.4362 6.78517C20.5944 6.73717 20.741 6.65716 20.867 6.55003C20.9929 6.4429 21.0953 6.31097 21.168 6.1625C21.2407 6.01404 21.2822 5.85223 21.2896 5.68709C21.3338 5.36071 21.3578 5.03193 21.3618 4.7026C21.3946 3.08806 20.968 2.36607 19.9868 2.36935C19.0056 2.37263 18.7136 2.96988 18.7333 4.58443ZM4.64209 18.6953V18.715H3.82826C2.99801 18.715 2.44996 19.0694 2.4073 19.9292C2.36464 20.789 2.93892 21.209 3.71994 21.3042C4.31438 21.3682 4.91404 21.3682 5.50848 21.3042C6.30263 21.2287 6.87029 20.7989 6.8506 19.9522C6.83091 19.1055 6.30914 18.692 5.46249 18.6887L4.64209 18.6953ZM35.3545 18.6527C35.0264 18.6822 34.4719 18.6002 34.065 18.8004C33.6581 19.0005 33.2544 19.4566 33.2544 19.8242C33.2544 20.2606 33.6153 21.022 33.9107 21.0811C34.8569 21.2554 35.8262 21.2643 36.7755 21.1073C37.1037 21.0515 37.5171 20.3033 37.4942 19.8964C37.4712 19.4894 36.9921 19.0432 36.6049 18.7806C36.3456 18.6067 35.873 18.6953 35.3545 18.6625V18.6527ZM18.7004 35.4971H18.743C18.743 35.7137 18.743 35.9303 18.743 36.1534C18.7201 36.9837 19.0713 37.5186 19.941 37.5612C20.8106 37.6039 21.2536 37.0822 21.3159 36.288C21.3602 35.6417 21.347 34.9926 21.2765 34.3485C21.2782 34.1843 21.2452 34.0215 21.1799 33.8708C21.1146 33.7201 21.0184 33.5848 20.8974 33.4737C20.7764 33.3627 20.6333 33.2782 20.4776 33.2259C20.3218 33.1737 20.1569 33.1549 19.9934 33.1705C19.1959 33.1705 18.812 33.6004 18.7628 34.3715C18.7398 34.7522 18.7201 35.1296 18.7004 35.507V35.4971Z" fill="#ED1C24"/>
</svg>
