<svg width="39" height="40" viewBox="0 0 39 40" fill="none" xmlns="http://www.w3.org/2000/svg">
<path d="M38.0259 30.7657H22.2099V29.5576C22.2099 29.0708 22.2156 28.5833 22.2099 28.0965C22.1985 27.3559 21.6889 26.8477 20.952 26.8349C20.632 26.8292 20.3106 26.8491 19.9913 26.8206C19.9297 26.8087 19.8714 26.7834 19.8207 26.7464C19.7699 26.7095 19.728 26.6618 19.6977 26.6068C19.4661 26.1 19.253 25.5854 19.0563 25.0651C19.0404 25.0097 19.037 24.9515 19.0464 24.8947C19.0557 24.8379 19.0776 24.7838 19.1105 24.7365C19.3278 24.4863 19.5801 24.2668 19.8089 24.0237C20.3078 23.4992 20.3078 22.7821 19.801 22.2654C19.1197 21.5707 18.4308 20.8817 17.7343 20.1984C17.2104 19.6859 16.5156 19.6873 15.9789 20.1834C15.6846 20.4564 15.4259 20.8962 15.0916 20.961C14.778 21.0223 14.3875 20.6916 14.029 20.5369C13.7489 20.4158 13.2821 20.358 13.2237 20.1713C13.0961 19.7579 13.1631 19.281 13.1766 18.8306C13.1766 18.7543 13.2999 18.6673 13.3826 18.6089C15.49 17.1264 17.8212 16.1969 20.3776 15.8919C24.9559 15.3445 29.0503 16.5333 32.5588 19.5269C35.751 22.2532 37.5476 25.7465 37.9753 29.9332C37.9945 30.1221 38.013 30.311 38.028 30.5034C38.0308 30.5797 38.0259 30.651 38.0259 30.7657Z" fill="#22B14C"/>
<path d="M9.00551 40.0001C9.00551 39.6644 9.00551 39.3366 9.00551 39.008C9.00052 38.2182 8.70903 37.8426 7.97354 37.5825C7.47096 37.4048 6.97866 37.1992 6.49898 36.9666C5.8483 36.6523 5.3537 36.7043 4.8484 37.2118C4.59754 37.4634 4.36591 37.735 4.13144 37.9909L2.00551 35.8455C2.22858 35.6473 2.49156 35.4313 2.73601 35.1961C3.29975 34.653 3.35533 34.169 3.0111 33.4641C2.78078 32.9831 2.57758 32.4896 2.40246 31.9859C2.15658 31.2945 1.76533 30.9951 1.02271 30.9916C0.691312 30.9916 0.359194 30.9916 0 30.9916V28.0799C0.339239 28.0799 0.689887 28.0799 1.04053 28.0799C1.77317 28.0799 2.15944 27.7713 2.40746 27.0728C2.59113 26.5596 2.80118 26.0562 3.03676 25.5646C3.3425 24.9231 3.28833 24.4449 2.79444 23.9445C2.545 23.6915 2.28559 23.4456 2.04043 23.2096L4.17849 21.1205C4.3645 21.328 4.58828 21.6031 4.83772 21.8533C5.35086 22.3693 5.83547 22.4235 6.48402 22.117C6.97577 21.8839 7.48179 21.6758 7.99278 21.4905C8.71331 21.2296 9.00693 20.849 9.00693 20.087V19.0742H11.9097C11.9097 19.4527 11.9004 19.8069 11.9097 20.1605C11.9318 20.8732 12.2197 21.2296 12.8925 21.4784C13.4356 21.6808 13.9708 21.906 14.4968 22.1519C15.0469 22.4071 15.5658 22.3501 16.0005 21.9224C16.2706 21.6573 16.5222 21.3736 16.7702 21.1113L18.8598 23.226C18.6417 23.4349 18.3802 23.6737 18.1322 23.9253C17.6383 24.4242 17.5763 24.9231 17.8677 25.5475C18.1072 26.0628 18.3225 26.5903 18.5213 27.1227C18.7672 27.7813 19.1563 28.0757 19.854 28.0799C20.1968 28.0799 20.5396 28.0799 20.9109 28.0799V30.993C20.5696 30.993 20.2182 30.993 19.8668 30.993C19.1541 30.998 18.7543 31.3073 18.5127 31.9759C18.3196 32.5097 18.1008 33.0365 17.8606 33.5511C17.5891 34.1327 17.6468 34.6609 18.0944 35.1192C18.351 35.38 18.6275 35.6224 18.8848 35.864L16.7845 37.931C16.5842 37.7329 16.3348 37.4877 16.0875 37.2396C15.5665 36.7172 15.1118 36.653 14.4483 36.9545C13.9102 37.2004 13.3586 37.4199 12.8034 37.6252C12.2482 37.8305 11.9282 38.2553 11.909 38.9039C11.8983 39.2603 11.909 39.6167 11.909 39.9994L9.00551 40.0001ZM10.4622 34.9217C13.4405 34.916 15.8623 32.4891 15.8501 29.524C15.838 26.5717 13.4106 24.1469 10.4687 24.1476C7.4825 24.1476 5.04439 26.5938 5.06007 29.5717C5.07575 32.5197 7.50744 34.9274 10.4622 34.9217Z" fill="#22B14C"/>
<path d="M29.6336 7.27238C29.6236 11.2638 26.3552 14.5297 22.3984 14.5097C18.3817 14.4891 15.1425 11.2453 15.1489 7.24885C15.1493 6.29379 15.3383 5.34821 15.7051 4.4664C16.0719 3.58459 16.6092 2.78393 17.2863 2.11039C17.9633 1.43685 18.7667 0.903696 19.6504 0.541548C20.534 0.179401 21.4805 -0.00460613 22.4354 8.75833e-05C26.4094 0.00935346 29.6407 3.27522 29.6336 7.27238Z" fill="#22B14C"/>
<path d="M10.575 33.6704C8.40345 33.7965 6.44569 31.9833 6.32952 29.7388C6.21549 27.5356 7.95445 25.5777 10.1068 25.4244C12.4843 25.2541 14.4313 27.0225 14.5724 29.2548C14.7242 31.629 12.9903 33.5292 10.575 33.6704Z" fill="#22B14C"/>
</svg>
