<svg width="41" height="40" viewBox="0 0 41 40" fill="none" xmlns="http://www.w3.org/2000/svg">
<path d="M38.8992 21.0919V22.7593C38.9071 23.1494 38.7779 23.5298 38.5342 23.8345C38.2905 24.1391 37.9476 24.3487 37.5653 24.4266L35.4978 24.8435C35.1041 26.5028 34.4394 28.0858 33.5304 29.5287L34.7142 31.2961C34.9154 31.6109 35.0051 31.9842 34.9689 32.3561C34.9326 32.728 34.7724 33.077 34.5141 33.3469L32.2298 35.6312C31.9564 35.9017 31.598 36.0695 31.2151 36.1059C30.8322 36.1424 30.4485 36.0454 30.129 35.8313L28.3449 34.6308C26.9125 35.5674 25.335 36.2603 23.6763 36.6816L23.3429 38.6658C23.2649 39.0481 23.0554 39.3909 22.7507 39.6346C22.4461 39.8784 22.0656 40.0075 21.6755 39.9997H18.3408C17.9508 40.0075 17.5703 39.8784 17.2656 39.6346C16.961 39.3909 16.7514 39.0481 16.6735 38.6658L16.34 36.6816C14.6813 36.2603 13.1038 35.5674 11.6714 34.6308L9.90404 35.8146C9.58452 36.0287 9.20081 36.1257 8.81793 36.0892C8.43506 36.0528 8.07656 35.8851 7.80318 35.6145L5.50225 33.3469C5.23171 33.0736 5.064 32.7151 5.02754 32.3322C4.99107 31.9493 5.08809 31.5656 5.30216 31.2461L6.48598 29.4787C5.57698 28.0358 4.91223 26.4528 4.51851 24.7935L2.451 24.3766C2.06872 24.2987 1.72588 24.0891 1.48215 23.7845C1.23843 23.4798 1.10926 23.0993 1.11712 22.7093V21.0419H12.0549C12.0549 23.1513 12.8929 25.1742 14.3844 26.6657C15.8759 28.1572 17.8988 28.9952 20.0082 28.9952C22.1175 28.9952 24.1404 28.1572 25.632 26.6657C27.1235 25.1742 27.9614 23.1513 27.9614 21.0419L38.8992 21.0919ZM28.6284 6.35259C28.6284 7.37851 29.0359 8.36242 29.7613 9.08785C30.4868 9.81329 31.4707 10.2208 32.4966 10.2208C33.5225 10.2208 34.5064 9.81329 35.2319 9.08785C35.9573 8.36242 36.3648 7.37851 36.3648 6.35259C36.3648 5.32667 35.9573 4.34277 35.2319 3.61733C34.5064 2.89189 33.5225 2.48435 32.4966 2.48435C31.4707 2.48435 30.4868 2.89189 29.7613 3.61733C29.0359 4.34277 28.6284 5.32667 28.6284 6.35259ZM3.66816 6.35259C3.66816 7.37851 4.07571 8.36242 4.80115 9.08785C5.52658 9.81329 6.51049 10.2208 7.53641 10.2208C8.56233 10.2208 9.54624 9.81329 10.2717 9.08785C10.9971 8.36242 11.4047 7.37851 11.4047 6.35259C11.4047 5.32667 10.9971 4.34277 10.2717 3.61733C9.54624 2.89189 8.56233 2.48435 7.53641 2.48435C6.51049 2.48435 5.52658 2.89189 4.80115 3.61733C4.07571 4.34277 3.66816 5.32667 3.66816 6.35259ZM11.338 14.6727C10.7397 14.2922 10.0953 13.9897 9.42051 13.7723C7.63293 13.2699 5.7278 13.3889 4.0166 14.1097C2.3054 14.8306 0.889361 16.1106 0 17.7406H9.5539C10.048 16.6627 10.6455 15.6352 11.338 14.6727ZM30.3124 17.7906H40.0163C39.1315 16.1511 37.7149 14.8616 35.9997 14.1343C34.2845 13.407 32.3728 13.2852 30.5791 13.789C29.8919 14.0089 29.2362 14.3172 28.6284 14.706C29.2829 15.6805 29.8466 16.713 30.3124 17.7906ZM28.4616 17.7906C27.7959 16.0619 26.6428 14.5636 25.1423 13.4775C23.6418 12.3913 21.8583 11.7639 20.0082 11.6714C18.1428 11.7536 16.3418 12.3778 14.8256 13.4675C13.3094 14.5573 12.1438 16.0654 11.4713 17.8073L28.4616 17.7906ZM14.9895 4.85198C14.9895 6.13881 15.5006 7.37293 16.4106 8.28285C17.3205 9.19277 18.5546 9.70396 19.8414 9.70396C21.1283 9.70396 22.3624 9.19277 23.2723 8.28285C24.1822 7.37293 24.6934 6.13881 24.6934 4.85198C24.6934 3.56516 24.1822 2.33103 23.2723 1.42111C22.3624 0.511189 21.1283 0 19.8414 0C18.5546 0 17.3205 0.511189 16.4106 1.42111C15.5006 2.33103 14.9895 3.56516 14.9895 4.85198Z" fill="#FF7F27"/>
</svg>
