<svg width="39" height="40" viewBox="0 0 39 40" fill="none" xmlns="http://www.w3.org/2000/svg">
<path d="M18.1543 40.0001C18.1152 39.2268 17.8841 38.4002 18.0726 37.6891C18.561 35.8674 19.1509 34.0744 19.8396 32.3186C20.0386 31.7995 20.5755 31.316 21.0839 31.028C22.6092 30.1604 24.1948 29.3978 26.0169 28.4609C26.488 28.9818 27.1582 29.6893 27.7822 30.436C27.9237 30.6443 27.9832 30.8975 27.9493 31.1471C27.7502 32.6706 27.5813 34.2012 27.2702 35.7034C27.0106 36.9567 27.0924 38.0286 28.2372 38.8766C28.911 38.1495 29.5438 37.4758 29.231 36.2367C28.8559 34.7558 28.7616 33.2057 28.5003 31.6928C28.3795 30.9906 28.511 30.4626 29.0727 29.972C29.6345 29.4813 30.1109 28.8538 30.4469 28.4823C32.2459 29.4031 33.8244 30.1764 35.3621 31.0226C35.8012 31.2644 36.3203 31.6466 36.4714 32.0786C37.2109 34.1888 37.8757 36.3273 38.4748 38.4784C38.5992 38.9282 38.3361 39.4846 38.2526 39.9912L18.1543 40.0001Z" fill="#2595ED"/>
<path d="M11.3978 0C11.7409 0.0764419 12.0858 0.147551 12.4253 0.231104C14.4127 0.716421 15.5611 1.95905 15.8633 4.02831C16.2331 6.56512 15.8935 9.00593 14.4501 11.1552C12.4395 14.1613 8.42557 14.2075 6.4097 11.2121C4.79558 8.81749 4.45426 6.1118 5.112 3.319C5.54753 1.48084 6.87189 0.531538 8.66733 0.177772C8.92687 0.127996 9.18108 0.0604425 9.43706 0H11.3978Z" fill="#2595ED"/>
<path d="M8.18541 13.6309C8.64761 14.1286 9.35867 14.7704 9.89908 15.5348C10.1408 15.8743 10.1337 16.4681 10.0768 16.9268C9.89908 18.3614 9.74976 19.8102 9.412 21.2093C9.12046 22.4181 9.55066 23.2501 10.4128 24.0536C11.0581 23.3105 11.723 22.6937 11.4368 21.4795C11.0528 19.8493 10.8875 18.1623 10.7026 16.4912C10.6903 16.0777 10.8266 15.6735 11.0866 15.3517C11.6199 14.6833 12.2509 14.0948 12.6669 13.6558C14.4303 14.5588 16.0551 15.3641 17.6444 16.2281C18.039 16.4414 18.5101 16.781 18.6399 17.1667C19.3847 19.364 20.0922 21.579 20.6966 23.8207C20.9793 24.8643 20.6735 25.1096 19.566 25.1114C13.4366 25.1114 7.30843 25.1114 1.18142 25.1114C0.145037 25.1114 -0.1785 24.8358 0.0899271 23.8492C0.694333 21.6377 1.38229 19.4476 2.12891 17.2716C2.28001 16.8361 2.7902 16.445 3.22928 16.205C4.79541 15.3499 6.3953 14.5571 8.18541 13.6309Z" fill="#2595ED"/>
<path d="M33.7815 20.426C33.7121 22.4899 33.385 24.4863 32.1193 26.2071C30.1141 28.9288 26.2797 28.9697 24.3314 26.2071C22.6017 23.7503 22.2355 20.9771 22.9413 18.0812C23.3163 16.5417 24.3634 15.491 25.8833 15.1942C27.1838 14.9235 28.5197 14.8664 29.8386 15.0253C32.3078 15.3808 33.5717 16.9612 33.7797 19.5407C33.8028 19.8322 33.7815 20.1309 33.7815 20.426Z" fill="#2595ED"/>
<path d="M28.0918 8.80329C26.6697 6.04249 24.4156 4.20788 21.3367 3.40258C20.592 3.21949 19.831 3.11052 19.0649 3.07725C18.3716 3.03637 17.8418 2.79282 17.8809 2.07284C17.92 1.35287 18.4907 1.18398 19.1751 1.20709C23.9214 1.41509 27.4021 3.66034 29.6917 7.77043C30.0331 8.38552 30.2944 8.65929 31.0303 8.43352C31.7307 8.21131 32.0969 8.65041 31.88 9.36327C31.5156 10.5135 31.1281 11.6583 30.7086 12.7907C30.4099 13.596 29.9317 13.6547 29.3362 12.9863C28.6856 12.2574 28.0296 11.5339 27.427 10.7659C27.1568 10.4228 26.7924 9.91614 26.8795 9.59615C26.9666 9.27616 27.5763 9.11616 28.0918 8.80329Z" fill="#2595ED"/>
<path d="M3.71469 31.6526C3.59319 31.6834 3.46962 31.7054 3.34494 31.7184C2.92185 31.706 2.49877 31.6846 2.07568 31.6686C2.09524 31.2509 2.03302 30.81 2.14857 30.4242C2.45077 29.4091 2.80986 28.4083 3.18672 27.4181C3.46048 26.6946 3.9209 26.6074 4.44175 27.1817C5.19904 28.0136 5.92788 28.8705 6.64784 29.7327C7.36779 30.5949 7.27713 30.89 6.14476 31.1869C6.03277 31.2171 5.92433 31.2669 5.73056 31.338C6.98559 33.8908 8.93036 35.6312 11.5666 36.5573C12.5532 36.9129 13.6341 37.0213 14.6829 37.1369C15.3797 37.2133 15.9272 37.3733 16.0001 38.1431C16.0535 38.7564 15.4544 39.1404 14.5656 39.0782C9.89741 38.7546 6.41141 36.5556 4.13244 32.4615C3.99023 32.2073 3.86579 31.9459 3.71469 31.6526Z" fill="#2595ED"/>
<path d="M18.1543 40.0001C18.1152 39.2268 17.8841 38.4002 18.0726 37.6891C18.561 35.8674 19.1509 34.0744 19.8396 32.3186C20.0386 31.7995 20.5755 31.316 21.0839 31.028C22.6092 30.1604 24.1948 29.3978 26.0169 28.4609C26.488 28.9818 27.1582 29.6893 27.7822 30.436C27.9237 30.6443 27.9832 30.8975 27.9493 31.1471C27.7502 32.6706 27.5813 34.2012 27.2702 35.7034C27.0106 36.9567 27.0924 38.0286 28.2372 38.8766C28.911 38.1495 29.5438 37.4758 29.231 36.2367C28.8559 34.7558 28.7616 33.2057 28.5003 31.6928C28.3795 30.9906 28.511 30.4626 29.0727 29.972C29.6345 29.4813 30.1109 28.8538 30.4469 28.4823C32.2459 29.4031 33.8244 30.1764 35.3621 31.0226C35.8012 31.2644 36.3203 31.6466 36.4714 32.0786C37.2109 34.1888 37.8757 36.3273 38.4748 38.4784C38.5992 38.9282 38.3361 39.4846 38.2526 39.9912L18.1543 40.0001Z" fill="#2595ED"/>
<path d="M11.3978 0C11.7409 0.0764419 12.0858 0.147551 12.4253 0.231104C14.4127 0.716421 15.5611 1.95905 15.8633 4.02831C16.2331 6.56512 15.8935 9.00593 14.4501 11.1552C12.4395 14.1613 8.42557 14.2075 6.4097 11.2121C4.79558 8.81749 4.45426 6.1118 5.112 3.319C5.54753 1.48084 6.87189 0.531538 8.66733 0.177772C8.92687 0.127996 9.18108 0.0604425 9.43706 0H11.3978Z" fill="#2595ED"/>
<path d="M8.18541 13.6309C8.64761 14.1286 9.35867 14.7704 9.89908 15.5348C10.1408 15.8743 10.1337 16.4681 10.0768 16.9268C9.89908 18.3614 9.74976 19.8102 9.412 21.2093C9.12046 22.4181 9.55066 23.2501 10.4128 24.0536C11.0581 23.3105 11.723 22.6937 11.4368 21.4795C11.0528 19.8493 10.8875 18.1623 10.7026 16.4912C10.6903 16.0777 10.8266 15.6735 11.0866 15.3517C11.6199 14.6833 12.2509 14.0948 12.6669 13.6558C14.4303 14.5588 16.0551 15.3641 17.6444 16.2281C18.039 16.4414 18.5101 16.781 18.6399 17.1667C19.3847 19.364 20.0922 21.579 20.6966 23.8207C20.9793 24.8643 20.6735 25.1096 19.566 25.1114C13.4366 25.1114 7.30843 25.1114 1.18142 25.1114C0.145037 25.1114 -0.1785 24.8358 0.0899271 23.8492C0.694333 21.6377 1.38229 19.4476 2.12891 17.2716C2.28001 16.8361 2.7902 16.445 3.22928 16.205C4.79541 15.3499 6.3953 14.5571 8.18541 13.6309Z" fill="#2595ED"/>
<path d="M33.7815 20.426C33.7121 22.4899 33.385 24.4863 32.1193 26.2071C30.1141 28.9288 26.2797 28.9697 24.3314 26.2071C22.6017 23.7503 22.2355 20.9771 22.9413 18.0812C23.3163 16.5417 24.3634 15.491 25.8833 15.1942C27.1838 14.9235 28.5197 14.8664 29.8386 15.0253C32.3078 15.3808 33.5717 16.9612 33.7797 19.5407C33.8028 19.8322 33.7815 20.1309 33.7815 20.426Z" fill="#2595ED"/>
<path d="M28.0918 8.80329C26.6697 6.04249 24.4156 4.20788 21.3367 3.40258C20.592 3.21949 19.831 3.11052 19.0649 3.07725C18.3716 3.03637 17.8418 2.79282 17.8809 2.07284C17.92 1.35287 18.4907 1.18398 19.1751 1.20709C23.9214 1.41509 27.4021 3.66034 29.6917 7.77043C30.0331 8.38552 30.2944 8.65929 31.0303 8.43352C31.7307 8.21131 32.0969 8.65041 31.88 9.36327C31.5156 10.5135 31.1281 11.6583 30.7086 12.7907C30.4099 13.596 29.9317 13.6547 29.3362 12.9863C28.6856 12.2574 28.0296 11.5339 27.427 10.7659C27.1568 10.4228 26.7924 9.91614 26.8795 9.59615C26.9666 9.27616 27.5763 9.11616 28.0918 8.80329Z" fill="#2595ED"/>
<path d="M3.71469 31.6526C3.59319 31.6834 3.46962 31.7054 3.34494 31.7184C2.92185 31.706 2.49877 31.6846 2.07568 31.6686C2.09524 31.2509 2.03302 30.81 2.14857 30.4242C2.45077 29.4091 2.80986 28.4083 3.18672 27.4181C3.46048 26.6946 3.9209 26.6074 4.44175 27.1817C5.19904 28.0136 5.92788 28.8705 6.64784 29.7327C7.36779 30.5949 7.27713 30.89 6.14476 31.1869C6.03277 31.2171 5.92433 31.2669 5.73056 31.338C6.98559 33.8908 8.93036 35.6312 11.5666 36.5573C12.5532 36.9129 13.6341 37.0213 14.6829 37.1369C15.3797 37.2133 15.9272 37.3733 16.0001 38.1431C16.0535 38.7564 15.4544 39.1404 14.5656 39.0782C9.89741 38.7546 6.41141 36.5556 4.13244 32.4615C3.99023 32.2073 3.86579 31.9459 3.71469 31.6526Z" fill="#2595ED"/>
</svg>
